G04 #@! TF.GenerationSoftware,KiCad,Pcbnew,8.0.1*
G04 #@! TF.CreationDate,2024-04-01T00:03:47+00:00*
G04 #@! TF.ProjectId,SplitSync,53706c69-7453-4796-9e63-2e6b69636164,rev?*
G04 #@! TF.SameCoordinates,Original*
G04 #@! TF.FileFunction,Paste,Bot*
G04 #@! TF.FilePolarity,Positive*
%FSLAX46Y46*%
G04 Gerber Fmt 4.6, Leading zero omitted, Abs format (unit mm)*
G04 Created by KiCad (PCBNEW 8.0.1) date 2024-04-01 00:03:47*
%MOMM*%
%LPD*%
G01*
G04 APERTURE LIST*
G04 Aperture macros list*
%AMRoundRect*
0 Rectangle with rounded corners*
0 $1 Rounding radius*
0 $2 $3 $4 $5 $6 $7 $8 $9 X,Y pos of 4 corners*
0 Add a 4 corners polygon primitive as box body*
4,1,4,$2,$3,$4,$5,$6,$7,$8,$9,$2,$3,0*
0 Add four circle primitives for the rounded corners*
1,1,$1+$1,$2,$3*
1,1,$1+$1,$4,$5*
1,1,$1+$1,$6,$7*
1,1,$1+$1,$8,$9*
0 Add four rect primitives between the rounded corners*
20,1,$1+$1,$2,$3,$4,$5,0*
20,1,$1+$1,$4,$5,$6,$7,0*
20,1,$1+$1,$6,$7,$8,$9,0*
20,1,$1+$1,$8,$9,$2,$3,0*%
G04 Aperture macros list end*
%ADD10RoundRect,0.250000X-1.025000X-1.000000X1.025000X-1.000000X1.025000X1.000000X-1.025000X1.000000X0*%
%ADD11R,1.200000X0.900000*%
G04 APERTURE END LIST*
D10*
X424431250Y-152300000D03*
X437358250Y-149760000D03*
X442120750Y-225960000D03*
X429193750Y-228500000D03*
X415927000Y-225960000D03*
X403000000Y-228500000D03*
X392114500Y-225960000D03*
X379187500Y-228500000D03*
X368302000Y-225960000D03*
X355375000Y-228500000D03*
X327820750Y-225960000D03*
X314893750Y-228500000D03*
X246158500Y-225960000D03*
X233231500Y-228500000D03*
X205677250Y-225960000D03*
X192750250Y-228500000D03*
X181864750Y-225960000D03*
X168937750Y-228500000D03*
X158052250Y-225960000D03*
X145125250Y-228500000D03*
X430214500Y-206910000D03*
X417287500Y-209450000D03*
X167577250Y-206910000D03*
X154650250Y-209450000D03*
X434977000Y-187860000D03*
X422050000Y-190400000D03*
X162814750Y-187860000D03*
X149887750Y-190400000D03*
X442120750Y-168810000D03*
X429193750Y-171350000D03*
X160433500Y-168810000D03*
X147506500Y-171350000D03*
X494508250Y-225960000D03*
X481581250Y-228500000D03*
X475458250Y-225960000D03*
X462531250Y-228500000D03*
X127096000Y-225960000D03*
X114169000Y-228500000D03*
X108046000Y-225960000D03*
X95119000Y-228500000D03*
X499270750Y-206910000D03*
X486343750Y-209450000D03*
X480220750Y-206910000D03*
X467293750Y-209450000D03*
X394495750Y-206910000D03*
X381568750Y-209450000D03*
X375445750Y-206910000D03*
X362518750Y-209450000D03*
X356395750Y-206910000D03*
X343468750Y-209450000D03*
X337345750Y-206910000D03*
X324418750Y-209450000D03*
X318295750Y-206910000D03*
X305368750Y-209450000D03*
X274733500Y-206910000D03*
X261806500Y-209450000D03*
X255683500Y-206910000D03*
X242756500Y-209450000D03*
X236633500Y-206910000D03*
X223706500Y-209450000D03*
X217583500Y-206910000D03*
X204656500Y-209450000D03*
X198533500Y-206910000D03*
X185606500Y-209450000D03*
X122333500Y-206910000D03*
X109406500Y-209450000D03*
X103283500Y-206910000D03*
X90356500Y-209450000D03*
X504033250Y-187860000D03*
X491106250Y-190400000D03*
X484983250Y-187860000D03*
X472056250Y-190400000D03*
X404020750Y-187860000D03*
X391093750Y-190400000D03*
X384970750Y-187860000D03*
X372043750Y-190400000D03*
X365920750Y-187860000D03*
X352993750Y-190400000D03*
X346870750Y-187860000D03*
X333943750Y-190400000D03*
X327820750Y-187860000D03*
X314893750Y-190400000D03*
X308770750Y-187860000D03*
X295843750Y-190400000D03*
X265208500Y-187860000D03*
X252281500Y-190400000D03*
X246158500Y-187860000D03*
X233231500Y-190400000D03*
X227108500Y-187860000D03*
X214181500Y-190400000D03*
X208058500Y-187860000D03*
X195131500Y-190400000D03*
X189008500Y-187860000D03*
X176081500Y-190400000D03*
X117571000Y-187860000D03*
X104644000Y-190400000D03*
X98521000Y-187860000D03*
X85594000Y-190400000D03*
X499270750Y-168810000D03*
X486343750Y-171350000D03*
X480220750Y-168810000D03*
X467293750Y-171350000D03*
X418308250Y-168810000D03*
X405381250Y-171350000D03*
X399258250Y-168810000D03*
X386331250Y-171350000D03*
X380208250Y-168810000D03*
X367281250Y-171350000D03*
X361158250Y-168810000D03*
X348231250Y-171350000D03*
X342108250Y-168810000D03*
X329181250Y-171350000D03*
X323058250Y-168810000D03*
X310131250Y-171350000D03*
X279496000Y-168810000D03*
X266569000Y-171350000D03*
X260446000Y-168810000D03*
X247519000Y-171350000D03*
X241396000Y-168810000D03*
X228469000Y-171350000D03*
X222346000Y-168810000D03*
X209419000Y-171350000D03*
X203296000Y-168810000D03*
X190369000Y-171350000D03*
X184246000Y-168810000D03*
X171319000Y-171350000D03*
X122333500Y-168810000D03*
X109406500Y-171350000D03*
X103283500Y-168810000D03*
X90356500Y-171350000D03*
X494508250Y-149760000D03*
X481581250Y-152300000D03*
X475458250Y-149760000D03*
X462531250Y-152300000D03*
X408783250Y-149760000D03*
X395856250Y-152300000D03*
X389733250Y-149760000D03*
X376806250Y-152300000D03*
X370683250Y-149760000D03*
X357756250Y-152300000D03*
X351633250Y-149760000D03*
X338706250Y-152300000D03*
X332583250Y-149760000D03*
X319656250Y-152300000D03*
X313533250Y-149760000D03*
X300606250Y-152300000D03*
X269971000Y-149760000D03*
X257044000Y-152300000D03*
X250921000Y-149760000D03*
X237994000Y-152300000D03*
X231871000Y-149760000D03*
X218944000Y-152300000D03*
X212821000Y-149760000D03*
X199894000Y-152300000D03*
X193771000Y-149760000D03*
X180844000Y-152300000D03*
X174721000Y-149760000D03*
X161794000Y-152300000D03*
X155671000Y-149760000D03*
X142744000Y-152300000D03*
X127096000Y-149760000D03*
X114169000Y-152300000D03*
X108046000Y-149760000D03*
X95119000Y-152300000D03*
D11*
X401628750Y-179115000D03*
X401628750Y-182415000D03*
X158041500Y-160065000D03*
X158041500Y-163365000D03*
X344478750Y-179115000D03*
X344478750Y-182415000D03*
X105654000Y-179115000D03*
X105654000Y-182415000D03*
X373053750Y-160065000D03*
X373053750Y-163365000D03*
X124704000Y-217215000D03*
X124704000Y-220515000D03*
X363528750Y-179115000D03*
X363528750Y-182415000D03*
X110416500Y-160065000D03*
X110416500Y-163365000D03*
X449253750Y-217215000D03*
X449253750Y-220515000D03*
X210429000Y-198165000D03*
X210429000Y-201465000D03*
X420678750Y-236265000D03*
X420678750Y-239565000D03*
X248529000Y-198165000D03*
X248529000Y-201465000D03*
X281629000Y-179090000D03*
X281629000Y-182390000D03*
X406391250Y-198165000D03*
X406391250Y-201465000D03*
X110416500Y-236265000D03*
X110416500Y-239565000D03*
X196141500Y-160065000D03*
X196141500Y-163365000D03*
X449253750Y-198165000D03*
X449253750Y-201465000D03*
X349241250Y-236265000D03*
X349241250Y-239565000D03*
X186616500Y-236265000D03*
X186616500Y-239565000D03*
X234241500Y-160065000D03*
X234241500Y-163365000D03*
X243766500Y-179115000D03*
X243766500Y-182415000D03*
X210429000Y-236265000D03*
X210429000Y-239565000D03*
X478279000Y-163565000D03*
X478279000Y-160265000D03*
X167566500Y-179115000D03*
X167566500Y-182415000D03*
X377816250Y-217215000D03*
X377816250Y-220515000D03*
X339716250Y-217215000D03*
X339716250Y-220515000D03*
X124704000Y-179115000D03*
X124704000Y-182415000D03*
X172329000Y-198165000D03*
X172329000Y-201465000D03*
X258054000Y-217215000D03*
X258054000Y-220515000D03*
X396866250Y-217215000D03*
X396866250Y-220515000D03*
X272104000Y-160040000D03*
X272104000Y-163340000D03*
X229479000Y-198165000D03*
X229479000Y-201465000D03*
X497066750Y-163565000D03*
X497066750Y-160265000D03*
X411153750Y-160065000D03*
X411153750Y-163365000D03*
X349241250Y-198165000D03*
X349241250Y-201465000D03*
X191379000Y-198165000D03*
X191379000Y-201465000D03*
X482591250Y-179115000D03*
X482591250Y-182415000D03*
X177091500Y-160065000D03*
X177091500Y-163365000D03*
X119941500Y-198165000D03*
X119941500Y-201465000D03*
X449253750Y-236265000D03*
X449253750Y-239565000D03*
X129466500Y-160065000D03*
X129466500Y-163365000D03*
X354003750Y-160065000D03*
X354003750Y-163365000D03*
X420678750Y-179115000D03*
X420678750Y-182415000D03*
X239004000Y-217215000D03*
X239004000Y-220515000D03*
X262816500Y-179115000D03*
X262816500Y-182415000D03*
X477828750Y-236265000D03*
X477828750Y-239565000D03*
X387341250Y-198165000D03*
X387341250Y-201465000D03*
X215191500Y-160065000D03*
X215191500Y-163365000D03*
X496616500Y-236265000D03*
X496616500Y-239565000D03*
X253291500Y-160065000D03*
X253291500Y-163365000D03*
X320666250Y-217215000D03*
X320666250Y-220515000D03*
X368291250Y-198165000D03*
X368291250Y-201465000D03*
X200904000Y-217215000D03*
X200904000Y-220515000D03*
X334953750Y-160065000D03*
X334953750Y-163365000D03*
X449253750Y-160065000D03*
X449253750Y-163365000D03*
X487353750Y-198165000D03*
X487353750Y-201465000D03*
X482591250Y-217215000D03*
X482591250Y-220515000D03*
X162804000Y-236265000D03*
X162804000Y-239565000D03*
X129466500Y-236265000D03*
X129466500Y-239565000D03*
X501379000Y-217215000D03*
X501379000Y-220515000D03*
X325428750Y-179115000D03*
X325428750Y-182415000D03*
X396866250Y-236265000D03*
X396866250Y-239565000D03*
X224716500Y-179115000D03*
X224716500Y-182415000D03*
X358766250Y-217215000D03*
X358766250Y-220515000D03*
X311141250Y-198165000D03*
X311141250Y-201465000D03*
X449253750Y-179115000D03*
X449253750Y-182415000D03*
X100891500Y-198165000D03*
X100891500Y-201465000D03*
X181854000Y-217215000D03*
X181854000Y-220515000D03*
X382578750Y-179115000D03*
X382578750Y-182415000D03*
X501379000Y-179115000D03*
X501379000Y-182415000D03*
X330191250Y-198165000D03*
X330191250Y-201465000D03*
X105654000Y-217215000D03*
X105654000Y-220515000D03*
X186616500Y-179115000D03*
X186616500Y-182415000D03*
X392103750Y-160065000D03*
X392103750Y-163365000D03*
X267341500Y-198140000D03*
X267341500Y-201440000D03*
X219954000Y-217215000D03*
X219954000Y-220515000D03*
X315903750Y-160065000D03*
X315903750Y-163365000D03*
X205666500Y-179115000D03*
X205666500Y-182415000D03*
X267341500Y-236240000D03*
X267341500Y-239540000D03*
X506141500Y-198165000D03*
X506141500Y-201465000D03*
X276866500Y-217190000D03*
X276866500Y-220490000D03*
X373053750Y-236265000D03*
X373053750Y-239565000D03*
M02*
