%TF.GenerationSoftware,KiCad,Pcbnew,8.0.1*%
%TF.CreationDate,2024-04-01T00:03:29+00:00*%
%TF.ProjectId,SplitSync,53706c69-7453-4796-9e63-2e6b69636164,rev?*%
%TF.SameCoordinates,Original*%
%TF.FileFunction,Drillmap*%
%TF.FilePolarity,Positive*%
%FSLAX45Y45*%
G04 Gerber Fmt 4.5, Leading zero omitted, Abs format (unit mm)*
G04 Created by KiCad (PCBNEW 8.0.1) date 2024-04-01 00:03:29*
%MOMM*%
%LPD*%
G01*
G04 APERTURE LIST*
%ADD10C,0.100000*%
%ADD11C,0.050000*%
%ADD12C,0.200000*%
%ADD13C,0.175000*%
%ADD14C,0.220000*%
%ADD15C,0.304800*%
%ADD16C,0.398780*%
%ADD17C,0.400000*%
G04 APERTURE END LIST*
D10*
X26892584Y-24331185D02*
G75*
G02*
X26692585Y-24531505I-200004J-315D01*
G01*
X12234321Y-10265079D02*
G75*
G02*
X12375743Y-10206502I141419J-141421D01*
G01*
X27167820Y-10206500D02*
G75*
G02*
X27367820Y-10406580I0J-200000D01*
G01*
X8042900Y-14539343D02*
G75*
G02*
X8101477Y-14397920I200000J3D01*
G01*
X8242900Y-24531500D02*
G75*
G02*
X8042900Y-24331500I0J200000D01*
G01*
X29817859Y-10406459D02*
G75*
G02*
X30017859Y-10206499I200001J-41D01*
G01*
X50984321Y-14472921D02*
G75*
G02*
X51042898Y-14614343I-141421J-141419D01*
G01*
X46635057Y-10206500D02*
G75*
G02*
X46776480Y-10265077I3J-200000D01*
G01*
X29542688Y-24531500D02*
G75*
G02*
X29342690Y-24331712I2J200000D01*
G01*
X51042900Y-24331500D02*
G75*
G02*
X50842900Y-24531500I-200000J0D01*
G01*
X8242900Y-24531500D02*
X26692585Y-24531500D01*
X8042900Y-14539343D02*
X8042900Y-24331500D01*
X12234321Y-10265079D02*
X8101479Y-14397921D01*
X27167820Y-10206500D02*
X12375743Y-10206500D01*
X27365400Y-16436500D02*
X27367820Y-10406580D01*
X28317900Y-16436500D02*
X27365400Y-16436500D01*
X28317900Y-18341500D02*
X28317900Y-16436500D01*
X26889150Y-18341500D02*
X28317900Y-18341500D01*
X26889150Y-20246500D02*
X26889150Y-18341500D01*
X27841650Y-20246500D02*
X26889150Y-20246500D01*
X27841650Y-22151500D02*
X27841650Y-20246500D01*
X26889150Y-22151500D02*
X27841650Y-22151500D01*
X26892584Y-24331185D02*
X26889150Y-22151500D01*
X50842900Y-24531500D02*
X29542688Y-24531500D01*
X51042900Y-14614343D02*
X51042900Y-24331500D01*
X46776479Y-10265079D02*
X50984321Y-14472921D01*
X30017859Y-10206500D02*
X46635057Y-10206500D01*
X29816625Y-16436500D02*
X29817859Y-10406459D01*
X30769125Y-16436500D02*
X29816625Y-16436500D01*
X30769125Y-18341500D02*
X30769125Y-16436500D01*
X29340375Y-18341500D02*
X30769125Y-18341500D01*
X29340375Y-20246500D02*
X29340375Y-18341500D01*
X30292875Y-20246500D02*
X29340375Y-20246500D01*
X30292875Y-22151500D02*
X30292875Y-20246500D01*
X29340375Y-22151500D02*
X30292875Y-22151500D01*
X29342688Y-24331712D02*
X29340375Y-22151500D01*
D11*
X47064125Y-14181500D02*
X47064125Y-14181500D01*
X47164125Y-14081500D02*
X48764125Y-14081500D01*
X48764125Y-14281500D02*
X47164125Y-14281500D01*
X48864125Y-14181500D02*
X48864125Y-14181500D01*
X47064125Y-14181500D02*
G75*
G02*
X47164125Y-14081500I100000J0D01*
G01*
X47164125Y-14281500D02*
G75*
G02*
X47064125Y-14181500I0J100000D01*
G01*
X48764125Y-14081500D02*
G75*
G02*
X48864125Y-14181500I0J-100000D01*
G01*
X48864125Y-14181500D02*
G75*
G02*
X48764125Y-14281500I-100000J0D01*
G01*
X9880400Y-14181500D02*
X9880400Y-14181500D01*
X9980400Y-14081500D02*
X11580400Y-14081500D01*
X11580400Y-14281500D02*
X9980400Y-14281500D01*
X11680400Y-14181500D02*
X11680400Y-14181500D01*
X9880400Y-14181500D02*
G75*
G02*
X9980400Y-14081500I100000J0D01*
G01*
X9980400Y-14281500D02*
G75*
G02*
X9880400Y-14181500I0J100000D01*
G01*
X11580400Y-14081500D02*
G75*
G02*
X11680400Y-14181500I0J-100000D01*
G01*
X11680400Y-14181500D02*
G75*
G02*
X11580400Y-14281500I-100000J0D01*
G01*
X24630400Y-14245250D02*
X23030400Y-14245250D01*
X22930400Y-14145250D02*
X22930400Y-14145250D01*
X24730400Y-14145250D02*
X24730400Y-14145250D01*
X23030400Y-14045250D02*
X24630400Y-14045250D01*
X23030400Y-14245250D02*
G75*
G02*
X22930400Y-14145250I0J100000D01*
G01*
X22930400Y-14145250D02*
G75*
G02*
X23030400Y-14045250I100000J0D01*
G01*
X24730400Y-14145250D02*
G75*
G02*
X24630400Y-14245250I-100000J0D01*
G01*
X24630400Y-14045250D02*
G75*
G02*
X24730400Y-14145250I0J-100000D01*
G01*
X22741705Y-14241633D02*
X21141705Y-14241633D01*
X21041705Y-14141633D02*
X21041705Y-14141633D01*
X22841705Y-14141633D02*
X22841705Y-14141633D01*
X21141705Y-14041633D02*
X22741705Y-14041633D01*
X21141705Y-14241633D02*
G75*
G02*
X21041705Y-14141633I0J100000D01*
G01*
X21041705Y-14141633D02*
G75*
G02*
X21141705Y-14041633I100000J0D01*
G01*
X22841705Y-14141633D02*
G75*
G02*
X22741705Y-14241633I-100000J0D01*
G01*
X22741705Y-14041633D02*
G75*
G02*
X22841705Y-14141633I0J-100000D01*
G01*
X20822603Y-14244407D02*
X19222603Y-14244407D01*
X19122603Y-14144407D02*
X19122603Y-14144407D01*
X20922603Y-14144407D02*
X20922603Y-14144407D01*
X19222603Y-14044407D02*
X20822603Y-14044407D01*
X19222603Y-14244407D02*
G75*
G02*
X19122603Y-14144407I0J100000D01*
G01*
X19122603Y-14144407D02*
G75*
G02*
X19222603Y-14044407I100000J0D01*
G01*
X20922603Y-14144407D02*
G75*
G02*
X20822603Y-14244407I-100000J0D01*
G01*
X20822603Y-14044407D02*
G75*
G02*
X20922603Y-14144407I0J-100000D01*
G01*
X26541255Y-14242275D02*
X24941255Y-14242275D01*
X24841255Y-14142275D02*
X24841255Y-14142275D01*
X26641255Y-14142275D02*
X26641255Y-14142275D01*
X24941255Y-14042275D02*
X26541255Y-14042275D01*
X24941255Y-14242275D02*
G75*
G02*
X24841255Y-14142275I0J100000D01*
G01*
X24841255Y-14142275D02*
G75*
G02*
X24941255Y-14042275I100000J0D01*
G01*
X26641255Y-14142275D02*
G75*
G02*
X26541255Y-14242275I-100000J0D01*
G01*
X26541255Y-14042275D02*
G75*
G02*
X26641255Y-14142275I0J-100000D01*
G01*
X30805400Y-13992750D02*
X32405400Y-13992750D01*
X32505400Y-14092750D02*
X32505400Y-14092750D01*
X30705400Y-14092750D02*
X30705400Y-14092750D01*
X32405400Y-14192750D02*
X30805400Y-14192750D01*
X32405400Y-13992750D02*
G75*
G02*
X32505400Y-14092750I0J-100000D01*
G01*
X32505400Y-14092750D02*
G75*
G02*
X32405400Y-14192750I-100000J0D01*
G01*
X30705400Y-14092750D02*
G75*
G02*
X30805400Y-13992750I100000J0D01*
G01*
X30805400Y-14192750D02*
G75*
G02*
X30705400Y-14092750I0J100000D01*
G01*
X34626702Y-13988895D02*
X36226702Y-13988895D01*
X36326702Y-14088895D02*
X36326702Y-14088895D01*
X34526702Y-14088895D02*
X34526702Y-14088895D01*
X36226702Y-14188895D02*
X34626702Y-14188895D01*
X36226702Y-13988895D02*
G75*
G02*
X36326702Y-14088895I0J-100000D01*
G01*
X36326702Y-14088895D02*
G75*
G02*
X36226702Y-14188895I-100000J0D01*
G01*
X34526702Y-14088895D02*
G75*
G02*
X34626702Y-13988895I100000J0D01*
G01*
X34626702Y-14188895D02*
G75*
G02*
X34526702Y-14088895I0J100000D01*
G01*
X36515398Y-13992512D02*
X38115398Y-13992512D01*
X38215398Y-14092512D02*
X38215398Y-14092512D01*
X36415398Y-14092512D02*
X36415398Y-14092512D01*
X38115398Y-14192512D02*
X36515398Y-14192512D01*
X38115398Y-13992512D02*
G75*
G02*
X38215398Y-14092512I0J-100000D01*
G01*
X38215398Y-14092512D02*
G75*
G02*
X38115398Y-14192512I-100000J0D01*
G01*
X36415398Y-14092512D02*
G75*
G02*
X36515398Y-13992512I100000J0D01*
G01*
X36515398Y-14192512D02*
G75*
G02*
X36415398Y-14092512I0J100000D01*
G01*
X38434500Y-13989739D02*
X40034500Y-13989739D01*
X40134500Y-14089739D02*
X40134500Y-14089739D01*
X38334500Y-14089739D02*
X38334500Y-14089739D01*
X40034500Y-14189739D02*
X38434500Y-14189739D01*
X40034500Y-13989739D02*
G75*
G02*
X40134500Y-14089739I0J-100000D01*
G01*
X40134500Y-14089739D02*
G75*
G02*
X40034500Y-14189739I-100000J0D01*
G01*
X38334500Y-14089739D02*
G75*
G02*
X38434500Y-13989739I100000J0D01*
G01*
X38434500Y-14189739D02*
G75*
G02*
X38334500Y-14089739I0J100000D01*
G01*
X32715847Y-13991870D02*
X34315847Y-13991870D01*
X34415847Y-14091870D02*
X34415847Y-14091870D01*
X32615847Y-14091870D02*
X32615847Y-14091870D01*
X34315847Y-14191870D02*
X32715847Y-14191870D01*
X34315847Y-13991870D02*
G75*
G02*
X34415847Y-14091870I0J-100000D01*
G01*
X34415847Y-14091870D02*
G75*
G02*
X34315847Y-14191870I-100000J0D01*
G01*
X32615847Y-14091870D02*
G75*
G02*
X32715847Y-13991870I100000J0D01*
G01*
X32715847Y-14191870D02*
G75*
G02*
X32615847Y-14091870I0J100000D01*
G01*
X45282138Y-14568639D02*
X45282138Y-16168639D01*
X45182138Y-16268639D02*
X45182138Y-16268639D01*
X45182138Y-14468639D02*
X45182138Y-14468639D01*
X45082138Y-16168639D02*
X45082138Y-14568639D01*
X45282138Y-16168639D02*
G75*
G02*
X45182138Y-16268639I-100000J0D01*
G01*
X45182138Y-16268639D02*
G75*
G02*
X45082138Y-16168639I0J100000D01*
G01*
X45182138Y-14468639D02*
G75*
G02*
X45282138Y-14568639I0J-100000D01*
G01*
X45082138Y-14568639D02*
G75*
G02*
X45182138Y-14468639I100000J0D01*
G01*
X45285992Y-18389942D02*
X45285992Y-19989942D01*
X45185992Y-20089942D02*
X45185992Y-20089942D01*
X45185992Y-18289942D02*
X45185992Y-18289942D01*
X45085992Y-19989942D02*
X45085992Y-18389942D01*
X45285992Y-19989942D02*
G75*
G02*
X45185992Y-20089942I-100000J0D01*
G01*
X45185992Y-20089942D02*
G75*
G02*
X45085992Y-19989942I0J100000D01*
G01*
X45185992Y-18289942D02*
G75*
G02*
X45285992Y-18389942I0J-100000D01*
G01*
X45085992Y-18389942D02*
G75*
G02*
X45185992Y-18289942I100000J0D01*
G01*
X45282376Y-20278637D02*
X45282376Y-21878637D01*
X45182376Y-21978637D02*
X45182376Y-21978637D01*
X45182376Y-20178637D02*
X45182376Y-20178637D01*
X45082376Y-21878637D02*
X45082376Y-20278637D01*
X45282376Y-21878637D02*
G75*
G02*
X45182376Y-21978637I-100000J0D01*
G01*
X45182376Y-21978637D02*
G75*
G02*
X45082376Y-21878637I0J100000D01*
G01*
X45182376Y-20178637D02*
G75*
G02*
X45282376Y-20278637I0J-100000D01*
G01*
X45082376Y-20278637D02*
G75*
G02*
X45182376Y-20178637I100000J0D01*
G01*
X45285149Y-22197739D02*
X45285149Y-23797739D01*
X45185149Y-23897739D02*
X45185149Y-23897739D01*
X45185149Y-22097739D02*
X45185149Y-22097739D01*
X45085149Y-23797739D02*
X45085149Y-22197739D01*
X45285149Y-23797739D02*
G75*
G02*
X45185149Y-23897739I-100000J0D01*
G01*
X45185149Y-23897739D02*
G75*
G02*
X45085149Y-23797739I0J100000D01*
G01*
X45185149Y-22097739D02*
G75*
G02*
X45285149Y-22197739I0J-100000D01*
G01*
X45085149Y-22197739D02*
G75*
G02*
X45185149Y-22097739I100000J0D01*
G01*
X45283018Y-16479086D02*
X45283018Y-18079086D01*
X45183018Y-18179086D02*
X45183018Y-18179086D01*
X45183018Y-16379086D02*
X45183018Y-16379086D01*
X45083018Y-18079086D02*
X45083018Y-16479086D01*
X45283018Y-18079086D02*
G75*
G02*
X45183018Y-18179086I-100000J0D01*
G01*
X45183018Y-18179086D02*
G75*
G02*
X45083018Y-18079086I0J100000D01*
G01*
X45183018Y-16379086D02*
G75*
G02*
X45283018Y-16479086I0J-100000D01*
G01*
X45083018Y-16479086D02*
G75*
G02*
X45183018Y-16379086I100000J0D01*
G01*
X13813639Y-16177400D02*
X13813639Y-14577400D01*
X13913639Y-14477400D02*
X13913639Y-14477400D01*
X13913639Y-16277400D02*
X13913639Y-16277400D01*
X14013639Y-14577400D02*
X14013639Y-16177400D01*
X13813639Y-14577400D02*
G75*
G02*
X13913639Y-14477400I100000J0D01*
G01*
X13913639Y-14477400D02*
G75*
G02*
X14013639Y-14577400I0J-100000D01*
G01*
X13913639Y-16277400D02*
G75*
G02*
X13813639Y-16177400I0J100000D01*
G01*
X14013639Y-16177400D02*
G75*
G02*
X13913639Y-16277400I-100000J0D01*
G01*
X13816412Y-18096503D02*
X13816412Y-16496502D01*
X13916412Y-16396502D02*
X13916412Y-16396502D01*
X13916412Y-18196503D02*
X13916412Y-18196503D01*
X14016412Y-16496502D02*
X14016412Y-18096503D01*
X13816412Y-16496502D02*
G75*
G02*
X13916412Y-16396502I100000J0D01*
G01*
X13916412Y-16396502D02*
G75*
G02*
X14016412Y-16496502I0J-100000D01*
G01*
X13916412Y-18196503D02*
G75*
G02*
X13816412Y-18096503I0J100000D01*
G01*
X14016412Y-18096503D02*
G75*
G02*
X13916412Y-18196503I-100000J0D01*
G01*
X13812795Y-19985198D02*
X13812795Y-18385198D01*
X13912795Y-18285198D02*
X13912795Y-18285198D01*
X13912795Y-20085198D02*
X13912795Y-20085198D01*
X14012795Y-18385198D02*
X14012795Y-19985198D01*
X13812795Y-18385198D02*
G75*
G02*
X13912795Y-18285198I100000J0D01*
G01*
X13912795Y-18285198D02*
G75*
G02*
X14012795Y-18385198I0J-100000D01*
G01*
X13912795Y-20085198D02*
G75*
G02*
X13812795Y-19985198I0J100000D01*
G01*
X14012795Y-19985198D02*
G75*
G02*
X13912795Y-20085198I-100000J0D01*
G01*
X13816650Y-23806500D02*
X13816650Y-22206500D01*
X13916650Y-22106500D02*
X13916650Y-22106500D01*
X13916650Y-23906500D02*
X13916650Y-23906500D01*
X14016650Y-22206500D02*
X14016650Y-23806500D01*
X13816650Y-22206500D02*
G75*
G02*
X13916650Y-22106500I100000J0D01*
G01*
X13916650Y-22106500D02*
G75*
G02*
X14016650Y-22206500I0J-100000D01*
G01*
X13916650Y-23906500D02*
G75*
G02*
X13816650Y-23806500I0J100000D01*
G01*
X14016650Y-23806500D02*
G75*
G02*
X13916650Y-23906500I-100000J0D01*
G01*
X13815770Y-21896053D02*
X13815770Y-20296053D01*
X13915770Y-20196053D02*
X13915770Y-20196053D01*
X13915770Y-21996053D02*
X13915770Y-21996053D01*
X14015770Y-20296053D02*
X14015770Y-21896053D01*
X13815770Y-20296053D02*
G75*
G02*
X13915770Y-20196053I100000J0D01*
G01*
X13915770Y-20196053D02*
G75*
G02*
X14015770Y-20296053I0J-100000D01*
G01*
X13915770Y-21996053D02*
G75*
G02*
X13815770Y-21896053I0J100000D01*
G01*
X14015770Y-21896053D02*
G75*
G02*
X13915770Y-21996053I-100000J0D01*
G01*
D12*
D10*
X26271745Y-10556500D02*
X26351745Y-10636500D01*
X26351745Y-10556500D02*
X26271745Y-10636500D01*
X26271745Y-11256500D02*
X26351745Y-11336500D01*
X26351745Y-11256500D02*
X26271745Y-11336500D01*
X30827694Y-10565250D02*
X30907694Y-10645250D01*
X30907694Y-10565250D02*
X30827694Y-10645250D01*
X30827694Y-11265250D02*
X30907694Y-11345250D01*
X30907694Y-11265250D02*
X30827694Y-11345250D01*
D13*
X8847400Y-19294000D02*
G75*
G02*
X8672400Y-19294000I-87500J0D01*
G01*
X8672400Y-19294000D02*
G75*
G02*
X8847400Y-19294000I87500J0D01*
G01*
X9323650Y-17389000D02*
G75*
G02*
X9148650Y-17389000I-87500J0D01*
G01*
X9148650Y-17389000D02*
G75*
G02*
X9323650Y-17389000I87500J0D01*
G01*
X9323650Y-21199000D02*
G75*
G02*
X9148650Y-21199000I-87500J0D01*
G01*
X9148650Y-21199000D02*
G75*
G02*
X9323650Y-21199000I87500J0D01*
G01*
X9799900Y-15484000D02*
G75*
G02*
X9624900Y-15484000I-87500J0D01*
G01*
X9624900Y-15484000D02*
G75*
G02*
X9799900Y-15484000I87500J0D01*
G01*
X9799900Y-23104000D02*
G75*
G02*
X9624900Y-23104000I-87500J0D01*
G01*
X9624900Y-23104000D02*
G75*
G02*
X9799900Y-23104000I87500J0D01*
G01*
X9863400Y-19294000D02*
G75*
G02*
X9688400Y-19294000I-87500J0D01*
G01*
X9688400Y-19294000D02*
G75*
G02*
X9863400Y-19294000I87500J0D01*
G01*
X10339650Y-17389000D02*
G75*
G02*
X10164650Y-17389000I-87500J0D01*
G01*
X10164650Y-17389000D02*
G75*
G02*
X10339650Y-17389000I87500J0D01*
G01*
X10339650Y-21199000D02*
G75*
G02*
X10164650Y-21199000I-87500J0D01*
G01*
X10164650Y-21199000D02*
G75*
G02*
X10339650Y-21199000I87500J0D01*
G01*
X10752400Y-19294000D02*
G75*
G02*
X10577400Y-19294000I-87500J0D01*
G01*
X10577400Y-19294000D02*
G75*
G02*
X10752400Y-19294000I87500J0D01*
G01*
X10815900Y-15484000D02*
G75*
G02*
X10640900Y-15484000I-87500J0D01*
G01*
X10640900Y-15484000D02*
G75*
G02*
X10815900Y-15484000I87500J0D01*
G01*
X10815900Y-23104000D02*
G75*
G02*
X10640900Y-23104000I-87500J0D01*
G01*
X10640900Y-23104000D02*
G75*
G02*
X10815900Y-23104000I87500J0D01*
G01*
X11228650Y-17389000D02*
G75*
G02*
X11053650Y-17389000I-87500J0D01*
G01*
X11053650Y-17389000D02*
G75*
G02*
X11228650Y-17389000I87500J0D01*
G01*
X11228650Y-21199000D02*
G75*
G02*
X11053650Y-21199000I-87500J0D01*
G01*
X11053650Y-21199000D02*
G75*
G02*
X11228650Y-21199000I87500J0D01*
G01*
X11704900Y-15484000D02*
G75*
G02*
X11529900Y-15484000I-87500J0D01*
G01*
X11529900Y-15484000D02*
G75*
G02*
X11704900Y-15484000I87500J0D01*
G01*
X11704900Y-23104000D02*
G75*
G02*
X11529900Y-23104000I-87500J0D01*
G01*
X11529900Y-23104000D02*
G75*
G02*
X11704900Y-23104000I87500J0D01*
G01*
X11768400Y-19294000D02*
G75*
G02*
X11593400Y-19294000I-87500J0D01*
G01*
X11593400Y-19294000D02*
G75*
G02*
X11768400Y-19294000I87500J0D01*
G01*
X12244650Y-17389000D02*
G75*
G02*
X12069650Y-17389000I-87500J0D01*
G01*
X12069650Y-17389000D02*
G75*
G02*
X12244650Y-17389000I87500J0D01*
G01*
X12244650Y-21199000D02*
G75*
G02*
X12069650Y-21199000I-87500J0D01*
G01*
X12069650Y-21199000D02*
G75*
G02*
X12244650Y-21199000I87500J0D01*
G01*
X12720900Y-15484000D02*
G75*
G02*
X12545900Y-15484000I-87500J0D01*
G01*
X12545900Y-15484000D02*
G75*
G02*
X12720900Y-15484000I87500J0D01*
G01*
X12720900Y-23104000D02*
G75*
G02*
X12545900Y-23104000I-87500J0D01*
G01*
X12545900Y-23104000D02*
G75*
G02*
X12720900Y-23104000I87500J0D01*
G01*
X14562400Y-15484000D02*
G75*
G02*
X14387400Y-15484000I-87500J0D01*
G01*
X14387400Y-15484000D02*
G75*
G02*
X14562400Y-15484000I87500J0D01*
G01*
X14800525Y-23104000D02*
G75*
G02*
X14625525Y-23104000I-87500J0D01*
G01*
X14625525Y-23104000D02*
G75*
G02*
X14800525Y-23104000I87500J0D01*
G01*
X15038650Y-17389000D02*
G75*
G02*
X14863650Y-17389000I-87500J0D01*
G01*
X14863650Y-17389000D02*
G75*
G02*
X15038650Y-17389000I87500J0D01*
G01*
X15276775Y-19294000D02*
G75*
G02*
X15101775Y-19294000I-87500J0D01*
G01*
X15101775Y-19294000D02*
G75*
G02*
X15276775Y-19294000I87500J0D01*
G01*
X15578400Y-15484000D02*
G75*
G02*
X15403400Y-15484000I-87500J0D01*
G01*
X15403400Y-15484000D02*
G75*
G02*
X15578400Y-15484000I87500J0D01*
G01*
X15753025Y-21199000D02*
G75*
G02*
X15578025Y-21199000I-87500J0D01*
G01*
X15578025Y-21199000D02*
G75*
G02*
X15753025Y-21199000I87500J0D01*
G01*
X15816525Y-23104000D02*
G75*
G02*
X15641525Y-23104000I-87500J0D01*
G01*
X15641525Y-23104000D02*
G75*
G02*
X15816525Y-23104000I87500J0D01*
G01*
X16054650Y-17389000D02*
G75*
G02*
X15879650Y-17389000I-87500J0D01*
G01*
X15879650Y-17389000D02*
G75*
G02*
X16054650Y-17389000I87500J0D01*
G01*
X16292775Y-19294000D02*
G75*
G02*
X16117775Y-19294000I-87500J0D01*
G01*
X16117775Y-19294000D02*
G75*
G02*
X16292775Y-19294000I87500J0D01*
G01*
X16467400Y-15484000D02*
G75*
G02*
X16292400Y-15484000I-87500J0D01*
G01*
X16292400Y-15484000D02*
G75*
G02*
X16467400Y-15484000I87500J0D01*
G01*
X16769025Y-21199000D02*
G75*
G02*
X16594025Y-21199000I-87500J0D01*
G01*
X16594025Y-21199000D02*
G75*
G02*
X16769025Y-21199000I87500J0D01*
G01*
X17181775Y-23104000D02*
G75*
G02*
X17006775Y-23104000I-87500J0D01*
G01*
X17006775Y-23104000D02*
G75*
G02*
X17181775Y-23104000I87500J0D01*
G01*
X17419900Y-17389000D02*
G75*
G02*
X17244900Y-17389000I-87500J0D01*
G01*
X17244900Y-17389000D02*
G75*
G02*
X17419900Y-17389000I87500J0D01*
G01*
X17483400Y-15484000D02*
G75*
G02*
X17308400Y-15484000I-87500J0D01*
G01*
X17308400Y-15484000D02*
G75*
G02*
X17483400Y-15484000I87500J0D01*
G01*
X17896150Y-19294000D02*
G75*
G02*
X17721150Y-19294000I-87500J0D01*
G01*
X17721150Y-19294000D02*
G75*
G02*
X17896150Y-19294000I87500J0D01*
G01*
X18197775Y-23104000D02*
G75*
G02*
X18022775Y-23104000I-87500J0D01*
G01*
X18022775Y-23104000D02*
G75*
G02*
X18197775Y-23104000I87500J0D01*
G01*
X18372400Y-15484000D02*
G75*
G02*
X18197400Y-15484000I-87500J0D01*
G01*
X18197400Y-15484000D02*
G75*
G02*
X18372400Y-15484000I87500J0D01*
G01*
X18435900Y-17389000D02*
G75*
G02*
X18260900Y-17389000I-87500J0D01*
G01*
X18260900Y-17389000D02*
G75*
G02*
X18435900Y-17389000I87500J0D01*
G01*
X18848650Y-21199000D02*
G75*
G02*
X18673650Y-21199000I-87500J0D01*
G01*
X18673650Y-21199000D02*
G75*
G02*
X18848650Y-21199000I87500J0D01*
G01*
X18912150Y-19294000D02*
G75*
G02*
X18737150Y-19294000I-87500J0D01*
G01*
X18737150Y-19294000D02*
G75*
G02*
X18912150Y-19294000I87500J0D01*
G01*
X19324900Y-17389000D02*
G75*
G02*
X19149900Y-17389000I-87500J0D01*
G01*
X19149900Y-17389000D02*
G75*
G02*
X19324900Y-17389000I87500J0D01*
G01*
X19388400Y-15484000D02*
G75*
G02*
X19213400Y-15484000I-87500J0D01*
G01*
X19213400Y-15484000D02*
G75*
G02*
X19388400Y-15484000I87500J0D01*
G01*
X19563025Y-23104000D02*
G75*
G02*
X19388025Y-23104000I-87500J0D01*
G01*
X19388025Y-23104000D02*
G75*
G02*
X19563025Y-23104000I87500J0D01*
G01*
X19801150Y-19294000D02*
G75*
G02*
X19626150Y-19294000I-87500J0D01*
G01*
X19626150Y-19294000D02*
G75*
G02*
X19801150Y-19294000I87500J0D01*
G01*
X19864650Y-21199000D02*
G75*
G02*
X19689650Y-21199000I-87500J0D01*
G01*
X19689650Y-21199000D02*
G75*
G02*
X19864650Y-21199000I87500J0D01*
G01*
X20277400Y-15484000D02*
G75*
G02*
X20102400Y-15484000I-87500J0D01*
G01*
X20102400Y-15484000D02*
G75*
G02*
X20277400Y-15484000I87500J0D01*
G01*
X20340900Y-17389000D02*
G75*
G02*
X20165900Y-17389000I-87500J0D01*
G01*
X20165900Y-17389000D02*
G75*
G02*
X20340900Y-17389000I87500J0D01*
G01*
X20579025Y-23104000D02*
G75*
G02*
X20404025Y-23104000I-87500J0D01*
G01*
X20404025Y-23104000D02*
G75*
G02*
X20579025Y-23104000I87500J0D01*
G01*
X20753650Y-21199000D02*
G75*
G02*
X20578650Y-21199000I-87500J0D01*
G01*
X20578650Y-21199000D02*
G75*
G02*
X20753650Y-21199000I87500J0D01*
G01*
X20817150Y-19294000D02*
G75*
G02*
X20642150Y-19294000I-87500J0D01*
G01*
X20642150Y-19294000D02*
G75*
G02*
X20817150Y-19294000I87500J0D01*
G01*
X21229900Y-17389000D02*
G75*
G02*
X21054900Y-17389000I-87500J0D01*
G01*
X21054900Y-17389000D02*
G75*
G02*
X21229900Y-17389000I87500J0D01*
G01*
X21293400Y-15484000D02*
G75*
G02*
X21118400Y-15484000I-87500J0D01*
G01*
X21118400Y-15484000D02*
G75*
G02*
X21293400Y-15484000I87500J0D01*
G01*
X21706150Y-19294000D02*
G75*
G02*
X21531150Y-19294000I-87500J0D01*
G01*
X21531150Y-19294000D02*
G75*
G02*
X21706150Y-19294000I87500J0D01*
G01*
X21769650Y-21199000D02*
G75*
G02*
X21594650Y-21199000I-87500J0D01*
G01*
X21594650Y-21199000D02*
G75*
G02*
X21769650Y-21199000I87500J0D01*
G01*
X22182400Y-15484000D02*
G75*
G02*
X22007400Y-15484000I-87500J0D01*
G01*
X22007400Y-15484000D02*
G75*
G02*
X22182400Y-15484000I87500J0D01*
G01*
X22245900Y-17389000D02*
G75*
G02*
X22070900Y-17389000I-87500J0D01*
G01*
X22070900Y-17389000D02*
G75*
G02*
X22245900Y-17389000I87500J0D01*
G01*
X22658650Y-21199000D02*
G75*
G02*
X22483650Y-21199000I-87500J0D01*
G01*
X22483650Y-21199000D02*
G75*
G02*
X22658650Y-21199000I87500J0D01*
G01*
X22722150Y-19294000D02*
G75*
G02*
X22547150Y-19294000I-87500J0D01*
G01*
X22547150Y-19294000D02*
G75*
G02*
X22722150Y-19294000I87500J0D01*
G01*
X23134900Y-17389000D02*
G75*
G02*
X22959900Y-17389000I-87500J0D01*
G01*
X22959900Y-17389000D02*
G75*
G02*
X23134900Y-17389000I87500J0D01*
G01*
X23198400Y-15484000D02*
G75*
G02*
X23023400Y-15484000I-87500J0D01*
G01*
X23023400Y-15484000D02*
G75*
G02*
X23198400Y-15484000I87500J0D01*
G01*
X23611150Y-19294000D02*
G75*
G02*
X23436150Y-19294000I-87500J0D01*
G01*
X23436150Y-19294000D02*
G75*
G02*
X23611150Y-19294000I87500J0D01*
G01*
X23611150Y-23104000D02*
G75*
G02*
X23436150Y-23104000I-87500J0D01*
G01*
X23436150Y-23104000D02*
G75*
G02*
X23611150Y-23104000I87500J0D01*
G01*
X23674650Y-21199000D02*
G75*
G02*
X23499650Y-21199000I-87500J0D01*
G01*
X23499650Y-21199000D02*
G75*
G02*
X23674650Y-21199000I87500J0D01*
G01*
X24087400Y-15484000D02*
G75*
G02*
X23912400Y-15484000I-87500J0D01*
G01*
X23912400Y-15484000D02*
G75*
G02*
X24087400Y-15484000I87500J0D01*
G01*
X24150900Y-17389000D02*
G75*
G02*
X23975900Y-17389000I-87500J0D01*
G01*
X23975900Y-17389000D02*
G75*
G02*
X24150900Y-17389000I87500J0D01*
G01*
X24563650Y-21199000D02*
G75*
G02*
X24388650Y-21199000I-87500J0D01*
G01*
X24388650Y-21199000D02*
G75*
G02*
X24563650Y-21199000I87500J0D01*
G01*
X24627150Y-19294000D02*
G75*
G02*
X24452150Y-19294000I-87500J0D01*
G01*
X24452150Y-19294000D02*
G75*
G02*
X24627150Y-19294000I87500J0D01*
G01*
X24627150Y-23104000D02*
G75*
G02*
X24452150Y-23104000I-87500J0D01*
G01*
X24452150Y-23104000D02*
G75*
G02*
X24627150Y-23104000I87500J0D01*
G01*
X25039900Y-17389000D02*
G75*
G02*
X24864900Y-17389000I-87500J0D01*
G01*
X24864900Y-17389000D02*
G75*
G02*
X25039900Y-17389000I87500J0D01*
G01*
X25103400Y-15484000D02*
G75*
G02*
X24928400Y-15484000I-87500J0D01*
G01*
X24928400Y-15484000D02*
G75*
G02*
X25103400Y-15484000I87500J0D01*
G01*
X25516150Y-19294000D02*
G75*
G02*
X25341150Y-19294000I-87500J0D01*
G01*
X25341150Y-19294000D02*
G75*
G02*
X25516150Y-19294000I87500J0D01*
G01*
X25579650Y-21199000D02*
G75*
G02*
X25404650Y-21199000I-87500J0D01*
G01*
X25404650Y-21199000D02*
G75*
G02*
X25579650Y-21199000I87500J0D01*
G01*
X25992400Y-15484000D02*
G75*
G02*
X25817400Y-15484000I-87500J0D01*
G01*
X25817400Y-15484000D02*
G75*
G02*
X25992400Y-15484000I87500J0D01*
G01*
X26055900Y-17389000D02*
G75*
G02*
X25880900Y-17389000I-87500J0D01*
G01*
X25880900Y-17389000D02*
G75*
G02*
X26055900Y-17389000I87500J0D01*
G01*
X26468650Y-21199000D02*
G75*
G02*
X26293650Y-21199000I-87500J0D01*
G01*
X26293650Y-21199000D02*
G75*
G02*
X26468650Y-21199000I87500J0D01*
G01*
X26532150Y-19294000D02*
G75*
G02*
X26357150Y-19294000I-87500J0D01*
G01*
X26357150Y-19294000D02*
G75*
G02*
X26532150Y-19294000I87500J0D01*
G01*
X26944900Y-17389000D02*
G75*
G02*
X26769900Y-17389000I-87500J0D01*
G01*
X26769900Y-17389000D02*
G75*
G02*
X26944900Y-17389000I87500J0D01*
G01*
X27008400Y-15484000D02*
G75*
G02*
X26833400Y-15484000I-87500J0D01*
G01*
X26833400Y-15484000D02*
G75*
G02*
X27008400Y-15484000I87500J0D01*
G01*
X27484650Y-21199000D02*
G75*
G02*
X27309650Y-21199000I-87500J0D01*
G01*
X27309650Y-21199000D02*
G75*
G02*
X27484650Y-21199000I87500J0D01*
G01*
X27960900Y-17389000D02*
G75*
G02*
X27785900Y-17389000I-87500J0D01*
G01*
X27785900Y-17389000D02*
G75*
G02*
X27960900Y-17389000I87500J0D01*
G01*
X29872375Y-19294000D02*
G75*
G02*
X29697375Y-19294000I-87500J0D01*
G01*
X29697375Y-19294000D02*
G75*
G02*
X29872375Y-19294000I87500J0D01*
G01*
X30348625Y-15484000D02*
G75*
G02*
X30173625Y-15484000I-87500J0D01*
G01*
X30173625Y-15484000D02*
G75*
G02*
X30348625Y-15484000I87500J0D01*
G01*
X30824875Y-21199000D02*
G75*
G02*
X30649875Y-21199000I-87500J0D01*
G01*
X30649875Y-21199000D02*
G75*
G02*
X30824875Y-21199000I87500J0D01*
G01*
X30888375Y-19294000D02*
G75*
G02*
X30713375Y-19294000I-87500J0D01*
G01*
X30713375Y-19294000D02*
G75*
G02*
X30888375Y-19294000I87500J0D01*
G01*
X31301125Y-17389000D02*
G75*
G02*
X31126125Y-17389000I-87500J0D01*
G01*
X31126125Y-17389000D02*
G75*
G02*
X31301125Y-17389000I87500J0D01*
G01*
X31364625Y-15484000D02*
G75*
G02*
X31189625Y-15484000I-87500J0D01*
G01*
X31189625Y-15484000D02*
G75*
G02*
X31364625Y-15484000I87500J0D01*
G01*
X31777375Y-19294000D02*
G75*
G02*
X31602375Y-19294000I-87500J0D01*
G01*
X31602375Y-19294000D02*
G75*
G02*
X31777375Y-19294000I87500J0D01*
G01*
X31777375Y-23104000D02*
G75*
G02*
X31602375Y-23104000I-87500J0D01*
G01*
X31602375Y-23104000D02*
G75*
G02*
X31777375Y-23104000I87500J0D01*
G01*
X31840875Y-21199000D02*
G75*
G02*
X31665875Y-21199000I-87500J0D01*
G01*
X31665875Y-21199000D02*
G75*
G02*
X31840875Y-21199000I87500J0D01*
G01*
X32253625Y-15484000D02*
G75*
G02*
X32078625Y-15484000I-87500J0D01*
G01*
X32078625Y-15484000D02*
G75*
G02*
X32253625Y-15484000I87500J0D01*
G01*
X32317125Y-17389000D02*
G75*
G02*
X32142125Y-17389000I-87500J0D01*
G01*
X32142125Y-17389000D02*
G75*
G02*
X32317125Y-17389000I87500J0D01*
G01*
X32729875Y-21199000D02*
G75*
G02*
X32554875Y-21199000I-87500J0D01*
G01*
X32554875Y-21199000D02*
G75*
G02*
X32729875Y-21199000I87500J0D01*
G01*
X32793375Y-19294000D02*
G75*
G02*
X32618375Y-19294000I-87500J0D01*
G01*
X32618375Y-19294000D02*
G75*
G02*
X32793375Y-19294000I87500J0D01*
G01*
X32793375Y-23104000D02*
G75*
G02*
X32618375Y-23104000I-87500J0D01*
G01*
X32618375Y-23104000D02*
G75*
G02*
X32793375Y-23104000I87500J0D01*
G01*
X33206125Y-17389000D02*
G75*
G02*
X33031125Y-17389000I-87500J0D01*
G01*
X33031125Y-17389000D02*
G75*
G02*
X33206125Y-17389000I87500J0D01*
G01*
X33269625Y-15484000D02*
G75*
G02*
X33094625Y-15484000I-87500J0D01*
G01*
X33094625Y-15484000D02*
G75*
G02*
X33269625Y-15484000I87500J0D01*
G01*
X33682375Y-19294000D02*
G75*
G02*
X33507375Y-19294000I-87500J0D01*
G01*
X33507375Y-19294000D02*
G75*
G02*
X33682375Y-19294000I87500J0D01*
G01*
X33745875Y-21199000D02*
G75*
G02*
X33570875Y-21199000I-87500J0D01*
G01*
X33570875Y-21199000D02*
G75*
G02*
X33745875Y-21199000I87500J0D01*
G01*
X34158625Y-15484000D02*
G75*
G02*
X33983625Y-15484000I-87500J0D01*
G01*
X33983625Y-15484000D02*
G75*
G02*
X34158625Y-15484000I87500J0D01*
G01*
X34222125Y-17389000D02*
G75*
G02*
X34047125Y-17389000I-87500J0D01*
G01*
X34047125Y-17389000D02*
G75*
G02*
X34222125Y-17389000I87500J0D01*
G01*
X34634875Y-21199000D02*
G75*
G02*
X34459875Y-21199000I-87500J0D01*
G01*
X34459875Y-21199000D02*
G75*
G02*
X34634875Y-21199000I87500J0D01*
G01*
X34698375Y-19294000D02*
G75*
G02*
X34523375Y-19294000I-87500J0D01*
G01*
X34523375Y-19294000D02*
G75*
G02*
X34698375Y-19294000I87500J0D01*
G01*
X35111125Y-17389000D02*
G75*
G02*
X34936125Y-17389000I-87500J0D01*
G01*
X34936125Y-17389000D02*
G75*
G02*
X35111125Y-17389000I87500J0D01*
G01*
X35174625Y-15484000D02*
G75*
G02*
X34999625Y-15484000I-87500J0D01*
G01*
X34999625Y-15484000D02*
G75*
G02*
X35174625Y-15484000I87500J0D01*
G01*
X35587375Y-19294000D02*
G75*
G02*
X35412375Y-19294000I-87500J0D01*
G01*
X35412375Y-19294000D02*
G75*
G02*
X35587375Y-19294000I87500J0D01*
G01*
X35650875Y-21199000D02*
G75*
G02*
X35475875Y-21199000I-87500J0D01*
G01*
X35475875Y-21199000D02*
G75*
G02*
X35650875Y-21199000I87500J0D01*
G01*
X35825500Y-23104000D02*
G75*
G02*
X35650500Y-23104000I-87500J0D01*
G01*
X35650500Y-23104000D02*
G75*
G02*
X35825500Y-23104000I87500J0D01*
G01*
X36063625Y-15484000D02*
G75*
G02*
X35888625Y-15484000I-87500J0D01*
G01*
X35888625Y-15484000D02*
G75*
G02*
X36063625Y-15484000I87500J0D01*
G01*
X36127125Y-17389000D02*
G75*
G02*
X35952125Y-17389000I-87500J0D01*
G01*
X35952125Y-17389000D02*
G75*
G02*
X36127125Y-17389000I87500J0D01*
G01*
X36539875Y-21199000D02*
G75*
G02*
X36364875Y-21199000I-87500J0D01*
G01*
X36364875Y-21199000D02*
G75*
G02*
X36539875Y-21199000I87500J0D01*
G01*
X36603375Y-19294000D02*
G75*
G02*
X36428375Y-19294000I-87500J0D01*
G01*
X36428375Y-19294000D02*
G75*
G02*
X36603375Y-19294000I87500J0D01*
G01*
X36841500Y-23104000D02*
G75*
G02*
X36666500Y-23104000I-87500J0D01*
G01*
X36666500Y-23104000D02*
G75*
G02*
X36841500Y-23104000I87500J0D01*
G01*
X37016125Y-17389000D02*
G75*
G02*
X36841125Y-17389000I-87500J0D01*
G01*
X36841125Y-17389000D02*
G75*
G02*
X37016125Y-17389000I87500J0D01*
G01*
X37079625Y-15484000D02*
G75*
G02*
X36904625Y-15484000I-87500J0D01*
G01*
X36904625Y-15484000D02*
G75*
G02*
X37079625Y-15484000I87500J0D01*
G01*
X37492375Y-19294000D02*
G75*
G02*
X37317375Y-19294000I-87500J0D01*
G01*
X37317375Y-19294000D02*
G75*
G02*
X37492375Y-19294000I87500J0D01*
G01*
X37555875Y-21199000D02*
G75*
G02*
X37380875Y-21199000I-87500J0D01*
G01*
X37380875Y-21199000D02*
G75*
G02*
X37555875Y-21199000I87500J0D01*
G01*
X37968625Y-15484000D02*
G75*
G02*
X37793625Y-15484000I-87500J0D01*
G01*
X37793625Y-15484000D02*
G75*
G02*
X37968625Y-15484000I87500J0D01*
G01*
X38032125Y-17389000D02*
G75*
G02*
X37857125Y-17389000I-87500J0D01*
G01*
X37857125Y-17389000D02*
G75*
G02*
X38032125Y-17389000I87500J0D01*
G01*
X38206750Y-23104000D02*
G75*
G02*
X38031750Y-23104000I-87500J0D01*
G01*
X38031750Y-23104000D02*
G75*
G02*
X38206750Y-23104000I87500J0D01*
G01*
X38444875Y-21199000D02*
G75*
G02*
X38269875Y-21199000I-87500J0D01*
G01*
X38269875Y-21199000D02*
G75*
G02*
X38444875Y-21199000I87500J0D01*
G01*
X38508375Y-19294000D02*
G75*
G02*
X38333375Y-19294000I-87500J0D01*
G01*
X38333375Y-19294000D02*
G75*
G02*
X38508375Y-19294000I87500J0D01*
G01*
X38921125Y-17389000D02*
G75*
G02*
X38746125Y-17389000I-87500J0D01*
G01*
X38746125Y-17389000D02*
G75*
G02*
X38921125Y-17389000I87500J0D01*
G01*
X38984625Y-15484000D02*
G75*
G02*
X38809625Y-15484000I-87500J0D01*
G01*
X38809625Y-15484000D02*
G75*
G02*
X38984625Y-15484000I87500J0D01*
G01*
X39222750Y-23104000D02*
G75*
G02*
X39047750Y-23104000I-87500J0D01*
G01*
X39047750Y-23104000D02*
G75*
G02*
X39222750Y-23104000I87500J0D01*
G01*
X39397375Y-19294000D02*
G75*
G02*
X39222375Y-19294000I-87500J0D01*
G01*
X39222375Y-19294000D02*
G75*
G02*
X39397375Y-19294000I87500J0D01*
G01*
X39460875Y-21199000D02*
G75*
G02*
X39285875Y-21199000I-87500J0D01*
G01*
X39285875Y-21199000D02*
G75*
G02*
X39460875Y-21199000I87500J0D01*
G01*
X39873625Y-15484000D02*
G75*
G02*
X39698625Y-15484000I-87500J0D01*
G01*
X39698625Y-15484000D02*
G75*
G02*
X39873625Y-15484000I87500J0D01*
G01*
X39937125Y-17389000D02*
G75*
G02*
X39762125Y-17389000I-87500J0D01*
G01*
X39762125Y-17389000D02*
G75*
G02*
X39937125Y-17389000I87500J0D01*
G01*
X40413375Y-19294000D02*
G75*
G02*
X40238375Y-19294000I-87500J0D01*
G01*
X40238375Y-19294000D02*
G75*
G02*
X40413375Y-19294000I87500J0D01*
G01*
X40588000Y-23104000D02*
G75*
G02*
X40413000Y-23104000I-87500J0D01*
G01*
X40413000Y-23104000D02*
G75*
G02*
X40588000Y-23104000I87500J0D01*
G01*
X40826125Y-17389000D02*
G75*
G02*
X40651125Y-17389000I-87500J0D01*
G01*
X40651125Y-17389000D02*
G75*
G02*
X40826125Y-17389000I87500J0D01*
G01*
X40889625Y-15484000D02*
G75*
G02*
X40714625Y-15484000I-87500J0D01*
G01*
X40714625Y-15484000D02*
G75*
G02*
X40889625Y-15484000I87500J0D01*
G01*
X41604000Y-23104000D02*
G75*
G02*
X41429000Y-23104000I-87500J0D01*
G01*
X41429000Y-23104000D02*
G75*
G02*
X41604000Y-23104000I87500J0D01*
G01*
X41842125Y-17389000D02*
G75*
G02*
X41667125Y-17389000I-87500J0D01*
G01*
X41667125Y-17389000D02*
G75*
G02*
X41842125Y-17389000I87500J0D01*
G01*
X42016750Y-21199000D02*
G75*
G02*
X41841750Y-21199000I-87500J0D01*
G01*
X41841750Y-21199000D02*
G75*
G02*
X42016750Y-21199000I87500J0D01*
G01*
X42493000Y-19294000D02*
G75*
G02*
X42318000Y-19294000I-87500J0D01*
G01*
X42318000Y-19294000D02*
G75*
G02*
X42493000Y-19294000I87500J0D01*
G01*
X42731125Y-15484000D02*
G75*
G02*
X42556125Y-15484000I-87500J0D01*
G01*
X42556125Y-15484000D02*
G75*
G02*
X42731125Y-15484000I87500J0D01*
G01*
X43032750Y-21199000D02*
G75*
G02*
X42857750Y-21199000I-87500J0D01*
G01*
X42857750Y-21199000D02*
G75*
G02*
X43032750Y-21199000I87500J0D01*
G01*
X43207375Y-17389000D02*
G75*
G02*
X43032375Y-17389000I-87500J0D01*
G01*
X43032375Y-17389000D02*
G75*
G02*
X43207375Y-17389000I87500J0D01*
G01*
X43207375Y-23104000D02*
G75*
G02*
X43032375Y-23104000I-87500J0D01*
G01*
X43032375Y-23104000D02*
G75*
G02*
X43207375Y-23104000I87500J0D01*
G01*
X43509000Y-19294000D02*
G75*
G02*
X43334000Y-19294000I-87500J0D01*
G01*
X43334000Y-19294000D02*
G75*
G02*
X43509000Y-19294000I87500J0D01*
G01*
X43747125Y-15484000D02*
G75*
G02*
X43572125Y-15484000I-87500J0D01*
G01*
X43572125Y-15484000D02*
G75*
G02*
X43747125Y-15484000I87500J0D01*
G01*
X44223375Y-17389000D02*
G75*
G02*
X44048375Y-17389000I-87500J0D01*
G01*
X44048375Y-17389000D02*
G75*
G02*
X44223375Y-17389000I87500J0D01*
G01*
X44223375Y-23104000D02*
G75*
G02*
X44048375Y-23104000I-87500J0D01*
G01*
X44048375Y-23104000D02*
G75*
G02*
X44223375Y-23104000I87500J0D01*
G01*
X46541125Y-15484000D02*
G75*
G02*
X46366125Y-15484000I-87500J0D01*
G01*
X46366125Y-15484000D02*
G75*
G02*
X46541125Y-15484000I87500J0D01*
G01*
X46541125Y-23104000D02*
G75*
G02*
X46366125Y-23104000I-87500J0D01*
G01*
X46366125Y-23104000D02*
G75*
G02*
X46541125Y-23104000I87500J0D01*
G01*
X47017375Y-17389000D02*
G75*
G02*
X46842375Y-17389000I-87500J0D01*
G01*
X46842375Y-17389000D02*
G75*
G02*
X47017375Y-17389000I87500J0D01*
G01*
X47017375Y-21199000D02*
G75*
G02*
X46842375Y-21199000I-87500J0D01*
G01*
X46842375Y-21199000D02*
G75*
G02*
X47017375Y-21199000I87500J0D01*
G01*
X47493625Y-19294000D02*
G75*
G02*
X47318625Y-19294000I-87500J0D01*
G01*
X47318625Y-19294000D02*
G75*
G02*
X47493625Y-19294000I87500J0D01*
G01*
X47557125Y-15484000D02*
G75*
G02*
X47382125Y-15484000I-87500J0D01*
G01*
X47382125Y-15484000D02*
G75*
G02*
X47557125Y-15484000I87500J0D01*
G01*
X47557125Y-23104000D02*
G75*
G02*
X47382125Y-23104000I-87500J0D01*
G01*
X47382125Y-23104000D02*
G75*
G02*
X47557125Y-23104000I87500J0D01*
G01*
X48033375Y-17389000D02*
G75*
G02*
X47858375Y-17389000I-87500J0D01*
G01*
X47858375Y-17389000D02*
G75*
G02*
X48033375Y-17389000I87500J0D01*
G01*
X48033375Y-21199000D02*
G75*
G02*
X47858375Y-21199000I-87500J0D01*
G01*
X47858375Y-21199000D02*
G75*
G02*
X48033375Y-21199000I87500J0D01*
G01*
X48446125Y-15484000D02*
G75*
G02*
X48271125Y-15484000I-87500J0D01*
G01*
X48271125Y-15484000D02*
G75*
G02*
X48446125Y-15484000I87500J0D01*
G01*
X48446125Y-23104000D02*
G75*
G02*
X48271125Y-23104000I-87500J0D01*
G01*
X48271125Y-23104000D02*
G75*
G02*
X48446125Y-23104000I87500J0D01*
G01*
X48509625Y-19294000D02*
G75*
G02*
X48334625Y-19294000I-87500J0D01*
G01*
X48334625Y-19294000D02*
G75*
G02*
X48509625Y-19294000I87500J0D01*
G01*
X48922375Y-17389000D02*
G75*
G02*
X48747375Y-17389000I-87500J0D01*
G01*
X48747375Y-17389000D02*
G75*
G02*
X48922375Y-17389000I87500J0D01*
G01*
X48922375Y-21199000D02*
G75*
G02*
X48747375Y-21199000I-87500J0D01*
G01*
X48747375Y-21199000D02*
G75*
G02*
X48922375Y-21199000I87500J0D01*
G01*
X49398625Y-19294000D02*
G75*
G02*
X49223625Y-19294000I-87500J0D01*
G01*
X49223625Y-19294000D02*
G75*
G02*
X49398625Y-19294000I87500J0D01*
G01*
X49462125Y-15484000D02*
G75*
G02*
X49287125Y-15484000I-87500J0D01*
G01*
X49287125Y-15484000D02*
G75*
G02*
X49462125Y-15484000I87500J0D01*
G01*
X49462125Y-23104000D02*
G75*
G02*
X49287125Y-23104000I-87500J0D01*
G01*
X49287125Y-23104000D02*
G75*
G02*
X49462125Y-23104000I87500J0D01*
G01*
X49938375Y-17389000D02*
G75*
G02*
X49763375Y-17389000I-87500J0D01*
G01*
X49763375Y-17389000D02*
G75*
G02*
X49938375Y-17389000I87500J0D01*
G01*
X49938375Y-21199000D02*
G75*
G02*
X49763375Y-21199000I-87500J0D01*
G01*
X49763375Y-21199000D02*
G75*
G02*
X49938375Y-21199000I87500J0D01*
G01*
X50414625Y-19294000D02*
G75*
G02*
X50239625Y-19294000I-87500J0D01*
G01*
X50239625Y-19294000D02*
G75*
G02*
X50414625Y-19294000I87500J0D01*
G01*
D14*
X8669270Y-23835107D02*
X8669270Y-24055107D01*
X8559270Y-23945107D02*
X8779270Y-23945107D01*
X11509270Y-13115107D02*
X11509270Y-13335107D01*
X11399270Y-13225107D02*
X11619270Y-13225107D01*
X18173525Y-20729000D02*
X18173525Y-20949000D01*
X18063525Y-20839000D02*
X18283525Y-20839000D01*
X18791625Y-16434000D02*
X18791625Y-16654000D01*
X18681625Y-16544000D02*
X18901625Y-16544000D01*
X21351625Y-10899000D02*
X21351625Y-11119000D01*
X21241625Y-11009000D02*
X21461625Y-11009000D01*
X25599150Y-23056000D02*
X25599150Y-23276000D01*
X25489150Y-23166000D02*
X25709150Y-23166000D01*
X26371625Y-13174000D02*
X26371625Y-13394000D01*
X26261625Y-13284000D02*
X26481625Y-13284000D01*
X26631625Y-18334000D02*
X26631625Y-18554000D01*
X26521625Y-18444000D02*
X26741625Y-18444000D01*
X30371625Y-13334000D02*
X30371625Y-13554000D01*
X30261625Y-13444000D02*
X30481625Y-13444000D01*
X30871625Y-23034000D02*
X30871625Y-23254000D01*
X30761625Y-23144000D02*
X30981625Y-23144000D01*
X31111625Y-18214000D02*
X31111625Y-18434000D01*
X31001625Y-18324000D02*
X31221625Y-18324000D01*
X37701625Y-11024000D02*
X37701625Y-11244000D01*
X37591625Y-11134000D02*
X37811625Y-11134000D01*
X40191625Y-20594000D02*
X40191625Y-20814000D01*
X40081625Y-20704000D02*
X40301625Y-20704000D01*
X42391625Y-16614000D02*
X42391625Y-16834000D01*
X42281625Y-16724000D02*
X42501625Y-16724000D01*
X47451625Y-13414000D02*
X47451625Y-13634000D01*
X47341625Y-13524000D02*
X47561625Y-13524000D01*
X47873980Y-39215107D02*
X47873980Y-39435107D01*
X47763980Y-39325107D02*
X47983980Y-39325107D01*
X47873980Y-39215107D02*
X47873980Y-39435107D01*
X47763980Y-39325107D02*
X47983980Y-39325107D01*
X50611625Y-24034000D02*
X50611625Y-24254000D01*
X50501625Y-24144000D02*
X50721625Y-24144000D01*
D15*
X15087489Y-20608264D02*
X15087489Y-20392736D01*
X14871961Y-20392736D01*
X14871961Y-20608264D01*
X15087489Y-20608264D01*
X17475089Y-20608264D02*
X17475089Y-20392736D01*
X17259561Y-20392736D01*
X17259561Y-20608264D01*
X17475089Y-20608264D01*
X22234414Y-22513264D02*
X22234414Y-22297736D01*
X22018886Y-22297736D01*
X22018886Y-22513264D01*
X22234414Y-22513264D01*
X26044414Y-22513264D02*
X26044414Y-22297736D01*
X25828886Y-22297736D01*
X25828886Y-22513264D01*
X26044414Y-22513264D01*
X30400639Y-22513264D02*
X30400639Y-22297736D01*
X30185111Y-22297736D01*
X30185111Y-22513264D01*
X30400639Y-22513264D01*
X34210639Y-22513264D02*
X34210639Y-22297736D01*
X33995111Y-22297736D01*
X33995111Y-22513264D01*
X34210639Y-22513264D01*
X41351214Y-20608264D02*
X41351214Y-20392736D01*
X41135686Y-20392736D01*
X41135686Y-20608264D01*
X41351214Y-20608264D01*
X41827464Y-18703264D02*
X41827464Y-18487736D01*
X41611936Y-18487736D01*
X41611936Y-18703264D01*
X41827464Y-18703264D01*
X42065589Y-14893264D02*
X42065589Y-14677736D01*
X41850061Y-14677736D01*
X41850061Y-14893264D01*
X42065589Y-14893264D01*
X43738814Y-20608264D02*
X43738814Y-20392736D01*
X43523286Y-20392736D01*
X43523286Y-20608264D01*
X43738814Y-20608264D01*
X44215064Y-18703264D02*
X44215064Y-18487736D01*
X43999536Y-18487736D01*
X43999536Y-18703264D01*
X44215064Y-18703264D01*
X44453189Y-14893264D02*
X44453189Y-14677736D01*
X44237661Y-14677736D01*
X44237661Y-14893264D01*
X44453189Y-14893264D01*
D16*
X14979725Y-22220890D02*
X15179115Y-22021500D01*
X14979725Y-21822110D01*
X14780335Y-22021500D01*
X14979725Y-22220890D01*
X17367325Y-22220890D02*
X17566715Y-22021500D01*
X17367325Y-21822110D01*
X17167935Y-22021500D01*
X17367325Y-22220890D01*
X22126650Y-24125890D02*
X22326040Y-23926500D01*
X22126650Y-23727110D01*
X21927260Y-23926500D01*
X22126650Y-24125890D01*
X25936650Y-24125890D02*
X26136040Y-23926500D01*
X25936650Y-23727110D01*
X25737260Y-23926500D01*
X25936650Y-24125890D01*
X30292875Y-24125890D02*
X30492265Y-23926500D01*
X30292875Y-23727110D01*
X30093485Y-23926500D01*
X30292875Y-24125890D01*
X34102875Y-24125890D02*
X34302265Y-23926500D01*
X34102875Y-23727110D01*
X33903485Y-23926500D01*
X34102875Y-24125890D01*
X41243450Y-22220890D02*
X41442840Y-22021500D01*
X41243450Y-21822110D01*
X41044060Y-22021500D01*
X41243450Y-22220890D01*
X41719700Y-20315890D02*
X41919090Y-20116500D01*
X41719700Y-19917110D01*
X41520310Y-20116500D01*
X41719700Y-20315890D01*
X41957825Y-16505890D02*
X42157215Y-16306500D01*
X41957825Y-16107110D01*
X41758435Y-16306500D01*
X41957825Y-16505890D01*
X43631050Y-22220890D02*
X43830440Y-22021500D01*
X43631050Y-21822110D01*
X43431660Y-22021500D01*
X43631050Y-22220890D01*
X44107300Y-20315890D02*
X44306690Y-20116500D01*
X44107300Y-19917110D01*
X43907910Y-20116500D01*
X44107300Y-20315890D01*
X44345425Y-16505890D02*
X44544815Y-16306500D01*
X44345425Y-16107110D01*
X44146035Y-16306500D01*
X44345425Y-16505890D01*
D17*
X9067900Y-19094000D02*
X9467900Y-19494000D01*
X9467900Y-19094000D02*
X9067900Y-19494000D01*
X9467900Y-19294000D02*
G75*
G02*
X9067900Y-19294000I-200000J0D01*
G01*
X9067900Y-19294000D02*
G75*
G02*
X9467900Y-19294000I200000J0D01*
G01*
X9544150Y-17189000D02*
X9944150Y-17589000D01*
X9944150Y-17189000D02*
X9544150Y-17589000D01*
X9944150Y-17389000D02*
G75*
G02*
X9544150Y-17389000I-200000J0D01*
G01*
X9544150Y-17389000D02*
G75*
G02*
X9944150Y-17389000I200000J0D01*
G01*
X9544150Y-20999000D02*
X9944150Y-21399000D01*
X9944150Y-20999000D02*
X9544150Y-21399000D01*
X9944150Y-21199000D02*
G75*
G02*
X9544150Y-21199000I-200000J0D01*
G01*
X9544150Y-21199000D02*
G75*
G02*
X9944150Y-21199000I200000J0D01*
G01*
X10020400Y-15284000D02*
X10420400Y-15684000D01*
X10420400Y-15284000D02*
X10020400Y-15684000D01*
X10420400Y-15484000D02*
G75*
G02*
X10020400Y-15484000I-200000J0D01*
G01*
X10020400Y-15484000D02*
G75*
G02*
X10420400Y-15484000I200000J0D01*
G01*
X10020400Y-22904000D02*
X10420400Y-23304000D01*
X10420400Y-22904000D02*
X10020400Y-23304000D01*
X10420400Y-23104000D02*
G75*
G02*
X10020400Y-23104000I-200000J0D01*
G01*
X10020400Y-23104000D02*
G75*
G02*
X10420400Y-23104000I200000J0D01*
G01*
X10972900Y-19094000D02*
X11372900Y-19494000D01*
X11372900Y-19094000D02*
X10972900Y-19494000D01*
X11372900Y-19294000D02*
G75*
G02*
X10972900Y-19294000I-200000J0D01*
G01*
X10972900Y-19294000D02*
G75*
G02*
X11372900Y-19294000I200000J0D01*
G01*
X11449150Y-17189000D02*
X11849150Y-17589000D01*
X11849150Y-17189000D02*
X11449150Y-17589000D01*
X11849150Y-17389000D02*
G75*
G02*
X11449150Y-17389000I-200000J0D01*
G01*
X11449150Y-17389000D02*
G75*
G02*
X11849150Y-17389000I200000J0D01*
G01*
X11449150Y-20999000D02*
X11849150Y-21399000D01*
X11849150Y-20999000D02*
X11449150Y-21399000D01*
X11849150Y-21199000D02*
G75*
G02*
X11449150Y-21199000I-200000J0D01*
G01*
X11449150Y-21199000D02*
G75*
G02*
X11849150Y-21199000I200000J0D01*
G01*
X11925400Y-15284000D02*
X12325400Y-15684000D01*
X12325400Y-15284000D02*
X11925400Y-15684000D01*
X12325400Y-15484000D02*
G75*
G02*
X11925400Y-15484000I-200000J0D01*
G01*
X11925400Y-15484000D02*
G75*
G02*
X12325400Y-15484000I200000J0D01*
G01*
X11925400Y-22904000D02*
X12325400Y-23304000D01*
X12325400Y-22904000D02*
X11925400Y-23304000D01*
X12325400Y-23104000D02*
G75*
G02*
X11925400Y-23104000I-200000J0D01*
G01*
X11925400Y-23104000D02*
G75*
G02*
X12325400Y-23104000I200000J0D01*
G01*
X14782900Y-15284000D02*
X15182900Y-15684000D01*
X15182900Y-15284000D02*
X14782900Y-15684000D01*
X15182900Y-15484000D02*
G75*
G02*
X14782900Y-15484000I-200000J0D01*
G01*
X14782900Y-15484000D02*
G75*
G02*
X15182900Y-15484000I200000J0D01*
G01*
X15021025Y-22904000D02*
X15421025Y-23304000D01*
X15421025Y-22904000D02*
X15021025Y-23304000D01*
X15421025Y-23104000D02*
G75*
G02*
X15021025Y-23104000I-200000J0D01*
G01*
X15021025Y-23104000D02*
G75*
G02*
X15421025Y-23104000I200000J0D01*
G01*
X15259150Y-17189000D02*
X15659150Y-17589000D01*
X15659150Y-17189000D02*
X15259150Y-17589000D01*
X15659150Y-17389000D02*
G75*
G02*
X15259150Y-17389000I-200000J0D01*
G01*
X15259150Y-17389000D02*
G75*
G02*
X15659150Y-17389000I200000J0D01*
G01*
X15497275Y-19094000D02*
X15897275Y-19494000D01*
X15897275Y-19094000D02*
X15497275Y-19494000D01*
X15897275Y-19294000D02*
G75*
G02*
X15497275Y-19294000I-200000J0D01*
G01*
X15497275Y-19294000D02*
G75*
G02*
X15897275Y-19294000I200000J0D01*
G01*
X15973525Y-20999000D02*
X16373525Y-21399000D01*
X16373525Y-20999000D02*
X15973525Y-21399000D01*
X16373525Y-21199000D02*
G75*
G02*
X15973525Y-21199000I-200000J0D01*
G01*
X15973525Y-21199000D02*
G75*
G02*
X16373525Y-21199000I200000J0D01*
G01*
X16687900Y-15284000D02*
X17087900Y-15684000D01*
X17087900Y-15284000D02*
X16687900Y-15684000D01*
X17087900Y-15484000D02*
G75*
G02*
X16687900Y-15484000I-200000J0D01*
G01*
X16687900Y-15484000D02*
G75*
G02*
X17087900Y-15484000I200000J0D01*
G01*
X17402275Y-22904000D02*
X17802275Y-23304000D01*
X17802275Y-22904000D02*
X17402275Y-23304000D01*
X17802275Y-23104000D02*
G75*
G02*
X17402275Y-23104000I-200000J0D01*
G01*
X17402275Y-23104000D02*
G75*
G02*
X17802275Y-23104000I200000J0D01*
G01*
X17640400Y-17189000D02*
X18040400Y-17589000D01*
X18040400Y-17189000D02*
X17640400Y-17589000D01*
X18040400Y-17389000D02*
G75*
G02*
X17640400Y-17389000I-200000J0D01*
G01*
X17640400Y-17389000D02*
G75*
G02*
X18040400Y-17389000I200000J0D01*
G01*
X18116650Y-19094000D02*
X18516650Y-19494000D01*
X18516650Y-19094000D02*
X18116650Y-19494000D01*
X18516650Y-19294000D02*
G75*
G02*
X18116650Y-19294000I-200000J0D01*
G01*
X18116650Y-19294000D02*
G75*
G02*
X18516650Y-19294000I200000J0D01*
G01*
X18592900Y-15284000D02*
X18992900Y-15684000D01*
X18992900Y-15284000D02*
X18592900Y-15684000D01*
X18992900Y-15484000D02*
G75*
G02*
X18592900Y-15484000I-200000J0D01*
G01*
X18592900Y-15484000D02*
G75*
G02*
X18992900Y-15484000I200000J0D01*
G01*
X19069150Y-20999000D02*
X19469150Y-21399000D01*
X19469150Y-20999000D02*
X19069150Y-21399000D01*
X19469150Y-21199000D02*
G75*
G02*
X19069150Y-21199000I-200000J0D01*
G01*
X19069150Y-21199000D02*
G75*
G02*
X19469150Y-21199000I200000J0D01*
G01*
X19545400Y-17189000D02*
X19945400Y-17589000D01*
X19945400Y-17189000D02*
X19545400Y-17589000D01*
X19945400Y-17389000D02*
G75*
G02*
X19545400Y-17389000I-200000J0D01*
G01*
X19545400Y-17389000D02*
G75*
G02*
X19945400Y-17389000I200000J0D01*
G01*
X19783525Y-22904000D02*
X20183525Y-23304000D01*
X20183525Y-22904000D02*
X19783525Y-23304000D01*
X20183525Y-23104000D02*
G75*
G02*
X19783525Y-23104000I-200000J0D01*
G01*
X19783525Y-23104000D02*
G75*
G02*
X20183525Y-23104000I200000J0D01*
G01*
X20021650Y-19094000D02*
X20421650Y-19494000D01*
X20421650Y-19094000D02*
X20021650Y-19494000D01*
X20421650Y-19294000D02*
G75*
G02*
X20021650Y-19294000I-200000J0D01*
G01*
X20021650Y-19294000D02*
G75*
G02*
X20421650Y-19294000I200000J0D01*
G01*
X20497900Y-15284000D02*
X20897900Y-15684000D01*
X20897900Y-15284000D02*
X20497900Y-15684000D01*
X20897900Y-15484000D02*
G75*
G02*
X20497900Y-15484000I-200000J0D01*
G01*
X20497900Y-15484000D02*
G75*
G02*
X20897900Y-15484000I200000J0D01*
G01*
X20974150Y-20999000D02*
X21374150Y-21399000D01*
X21374150Y-20999000D02*
X20974150Y-21399000D01*
X21374150Y-21199000D02*
G75*
G02*
X20974150Y-21199000I-200000J0D01*
G01*
X20974150Y-21199000D02*
G75*
G02*
X21374150Y-21199000I200000J0D01*
G01*
X21450400Y-17189000D02*
X21850400Y-17589000D01*
X21850400Y-17189000D02*
X21450400Y-17589000D01*
X21850400Y-17389000D02*
G75*
G02*
X21450400Y-17389000I-200000J0D01*
G01*
X21450400Y-17389000D02*
G75*
G02*
X21850400Y-17389000I200000J0D01*
G01*
X21926650Y-19094000D02*
X22326650Y-19494000D01*
X22326650Y-19094000D02*
X21926650Y-19494000D01*
X22326650Y-19294000D02*
G75*
G02*
X21926650Y-19294000I-200000J0D01*
G01*
X21926650Y-19294000D02*
G75*
G02*
X22326650Y-19294000I200000J0D01*
G01*
X22402900Y-15284000D02*
X22802900Y-15684000D01*
X22802900Y-15284000D02*
X22402900Y-15684000D01*
X22802900Y-15484000D02*
G75*
G02*
X22402900Y-15484000I-200000J0D01*
G01*
X22402900Y-15484000D02*
G75*
G02*
X22802900Y-15484000I200000J0D01*
G01*
X22879150Y-20999000D02*
X23279150Y-21399000D01*
X23279150Y-20999000D02*
X22879150Y-21399000D01*
X23279150Y-21199000D02*
G75*
G02*
X22879150Y-21199000I-200000J0D01*
G01*
X22879150Y-21199000D02*
G75*
G02*
X23279150Y-21199000I200000J0D01*
G01*
X23355400Y-17189000D02*
X23755400Y-17589000D01*
X23755400Y-17189000D02*
X23355400Y-17589000D01*
X23755400Y-17389000D02*
G75*
G02*
X23355400Y-17389000I-200000J0D01*
G01*
X23355400Y-17389000D02*
G75*
G02*
X23755400Y-17389000I200000J0D01*
G01*
X23831650Y-19094000D02*
X24231650Y-19494000D01*
X24231650Y-19094000D02*
X23831650Y-19494000D01*
X24231650Y-19294000D02*
G75*
G02*
X23831650Y-19294000I-200000J0D01*
G01*
X23831650Y-19294000D02*
G75*
G02*
X24231650Y-19294000I200000J0D01*
G01*
X23831650Y-22904000D02*
X24231650Y-23304000D01*
X24231650Y-22904000D02*
X23831650Y-23304000D01*
X24231650Y-23104000D02*
G75*
G02*
X23831650Y-23104000I-200000J0D01*
G01*
X23831650Y-23104000D02*
G75*
G02*
X24231650Y-23104000I200000J0D01*
G01*
X24307900Y-15284000D02*
X24707900Y-15684000D01*
X24707900Y-15284000D02*
X24307900Y-15684000D01*
X24707900Y-15484000D02*
G75*
G02*
X24307900Y-15484000I-200000J0D01*
G01*
X24307900Y-15484000D02*
G75*
G02*
X24707900Y-15484000I200000J0D01*
G01*
X24784150Y-20999000D02*
X25184150Y-21399000D01*
X25184150Y-20999000D02*
X24784150Y-21399000D01*
X25184150Y-21199000D02*
G75*
G02*
X24784150Y-21199000I-200000J0D01*
G01*
X24784150Y-21199000D02*
G75*
G02*
X25184150Y-21199000I200000J0D01*
G01*
X25260400Y-17189000D02*
X25660400Y-17589000D01*
X25660400Y-17189000D02*
X25260400Y-17589000D01*
X25660400Y-17389000D02*
G75*
G02*
X25260400Y-17389000I-200000J0D01*
G01*
X25260400Y-17389000D02*
G75*
G02*
X25660400Y-17389000I200000J0D01*
G01*
X25736650Y-19094000D02*
X26136650Y-19494000D01*
X26136650Y-19094000D02*
X25736650Y-19494000D01*
X26136650Y-19294000D02*
G75*
G02*
X25736650Y-19294000I-200000J0D01*
G01*
X25736650Y-19294000D02*
G75*
G02*
X26136650Y-19294000I200000J0D01*
G01*
X26212900Y-15284000D02*
X26612900Y-15684000D01*
X26612900Y-15284000D02*
X26212900Y-15684000D01*
X26612900Y-15484000D02*
G75*
G02*
X26212900Y-15484000I-200000J0D01*
G01*
X26212900Y-15484000D02*
G75*
G02*
X26612900Y-15484000I200000J0D01*
G01*
X26689150Y-20999000D02*
X27089150Y-21399000D01*
X27089150Y-20999000D02*
X26689150Y-21399000D01*
X27089150Y-21199000D02*
G75*
G02*
X26689150Y-21199000I-200000J0D01*
G01*
X26689150Y-21199000D02*
G75*
G02*
X27089150Y-21199000I200000J0D01*
G01*
X27165400Y-17189000D02*
X27565400Y-17589000D01*
X27565400Y-17189000D02*
X27165400Y-17589000D01*
X27565400Y-17389000D02*
G75*
G02*
X27165400Y-17389000I-200000J0D01*
G01*
X27165400Y-17389000D02*
G75*
G02*
X27565400Y-17389000I200000J0D01*
G01*
X30092875Y-19094000D02*
X30492875Y-19494000D01*
X30492875Y-19094000D02*
X30092875Y-19494000D01*
X30492875Y-19294000D02*
G75*
G02*
X30092875Y-19294000I-200000J0D01*
G01*
X30092875Y-19294000D02*
G75*
G02*
X30492875Y-19294000I200000J0D01*
G01*
X30569125Y-15284000D02*
X30969125Y-15684000D01*
X30969125Y-15284000D02*
X30569125Y-15684000D01*
X30969125Y-15484000D02*
G75*
G02*
X30569125Y-15484000I-200000J0D01*
G01*
X30569125Y-15484000D02*
G75*
G02*
X30969125Y-15484000I200000J0D01*
G01*
X31045375Y-20999000D02*
X31445375Y-21399000D01*
X31445375Y-20999000D02*
X31045375Y-21399000D01*
X31445375Y-21199000D02*
G75*
G02*
X31045375Y-21199000I-200000J0D01*
G01*
X31045375Y-21199000D02*
G75*
G02*
X31445375Y-21199000I200000J0D01*
G01*
X31521625Y-17189000D02*
X31921625Y-17589000D01*
X31921625Y-17189000D02*
X31521625Y-17589000D01*
X31921625Y-17389000D02*
G75*
G02*
X31521625Y-17389000I-200000J0D01*
G01*
X31521625Y-17389000D02*
G75*
G02*
X31921625Y-17389000I200000J0D01*
G01*
X31997875Y-19094000D02*
X32397875Y-19494000D01*
X32397875Y-19094000D02*
X31997875Y-19494000D01*
X32397875Y-19294000D02*
G75*
G02*
X31997875Y-19294000I-200000J0D01*
G01*
X31997875Y-19294000D02*
G75*
G02*
X32397875Y-19294000I200000J0D01*
G01*
X31997875Y-22904000D02*
X32397875Y-23304000D01*
X32397875Y-22904000D02*
X31997875Y-23304000D01*
X32397875Y-23104000D02*
G75*
G02*
X31997875Y-23104000I-200000J0D01*
G01*
X31997875Y-23104000D02*
G75*
G02*
X32397875Y-23104000I200000J0D01*
G01*
X32474125Y-15284000D02*
X32874125Y-15684000D01*
X32874125Y-15284000D02*
X32474125Y-15684000D01*
X32874125Y-15484000D02*
G75*
G02*
X32474125Y-15484000I-200000J0D01*
G01*
X32474125Y-15484000D02*
G75*
G02*
X32874125Y-15484000I200000J0D01*
G01*
X32950375Y-20999000D02*
X33350375Y-21399000D01*
X33350375Y-20999000D02*
X32950375Y-21399000D01*
X33350375Y-21199000D02*
G75*
G02*
X32950375Y-21199000I-200000J0D01*
G01*
X32950375Y-21199000D02*
G75*
G02*
X33350375Y-21199000I200000J0D01*
G01*
X33426625Y-17189000D02*
X33826625Y-17589000D01*
X33826625Y-17189000D02*
X33426625Y-17589000D01*
X33826625Y-17389000D02*
G75*
G02*
X33426625Y-17389000I-200000J0D01*
G01*
X33426625Y-17389000D02*
G75*
G02*
X33826625Y-17389000I200000J0D01*
G01*
X33902875Y-19094000D02*
X34302875Y-19494000D01*
X34302875Y-19094000D02*
X33902875Y-19494000D01*
X34302875Y-19294000D02*
G75*
G02*
X33902875Y-19294000I-200000J0D01*
G01*
X33902875Y-19294000D02*
G75*
G02*
X34302875Y-19294000I200000J0D01*
G01*
X34379125Y-15284000D02*
X34779125Y-15684000D01*
X34779125Y-15284000D02*
X34379125Y-15684000D01*
X34779125Y-15484000D02*
G75*
G02*
X34379125Y-15484000I-200000J0D01*
G01*
X34379125Y-15484000D02*
G75*
G02*
X34779125Y-15484000I200000J0D01*
G01*
X34855375Y-20999000D02*
X35255375Y-21399000D01*
X35255375Y-20999000D02*
X34855375Y-21399000D01*
X35255375Y-21199000D02*
G75*
G02*
X34855375Y-21199000I-200000J0D01*
G01*
X34855375Y-21199000D02*
G75*
G02*
X35255375Y-21199000I200000J0D01*
G01*
X35331625Y-17189000D02*
X35731625Y-17589000D01*
X35731625Y-17189000D02*
X35331625Y-17589000D01*
X35731625Y-17389000D02*
G75*
G02*
X35331625Y-17389000I-200000J0D01*
G01*
X35331625Y-17389000D02*
G75*
G02*
X35731625Y-17389000I200000J0D01*
G01*
X35807875Y-19094000D02*
X36207875Y-19494000D01*
X36207875Y-19094000D02*
X35807875Y-19494000D01*
X36207875Y-19294000D02*
G75*
G02*
X35807875Y-19294000I-200000J0D01*
G01*
X35807875Y-19294000D02*
G75*
G02*
X36207875Y-19294000I200000J0D01*
G01*
X36046000Y-22904000D02*
X36446000Y-23304000D01*
X36446000Y-22904000D02*
X36046000Y-23304000D01*
X36446000Y-23104000D02*
G75*
G02*
X36046000Y-23104000I-200000J0D01*
G01*
X36046000Y-23104000D02*
G75*
G02*
X36446000Y-23104000I200000J0D01*
G01*
X36284125Y-15284000D02*
X36684125Y-15684000D01*
X36684125Y-15284000D02*
X36284125Y-15684000D01*
X36684125Y-15484000D02*
G75*
G02*
X36284125Y-15484000I-200000J0D01*
G01*
X36284125Y-15484000D02*
G75*
G02*
X36684125Y-15484000I200000J0D01*
G01*
X36760375Y-20999000D02*
X37160375Y-21399000D01*
X37160375Y-20999000D02*
X36760375Y-21399000D01*
X37160375Y-21199000D02*
G75*
G02*
X36760375Y-21199000I-200000J0D01*
G01*
X36760375Y-21199000D02*
G75*
G02*
X37160375Y-21199000I200000J0D01*
G01*
X37236625Y-17189000D02*
X37636625Y-17589000D01*
X37636625Y-17189000D02*
X37236625Y-17589000D01*
X37636625Y-17389000D02*
G75*
G02*
X37236625Y-17389000I-200000J0D01*
G01*
X37236625Y-17389000D02*
G75*
G02*
X37636625Y-17389000I200000J0D01*
G01*
X37712875Y-19094000D02*
X38112875Y-19494000D01*
X38112875Y-19094000D02*
X37712875Y-19494000D01*
X38112875Y-19294000D02*
G75*
G02*
X37712875Y-19294000I-200000J0D01*
G01*
X37712875Y-19294000D02*
G75*
G02*
X38112875Y-19294000I200000J0D01*
G01*
X38189125Y-15284000D02*
X38589125Y-15684000D01*
X38589125Y-15284000D02*
X38189125Y-15684000D01*
X38589125Y-15484000D02*
G75*
G02*
X38189125Y-15484000I-200000J0D01*
G01*
X38189125Y-15484000D02*
G75*
G02*
X38589125Y-15484000I200000J0D01*
G01*
X38427250Y-22904000D02*
X38827250Y-23304000D01*
X38827250Y-22904000D02*
X38427250Y-23304000D01*
X38827250Y-23104000D02*
G75*
G02*
X38427250Y-23104000I-200000J0D01*
G01*
X38427250Y-23104000D02*
G75*
G02*
X38827250Y-23104000I200000J0D01*
G01*
X38665375Y-20999000D02*
X39065375Y-21399000D01*
X39065375Y-20999000D02*
X38665375Y-21399000D01*
X39065375Y-21199000D02*
G75*
G02*
X38665375Y-21199000I-200000J0D01*
G01*
X38665375Y-21199000D02*
G75*
G02*
X39065375Y-21199000I200000J0D01*
G01*
X39141625Y-17189000D02*
X39541625Y-17589000D01*
X39541625Y-17189000D02*
X39141625Y-17589000D01*
X39541625Y-17389000D02*
G75*
G02*
X39141625Y-17389000I-200000J0D01*
G01*
X39141625Y-17389000D02*
G75*
G02*
X39541625Y-17389000I200000J0D01*
G01*
X39617875Y-19094000D02*
X40017875Y-19494000D01*
X40017875Y-19094000D02*
X39617875Y-19494000D01*
X40017875Y-19294000D02*
G75*
G02*
X39617875Y-19294000I-200000J0D01*
G01*
X39617875Y-19294000D02*
G75*
G02*
X40017875Y-19294000I200000J0D01*
G01*
X40094125Y-15284000D02*
X40494125Y-15684000D01*
X40494125Y-15284000D02*
X40094125Y-15684000D01*
X40494125Y-15484000D02*
G75*
G02*
X40094125Y-15484000I-200000J0D01*
G01*
X40094125Y-15484000D02*
G75*
G02*
X40494125Y-15484000I200000J0D01*
G01*
X40808500Y-22904000D02*
X41208500Y-23304000D01*
X41208500Y-22904000D02*
X40808500Y-23304000D01*
X41208500Y-23104000D02*
G75*
G02*
X40808500Y-23104000I-200000J0D01*
G01*
X40808500Y-23104000D02*
G75*
G02*
X41208500Y-23104000I200000J0D01*
G01*
X41046625Y-17189000D02*
X41446625Y-17589000D01*
X41446625Y-17189000D02*
X41046625Y-17589000D01*
X41446625Y-17389000D02*
G75*
G02*
X41046625Y-17389000I-200000J0D01*
G01*
X41046625Y-17389000D02*
G75*
G02*
X41446625Y-17389000I200000J0D01*
G01*
X42237250Y-20999000D02*
X42637250Y-21399000D01*
X42637250Y-20999000D02*
X42237250Y-21399000D01*
X42637250Y-21199000D02*
G75*
G02*
X42237250Y-21199000I-200000J0D01*
G01*
X42237250Y-21199000D02*
G75*
G02*
X42637250Y-21199000I200000J0D01*
G01*
X42713500Y-19094000D02*
X43113500Y-19494000D01*
X43113500Y-19094000D02*
X42713500Y-19494000D01*
X43113500Y-19294000D02*
G75*
G02*
X42713500Y-19294000I-200000J0D01*
G01*
X42713500Y-19294000D02*
G75*
G02*
X43113500Y-19294000I200000J0D01*
G01*
X42951625Y-15284000D02*
X43351625Y-15684000D01*
X43351625Y-15284000D02*
X42951625Y-15684000D01*
X43351625Y-15484000D02*
G75*
G02*
X42951625Y-15484000I-200000J0D01*
G01*
X42951625Y-15484000D02*
G75*
G02*
X43351625Y-15484000I200000J0D01*
G01*
X43427875Y-17189000D02*
X43827875Y-17589000D01*
X43827875Y-17189000D02*
X43427875Y-17589000D01*
X43827875Y-17389000D02*
G75*
G02*
X43427875Y-17389000I-200000J0D01*
G01*
X43427875Y-17389000D02*
G75*
G02*
X43827875Y-17389000I200000J0D01*
G01*
X43427875Y-22904000D02*
X43827875Y-23304000D01*
X43827875Y-22904000D02*
X43427875Y-23304000D01*
X43827875Y-23104000D02*
G75*
G02*
X43427875Y-23104000I-200000J0D01*
G01*
X43427875Y-23104000D02*
G75*
G02*
X43827875Y-23104000I200000J0D01*
G01*
X46761625Y-15284000D02*
X47161625Y-15684000D01*
X47161625Y-15284000D02*
X46761625Y-15684000D01*
X47161625Y-15484000D02*
G75*
G02*
X46761625Y-15484000I-200000J0D01*
G01*
X46761625Y-15484000D02*
G75*
G02*
X47161625Y-15484000I200000J0D01*
G01*
X46761625Y-22904000D02*
X47161625Y-23304000D01*
X47161625Y-22904000D02*
X46761625Y-23304000D01*
X47161625Y-23104000D02*
G75*
G02*
X46761625Y-23104000I-200000J0D01*
G01*
X46761625Y-23104000D02*
G75*
G02*
X47161625Y-23104000I200000J0D01*
G01*
X47237875Y-17189000D02*
X47637875Y-17589000D01*
X47637875Y-17189000D02*
X47237875Y-17589000D01*
X47637875Y-17389000D02*
G75*
G02*
X47237875Y-17389000I-200000J0D01*
G01*
X47237875Y-17389000D02*
G75*
G02*
X47637875Y-17389000I200000J0D01*
G01*
X47237875Y-20999000D02*
X47637875Y-21399000D01*
X47637875Y-20999000D02*
X47237875Y-21399000D01*
X47637875Y-21199000D02*
G75*
G02*
X47237875Y-21199000I-200000J0D01*
G01*
X47237875Y-21199000D02*
G75*
G02*
X47637875Y-21199000I200000J0D01*
G01*
X47714125Y-19094000D02*
X48114125Y-19494000D01*
X48114125Y-19094000D02*
X47714125Y-19494000D01*
X48114125Y-19294000D02*
G75*
G02*
X47714125Y-19294000I-200000J0D01*
G01*
X47714125Y-19294000D02*
G75*
G02*
X48114125Y-19294000I200000J0D01*
G01*
X48666625Y-15284000D02*
X49066625Y-15684000D01*
X49066625Y-15284000D02*
X48666625Y-15684000D01*
X49066625Y-15484000D02*
G75*
G02*
X48666625Y-15484000I-200000J0D01*
G01*
X48666625Y-15484000D02*
G75*
G02*
X49066625Y-15484000I200000J0D01*
G01*
X48666625Y-22904000D02*
X49066625Y-23304000D01*
X49066625Y-22904000D02*
X48666625Y-23304000D01*
X49066625Y-23104000D02*
G75*
G02*
X48666625Y-23104000I-200000J0D01*
G01*
X48666625Y-23104000D02*
G75*
G02*
X49066625Y-23104000I200000J0D01*
G01*
X49142875Y-17189000D02*
X49542875Y-17589000D01*
X49542875Y-17189000D02*
X49142875Y-17589000D01*
X49542875Y-17389000D02*
G75*
G02*
X49142875Y-17389000I-200000J0D01*
G01*
X49142875Y-17389000D02*
G75*
G02*
X49542875Y-17389000I200000J0D01*
G01*
X49142875Y-20999000D02*
X49542875Y-21399000D01*
X49542875Y-20999000D02*
X49142875Y-21399000D01*
X49542875Y-21199000D02*
G75*
G02*
X49142875Y-21199000I-200000J0D01*
G01*
X49142875Y-21199000D02*
G75*
G02*
X49542875Y-21199000I200000J0D01*
G01*
X49619125Y-19094000D02*
X50019125Y-19494000D01*
X50019125Y-19094000D02*
X49619125Y-19494000D01*
X50019125Y-19294000D02*
G75*
G02*
X49619125Y-19294000I-200000J0D01*
G01*
X49619125Y-19294000D02*
G75*
G02*
X50019125Y-19294000I200000J0D01*
G01*
D12*
X8298677Y-24847984D02*
X8298677Y-24647984D01*
X8298677Y-24647984D02*
X8346296Y-24647984D01*
X8346296Y-24647984D02*
X8374867Y-24657508D01*
X8374867Y-24657508D02*
X8393915Y-24676555D01*
X8393915Y-24676555D02*
X8403439Y-24695603D01*
X8403439Y-24695603D02*
X8412963Y-24733698D01*
X8412963Y-24733698D02*
X8412963Y-24762269D01*
X8412963Y-24762269D02*
X8403439Y-24800365D01*
X8403439Y-24800365D02*
X8393915Y-24819412D01*
X8393915Y-24819412D02*
X8374867Y-24838460D01*
X8374867Y-24838460D02*
X8346296Y-24847984D01*
X8346296Y-24847984D02*
X8298677Y-24847984D01*
X8498677Y-24847984D02*
X8498677Y-24714650D01*
X8498677Y-24752746D02*
X8508201Y-24733698D01*
X8508201Y-24733698D02*
X8517724Y-24724174D01*
X8517724Y-24724174D02*
X8536772Y-24714650D01*
X8536772Y-24714650D02*
X8555820Y-24714650D01*
X8622486Y-24847984D02*
X8622486Y-24714650D01*
X8622486Y-24647984D02*
X8612963Y-24657508D01*
X8612963Y-24657508D02*
X8622486Y-24667031D01*
X8622486Y-24667031D02*
X8632010Y-24657508D01*
X8632010Y-24657508D02*
X8622486Y-24647984D01*
X8622486Y-24647984D02*
X8622486Y-24667031D01*
X8746296Y-24847984D02*
X8727248Y-24838460D01*
X8727248Y-24838460D02*
X8717724Y-24819412D01*
X8717724Y-24819412D02*
X8717724Y-24647984D01*
X8851058Y-24847984D02*
X8832010Y-24838460D01*
X8832010Y-24838460D02*
X8822486Y-24819412D01*
X8822486Y-24819412D02*
X8822486Y-24647984D01*
X9079629Y-24847984D02*
X9079629Y-24647984D01*
X9079629Y-24647984D02*
X9146296Y-24790841D01*
X9146296Y-24790841D02*
X9212963Y-24647984D01*
X9212963Y-24647984D02*
X9212963Y-24847984D01*
X9393915Y-24847984D02*
X9393915Y-24743222D01*
X9393915Y-24743222D02*
X9384391Y-24724174D01*
X9384391Y-24724174D02*
X9365344Y-24714650D01*
X9365344Y-24714650D02*
X9327248Y-24714650D01*
X9327248Y-24714650D02*
X9308201Y-24724174D01*
X9393915Y-24838460D02*
X9374867Y-24847984D01*
X9374867Y-24847984D02*
X9327248Y-24847984D01*
X9327248Y-24847984D02*
X9308201Y-24838460D01*
X9308201Y-24838460D02*
X9298677Y-24819412D01*
X9298677Y-24819412D02*
X9298677Y-24800365D01*
X9298677Y-24800365D02*
X9308201Y-24781317D01*
X9308201Y-24781317D02*
X9327248Y-24771793D01*
X9327248Y-24771793D02*
X9374867Y-24771793D01*
X9374867Y-24771793D02*
X9393915Y-24762269D01*
X9489153Y-24714650D02*
X9489153Y-24914650D01*
X9489153Y-24724174D02*
X9508201Y-24714650D01*
X9508201Y-24714650D02*
X9546296Y-24714650D01*
X9546296Y-24714650D02*
X9565344Y-24724174D01*
X9565344Y-24724174D02*
X9574867Y-24733698D01*
X9574867Y-24733698D02*
X9584391Y-24752746D01*
X9584391Y-24752746D02*
X9584391Y-24809888D01*
X9584391Y-24809888D02*
X9574867Y-24828936D01*
X9574867Y-24828936D02*
X9565344Y-24838460D01*
X9565344Y-24838460D02*
X9546296Y-24847984D01*
X9546296Y-24847984D02*
X9508201Y-24847984D01*
X9508201Y-24847984D02*
X9489153Y-24838460D01*
X9670105Y-24828936D02*
X9679629Y-24838460D01*
X9679629Y-24838460D02*
X9670105Y-24847984D01*
X9670105Y-24847984D02*
X9660582Y-24838460D01*
X9660582Y-24838460D02*
X9670105Y-24828936D01*
X9670105Y-24828936D02*
X9670105Y-24847984D01*
X9670105Y-24724174D02*
X9679629Y-24733698D01*
X9679629Y-24733698D02*
X9670105Y-24743222D01*
X9670105Y-24743222D02*
X9660582Y-24733698D01*
X9660582Y-24733698D02*
X9670105Y-24724174D01*
X9670105Y-24724174D02*
X9670105Y-24743222D01*
D10*
X7957900Y-25136500D02*
X8037900Y-25216500D01*
X8037900Y-25136500D02*
X7957900Y-25216500D01*
D12*
X8336772Y-25067984D02*
X8355820Y-25067984D01*
X8355820Y-25067984D02*
X8374867Y-25077508D01*
X8374867Y-25077508D02*
X8384391Y-25087031D01*
X8384391Y-25087031D02*
X8393915Y-25106079D01*
X8393915Y-25106079D02*
X8403439Y-25144174D01*
X8403439Y-25144174D02*
X8403439Y-25191793D01*
X8403439Y-25191793D02*
X8393915Y-25229888D01*
X8393915Y-25229888D02*
X8384391Y-25248936D01*
X8384391Y-25248936D02*
X8374867Y-25258460D01*
X8374867Y-25258460D02*
X8355820Y-25267984D01*
X8355820Y-25267984D02*
X8336772Y-25267984D01*
X8336772Y-25267984D02*
X8317724Y-25258460D01*
X8317724Y-25258460D02*
X8308201Y-25248936D01*
X8308201Y-25248936D02*
X8298677Y-25229888D01*
X8298677Y-25229888D02*
X8289153Y-25191793D01*
X8289153Y-25191793D02*
X8289153Y-25144174D01*
X8289153Y-25144174D02*
X8298677Y-25106079D01*
X8298677Y-25106079D02*
X8308201Y-25087031D01*
X8308201Y-25087031D02*
X8317724Y-25077508D01*
X8317724Y-25077508D02*
X8336772Y-25067984D01*
X8489153Y-25248936D02*
X8498677Y-25258460D01*
X8498677Y-25258460D02*
X8489153Y-25267984D01*
X8489153Y-25267984D02*
X8479629Y-25258460D01*
X8479629Y-25258460D02*
X8489153Y-25248936D01*
X8489153Y-25248936D02*
X8489153Y-25267984D01*
X8612963Y-25153698D02*
X8593915Y-25144174D01*
X8593915Y-25144174D02*
X8584391Y-25134650D01*
X8584391Y-25134650D02*
X8574867Y-25115603D01*
X8574867Y-25115603D02*
X8574867Y-25106079D01*
X8574867Y-25106079D02*
X8584391Y-25087031D01*
X8584391Y-25087031D02*
X8593915Y-25077508D01*
X8593915Y-25077508D02*
X8612963Y-25067984D01*
X8612963Y-25067984D02*
X8651058Y-25067984D01*
X8651058Y-25067984D02*
X8670105Y-25077508D01*
X8670105Y-25077508D02*
X8679629Y-25087031D01*
X8679629Y-25087031D02*
X8689153Y-25106079D01*
X8689153Y-25106079D02*
X8689153Y-25115603D01*
X8689153Y-25115603D02*
X8679629Y-25134650D01*
X8679629Y-25134650D02*
X8670105Y-25144174D01*
X8670105Y-25144174D02*
X8651058Y-25153698D01*
X8651058Y-25153698D02*
X8612963Y-25153698D01*
X8612963Y-25153698D02*
X8593915Y-25163222D01*
X8593915Y-25163222D02*
X8584391Y-25172746D01*
X8584391Y-25172746D02*
X8574867Y-25191793D01*
X8574867Y-25191793D02*
X8574867Y-25229888D01*
X8574867Y-25229888D02*
X8584391Y-25248936D01*
X8584391Y-25248936D02*
X8593915Y-25258460D01*
X8593915Y-25258460D02*
X8612963Y-25267984D01*
X8612963Y-25267984D02*
X8651058Y-25267984D01*
X8651058Y-25267984D02*
X8670105Y-25258460D01*
X8670105Y-25258460D02*
X8679629Y-25248936D01*
X8679629Y-25248936D02*
X8689153Y-25229888D01*
X8689153Y-25229888D02*
X8689153Y-25191793D01*
X8689153Y-25191793D02*
X8679629Y-25172746D01*
X8679629Y-25172746D02*
X8670105Y-25163222D01*
X8670105Y-25163222D02*
X8651058Y-25153698D01*
X8812963Y-25067984D02*
X8832010Y-25067984D01*
X8832010Y-25067984D02*
X8851058Y-25077508D01*
X8851058Y-25077508D02*
X8860582Y-25087031D01*
X8860582Y-25087031D02*
X8870105Y-25106079D01*
X8870105Y-25106079D02*
X8879629Y-25144174D01*
X8879629Y-25144174D02*
X8879629Y-25191793D01*
X8879629Y-25191793D02*
X8870105Y-25229888D01*
X8870105Y-25229888D02*
X8860582Y-25248936D01*
X8860582Y-25248936D02*
X8851058Y-25258460D01*
X8851058Y-25258460D02*
X8832010Y-25267984D01*
X8832010Y-25267984D02*
X8812963Y-25267984D01*
X8812963Y-25267984D02*
X8793915Y-25258460D01*
X8793915Y-25258460D02*
X8784391Y-25248936D01*
X8784391Y-25248936D02*
X8774867Y-25229888D01*
X8774867Y-25229888D02*
X8765344Y-25191793D01*
X8765344Y-25191793D02*
X8765344Y-25144174D01*
X8765344Y-25144174D02*
X8774867Y-25106079D01*
X8774867Y-25106079D02*
X8784391Y-25087031D01*
X8784391Y-25087031D02*
X8793915Y-25077508D01*
X8793915Y-25077508D02*
X8812963Y-25067984D01*
X9003439Y-25067984D02*
X9022486Y-25067984D01*
X9022486Y-25067984D02*
X9041534Y-25077508D01*
X9041534Y-25077508D02*
X9051058Y-25087031D01*
X9051058Y-25087031D02*
X9060582Y-25106079D01*
X9060582Y-25106079D02*
X9070105Y-25144174D01*
X9070105Y-25144174D02*
X9070105Y-25191793D01*
X9070105Y-25191793D02*
X9060582Y-25229888D01*
X9060582Y-25229888D02*
X9051058Y-25248936D01*
X9051058Y-25248936D02*
X9041534Y-25258460D01*
X9041534Y-25258460D02*
X9022486Y-25267984D01*
X9022486Y-25267984D02*
X9003439Y-25267984D01*
X9003439Y-25267984D02*
X8984391Y-25258460D01*
X8984391Y-25258460D02*
X8974867Y-25248936D01*
X8974867Y-25248936D02*
X8965344Y-25229888D01*
X8965344Y-25229888D02*
X8955820Y-25191793D01*
X8955820Y-25191793D02*
X8955820Y-25144174D01*
X8955820Y-25144174D02*
X8965344Y-25106079D01*
X8965344Y-25106079D02*
X8974867Y-25087031D01*
X8974867Y-25087031D02*
X8984391Y-25077508D01*
X8984391Y-25077508D02*
X9003439Y-25067984D01*
X9155820Y-25267984D02*
X9155820Y-25134650D01*
X9155820Y-25153698D02*
X9165344Y-25144174D01*
X9165344Y-25144174D02*
X9184391Y-25134650D01*
X9184391Y-25134650D02*
X9212963Y-25134650D01*
X9212963Y-25134650D02*
X9232010Y-25144174D01*
X9232010Y-25144174D02*
X9241534Y-25163222D01*
X9241534Y-25163222D02*
X9241534Y-25267984D01*
X9241534Y-25163222D02*
X9251058Y-25144174D01*
X9251058Y-25144174D02*
X9270105Y-25134650D01*
X9270105Y-25134650D02*
X9298677Y-25134650D01*
X9298677Y-25134650D02*
X9317725Y-25144174D01*
X9317725Y-25144174D02*
X9327248Y-25163222D01*
X9327248Y-25163222D02*
X9327248Y-25267984D01*
X9422486Y-25267984D02*
X9422486Y-25134650D01*
X9422486Y-25153698D02*
X9432010Y-25144174D01*
X9432010Y-25144174D02*
X9451058Y-25134650D01*
X9451058Y-25134650D02*
X9479629Y-25134650D01*
X9479629Y-25134650D02*
X9498677Y-25144174D01*
X9498677Y-25144174D02*
X9508201Y-25163222D01*
X9508201Y-25163222D02*
X9508201Y-25267984D01*
X9508201Y-25163222D02*
X9517725Y-25144174D01*
X9517725Y-25144174D02*
X9536772Y-25134650D01*
X9536772Y-25134650D02*
X9565344Y-25134650D01*
X9565344Y-25134650D02*
X9584391Y-25144174D01*
X9584391Y-25144174D02*
X9593915Y-25163222D01*
X9593915Y-25163222D02*
X9593915Y-25267984D01*
X9984391Y-25058460D02*
X9812963Y-25315603D01*
X10241534Y-25067984D02*
X10260582Y-25067984D01*
X10260582Y-25067984D02*
X10279629Y-25077508D01*
X10279629Y-25077508D02*
X10289153Y-25087031D01*
X10289153Y-25087031D02*
X10298677Y-25106079D01*
X10298677Y-25106079D02*
X10308201Y-25144174D01*
X10308201Y-25144174D02*
X10308201Y-25191793D01*
X10308201Y-25191793D02*
X10298677Y-25229888D01*
X10298677Y-25229888D02*
X10289153Y-25248936D01*
X10289153Y-25248936D02*
X10279629Y-25258460D01*
X10279629Y-25258460D02*
X10260582Y-25267984D01*
X10260582Y-25267984D02*
X10241534Y-25267984D01*
X10241534Y-25267984D02*
X10222487Y-25258460D01*
X10222487Y-25258460D02*
X10212963Y-25248936D01*
X10212963Y-25248936D02*
X10203439Y-25229888D01*
X10203439Y-25229888D02*
X10193915Y-25191793D01*
X10193915Y-25191793D02*
X10193915Y-25144174D01*
X10193915Y-25144174D02*
X10203439Y-25106079D01*
X10203439Y-25106079D02*
X10212963Y-25087031D01*
X10212963Y-25087031D02*
X10222487Y-25077508D01*
X10222487Y-25077508D02*
X10241534Y-25067984D01*
X10393915Y-25248936D02*
X10403439Y-25258460D01*
X10403439Y-25258460D02*
X10393915Y-25267984D01*
X10393915Y-25267984D02*
X10384391Y-25258460D01*
X10384391Y-25258460D02*
X10393915Y-25248936D01*
X10393915Y-25248936D02*
X10393915Y-25267984D01*
X10527248Y-25067984D02*
X10546296Y-25067984D01*
X10546296Y-25067984D02*
X10565344Y-25077508D01*
X10565344Y-25077508D02*
X10574868Y-25087031D01*
X10574868Y-25087031D02*
X10584391Y-25106079D01*
X10584391Y-25106079D02*
X10593915Y-25144174D01*
X10593915Y-25144174D02*
X10593915Y-25191793D01*
X10593915Y-25191793D02*
X10584391Y-25229888D01*
X10584391Y-25229888D02*
X10574868Y-25248936D01*
X10574868Y-25248936D02*
X10565344Y-25258460D01*
X10565344Y-25258460D02*
X10546296Y-25267984D01*
X10546296Y-25267984D02*
X10527248Y-25267984D01*
X10527248Y-25267984D02*
X10508201Y-25258460D01*
X10508201Y-25258460D02*
X10498677Y-25248936D01*
X10498677Y-25248936D02*
X10489153Y-25229888D01*
X10489153Y-25229888D02*
X10479629Y-25191793D01*
X10479629Y-25191793D02*
X10479629Y-25144174D01*
X10479629Y-25144174D02*
X10489153Y-25106079D01*
X10489153Y-25106079D02*
X10498677Y-25087031D01*
X10498677Y-25087031D02*
X10508201Y-25077508D01*
X10508201Y-25077508D02*
X10527248Y-25067984D01*
X10660582Y-25067984D02*
X10784391Y-25067984D01*
X10784391Y-25067984D02*
X10717725Y-25144174D01*
X10717725Y-25144174D02*
X10746296Y-25144174D01*
X10746296Y-25144174D02*
X10765344Y-25153698D01*
X10765344Y-25153698D02*
X10774868Y-25163222D01*
X10774868Y-25163222D02*
X10784391Y-25182269D01*
X10784391Y-25182269D02*
X10784391Y-25229888D01*
X10784391Y-25229888D02*
X10774868Y-25248936D01*
X10774868Y-25248936D02*
X10765344Y-25258460D01*
X10765344Y-25258460D02*
X10746296Y-25267984D01*
X10746296Y-25267984D02*
X10689153Y-25267984D01*
X10689153Y-25267984D02*
X10670106Y-25258460D01*
X10670106Y-25258460D02*
X10660582Y-25248936D01*
X10974868Y-25267984D02*
X10860582Y-25267984D01*
X10917725Y-25267984D02*
X10917725Y-25067984D01*
X10917725Y-25067984D02*
X10898677Y-25096555D01*
X10898677Y-25096555D02*
X10879629Y-25115603D01*
X10879629Y-25115603D02*
X10860582Y-25125127D01*
X11155820Y-25067984D02*
X11060582Y-25067984D01*
X11060582Y-25067984D02*
X11051058Y-25163222D01*
X11051058Y-25163222D02*
X11060582Y-25153698D01*
X11060582Y-25153698D02*
X11079629Y-25144174D01*
X11079629Y-25144174D02*
X11127249Y-25144174D01*
X11127249Y-25144174D02*
X11146296Y-25153698D01*
X11146296Y-25153698D02*
X11155820Y-25163222D01*
X11155820Y-25163222D02*
X11165344Y-25182269D01*
X11165344Y-25182269D02*
X11165344Y-25229888D01*
X11165344Y-25229888D02*
X11155820Y-25248936D01*
X11155820Y-25248936D02*
X11146296Y-25258460D01*
X11146296Y-25258460D02*
X11127249Y-25267984D01*
X11127249Y-25267984D02*
X11079629Y-25267984D01*
X11079629Y-25267984D02*
X11060582Y-25258460D01*
X11060582Y-25258460D02*
X11051058Y-25248936D01*
X11241534Y-25067984D02*
X11241534Y-25106079D01*
X11317725Y-25067984D02*
X11317725Y-25106079D01*
X11612963Y-25344174D02*
X11603439Y-25334650D01*
X11603439Y-25334650D02*
X11584391Y-25306079D01*
X11584391Y-25306079D02*
X11574868Y-25287031D01*
X11574868Y-25287031D02*
X11565344Y-25258460D01*
X11565344Y-25258460D02*
X11555820Y-25210841D01*
X11555820Y-25210841D02*
X11555820Y-25172746D01*
X11555820Y-25172746D02*
X11565344Y-25125127D01*
X11565344Y-25125127D02*
X11574868Y-25096555D01*
X11574868Y-25096555D02*
X11584391Y-25077508D01*
X11584391Y-25077508D02*
X11603439Y-25048936D01*
X11603439Y-25048936D02*
X11612963Y-25039412D01*
X11774868Y-25134650D02*
X11774868Y-25267984D01*
X11727248Y-25058460D02*
X11679629Y-25201317D01*
X11679629Y-25201317D02*
X11803439Y-25201317D01*
X12032010Y-25267984D02*
X12032010Y-25067984D01*
X12117725Y-25267984D02*
X12117725Y-25163222D01*
X12117725Y-25163222D02*
X12108201Y-25144174D01*
X12108201Y-25144174D02*
X12089153Y-25134650D01*
X12089153Y-25134650D02*
X12060582Y-25134650D01*
X12060582Y-25134650D02*
X12041534Y-25144174D01*
X12041534Y-25144174D02*
X12032010Y-25153698D01*
X12241534Y-25267984D02*
X12222487Y-25258460D01*
X12222487Y-25258460D02*
X12212963Y-25248936D01*
X12212963Y-25248936D02*
X12203439Y-25229888D01*
X12203439Y-25229888D02*
X12203439Y-25172746D01*
X12203439Y-25172746D02*
X12212963Y-25153698D01*
X12212963Y-25153698D02*
X12222487Y-25144174D01*
X12222487Y-25144174D02*
X12241534Y-25134650D01*
X12241534Y-25134650D02*
X12270106Y-25134650D01*
X12270106Y-25134650D02*
X12289153Y-25144174D01*
X12289153Y-25144174D02*
X12298677Y-25153698D01*
X12298677Y-25153698D02*
X12308201Y-25172746D01*
X12308201Y-25172746D02*
X12308201Y-25229888D01*
X12308201Y-25229888D02*
X12298677Y-25248936D01*
X12298677Y-25248936D02*
X12289153Y-25258460D01*
X12289153Y-25258460D02*
X12270106Y-25267984D01*
X12270106Y-25267984D02*
X12241534Y-25267984D01*
X12422487Y-25267984D02*
X12403439Y-25258460D01*
X12403439Y-25258460D02*
X12393915Y-25239412D01*
X12393915Y-25239412D02*
X12393915Y-25067984D01*
X12574868Y-25258460D02*
X12555820Y-25267984D01*
X12555820Y-25267984D02*
X12517725Y-25267984D01*
X12517725Y-25267984D02*
X12498677Y-25258460D01*
X12498677Y-25258460D02*
X12489153Y-25239412D01*
X12489153Y-25239412D02*
X12489153Y-25163222D01*
X12489153Y-25163222D02*
X12498677Y-25144174D01*
X12498677Y-25144174D02*
X12517725Y-25134650D01*
X12517725Y-25134650D02*
X12555820Y-25134650D01*
X12555820Y-25134650D02*
X12574868Y-25144174D01*
X12574868Y-25144174D02*
X12584391Y-25163222D01*
X12584391Y-25163222D02*
X12584391Y-25182269D01*
X12584391Y-25182269D02*
X12489153Y-25201317D01*
X12660582Y-25258460D02*
X12679630Y-25267984D01*
X12679630Y-25267984D02*
X12717725Y-25267984D01*
X12717725Y-25267984D02*
X12736772Y-25258460D01*
X12736772Y-25258460D02*
X12746296Y-25239412D01*
X12746296Y-25239412D02*
X12746296Y-25229888D01*
X12746296Y-25229888D02*
X12736772Y-25210841D01*
X12736772Y-25210841D02*
X12717725Y-25201317D01*
X12717725Y-25201317D02*
X12689153Y-25201317D01*
X12689153Y-25201317D02*
X12670106Y-25191793D01*
X12670106Y-25191793D02*
X12660582Y-25172746D01*
X12660582Y-25172746D02*
X12660582Y-25163222D01*
X12660582Y-25163222D02*
X12670106Y-25144174D01*
X12670106Y-25144174D02*
X12689153Y-25134650D01*
X12689153Y-25134650D02*
X12717725Y-25134650D01*
X12717725Y-25134650D02*
X12736772Y-25144174D01*
X12812963Y-25344174D02*
X12822487Y-25334650D01*
X12822487Y-25334650D02*
X12841534Y-25306079D01*
X12841534Y-25306079D02*
X12851058Y-25287031D01*
X12851058Y-25287031D02*
X12860582Y-25258460D01*
X12860582Y-25258460D02*
X12870106Y-25210841D01*
X12870106Y-25210841D02*
X12870106Y-25172746D01*
X12870106Y-25172746D02*
X12860582Y-25125127D01*
X12860582Y-25125127D02*
X12851058Y-25096555D01*
X12851058Y-25096555D02*
X12841534Y-25077508D01*
X12841534Y-25077508D02*
X12822487Y-25048936D01*
X12822487Y-25048936D02*
X12812963Y-25039412D01*
X13174868Y-25344174D02*
X13165344Y-25334650D01*
X13165344Y-25334650D02*
X13146296Y-25306079D01*
X13146296Y-25306079D02*
X13136772Y-25287031D01*
X13136772Y-25287031D02*
X13127249Y-25258460D01*
X13127249Y-25258460D02*
X13117725Y-25210841D01*
X13117725Y-25210841D02*
X13117725Y-25172746D01*
X13117725Y-25172746D02*
X13127249Y-25125127D01*
X13127249Y-25125127D02*
X13136772Y-25096555D01*
X13136772Y-25096555D02*
X13146296Y-25077508D01*
X13146296Y-25077508D02*
X13165344Y-25048936D01*
X13165344Y-25048936D02*
X13174868Y-25039412D01*
X13251058Y-25134650D02*
X13251058Y-25267984D01*
X13251058Y-25153698D02*
X13260582Y-25144174D01*
X13260582Y-25144174D02*
X13279630Y-25134650D01*
X13279630Y-25134650D02*
X13308201Y-25134650D01*
X13308201Y-25134650D02*
X13327249Y-25144174D01*
X13327249Y-25144174D02*
X13336772Y-25163222D01*
X13336772Y-25163222D02*
X13336772Y-25267984D01*
X13460582Y-25267984D02*
X13441534Y-25258460D01*
X13441534Y-25258460D02*
X13432011Y-25248936D01*
X13432011Y-25248936D02*
X13422487Y-25229888D01*
X13422487Y-25229888D02*
X13422487Y-25172746D01*
X13422487Y-25172746D02*
X13432011Y-25153698D01*
X13432011Y-25153698D02*
X13441534Y-25144174D01*
X13441534Y-25144174D02*
X13460582Y-25134650D01*
X13460582Y-25134650D02*
X13489153Y-25134650D01*
X13489153Y-25134650D02*
X13508201Y-25144174D01*
X13508201Y-25144174D02*
X13517725Y-25153698D01*
X13517725Y-25153698D02*
X13527249Y-25172746D01*
X13527249Y-25172746D02*
X13527249Y-25229888D01*
X13527249Y-25229888D02*
X13517725Y-25248936D01*
X13517725Y-25248936D02*
X13508201Y-25258460D01*
X13508201Y-25258460D02*
X13489153Y-25267984D01*
X13489153Y-25267984D02*
X13460582Y-25267984D01*
X13584392Y-25134650D02*
X13660582Y-25134650D01*
X13612963Y-25067984D02*
X13612963Y-25239412D01*
X13612963Y-25239412D02*
X13622487Y-25258460D01*
X13622487Y-25258460D02*
X13641534Y-25267984D01*
X13641534Y-25267984D02*
X13660582Y-25267984D01*
X13879630Y-25134650D02*
X13879630Y-25334650D01*
X13879630Y-25144174D02*
X13898677Y-25134650D01*
X13898677Y-25134650D02*
X13936773Y-25134650D01*
X13936773Y-25134650D02*
X13955820Y-25144174D01*
X13955820Y-25144174D02*
X13965344Y-25153698D01*
X13965344Y-25153698D02*
X13974868Y-25172746D01*
X13974868Y-25172746D02*
X13974868Y-25229888D01*
X13974868Y-25229888D02*
X13965344Y-25248936D01*
X13965344Y-25248936D02*
X13955820Y-25258460D01*
X13955820Y-25258460D02*
X13936773Y-25267984D01*
X13936773Y-25267984D02*
X13898677Y-25267984D01*
X13898677Y-25267984D02*
X13879630Y-25258460D01*
X14089153Y-25267984D02*
X14070106Y-25258460D01*
X14070106Y-25258460D02*
X14060582Y-25239412D01*
X14060582Y-25239412D02*
X14060582Y-25067984D01*
X14251058Y-25267984D02*
X14251058Y-25163222D01*
X14251058Y-25163222D02*
X14241534Y-25144174D01*
X14241534Y-25144174D02*
X14222487Y-25134650D01*
X14222487Y-25134650D02*
X14184392Y-25134650D01*
X14184392Y-25134650D02*
X14165344Y-25144174D01*
X14251058Y-25258460D02*
X14232011Y-25267984D01*
X14232011Y-25267984D02*
X14184392Y-25267984D01*
X14184392Y-25267984D02*
X14165344Y-25258460D01*
X14165344Y-25258460D02*
X14155820Y-25239412D01*
X14155820Y-25239412D02*
X14155820Y-25220365D01*
X14155820Y-25220365D02*
X14165344Y-25201317D01*
X14165344Y-25201317D02*
X14184392Y-25191793D01*
X14184392Y-25191793D02*
X14232011Y-25191793D01*
X14232011Y-25191793D02*
X14251058Y-25182269D01*
X14317725Y-25134650D02*
X14393915Y-25134650D01*
X14346296Y-25067984D02*
X14346296Y-25239412D01*
X14346296Y-25239412D02*
X14355820Y-25258460D01*
X14355820Y-25258460D02*
X14374868Y-25267984D01*
X14374868Y-25267984D02*
X14393915Y-25267984D01*
X14536773Y-25258460D02*
X14517725Y-25267984D01*
X14517725Y-25267984D02*
X14479630Y-25267984D01*
X14479630Y-25267984D02*
X14460582Y-25258460D01*
X14460582Y-25258460D02*
X14451058Y-25239412D01*
X14451058Y-25239412D02*
X14451058Y-25163222D01*
X14451058Y-25163222D02*
X14460582Y-25144174D01*
X14460582Y-25144174D02*
X14479630Y-25134650D01*
X14479630Y-25134650D02*
X14517725Y-25134650D01*
X14517725Y-25134650D02*
X14536773Y-25144174D01*
X14536773Y-25144174D02*
X14546296Y-25163222D01*
X14546296Y-25163222D02*
X14546296Y-25182269D01*
X14546296Y-25182269D02*
X14451058Y-25201317D01*
X14717725Y-25267984D02*
X14717725Y-25067984D01*
X14717725Y-25258460D02*
X14698677Y-25267984D01*
X14698677Y-25267984D02*
X14660582Y-25267984D01*
X14660582Y-25267984D02*
X14641534Y-25258460D01*
X14641534Y-25258460D02*
X14632011Y-25248936D01*
X14632011Y-25248936D02*
X14622487Y-25229888D01*
X14622487Y-25229888D02*
X14622487Y-25172746D01*
X14622487Y-25172746D02*
X14632011Y-25153698D01*
X14632011Y-25153698D02*
X14641534Y-25144174D01*
X14641534Y-25144174D02*
X14660582Y-25134650D01*
X14660582Y-25134650D02*
X14698677Y-25134650D01*
X14698677Y-25134650D02*
X14717725Y-25144174D01*
X14793915Y-25344174D02*
X14803439Y-25334650D01*
X14803439Y-25334650D02*
X14822487Y-25306079D01*
X14822487Y-25306079D02*
X14832011Y-25287031D01*
X14832011Y-25287031D02*
X14841534Y-25258460D01*
X14841534Y-25258460D02*
X14851058Y-25210841D01*
X14851058Y-25210841D02*
X14851058Y-25172746D01*
X14851058Y-25172746D02*
X14841534Y-25125127D01*
X14841534Y-25125127D02*
X14832011Y-25096555D01*
X14832011Y-25096555D02*
X14822487Y-25077508D01*
X14822487Y-25077508D02*
X14803439Y-25048936D01*
X14803439Y-25048936D02*
X14793915Y-25039412D01*
D13*
X8037900Y-25440500D02*
G75*
G02*
X7862900Y-25440500I-87500J0D01*
G01*
X7862900Y-25440500D02*
G75*
G02*
X8037900Y-25440500I87500J0D01*
G01*
D12*
X8403439Y-25531984D02*
X8289153Y-25531984D01*
X8346296Y-25531984D02*
X8346296Y-25331984D01*
X8346296Y-25331984D02*
X8327248Y-25360555D01*
X8327248Y-25360555D02*
X8308201Y-25379603D01*
X8308201Y-25379603D02*
X8289153Y-25389127D01*
X8489153Y-25512936D02*
X8498677Y-25522460D01*
X8498677Y-25522460D02*
X8489153Y-25531984D01*
X8489153Y-25531984D02*
X8479629Y-25522460D01*
X8479629Y-25522460D02*
X8489153Y-25512936D01*
X8489153Y-25512936D02*
X8489153Y-25531984D01*
X8565344Y-25331984D02*
X8698677Y-25331984D01*
X8698677Y-25331984D02*
X8612963Y-25531984D01*
X8870105Y-25331984D02*
X8774867Y-25331984D01*
X8774867Y-25331984D02*
X8765344Y-25427222D01*
X8765344Y-25427222D02*
X8774867Y-25417698D01*
X8774867Y-25417698D02*
X8793915Y-25408174D01*
X8793915Y-25408174D02*
X8841534Y-25408174D01*
X8841534Y-25408174D02*
X8860582Y-25417698D01*
X8860582Y-25417698D02*
X8870105Y-25427222D01*
X8870105Y-25427222D02*
X8879629Y-25446269D01*
X8879629Y-25446269D02*
X8879629Y-25493888D01*
X8879629Y-25493888D02*
X8870105Y-25512936D01*
X8870105Y-25512936D02*
X8860582Y-25522460D01*
X8860582Y-25522460D02*
X8841534Y-25531984D01*
X8841534Y-25531984D02*
X8793915Y-25531984D01*
X8793915Y-25531984D02*
X8774867Y-25522460D01*
X8774867Y-25522460D02*
X8765344Y-25512936D01*
X9003439Y-25331984D02*
X9022486Y-25331984D01*
X9022486Y-25331984D02*
X9041534Y-25341508D01*
X9041534Y-25341508D02*
X9051058Y-25351031D01*
X9051058Y-25351031D02*
X9060582Y-25370079D01*
X9060582Y-25370079D02*
X9070105Y-25408174D01*
X9070105Y-25408174D02*
X9070105Y-25455793D01*
X9070105Y-25455793D02*
X9060582Y-25493888D01*
X9060582Y-25493888D02*
X9051058Y-25512936D01*
X9051058Y-25512936D02*
X9041534Y-25522460D01*
X9041534Y-25522460D02*
X9022486Y-25531984D01*
X9022486Y-25531984D02*
X9003439Y-25531984D01*
X9003439Y-25531984D02*
X8984391Y-25522460D01*
X8984391Y-25522460D02*
X8974867Y-25512936D01*
X8974867Y-25512936D02*
X8965344Y-25493888D01*
X8965344Y-25493888D02*
X8955820Y-25455793D01*
X8955820Y-25455793D02*
X8955820Y-25408174D01*
X8955820Y-25408174D02*
X8965344Y-25370079D01*
X8965344Y-25370079D02*
X8974867Y-25351031D01*
X8974867Y-25351031D02*
X8984391Y-25341508D01*
X8984391Y-25341508D02*
X9003439Y-25331984D01*
X9155820Y-25531984D02*
X9155820Y-25398650D01*
X9155820Y-25417698D02*
X9165344Y-25408174D01*
X9165344Y-25408174D02*
X9184391Y-25398650D01*
X9184391Y-25398650D02*
X9212963Y-25398650D01*
X9212963Y-25398650D02*
X9232010Y-25408174D01*
X9232010Y-25408174D02*
X9241534Y-25427222D01*
X9241534Y-25427222D02*
X9241534Y-25531984D01*
X9241534Y-25427222D02*
X9251058Y-25408174D01*
X9251058Y-25408174D02*
X9270105Y-25398650D01*
X9270105Y-25398650D02*
X9298677Y-25398650D01*
X9298677Y-25398650D02*
X9317725Y-25408174D01*
X9317725Y-25408174D02*
X9327248Y-25427222D01*
X9327248Y-25427222D02*
X9327248Y-25531984D01*
X9422486Y-25531984D02*
X9422486Y-25398650D01*
X9422486Y-25417698D02*
X9432010Y-25408174D01*
X9432010Y-25408174D02*
X9451058Y-25398650D01*
X9451058Y-25398650D02*
X9479629Y-25398650D01*
X9479629Y-25398650D02*
X9498677Y-25408174D01*
X9498677Y-25408174D02*
X9508201Y-25427222D01*
X9508201Y-25427222D02*
X9508201Y-25531984D01*
X9508201Y-25427222D02*
X9517725Y-25408174D01*
X9517725Y-25408174D02*
X9536772Y-25398650D01*
X9536772Y-25398650D02*
X9565344Y-25398650D01*
X9565344Y-25398650D02*
X9584391Y-25408174D01*
X9584391Y-25408174D02*
X9593915Y-25427222D01*
X9593915Y-25427222D02*
X9593915Y-25531984D01*
X9984391Y-25322460D02*
X9812963Y-25579603D01*
X10241534Y-25331984D02*
X10260582Y-25331984D01*
X10260582Y-25331984D02*
X10279629Y-25341508D01*
X10279629Y-25341508D02*
X10289153Y-25351031D01*
X10289153Y-25351031D02*
X10298677Y-25370079D01*
X10298677Y-25370079D02*
X10308201Y-25408174D01*
X10308201Y-25408174D02*
X10308201Y-25455793D01*
X10308201Y-25455793D02*
X10298677Y-25493888D01*
X10298677Y-25493888D02*
X10289153Y-25512936D01*
X10289153Y-25512936D02*
X10279629Y-25522460D01*
X10279629Y-25522460D02*
X10260582Y-25531984D01*
X10260582Y-25531984D02*
X10241534Y-25531984D01*
X10241534Y-25531984D02*
X10222487Y-25522460D01*
X10222487Y-25522460D02*
X10212963Y-25512936D01*
X10212963Y-25512936D02*
X10203439Y-25493888D01*
X10203439Y-25493888D02*
X10193915Y-25455793D01*
X10193915Y-25455793D02*
X10193915Y-25408174D01*
X10193915Y-25408174D02*
X10203439Y-25370079D01*
X10203439Y-25370079D02*
X10212963Y-25351031D01*
X10212963Y-25351031D02*
X10222487Y-25341508D01*
X10222487Y-25341508D02*
X10241534Y-25331984D01*
X10393915Y-25512936D02*
X10403439Y-25522460D01*
X10403439Y-25522460D02*
X10393915Y-25531984D01*
X10393915Y-25531984D02*
X10384391Y-25522460D01*
X10384391Y-25522460D02*
X10393915Y-25512936D01*
X10393915Y-25512936D02*
X10393915Y-25531984D01*
X10527248Y-25331984D02*
X10546296Y-25331984D01*
X10546296Y-25331984D02*
X10565344Y-25341508D01*
X10565344Y-25341508D02*
X10574868Y-25351031D01*
X10574868Y-25351031D02*
X10584391Y-25370079D01*
X10584391Y-25370079D02*
X10593915Y-25408174D01*
X10593915Y-25408174D02*
X10593915Y-25455793D01*
X10593915Y-25455793D02*
X10584391Y-25493888D01*
X10584391Y-25493888D02*
X10574868Y-25512936D01*
X10574868Y-25512936D02*
X10565344Y-25522460D01*
X10565344Y-25522460D02*
X10546296Y-25531984D01*
X10546296Y-25531984D02*
X10527248Y-25531984D01*
X10527248Y-25531984D02*
X10508201Y-25522460D01*
X10508201Y-25522460D02*
X10498677Y-25512936D01*
X10498677Y-25512936D02*
X10489153Y-25493888D01*
X10489153Y-25493888D02*
X10479629Y-25455793D01*
X10479629Y-25455793D02*
X10479629Y-25408174D01*
X10479629Y-25408174D02*
X10489153Y-25370079D01*
X10489153Y-25370079D02*
X10498677Y-25351031D01*
X10498677Y-25351031D02*
X10508201Y-25341508D01*
X10508201Y-25341508D02*
X10527248Y-25331984D01*
X10765344Y-25331984D02*
X10727248Y-25331984D01*
X10727248Y-25331984D02*
X10708201Y-25341508D01*
X10708201Y-25341508D02*
X10698677Y-25351031D01*
X10698677Y-25351031D02*
X10679629Y-25379603D01*
X10679629Y-25379603D02*
X10670106Y-25417698D01*
X10670106Y-25417698D02*
X10670106Y-25493888D01*
X10670106Y-25493888D02*
X10679629Y-25512936D01*
X10679629Y-25512936D02*
X10689153Y-25522460D01*
X10689153Y-25522460D02*
X10708201Y-25531984D01*
X10708201Y-25531984D02*
X10746296Y-25531984D01*
X10746296Y-25531984D02*
X10765344Y-25522460D01*
X10765344Y-25522460D02*
X10774868Y-25512936D01*
X10774868Y-25512936D02*
X10784391Y-25493888D01*
X10784391Y-25493888D02*
X10784391Y-25446269D01*
X10784391Y-25446269D02*
X10774868Y-25427222D01*
X10774868Y-25427222D02*
X10765344Y-25417698D01*
X10765344Y-25417698D02*
X10746296Y-25408174D01*
X10746296Y-25408174D02*
X10708201Y-25408174D01*
X10708201Y-25408174D02*
X10689153Y-25417698D01*
X10689153Y-25417698D02*
X10679629Y-25427222D01*
X10679629Y-25427222D02*
X10670106Y-25446269D01*
X10898677Y-25417698D02*
X10879629Y-25408174D01*
X10879629Y-25408174D02*
X10870106Y-25398650D01*
X10870106Y-25398650D02*
X10860582Y-25379603D01*
X10860582Y-25379603D02*
X10860582Y-25370079D01*
X10860582Y-25370079D02*
X10870106Y-25351031D01*
X10870106Y-25351031D02*
X10879629Y-25341508D01*
X10879629Y-25341508D02*
X10898677Y-25331984D01*
X10898677Y-25331984D02*
X10936772Y-25331984D01*
X10936772Y-25331984D02*
X10955820Y-25341508D01*
X10955820Y-25341508D02*
X10965344Y-25351031D01*
X10965344Y-25351031D02*
X10974868Y-25370079D01*
X10974868Y-25370079D02*
X10974868Y-25379603D01*
X10974868Y-25379603D02*
X10965344Y-25398650D01*
X10965344Y-25398650D02*
X10955820Y-25408174D01*
X10955820Y-25408174D02*
X10936772Y-25417698D01*
X10936772Y-25417698D02*
X10898677Y-25417698D01*
X10898677Y-25417698D02*
X10879629Y-25427222D01*
X10879629Y-25427222D02*
X10870106Y-25436746D01*
X10870106Y-25436746D02*
X10860582Y-25455793D01*
X10860582Y-25455793D02*
X10860582Y-25493888D01*
X10860582Y-25493888D02*
X10870106Y-25512936D01*
X10870106Y-25512936D02*
X10879629Y-25522460D01*
X10879629Y-25522460D02*
X10898677Y-25531984D01*
X10898677Y-25531984D02*
X10936772Y-25531984D01*
X10936772Y-25531984D02*
X10955820Y-25522460D01*
X10955820Y-25522460D02*
X10965344Y-25512936D01*
X10965344Y-25512936D02*
X10974868Y-25493888D01*
X10974868Y-25493888D02*
X10974868Y-25455793D01*
X10974868Y-25455793D02*
X10965344Y-25436746D01*
X10965344Y-25436746D02*
X10955820Y-25427222D01*
X10955820Y-25427222D02*
X10936772Y-25417698D01*
X11070106Y-25531984D02*
X11108201Y-25531984D01*
X11108201Y-25531984D02*
X11127249Y-25522460D01*
X11127249Y-25522460D02*
X11136772Y-25512936D01*
X11136772Y-25512936D02*
X11155820Y-25484365D01*
X11155820Y-25484365D02*
X11165344Y-25446269D01*
X11165344Y-25446269D02*
X11165344Y-25370079D01*
X11165344Y-25370079D02*
X11155820Y-25351031D01*
X11155820Y-25351031D02*
X11146296Y-25341508D01*
X11146296Y-25341508D02*
X11127249Y-25331984D01*
X11127249Y-25331984D02*
X11089153Y-25331984D01*
X11089153Y-25331984D02*
X11070106Y-25341508D01*
X11070106Y-25341508D02*
X11060582Y-25351031D01*
X11060582Y-25351031D02*
X11051058Y-25370079D01*
X11051058Y-25370079D02*
X11051058Y-25417698D01*
X11051058Y-25417698D02*
X11060582Y-25436746D01*
X11060582Y-25436746D02*
X11070106Y-25446269D01*
X11070106Y-25446269D02*
X11089153Y-25455793D01*
X11089153Y-25455793D02*
X11127249Y-25455793D01*
X11127249Y-25455793D02*
X11146296Y-25446269D01*
X11146296Y-25446269D02*
X11155820Y-25436746D01*
X11155820Y-25436746D02*
X11165344Y-25417698D01*
X11241534Y-25331984D02*
X11241534Y-25370079D01*
X11317725Y-25331984D02*
X11317725Y-25370079D01*
X11612963Y-25608174D02*
X11603439Y-25598650D01*
X11603439Y-25598650D02*
X11584391Y-25570079D01*
X11584391Y-25570079D02*
X11574868Y-25551031D01*
X11574868Y-25551031D02*
X11565344Y-25522460D01*
X11565344Y-25522460D02*
X11555820Y-25474841D01*
X11555820Y-25474841D02*
X11555820Y-25436746D01*
X11555820Y-25436746D02*
X11565344Y-25389127D01*
X11565344Y-25389127D02*
X11574868Y-25360555D01*
X11574868Y-25360555D02*
X11584391Y-25341508D01*
X11584391Y-25341508D02*
X11603439Y-25312936D01*
X11603439Y-25312936D02*
X11612963Y-25303412D01*
X11793915Y-25531984D02*
X11679629Y-25531984D01*
X11736772Y-25531984D02*
X11736772Y-25331984D01*
X11736772Y-25331984D02*
X11717725Y-25360555D01*
X11717725Y-25360555D02*
X11698677Y-25379603D01*
X11698677Y-25379603D02*
X11679629Y-25389127D01*
X11965344Y-25331984D02*
X11927248Y-25331984D01*
X11927248Y-25331984D02*
X11908201Y-25341508D01*
X11908201Y-25341508D02*
X11898677Y-25351031D01*
X11898677Y-25351031D02*
X11879629Y-25379603D01*
X11879629Y-25379603D02*
X11870106Y-25417698D01*
X11870106Y-25417698D02*
X11870106Y-25493888D01*
X11870106Y-25493888D02*
X11879629Y-25512936D01*
X11879629Y-25512936D02*
X11889153Y-25522460D01*
X11889153Y-25522460D02*
X11908201Y-25531984D01*
X11908201Y-25531984D02*
X11946296Y-25531984D01*
X11946296Y-25531984D02*
X11965344Y-25522460D01*
X11965344Y-25522460D02*
X11974868Y-25512936D01*
X11974868Y-25512936D02*
X11984391Y-25493888D01*
X11984391Y-25493888D02*
X11984391Y-25446269D01*
X11984391Y-25446269D02*
X11974868Y-25427222D01*
X11974868Y-25427222D02*
X11965344Y-25417698D01*
X11965344Y-25417698D02*
X11946296Y-25408174D01*
X11946296Y-25408174D02*
X11908201Y-25408174D01*
X11908201Y-25408174D02*
X11889153Y-25417698D01*
X11889153Y-25417698D02*
X11879629Y-25427222D01*
X11879629Y-25427222D02*
X11870106Y-25446269D01*
X12155820Y-25398650D02*
X12155820Y-25531984D01*
X12108201Y-25322460D02*
X12060582Y-25465317D01*
X12060582Y-25465317D02*
X12184391Y-25465317D01*
X12412963Y-25531984D02*
X12412963Y-25331984D01*
X12498677Y-25531984D02*
X12498677Y-25427222D01*
X12498677Y-25427222D02*
X12489153Y-25408174D01*
X12489153Y-25408174D02*
X12470106Y-25398650D01*
X12470106Y-25398650D02*
X12441534Y-25398650D01*
X12441534Y-25398650D02*
X12422487Y-25408174D01*
X12422487Y-25408174D02*
X12412963Y-25417698D01*
X12622487Y-25531984D02*
X12603439Y-25522460D01*
X12603439Y-25522460D02*
X12593915Y-25512936D01*
X12593915Y-25512936D02*
X12584391Y-25493888D01*
X12584391Y-25493888D02*
X12584391Y-25436746D01*
X12584391Y-25436746D02*
X12593915Y-25417698D01*
X12593915Y-25417698D02*
X12603439Y-25408174D01*
X12603439Y-25408174D02*
X12622487Y-25398650D01*
X12622487Y-25398650D02*
X12651058Y-25398650D01*
X12651058Y-25398650D02*
X12670106Y-25408174D01*
X12670106Y-25408174D02*
X12679630Y-25417698D01*
X12679630Y-25417698D02*
X12689153Y-25436746D01*
X12689153Y-25436746D02*
X12689153Y-25493888D01*
X12689153Y-25493888D02*
X12679630Y-25512936D01*
X12679630Y-25512936D02*
X12670106Y-25522460D01*
X12670106Y-25522460D02*
X12651058Y-25531984D01*
X12651058Y-25531984D02*
X12622487Y-25531984D01*
X12803439Y-25531984D02*
X12784391Y-25522460D01*
X12784391Y-25522460D02*
X12774868Y-25503412D01*
X12774868Y-25503412D02*
X12774868Y-25331984D01*
X12955820Y-25522460D02*
X12936772Y-25531984D01*
X12936772Y-25531984D02*
X12898677Y-25531984D01*
X12898677Y-25531984D02*
X12879630Y-25522460D01*
X12879630Y-25522460D02*
X12870106Y-25503412D01*
X12870106Y-25503412D02*
X12870106Y-25427222D01*
X12870106Y-25427222D02*
X12879630Y-25408174D01*
X12879630Y-25408174D02*
X12898677Y-25398650D01*
X12898677Y-25398650D02*
X12936772Y-25398650D01*
X12936772Y-25398650D02*
X12955820Y-25408174D01*
X12955820Y-25408174D02*
X12965344Y-25427222D01*
X12965344Y-25427222D02*
X12965344Y-25446269D01*
X12965344Y-25446269D02*
X12870106Y-25465317D01*
X13041534Y-25522460D02*
X13060582Y-25531984D01*
X13060582Y-25531984D02*
X13098677Y-25531984D01*
X13098677Y-25531984D02*
X13117725Y-25522460D01*
X13117725Y-25522460D02*
X13127249Y-25503412D01*
X13127249Y-25503412D02*
X13127249Y-25493888D01*
X13127249Y-25493888D02*
X13117725Y-25474841D01*
X13117725Y-25474841D02*
X13098677Y-25465317D01*
X13098677Y-25465317D02*
X13070106Y-25465317D01*
X13070106Y-25465317D02*
X13051058Y-25455793D01*
X13051058Y-25455793D02*
X13041534Y-25436746D01*
X13041534Y-25436746D02*
X13041534Y-25427222D01*
X13041534Y-25427222D02*
X13051058Y-25408174D01*
X13051058Y-25408174D02*
X13070106Y-25398650D01*
X13070106Y-25398650D02*
X13098677Y-25398650D01*
X13098677Y-25398650D02*
X13117725Y-25408174D01*
X13193915Y-25608174D02*
X13203439Y-25598650D01*
X13203439Y-25598650D02*
X13222487Y-25570079D01*
X13222487Y-25570079D02*
X13232011Y-25551031D01*
X13232011Y-25551031D02*
X13241534Y-25522460D01*
X13241534Y-25522460D02*
X13251058Y-25474841D01*
X13251058Y-25474841D02*
X13251058Y-25436746D01*
X13251058Y-25436746D02*
X13241534Y-25389127D01*
X13241534Y-25389127D02*
X13232011Y-25360555D01*
X13232011Y-25360555D02*
X13222487Y-25341508D01*
X13222487Y-25341508D02*
X13203439Y-25312936D01*
X13203439Y-25312936D02*
X13193915Y-25303412D01*
X13555820Y-25608174D02*
X13546296Y-25598650D01*
X13546296Y-25598650D02*
X13527249Y-25570079D01*
X13527249Y-25570079D02*
X13517725Y-25551031D01*
X13517725Y-25551031D02*
X13508201Y-25522460D01*
X13508201Y-25522460D02*
X13498677Y-25474841D01*
X13498677Y-25474841D02*
X13498677Y-25436746D01*
X13498677Y-25436746D02*
X13508201Y-25389127D01*
X13508201Y-25389127D02*
X13517725Y-25360555D01*
X13517725Y-25360555D02*
X13527249Y-25341508D01*
X13527249Y-25341508D02*
X13546296Y-25312936D01*
X13546296Y-25312936D02*
X13555820Y-25303412D01*
X13632011Y-25398650D02*
X13632011Y-25531984D01*
X13632011Y-25417698D02*
X13641534Y-25408174D01*
X13641534Y-25408174D02*
X13660582Y-25398650D01*
X13660582Y-25398650D02*
X13689153Y-25398650D01*
X13689153Y-25398650D02*
X13708201Y-25408174D01*
X13708201Y-25408174D02*
X13717725Y-25427222D01*
X13717725Y-25427222D02*
X13717725Y-25531984D01*
X13841534Y-25531984D02*
X13822487Y-25522460D01*
X13822487Y-25522460D02*
X13812963Y-25512936D01*
X13812963Y-25512936D02*
X13803439Y-25493888D01*
X13803439Y-25493888D02*
X13803439Y-25436746D01*
X13803439Y-25436746D02*
X13812963Y-25417698D01*
X13812963Y-25417698D02*
X13822487Y-25408174D01*
X13822487Y-25408174D02*
X13841534Y-25398650D01*
X13841534Y-25398650D02*
X13870106Y-25398650D01*
X13870106Y-25398650D02*
X13889153Y-25408174D01*
X13889153Y-25408174D02*
X13898677Y-25417698D01*
X13898677Y-25417698D02*
X13908201Y-25436746D01*
X13908201Y-25436746D02*
X13908201Y-25493888D01*
X13908201Y-25493888D02*
X13898677Y-25512936D01*
X13898677Y-25512936D02*
X13889153Y-25522460D01*
X13889153Y-25522460D02*
X13870106Y-25531984D01*
X13870106Y-25531984D02*
X13841534Y-25531984D01*
X13965344Y-25398650D02*
X14041534Y-25398650D01*
X13993915Y-25331984D02*
X13993915Y-25503412D01*
X13993915Y-25503412D02*
X14003439Y-25522460D01*
X14003439Y-25522460D02*
X14022487Y-25531984D01*
X14022487Y-25531984D02*
X14041534Y-25531984D01*
X14260582Y-25398650D02*
X14260582Y-25598650D01*
X14260582Y-25408174D02*
X14279630Y-25398650D01*
X14279630Y-25398650D02*
X14317725Y-25398650D01*
X14317725Y-25398650D02*
X14336773Y-25408174D01*
X14336773Y-25408174D02*
X14346296Y-25417698D01*
X14346296Y-25417698D02*
X14355820Y-25436746D01*
X14355820Y-25436746D02*
X14355820Y-25493888D01*
X14355820Y-25493888D02*
X14346296Y-25512936D01*
X14346296Y-25512936D02*
X14336773Y-25522460D01*
X14336773Y-25522460D02*
X14317725Y-25531984D01*
X14317725Y-25531984D02*
X14279630Y-25531984D01*
X14279630Y-25531984D02*
X14260582Y-25522460D01*
X14470106Y-25531984D02*
X14451058Y-25522460D01*
X14451058Y-25522460D02*
X14441534Y-25503412D01*
X14441534Y-25503412D02*
X14441534Y-25331984D01*
X14632011Y-25531984D02*
X14632011Y-25427222D01*
X14632011Y-25427222D02*
X14622487Y-25408174D01*
X14622487Y-25408174D02*
X14603439Y-25398650D01*
X14603439Y-25398650D02*
X14565344Y-25398650D01*
X14565344Y-25398650D02*
X14546296Y-25408174D01*
X14632011Y-25522460D02*
X14612963Y-25531984D01*
X14612963Y-25531984D02*
X14565344Y-25531984D01*
X14565344Y-25531984D02*
X14546296Y-25522460D01*
X14546296Y-25522460D02*
X14536773Y-25503412D01*
X14536773Y-25503412D02*
X14536773Y-25484365D01*
X14536773Y-25484365D02*
X14546296Y-25465317D01*
X14546296Y-25465317D02*
X14565344Y-25455793D01*
X14565344Y-25455793D02*
X14612963Y-25455793D01*
X14612963Y-25455793D02*
X14632011Y-25446269D01*
X14698677Y-25398650D02*
X14774868Y-25398650D01*
X14727249Y-25331984D02*
X14727249Y-25503412D01*
X14727249Y-25503412D02*
X14736773Y-25522460D01*
X14736773Y-25522460D02*
X14755820Y-25531984D01*
X14755820Y-25531984D02*
X14774868Y-25531984D01*
X14917725Y-25522460D02*
X14898677Y-25531984D01*
X14898677Y-25531984D02*
X14860582Y-25531984D01*
X14860582Y-25531984D02*
X14841534Y-25522460D01*
X14841534Y-25522460D02*
X14832011Y-25503412D01*
X14832011Y-25503412D02*
X14832011Y-25427222D01*
X14832011Y-25427222D02*
X14841534Y-25408174D01*
X14841534Y-25408174D02*
X14860582Y-25398650D01*
X14860582Y-25398650D02*
X14898677Y-25398650D01*
X14898677Y-25398650D02*
X14917725Y-25408174D01*
X14917725Y-25408174D02*
X14927249Y-25427222D01*
X14927249Y-25427222D02*
X14927249Y-25446269D01*
X14927249Y-25446269D02*
X14832011Y-25465317D01*
X15098677Y-25531984D02*
X15098677Y-25331984D01*
X15098677Y-25522460D02*
X15079630Y-25531984D01*
X15079630Y-25531984D02*
X15041534Y-25531984D01*
X15041534Y-25531984D02*
X15022487Y-25522460D01*
X15022487Y-25522460D02*
X15012963Y-25512936D01*
X15012963Y-25512936D02*
X15003439Y-25493888D01*
X15003439Y-25493888D02*
X15003439Y-25436746D01*
X15003439Y-25436746D02*
X15012963Y-25417698D01*
X15012963Y-25417698D02*
X15022487Y-25408174D01*
X15022487Y-25408174D02*
X15041534Y-25398650D01*
X15041534Y-25398650D02*
X15079630Y-25398650D01*
X15079630Y-25398650D02*
X15098677Y-25408174D01*
X15174868Y-25608174D02*
X15184392Y-25598650D01*
X15184392Y-25598650D02*
X15203439Y-25570079D01*
X15203439Y-25570079D02*
X15212963Y-25551031D01*
X15212963Y-25551031D02*
X15222487Y-25522460D01*
X15222487Y-25522460D02*
X15232011Y-25474841D01*
X15232011Y-25474841D02*
X15232011Y-25436746D01*
X15232011Y-25436746D02*
X15222487Y-25389127D01*
X15222487Y-25389127D02*
X15212963Y-25360555D01*
X15212963Y-25360555D02*
X15203439Y-25341508D01*
X15203439Y-25341508D02*
X15184392Y-25312936D01*
X15184392Y-25312936D02*
X15174868Y-25303412D01*
X7937900Y-25635500D02*
X7937900Y-25835500D01*
X7837900Y-25735500D02*
X8037900Y-25735500D01*
X8289153Y-25646031D02*
X8298677Y-25636508D01*
X8298677Y-25636508D02*
X8317724Y-25626984D01*
X8317724Y-25626984D02*
X8365343Y-25626984D01*
X8365343Y-25626984D02*
X8384391Y-25636508D01*
X8384391Y-25636508D02*
X8393915Y-25646031D01*
X8393915Y-25646031D02*
X8403439Y-25665079D01*
X8403439Y-25665079D02*
X8403439Y-25684127D01*
X8403439Y-25684127D02*
X8393915Y-25712698D01*
X8393915Y-25712698D02*
X8279629Y-25826984D01*
X8279629Y-25826984D02*
X8403439Y-25826984D01*
X8489153Y-25807936D02*
X8498677Y-25817460D01*
X8498677Y-25817460D02*
X8489153Y-25826984D01*
X8489153Y-25826984D02*
X8479629Y-25817460D01*
X8479629Y-25817460D02*
X8489153Y-25807936D01*
X8489153Y-25807936D02*
X8489153Y-25826984D01*
X8574867Y-25646031D02*
X8584391Y-25636508D01*
X8584391Y-25636508D02*
X8603439Y-25626984D01*
X8603439Y-25626984D02*
X8651058Y-25626984D01*
X8651058Y-25626984D02*
X8670105Y-25636508D01*
X8670105Y-25636508D02*
X8679629Y-25646031D01*
X8679629Y-25646031D02*
X8689153Y-25665079D01*
X8689153Y-25665079D02*
X8689153Y-25684127D01*
X8689153Y-25684127D02*
X8679629Y-25712698D01*
X8679629Y-25712698D02*
X8565344Y-25826984D01*
X8565344Y-25826984D02*
X8689153Y-25826984D01*
X8812963Y-25626984D02*
X8832010Y-25626984D01*
X8832010Y-25626984D02*
X8851058Y-25636508D01*
X8851058Y-25636508D02*
X8860582Y-25646031D01*
X8860582Y-25646031D02*
X8870105Y-25665079D01*
X8870105Y-25665079D02*
X8879629Y-25703174D01*
X8879629Y-25703174D02*
X8879629Y-25750793D01*
X8879629Y-25750793D02*
X8870105Y-25788888D01*
X8870105Y-25788888D02*
X8860582Y-25807936D01*
X8860582Y-25807936D02*
X8851058Y-25817460D01*
X8851058Y-25817460D02*
X8832010Y-25826984D01*
X8832010Y-25826984D02*
X8812963Y-25826984D01*
X8812963Y-25826984D02*
X8793915Y-25817460D01*
X8793915Y-25817460D02*
X8784391Y-25807936D01*
X8784391Y-25807936D02*
X8774867Y-25788888D01*
X8774867Y-25788888D02*
X8765344Y-25750793D01*
X8765344Y-25750793D02*
X8765344Y-25703174D01*
X8765344Y-25703174D02*
X8774867Y-25665079D01*
X8774867Y-25665079D02*
X8784391Y-25646031D01*
X8784391Y-25646031D02*
X8793915Y-25636508D01*
X8793915Y-25636508D02*
X8812963Y-25626984D01*
X9003439Y-25626984D02*
X9022486Y-25626984D01*
X9022486Y-25626984D02*
X9041534Y-25636508D01*
X9041534Y-25636508D02*
X9051058Y-25646031D01*
X9051058Y-25646031D02*
X9060582Y-25665079D01*
X9060582Y-25665079D02*
X9070105Y-25703174D01*
X9070105Y-25703174D02*
X9070105Y-25750793D01*
X9070105Y-25750793D02*
X9060582Y-25788888D01*
X9060582Y-25788888D02*
X9051058Y-25807936D01*
X9051058Y-25807936D02*
X9041534Y-25817460D01*
X9041534Y-25817460D02*
X9022486Y-25826984D01*
X9022486Y-25826984D02*
X9003439Y-25826984D01*
X9003439Y-25826984D02*
X8984391Y-25817460D01*
X8984391Y-25817460D02*
X8974867Y-25807936D01*
X8974867Y-25807936D02*
X8965344Y-25788888D01*
X8965344Y-25788888D02*
X8955820Y-25750793D01*
X8955820Y-25750793D02*
X8955820Y-25703174D01*
X8955820Y-25703174D02*
X8965344Y-25665079D01*
X8965344Y-25665079D02*
X8974867Y-25646031D01*
X8974867Y-25646031D02*
X8984391Y-25636508D01*
X8984391Y-25636508D02*
X9003439Y-25626984D01*
X9155820Y-25826984D02*
X9155820Y-25693650D01*
X9155820Y-25712698D02*
X9165344Y-25703174D01*
X9165344Y-25703174D02*
X9184391Y-25693650D01*
X9184391Y-25693650D02*
X9212963Y-25693650D01*
X9212963Y-25693650D02*
X9232010Y-25703174D01*
X9232010Y-25703174D02*
X9241534Y-25722222D01*
X9241534Y-25722222D02*
X9241534Y-25826984D01*
X9241534Y-25722222D02*
X9251058Y-25703174D01*
X9251058Y-25703174D02*
X9270105Y-25693650D01*
X9270105Y-25693650D02*
X9298677Y-25693650D01*
X9298677Y-25693650D02*
X9317725Y-25703174D01*
X9317725Y-25703174D02*
X9327248Y-25722222D01*
X9327248Y-25722222D02*
X9327248Y-25826984D01*
X9422486Y-25826984D02*
X9422486Y-25693650D01*
X9422486Y-25712698D02*
X9432010Y-25703174D01*
X9432010Y-25703174D02*
X9451058Y-25693650D01*
X9451058Y-25693650D02*
X9479629Y-25693650D01*
X9479629Y-25693650D02*
X9498677Y-25703174D01*
X9498677Y-25703174D02*
X9508201Y-25722222D01*
X9508201Y-25722222D02*
X9508201Y-25826984D01*
X9508201Y-25722222D02*
X9517725Y-25703174D01*
X9517725Y-25703174D02*
X9536772Y-25693650D01*
X9536772Y-25693650D02*
X9565344Y-25693650D01*
X9565344Y-25693650D02*
X9584391Y-25703174D01*
X9584391Y-25703174D02*
X9593915Y-25722222D01*
X9593915Y-25722222D02*
X9593915Y-25826984D01*
X9984391Y-25617460D02*
X9812963Y-25874603D01*
X10241534Y-25626984D02*
X10260582Y-25626984D01*
X10260582Y-25626984D02*
X10279629Y-25636508D01*
X10279629Y-25636508D02*
X10289153Y-25646031D01*
X10289153Y-25646031D02*
X10298677Y-25665079D01*
X10298677Y-25665079D02*
X10308201Y-25703174D01*
X10308201Y-25703174D02*
X10308201Y-25750793D01*
X10308201Y-25750793D02*
X10298677Y-25788888D01*
X10298677Y-25788888D02*
X10289153Y-25807936D01*
X10289153Y-25807936D02*
X10279629Y-25817460D01*
X10279629Y-25817460D02*
X10260582Y-25826984D01*
X10260582Y-25826984D02*
X10241534Y-25826984D01*
X10241534Y-25826984D02*
X10222487Y-25817460D01*
X10222487Y-25817460D02*
X10212963Y-25807936D01*
X10212963Y-25807936D02*
X10203439Y-25788888D01*
X10203439Y-25788888D02*
X10193915Y-25750793D01*
X10193915Y-25750793D02*
X10193915Y-25703174D01*
X10193915Y-25703174D02*
X10203439Y-25665079D01*
X10203439Y-25665079D02*
X10212963Y-25646031D01*
X10212963Y-25646031D02*
X10222487Y-25636508D01*
X10222487Y-25636508D02*
X10241534Y-25626984D01*
X10393915Y-25807936D02*
X10403439Y-25817460D01*
X10403439Y-25817460D02*
X10393915Y-25826984D01*
X10393915Y-25826984D02*
X10384391Y-25817460D01*
X10384391Y-25817460D02*
X10393915Y-25807936D01*
X10393915Y-25807936D02*
X10393915Y-25826984D01*
X10527248Y-25626984D02*
X10546296Y-25626984D01*
X10546296Y-25626984D02*
X10565344Y-25636508D01*
X10565344Y-25636508D02*
X10574868Y-25646031D01*
X10574868Y-25646031D02*
X10584391Y-25665079D01*
X10584391Y-25665079D02*
X10593915Y-25703174D01*
X10593915Y-25703174D02*
X10593915Y-25750793D01*
X10593915Y-25750793D02*
X10584391Y-25788888D01*
X10584391Y-25788888D02*
X10574868Y-25807936D01*
X10574868Y-25807936D02*
X10565344Y-25817460D01*
X10565344Y-25817460D02*
X10546296Y-25826984D01*
X10546296Y-25826984D02*
X10527248Y-25826984D01*
X10527248Y-25826984D02*
X10508201Y-25817460D01*
X10508201Y-25817460D02*
X10498677Y-25807936D01*
X10498677Y-25807936D02*
X10489153Y-25788888D01*
X10489153Y-25788888D02*
X10479629Y-25750793D01*
X10479629Y-25750793D02*
X10479629Y-25703174D01*
X10479629Y-25703174D02*
X10489153Y-25665079D01*
X10489153Y-25665079D02*
X10498677Y-25646031D01*
X10498677Y-25646031D02*
X10508201Y-25636508D01*
X10508201Y-25636508D02*
X10527248Y-25626984D01*
X10708201Y-25712698D02*
X10689153Y-25703174D01*
X10689153Y-25703174D02*
X10679629Y-25693650D01*
X10679629Y-25693650D02*
X10670106Y-25674603D01*
X10670106Y-25674603D02*
X10670106Y-25665079D01*
X10670106Y-25665079D02*
X10679629Y-25646031D01*
X10679629Y-25646031D02*
X10689153Y-25636508D01*
X10689153Y-25636508D02*
X10708201Y-25626984D01*
X10708201Y-25626984D02*
X10746296Y-25626984D01*
X10746296Y-25626984D02*
X10765344Y-25636508D01*
X10765344Y-25636508D02*
X10774868Y-25646031D01*
X10774868Y-25646031D02*
X10784391Y-25665079D01*
X10784391Y-25665079D02*
X10784391Y-25674603D01*
X10784391Y-25674603D02*
X10774868Y-25693650D01*
X10774868Y-25693650D02*
X10765344Y-25703174D01*
X10765344Y-25703174D02*
X10746296Y-25712698D01*
X10746296Y-25712698D02*
X10708201Y-25712698D01*
X10708201Y-25712698D02*
X10689153Y-25722222D01*
X10689153Y-25722222D02*
X10679629Y-25731746D01*
X10679629Y-25731746D02*
X10670106Y-25750793D01*
X10670106Y-25750793D02*
X10670106Y-25788888D01*
X10670106Y-25788888D02*
X10679629Y-25807936D01*
X10679629Y-25807936D02*
X10689153Y-25817460D01*
X10689153Y-25817460D02*
X10708201Y-25826984D01*
X10708201Y-25826984D02*
X10746296Y-25826984D01*
X10746296Y-25826984D02*
X10765344Y-25817460D01*
X10765344Y-25817460D02*
X10774868Y-25807936D01*
X10774868Y-25807936D02*
X10784391Y-25788888D01*
X10784391Y-25788888D02*
X10784391Y-25750793D01*
X10784391Y-25750793D02*
X10774868Y-25731746D01*
X10774868Y-25731746D02*
X10765344Y-25722222D01*
X10765344Y-25722222D02*
X10746296Y-25712698D01*
X10955820Y-25626984D02*
X10917725Y-25626984D01*
X10917725Y-25626984D02*
X10898677Y-25636508D01*
X10898677Y-25636508D02*
X10889153Y-25646031D01*
X10889153Y-25646031D02*
X10870106Y-25674603D01*
X10870106Y-25674603D02*
X10860582Y-25712698D01*
X10860582Y-25712698D02*
X10860582Y-25788888D01*
X10860582Y-25788888D02*
X10870106Y-25807936D01*
X10870106Y-25807936D02*
X10879629Y-25817460D01*
X10879629Y-25817460D02*
X10898677Y-25826984D01*
X10898677Y-25826984D02*
X10936772Y-25826984D01*
X10936772Y-25826984D02*
X10955820Y-25817460D01*
X10955820Y-25817460D02*
X10965344Y-25807936D01*
X10965344Y-25807936D02*
X10974868Y-25788888D01*
X10974868Y-25788888D02*
X10974868Y-25741269D01*
X10974868Y-25741269D02*
X10965344Y-25722222D01*
X10965344Y-25722222D02*
X10955820Y-25712698D01*
X10955820Y-25712698D02*
X10936772Y-25703174D01*
X10936772Y-25703174D02*
X10898677Y-25703174D01*
X10898677Y-25703174D02*
X10879629Y-25712698D01*
X10879629Y-25712698D02*
X10870106Y-25722222D01*
X10870106Y-25722222D02*
X10860582Y-25741269D01*
X11146296Y-25626984D02*
X11108201Y-25626984D01*
X11108201Y-25626984D02*
X11089153Y-25636508D01*
X11089153Y-25636508D02*
X11079629Y-25646031D01*
X11079629Y-25646031D02*
X11060582Y-25674603D01*
X11060582Y-25674603D02*
X11051058Y-25712698D01*
X11051058Y-25712698D02*
X11051058Y-25788888D01*
X11051058Y-25788888D02*
X11060582Y-25807936D01*
X11060582Y-25807936D02*
X11070106Y-25817460D01*
X11070106Y-25817460D02*
X11089153Y-25826984D01*
X11089153Y-25826984D02*
X11127249Y-25826984D01*
X11127249Y-25826984D02*
X11146296Y-25817460D01*
X11146296Y-25817460D02*
X11155820Y-25807936D01*
X11155820Y-25807936D02*
X11165344Y-25788888D01*
X11165344Y-25788888D02*
X11165344Y-25741269D01*
X11165344Y-25741269D02*
X11155820Y-25722222D01*
X11155820Y-25722222D02*
X11146296Y-25712698D01*
X11146296Y-25712698D02*
X11127249Y-25703174D01*
X11127249Y-25703174D02*
X11089153Y-25703174D01*
X11089153Y-25703174D02*
X11070106Y-25712698D01*
X11070106Y-25712698D02*
X11060582Y-25722222D01*
X11060582Y-25722222D02*
X11051058Y-25741269D01*
X11241534Y-25626984D02*
X11241534Y-25665079D01*
X11317725Y-25626984D02*
X11317725Y-25665079D01*
X11612963Y-25903174D02*
X11603439Y-25893650D01*
X11603439Y-25893650D02*
X11584391Y-25865079D01*
X11584391Y-25865079D02*
X11574868Y-25846031D01*
X11574868Y-25846031D02*
X11565344Y-25817460D01*
X11565344Y-25817460D02*
X11555820Y-25769841D01*
X11555820Y-25769841D02*
X11555820Y-25731746D01*
X11555820Y-25731746D02*
X11565344Y-25684127D01*
X11565344Y-25684127D02*
X11574868Y-25655555D01*
X11574868Y-25655555D02*
X11584391Y-25636508D01*
X11584391Y-25636508D02*
X11603439Y-25607936D01*
X11603439Y-25607936D02*
X11612963Y-25598412D01*
X11793915Y-25826984D02*
X11679629Y-25826984D01*
X11736772Y-25826984D02*
X11736772Y-25626984D01*
X11736772Y-25626984D02*
X11717725Y-25655555D01*
X11717725Y-25655555D02*
X11698677Y-25674603D01*
X11698677Y-25674603D02*
X11679629Y-25684127D01*
X11908201Y-25712698D02*
X11889153Y-25703174D01*
X11889153Y-25703174D02*
X11879629Y-25693650D01*
X11879629Y-25693650D02*
X11870106Y-25674603D01*
X11870106Y-25674603D02*
X11870106Y-25665079D01*
X11870106Y-25665079D02*
X11879629Y-25646031D01*
X11879629Y-25646031D02*
X11889153Y-25636508D01*
X11889153Y-25636508D02*
X11908201Y-25626984D01*
X11908201Y-25626984D02*
X11946296Y-25626984D01*
X11946296Y-25626984D02*
X11965344Y-25636508D01*
X11965344Y-25636508D02*
X11974868Y-25646031D01*
X11974868Y-25646031D02*
X11984391Y-25665079D01*
X11984391Y-25665079D02*
X11984391Y-25674603D01*
X11984391Y-25674603D02*
X11974868Y-25693650D01*
X11974868Y-25693650D02*
X11965344Y-25703174D01*
X11965344Y-25703174D02*
X11946296Y-25712698D01*
X11946296Y-25712698D02*
X11908201Y-25712698D01*
X11908201Y-25712698D02*
X11889153Y-25722222D01*
X11889153Y-25722222D02*
X11879629Y-25731746D01*
X11879629Y-25731746D02*
X11870106Y-25750793D01*
X11870106Y-25750793D02*
X11870106Y-25788888D01*
X11870106Y-25788888D02*
X11879629Y-25807936D01*
X11879629Y-25807936D02*
X11889153Y-25817460D01*
X11889153Y-25817460D02*
X11908201Y-25826984D01*
X11908201Y-25826984D02*
X11946296Y-25826984D01*
X11946296Y-25826984D02*
X11965344Y-25817460D01*
X11965344Y-25817460D02*
X11974868Y-25807936D01*
X11974868Y-25807936D02*
X11984391Y-25788888D01*
X11984391Y-25788888D02*
X11984391Y-25750793D01*
X11984391Y-25750793D02*
X11974868Y-25731746D01*
X11974868Y-25731746D02*
X11965344Y-25722222D01*
X11965344Y-25722222D02*
X11946296Y-25712698D01*
X12222487Y-25826984D02*
X12222487Y-25626984D01*
X12308201Y-25826984D02*
X12308201Y-25722222D01*
X12308201Y-25722222D02*
X12298677Y-25703174D01*
X12298677Y-25703174D02*
X12279630Y-25693650D01*
X12279630Y-25693650D02*
X12251058Y-25693650D01*
X12251058Y-25693650D02*
X12232010Y-25703174D01*
X12232010Y-25703174D02*
X12222487Y-25712698D01*
X12432010Y-25826984D02*
X12412963Y-25817460D01*
X12412963Y-25817460D02*
X12403439Y-25807936D01*
X12403439Y-25807936D02*
X12393915Y-25788888D01*
X12393915Y-25788888D02*
X12393915Y-25731746D01*
X12393915Y-25731746D02*
X12403439Y-25712698D01*
X12403439Y-25712698D02*
X12412963Y-25703174D01*
X12412963Y-25703174D02*
X12432010Y-25693650D01*
X12432010Y-25693650D02*
X12460582Y-25693650D01*
X12460582Y-25693650D02*
X12479630Y-25703174D01*
X12479630Y-25703174D02*
X12489153Y-25712698D01*
X12489153Y-25712698D02*
X12498677Y-25731746D01*
X12498677Y-25731746D02*
X12498677Y-25788888D01*
X12498677Y-25788888D02*
X12489153Y-25807936D01*
X12489153Y-25807936D02*
X12479630Y-25817460D01*
X12479630Y-25817460D02*
X12460582Y-25826984D01*
X12460582Y-25826984D02*
X12432010Y-25826984D01*
X12612963Y-25826984D02*
X12593915Y-25817460D01*
X12593915Y-25817460D02*
X12584391Y-25798412D01*
X12584391Y-25798412D02*
X12584391Y-25626984D01*
X12765344Y-25817460D02*
X12746296Y-25826984D01*
X12746296Y-25826984D02*
X12708201Y-25826984D01*
X12708201Y-25826984D02*
X12689153Y-25817460D01*
X12689153Y-25817460D02*
X12679630Y-25798412D01*
X12679630Y-25798412D02*
X12679630Y-25722222D01*
X12679630Y-25722222D02*
X12689153Y-25703174D01*
X12689153Y-25703174D02*
X12708201Y-25693650D01*
X12708201Y-25693650D02*
X12746296Y-25693650D01*
X12746296Y-25693650D02*
X12765344Y-25703174D01*
X12765344Y-25703174D02*
X12774868Y-25722222D01*
X12774868Y-25722222D02*
X12774868Y-25741269D01*
X12774868Y-25741269D02*
X12679630Y-25760317D01*
X12851058Y-25817460D02*
X12870106Y-25826984D01*
X12870106Y-25826984D02*
X12908201Y-25826984D01*
X12908201Y-25826984D02*
X12927249Y-25817460D01*
X12927249Y-25817460D02*
X12936772Y-25798412D01*
X12936772Y-25798412D02*
X12936772Y-25788888D01*
X12936772Y-25788888D02*
X12927249Y-25769841D01*
X12927249Y-25769841D02*
X12908201Y-25760317D01*
X12908201Y-25760317D02*
X12879630Y-25760317D01*
X12879630Y-25760317D02*
X12860582Y-25750793D01*
X12860582Y-25750793D02*
X12851058Y-25731746D01*
X12851058Y-25731746D02*
X12851058Y-25722222D01*
X12851058Y-25722222D02*
X12860582Y-25703174D01*
X12860582Y-25703174D02*
X12879630Y-25693650D01*
X12879630Y-25693650D02*
X12908201Y-25693650D01*
X12908201Y-25693650D02*
X12927249Y-25703174D01*
X13003439Y-25903174D02*
X13012963Y-25893650D01*
X13012963Y-25893650D02*
X13032011Y-25865079D01*
X13032011Y-25865079D02*
X13041534Y-25846031D01*
X13041534Y-25846031D02*
X13051058Y-25817460D01*
X13051058Y-25817460D02*
X13060582Y-25769841D01*
X13060582Y-25769841D02*
X13060582Y-25731746D01*
X13060582Y-25731746D02*
X13051058Y-25684127D01*
X13051058Y-25684127D02*
X13041534Y-25655555D01*
X13041534Y-25655555D02*
X13032011Y-25636508D01*
X13032011Y-25636508D02*
X13012963Y-25607936D01*
X13012963Y-25607936D02*
X13003439Y-25598412D01*
X13365344Y-25903174D02*
X13355820Y-25893650D01*
X13355820Y-25893650D02*
X13336772Y-25865079D01*
X13336772Y-25865079D02*
X13327249Y-25846031D01*
X13327249Y-25846031D02*
X13317725Y-25817460D01*
X13317725Y-25817460D02*
X13308201Y-25769841D01*
X13308201Y-25769841D02*
X13308201Y-25731746D01*
X13308201Y-25731746D02*
X13317725Y-25684127D01*
X13317725Y-25684127D02*
X13327249Y-25655555D01*
X13327249Y-25655555D02*
X13336772Y-25636508D01*
X13336772Y-25636508D02*
X13355820Y-25607936D01*
X13355820Y-25607936D02*
X13365344Y-25598412D01*
X13441534Y-25693650D02*
X13441534Y-25826984D01*
X13441534Y-25712698D02*
X13451058Y-25703174D01*
X13451058Y-25703174D02*
X13470106Y-25693650D01*
X13470106Y-25693650D02*
X13498677Y-25693650D01*
X13498677Y-25693650D02*
X13517725Y-25703174D01*
X13517725Y-25703174D02*
X13527249Y-25722222D01*
X13527249Y-25722222D02*
X13527249Y-25826984D01*
X13651058Y-25826984D02*
X13632011Y-25817460D01*
X13632011Y-25817460D02*
X13622487Y-25807936D01*
X13622487Y-25807936D02*
X13612963Y-25788888D01*
X13612963Y-25788888D02*
X13612963Y-25731746D01*
X13612963Y-25731746D02*
X13622487Y-25712698D01*
X13622487Y-25712698D02*
X13632011Y-25703174D01*
X13632011Y-25703174D02*
X13651058Y-25693650D01*
X13651058Y-25693650D02*
X13679630Y-25693650D01*
X13679630Y-25693650D02*
X13698677Y-25703174D01*
X13698677Y-25703174D02*
X13708201Y-25712698D01*
X13708201Y-25712698D02*
X13717725Y-25731746D01*
X13717725Y-25731746D02*
X13717725Y-25788888D01*
X13717725Y-25788888D02*
X13708201Y-25807936D01*
X13708201Y-25807936D02*
X13698677Y-25817460D01*
X13698677Y-25817460D02*
X13679630Y-25826984D01*
X13679630Y-25826984D02*
X13651058Y-25826984D01*
X13774868Y-25693650D02*
X13851058Y-25693650D01*
X13803439Y-25626984D02*
X13803439Y-25798412D01*
X13803439Y-25798412D02*
X13812963Y-25817460D01*
X13812963Y-25817460D02*
X13832011Y-25826984D01*
X13832011Y-25826984D02*
X13851058Y-25826984D01*
X14070106Y-25693650D02*
X14070106Y-25893650D01*
X14070106Y-25703174D02*
X14089153Y-25693650D01*
X14089153Y-25693650D02*
X14127249Y-25693650D01*
X14127249Y-25693650D02*
X14146296Y-25703174D01*
X14146296Y-25703174D02*
X14155820Y-25712698D01*
X14155820Y-25712698D02*
X14165344Y-25731746D01*
X14165344Y-25731746D02*
X14165344Y-25788888D01*
X14165344Y-25788888D02*
X14155820Y-25807936D01*
X14155820Y-25807936D02*
X14146296Y-25817460D01*
X14146296Y-25817460D02*
X14127249Y-25826984D01*
X14127249Y-25826984D02*
X14089153Y-25826984D01*
X14089153Y-25826984D02*
X14070106Y-25817460D01*
X14279630Y-25826984D02*
X14260582Y-25817460D01*
X14260582Y-25817460D02*
X14251058Y-25798412D01*
X14251058Y-25798412D02*
X14251058Y-25626984D01*
X14441534Y-25826984D02*
X14441534Y-25722222D01*
X14441534Y-25722222D02*
X14432011Y-25703174D01*
X14432011Y-25703174D02*
X14412963Y-25693650D01*
X14412963Y-25693650D02*
X14374868Y-25693650D01*
X14374868Y-25693650D02*
X14355820Y-25703174D01*
X14441534Y-25817460D02*
X14422487Y-25826984D01*
X14422487Y-25826984D02*
X14374868Y-25826984D01*
X14374868Y-25826984D02*
X14355820Y-25817460D01*
X14355820Y-25817460D02*
X14346296Y-25798412D01*
X14346296Y-25798412D02*
X14346296Y-25779365D01*
X14346296Y-25779365D02*
X14355820Y-25760317D01*
X14355820Y-25760317D02*
X14374868Y-25750793D01*
X14374868Y-25750793D02*
X14422487Y-25750793D01*
X14422487Y-25750793D02*
X14441534Y-25741269D01*
X14508201Y-25693650D02*
X14584392Y-25693650D01*
X14536773Y-25626984D02*
X14536773Y-25798412D01*
X14536773Y-25798412D02*
X14546296Y-25817460D01*
X14546296Y-25817460D02*
X14565344Y-25826984D01*
X14565344Y-25826984D02*
X14584392Y-25826984D01*
X14727249Y-25817460D02*
X14708201Y-25826984D01*
X14708201Y-25826984D02*
X14670106Y-25826984D01*
X14670106Y-25826984D02*
X14651058Y-25817460D01*
X14651058Y-25817460D02*
X14641534Y-25798412D01*
X14641534Y-25798412D02*
X14641534Y-25722222D01*
X14641534Y-25722222D02*
X14651058Y-25703174D01*
X14651058Y-25703174D02*
X14670106Y-25693650D01*
X14670106Y-25693650D02*
X14708201Y-25693650D01*
X14708201Y-25693650D02*
X14727249Y-25703174D01*
X14727249Y-25703174D02*
X14736773Y-25722222D01*
X14736773Y-25722222D02*
X14736773Y-25741269D01*
X14736773Y-25741269D02*
X14641534Y-25760317D01*
X14908201Y-25826984D02*
X14908201Y-25626984D01*
X14908201Y-25817460D02*
X14889154Y-25826984D01*
X14889154Y-25826984D02*
X14851058Y-25826984D01*
X14851058Y-25826984D02*
X14832011Y-25817460D01*
X14832011Y-25817460D02*
X14822487Y-25807936D01*
X14822487Y-25807936D02*
X14812963Y-25788888D01*
X14812963Y-25788888D02*
X14812963Y-25731746D01*
X14812963Y-25731746D02*
X14822487Y-25712698D01*
X14822487Y-25712698D02*
X14832011Y-25703174D01*
X14832011Y-25703174D02*
X14851058Y-25693650D01*
X14851058Y-25693650D02*
X14889154Y-25693650D01*
X14889154Y-25693650D02*
X14908201Y-25703174D01*
X14984392Y-25903174D02*
X14993915Y-25893650D01*
X14993915Y-25893650D02*
X15012963Y-25865079D01*
X15012963Y-25865079D02*
X15022487Y-25846031D01*
X15022487Y-25846031D02*
X15032011Y-25817460D01*
X15032011Y-25817460D02*
X15041534Y-25769841D01*
X15041534Y-25769841D02*
X15041534Y-25731746D01*
X15041534Y-25731746D02*
X15032011Y-25684127D01*
X15032011Y-25684127D02*
X15022487Y-25655555D01*
X15022487Y-25655555D02*
X15012963Y-25636508D01*
X15012963Y-25636508D02*
X14993915Y-25607936D01*
X14993915Y-25607936D02*
X14984392Y-25598412D01*
X8008611Y-26126211D02*
X8008611Y-25984789D01*
X7867189Y-25984789D01*
X7867189Y-26126211D01*
X8008611Y-26126211D01*
X8279629Y-25946984D02*
X8403439Y-25946984D01*
X8403439Y-25946984D02*
X8336772Y-26023174D01*
X8336772Y-26023174D02*
X8365343Y-26023174D01*
X8365343Y-26023174D02*
X8384391Y-26032698D01*
X8384391Y-26032698D02*
X8393915Y-26042222D01*
X8393915Y-26042222D02*
X8403439Y-26061269D01*
X8403439Y-26061269D02*
X8403439Y-26108888D01*
X8403439Y-26108888D02*
X8393915Y-26127936D01*
X8393915Y-26127936D02*
X8384391Y-26137460D01*
X8384391Y-26137460D02*
X8365343Y-26146984D01*
X8365343Y-26146984D02*
X8308201Y-26146984D01*
X8308201Y-26146984D02*
X8289153Y-26137460D01*
X8289153Y-26137460D02*
X8279629Y-26127936D01*
X8489153Y-26127936D02*
X8498677Y-26137460D01*
X8498677Y-26137460D02*
X8489153Y-26146984D01*
X8489153Y-26146984D02*
X8479629Y-26137460D01*
X8479629Y-26137460D02*
X8489153Y-26127936D01*
X8489153Y-26127936D02*
X8489153Y-26146984D01*
X8622486Y-25946984D02*
X8641534Y-25946984D01*
X8641534Y-25946984D02*
X8660582Y-25956508D01*
X8660582Y-25956508D02*
X8670105Y-25966031D01*
X8670105Y-25966031D02*
X8679629Y-25985079D01*
X8679629Y-25985079D02*
X8689153Y-26023174D01*
X8689153Y-26023174D02*
X8689153Y-26070793D01*
X8689153Y-26070793D02*
X8679629Y-26108888D01*
X8679629Y-26108888D02*
X8670105Y-26127936D01*
X8670105Y-26127936D02*
X8660582Y-26137460D01*
X8660582Y-26137460D02*
X8641534Y-26146984D01*
X8641534Y-26146984D02*
X8622486Y-26146984D01*
X8622486Y-26146984D02*
X8603439Y-26137460D01*
X8603439Y-26137460D02*
X8593915Y-26127936D01*
X8593915Y-26127936D02*
X8584391Y-26108888D01*
X8584391Y-26108888D02*
X8574867Y-26070793D01*
X8574867Y-26070793D02*
X8574867Y-26023174D01*
X8574867Y-26023174D02*
X8584391Y-25985079D01*
X8584391Y-25985079D02*
X8593915Y-25966031D01*
X8593915Y-25966031D02*
X8603439Y-25956508D01*
X8603439Y-25956508D02*
X8622486Y-25946984D01*
X8860582Y-26013650D02*
X8860582Y-26146984D01*
X8812963Y-25937460D02*
X8765344Y-26080317D01*
X8765344Y-26080317D02*
X8889153Y-26080317D01*
X8993915Y-26032698D02*
X8974867Y-26023174D01*
X8974867Y-26023174D02*
X8965344Y-26013650D01*
X8965344Y-26013650D02*
X8955820Y-25994603D01*
X8955820Y-25994603D02*
X8955820Y-25985079D01*
X8955820Y-25985079D02*
X8965344Y-25966031D01*
X8965344Y-25966031D02*
X8974867Y-25956508D01*
X8974867Y-25956508D02*
X8993915Y-25946984D01*
X8993915Y-25946984D02*
X9032010Y-25946984D01*
X9032010Y-25946984D02*
X9051058Y-25956508D01*
X9051058Y-25956508D02*
X9060582Y-25966031D01*
X9060582Y-25966031D02*
X9070105Y-25985079D01*
X9070105Y-25985079D02*
X9070105Y-25994603D01*
X9070105Y-25994603D02*
X9060582Y-26013650D01*
X9060582Y-26013650D02*
X9051058Y-26023174D01*
X9051058Y-26023174D02*
X9032010Y-26032698D01*
X9032010Y-26032698D02*
X8993915Y-26032698D01*
X8993915Y-26032698D02*
X8974867Y-26042222D01*
X8974867Y-26042222D02*
X8965344Y-26051746D01*
X8965344Y-26051746D02*
X8955820Y-26070793D01*
X8955820Y-26070793D02*
X8955820Y-26108888D01*
X8955820Y-26108888D02*
X8965344Y-26127936D01*
X8965344Y-26127936D02*
X8974867Y-26137460D01*
X8974867Y-26137460D02*
X8993915Y-26146984D01*
X8993915Y-26146984D02*
X9032010Y-26146984D01*
X9032010Y-26146984D02*
X9051058Y-26137460D01*
X9051058Y-26137460D02*
X9060582Y-26127936D01*
X9060582Y-26127936D02*
X9070105Y-26108888D01*
X9070105Y-26108888D02*
X9070105Y-26070793D01*
X9070105Y-26070793D02*
X9060582Y-26051746D01*
X9060582Y-26051746D02*
X9051058Y-26042222D01*
X9051058Y-26042222D02*
X9032010Y-26032698D01*
X9155820Y-26146984D02*
X9155820Y-26013650D01*
X9155820Y-26032698D02*
X9165344Y-26023174D01*
X9165344Y-26023174D02*
X9184391Y-26013650D01*
X9184391Y-26013650D02*
X9212963Y-26013650D01*
X9212963Y-26013650D02*
X9232010Y-26023174D01*
X9232010Y-26023174D02*
X9241534Y-26042222D01*
X9241534Y-26042222D02*
X9241534Y-26146984D01*
X9241534Y-26042222D02*
X9251058Y-26023174D01*
X9251058Y-26023174D02*
X9270105Y-26013650D01*
X9270105Y-26013650D02*
X9298677Y-26013650D01*
X9298677Y-26013650D02*
X9317725Y-26023174D01*
X9317725Y-26023174D02*
X9327248Y-26042222D01*
X9327248Y-26042222D02*
X9327248Y-26146984D01*
X9422486Y-26146984D02*
X9422486Y-26013650D01*
X9422486Y-26032698D02*
X9432010Y-26023174D01*
X9432010Y-26023174D02*
X9451058Y-26013650D01*
X9451058Y-26013650D02*
X9479629Y-26013650D01*
X9479629Y-26013650D02*
X9498677Y-26023174D01*
X9498677Y-26023174D02*
X9508201Y-26042222D01*
X9508201Y-26042222D02*
X9508201Y-26146984D01*
X9508201Y-26042222D02*
X9517725Y-26023174D01*
X9517725Y-26023174D02*
X9536772Y-26013650D01*
X9536772Y-26013650D02*
X9565344Y-26013650D01*
X9565344Y-26013650D02*
X9584391Y-26023174D01*
X9584391Y-26023174D02*
X9593915Y-26042222D01*
X9593915Y-26042222D02*
X9593915Y-26146984D01*
X9984391Y-25937460D02*
X9812963Y-26194603D01*
X10241534Y-25946984D02*
X10260582Y-25946984D01*
X10260582Y-25946984D02*
X10279629Y-25956508D01*
X10279629Y-25956508D02*
X10289153Y-25966031D01*
X10289153Y-25966031D02*
X10298677Y-25985079D01*
X10298677Y-25985079D02*
X10308201Y-26023174D01*
X10308201Y-26023174D02*
X10308201Y-26070793D01*
X10308201Y-26070793D02*
X10298677Y-26108888D01*
X10298677Y-26108888D02*
X10289153Y-26127936D01*
X10289153Y-26127936D02*
X10279629Y-26137460D01*
X10279629Y-26137460D02*
X10260582Y-26146984D01*
X10260582Y-26146984D02*
X10241534Y-26146984D01*
X10241534Y-26146984D02*
X10222487Y-26137460D01*
X10222487Y-26137460D02*
X10212963Y-26127936D01*
X10212963Y-26127936D02*
X10203439Y-26108888D01*
X10203439Y-26108888D02*
X10193915Y-26070793D01*
X10193915Y-26070793D02*
X10193915Y-26023174D01*
X10193915Y-26023174D02*
X10203439Y-25985079D01*
X10203439Y-25985079D02*
X10212963Y-25966031D01*
X10212963Y-25966031D02*
X10222487Y-25956508D01*
X10222487Y-25956508D02*
X10241534Y-25946984D01*
X10393915Y-26127936D02*
X10403439Y-26137460D01*
X10403439Y-26137460D02*
X10393915Y-26146984D01*
X10393915Y-26146984D02*
X10384391Y-26137460D01*
X10384391Y-26137460D02*
X10393915Y-26127936D01*
X10393915Y-26127936D02*
X10393915Y-26146984D01*
X10593915Y-26146984D02*
X10479629Y-26146984D01*
X10536772Y-26146984D02*
X10536772Y-25946984D01*
X10536772Y-25946984D02*
X10517725Y-25975555D01*
X10517725Y-25975555D02*
X10498677Y-25994603D01*
X10498677Y-25994603D02*
X10479629Y-26004127D01*
X10670106Y-25966031D02*
X10679629Y-25956508D01*
X10679629Y-25956508D02*
X10698677Y-25946984D01*
X10698677Y-25946984D02*
X10746296Y-25946984D01*
X10746296Y-25946984D02*
X10765344Y-25956508D01*
X10765344Y-25956508D02*
X10774868Y-25966031D01*
X10774868Y-25966031D02*
X10784391Y-25985079D01*
X10784391Y-25985079D02*
X10784391Y-26004127D01*
X10784391Y-26004127D02*
X10774868Y-26032698D01*
X10774868Y-26032698D02*
X10660582Y-26146984D01*
X10660582Y-26146984D02*
X10784391Y-26146984D01*
X10908201Y-25946984D02*
X10927249Y-25946984D01*
X10927249Y-25946984D02*
X10946296Y-25956508D01*
X10946296Y-25956508D02*
X10955820Y-25966031D01*
X10955820Y-25966031D02*
X10965344Y-25985079D01*
X10965344Y-25985079D02*
X10974868Y-26023174D01*
X10974868Y-26023174D02*
X10974868Y-26070793D01*
X10974868Y-26070793D02*
X10965344Y-26108888D01*
X10965344Y-26108888D02*
X10955820Y-26127936D01*
X10955820Y-26127936D02*
X10946296Y-26137460D01*
X10946296Y-26137460D02*
X10927249Y-26146984D01*
X10927249Y-26146984D02*
X10908201Y-26146984D01*
X10908201Y-26146984D02*
X10889153Y-26137460D01*
X10889153Y-26137460D02*
X10879629Y-26127936D01*
X10879629Y-26127936D02*
X10870106Y-26108888D01*
X10870106Y-26108888D02*
X10860582Y-26070793D01*
X10860582Y-26070793D02*
X10860582Y-26023174D01*
X10860582Y-26023174D02*
X10870106Y-25985079D01*
X10870106Y-25985079D02*
X10879629Y-25966031D01*
X10879629Y-25966031D02*
X10889153Y-25956508D01*
X10889153Y-25956508D02*
X10908201Y-25946984D01*
X11098677Y-25946984D02*
X11117725Y-25946984D01*
X11117725Y-25946984D02*
X11136772Y-25956508D01*
X11136772Y-25956508D02*
X11146296Y-25966031D01*
X11146296Y-25966031D02*
X11155820Y-25985079D01*
X11155820Y-25985079D02*
X11165344Y-26023174D01*
X11165344Y-26023174D02*
X11165344Y-26070793D01*
X11165344Y-26070793D02*
X11155820Y-26108888D01*
X11155820Y-26108888D02*
X11146296Y-26127936D01*
X11146296Y-26127936D02*
X11136772Y-26137460D01*
X11136772Y-26137460D02*
X11117725Y-26146984D01*
X11117725Y-26146984D02*
X11098677Y-26146984D01*
X11098677Y-26146984D02*
X11079629Y-26137460D01*
X11079629Y-26137460D02*
X11070106Y-26127936D01*
X11070106Y-26127936D02*
X11060582Y-26108888D01*
X11060582Y-26108888D02*
X11051058Y-26070793D01*
X11051058Y-26070793D02*
X11051058Y-26023174D01*
X11051058Y-26023174D02*
X11060582Y-25985079D01*
X11060582Y-25985079D02*
X11070106Y-25966031D01*
X11070106Y-25966031D02*
X11079629Y-25956508D01*
X11079629Y-25956508D02*
X11098677Y-25946984D01*
X11241534Y-25946984D02*
X11241534Y-25985079D01*
X11317725Y-25946984D02*
X11317725Y-25985079D01*
X11612963Y-26223174D02*
X11603439Y-26213650D01*
X11603439Y-26213650D02*
X11584391Y-26185079D01*
X11584391Y-26185079D02*
X11574868Y-26166031D01*
X11574868Y-26166031D02*
X11565344Y-26137460D01*
X11565344Y-26137460D02*
X11555820Y-26089841D01*
X11555820Y-26089841D02*
X11555820Y-26051746D01*
X11555820Y-26051746D02*
X11565344Y-26004127D01*
X11565344Y-26004127D02*
X11574868Y-25975555D01*
X11574868Y-25975555D02*
X11584391Y-25956508D01*
X11584391Y-25956508D02*
X11603439Y-25927936D01*
X11603439Y-25927936D02*
X11612963Y-25918412D01*
X11793915Y-26146984D02*
X11679629Y-26146984D01*
X11736772Y-26146984D02*
X11736772Y-25946984D01*
X11736772Y-25946984D02*
X11717725Y-25975555D01*
X11717725Y-25975555D02*
X11698677Y-25994603D01*
X11698677Y-25994603D02*
X11679629Y-26004127D01*
X11870106Y-25966031D02*
X11879629Y-25956508D01*
X11879629Y-25956508D02*
X11898677Y-25946984D01*
X11898677Y-25946984D02*
X11946296Y-25946984D01*
X11946296Y-25946984D02*
X11965344Y-25956508D01*
X11965344Y-25956508D02*
X11974868Y-25966031D01*
X11974868Y-25966031D02*
X11984391Y-25985079D01*
X11984391Y-25985079D02*
X11984391Y-26004127D01*
X11984391Y-26004127D02*
X11974868Y-26032698D01*
X11974868Y-26032698D02*
X11860582Y-26146984D01*
X11860582Y-26146984D02*
X11984391Y-26146984D01*
X12222487Y-26146984D02*
X12222487Y-25946984D01*
X12308201Y-26146984D02*
X12308201Y-26042222D01*
X12308201Y-26042222D02*
X12298677Y-26023174D01*
X12298677Y-26023174D02*
X12279630Y-26013650D01*
X12279630Y-26013650D02*
X12251058Y-26013650D01*
X12251058Y-26013650D02*
X12232010Y-26023174D01*
X12232010Y-26023174D02*
X12222487Y-26032698D01*
X12432010Y-26146984D02*
X12412963Y-26137460D01*
X12412963Y-26137460D02*
X12403439Y-26127936D01*
X12403439Y-26127936D02*
X12393915Y-26108888D01*
X12393915Y-26108888D02*
X12393915Y-26051746D01*
X12393915Y-26051746D02*
X12403439Y-26032698D01*
X12403439Y-26032698D02*
X12412963Y-26023174D01*
X12412963Y-26023174D02*
X12432010Y-26013650D01*
X12432010Y-26013650D02*
X12460582Y-26013650D01*
X12460582Y-26013650D02*
X12479630Y-26023174D01*
X12479630Y-26023174D02*
X12489153Y-26032698D01*
X12489153Y-26032698D02*
X12498677Y-26051746D01*
X12498677Y-26051746D02*
X12498677Y-26108888D01*
X12498677Y-26108888D02*
X12489153Y-26127936D01*
X12489153Y-26127936D02*
X12479630Y-26137460D01*
X12479630Y-26137460D02*
X12460582Y-26146984D01*
X12460582Y-26146984D02*
X12432010Y-26146984D01*
X12612963Y-26146984D02*
X12593915Y-26137460D01*
X12593915Y-26137460D02*
X12584391Y-26118412D01*
X12584391Y-26118412D02*
X12584391Y-25946984D01*
X12765344Y-26137460D02*
X12746296Y-26146984D01*
X12746296Y-26146984D02*
X12708201Y-26146984D01*
X12708201Y-26146984D02*
X12689153Y-26137460D01*
X12689153Y-26137460D02*
X12679630Y-26118412D01*
X12679630Y-26118412D02*
X12679630Y-26042222D01*
X12679630Y-26042222D02*
X12689153Y-26023174D01*
X12689153Y-26023174D02*
X12708201Y-26013650D01*
X12708201Y-26013650D02*
X12746296Y-26013650D01*
X12746296Y-26013650D02*
X12765344Y-26023174D01*
X12765344Y-26023174D02*
X12774868Y-26042222D01*
X12774868Y-26042222D02*
X12774868Y-26061269D01*
X12774868Y-26061269D02*
X12679630Y-26080317D01*
X12851058Y-26137460D02*
X12870106Y-26146984D01*
X12870106Y-26146984D02*
X12908201Y-26146984D01*
X12908201Y-26146984D02*
X12927249Y-26137460D01*
X12927249Y-26137460D02*
X12936772Y-26118412D01*
X12936772Y-26118412D02*
X12936772Y-26108888D01*
X12936772Y-26108888D02*
X12927249Y-26089841D01*
X12927249Y-26089841D02*
X12908201Y-26080317D01*
X12908201Y-26080317D02*
X12879630Y-26080317D01*
X12879630Y-26080317D02*
X12860582Y-26070793D01*
X12860582Y-26070793D02*
X12851058Y-26051746D01*
X12851058Y-26051746D02*
X12851058Y-26042222D01*
X12851058Y-26042222D02*
X12860582Y-26023174D01*
X12860582Y-26023174D02*
X12879630Y-26013650D01*
X12879630Y-26013650D02*
X12908201Y-26013650D01*
X12908201Y-26013650D02*
X12927249Y-26023174D01*
X13003439Y-26223174D02*
X13012963Y-26213650D01*
X13012963Y-26213650D02*
X13032011Y-26185079D01*
X13032011Y-26185079D02*
X13041534Y-26166031D01*
X13041534Y-26166031D02*
X13051058Y-26137460D01*
X13051058Y-26137460D02*
X13060582Y-26089841D01*
X13060582Y-26089841D02*
X13060582Y-26051746D01*
X13060582Y-26051746D02*
X13051058Y-26004127D01*
X13051058Y-26004127D02*
X13041534Y-25975555D01*
X13041534Y-25975555D02*
X13032011Y-25956508D01*
X13032011Y-25956508D02*
X13012963Y-25927936D01*
X13012963Y-25927936D02*
X13003439Y-25918412D01*
X13365344Y-26223174D02*
X13355820Y-26213650D01*
X13355820Y-26213650D02*
X13336772Y-26185079D01*
X13336772Y-26185079D02*
X13327249Y-26166031D01*
X13327249Y-26166031D02*
X13317725Y-26137460D01*
X13317725Y-26137460D02*
X13308201Y-26089841D01*
X13308201Y-26089841D02*
X13308201Y-26051746D01*
X13308201Y-26051746D02*
X13317725Y-26004127D01*
X13317725Y-26004127D02*
X13327249Y-25975555D01*
X13327249Y-25975555D02*
X13336772Y-25956508D01*
X13336772Y-25956508D02*
X13355820Y-25927936D01*
X13355820Y-25927936D02*
X13365344Y-25918412D01*
X13441534Y-26013650D02*
X13441534Y-26146984D01*
X13441534Y-26032698D02*
X13451058Y-26023174D01*
X13451058Y-26023174D02*
X13470106Y-26013650D01*
X13470106Y-26013650D02*
X13498677Y-26013650D01*
X13498677Y-26013650D02*
X13517725Y-26023174D01*
X13517725Y-26023174D02*
X13527249Y-26042222D01*
X13527249Y-26042222D02*
X13527249Y-26146984D01*
X13651058Y-26146984D02*
X13632011Y-26137460D01*
X13632011Y-26137460D02*
X13622487Y-26127936D01*
X13622487Y-26127936D02*
X13612963Y-26108888D01*
X13612963Y-26108888D02*
X13612963Y-26051746D01*
X13612963Y-26051746D02*
X13622487Y-26032698D01*
X13622487Y-26032698D02*
X13632011Y-26023174D01*
X13632011Y-26023174D02*
X13651058Y-26013650D01*
X13651058Y-26013650D02*
X13679630Y-26013650D01*
X13679630Y-26013650D02*
X13698677Y-26023174D01*
X13698677Y-26023174D02*
X13708201Y-26032698D01*
X13708201Y-26032698D02*
X13717725Y-26051746D01*
X13717725Y-26051746D02*
X13717725Y-26108888D01*
X13717725Y-26108888D02*
X13708201Y-26127936D01*
X13708201Y-26127936D02*
X13698677Y-26137460D01*
X13698677Y-26137460D02*
X13679630Y-26146984D01*
X13679630Y-26146984D02*
X13651058Y-26146984D01*
X13774868Y-26013650D02*
X13851058Y-26013650D01*
X13803439Y-25946984D02*
X13803439Y-26118412D01*
X13803439Y-26118412D02*
X13812963Y-26137460D01*
X13812963Y-26137460D02*
X13832011Y-26146984D01*
X13832011Y-26146984D02*
X13851058Y-26146984D01*
X14070106Y-26013650D02*
X14070106Y-26213650D01*
X14070106Y-26023174D02*
X14089153Y-26013650D01*
X14089153Y-26013650D02*
X14127249Y-26013650D01*
X14127249Y-26013650D02*
X14146296Y-26023174D01*
X14146296Y-26023174D02*
X14155820Y-26032698D01*
X14155820Y-26032698D02*
X14165344Y-26051746D01*
X14165344Y-26051746D02*
X14165344Y-26108888D01*
X14165344Y-26108888D02*
X14155820Y-26127936D01*
X14155820Y-26127936D02*
X14146296Y-26137460D01*
X14146296Y-26137460D02*
X14127249Y-26146984D01*
X14127249Y-26146984D02*
X14089153Y-26146984D01*
X14089153Y-26146984D02*
X14070106Y-26137460D01*
X14279630Y-26146984D02*
X14260582Y-26137460D01*
X14260582Y-26137460D02*
X14251058Y-26118412D01*
X14251058Y-26118412D02*
X14251058Y-25946984D01*
X14441534Y-26146984D02*
X14441534Y-26042222D01*
X14441534Y-26042222D02*
X14432011Y-26023174D01*
X14432011Y-26023174D02*
X14412963Y-26013650D01*
X14412963Y-26013650D02*
X14374868Y-26013650D01*
X14374868Y-26013650D02*
X14355820Y-26023174D01*
X14441534Y-26137460D02*
X14422487Y-26146984D01*
X14422487Y-26146984D02*
X14374868Y-26146984D01*
X14374868Y-26146984D02*
X14355820Y-26137460D01*
X14355820Y-26137460D02*
X14346296Y-26118412D01*
X14346296Y-26118412D02*
X14346296Y-26099365D01*
X14346296Y-26099365D02*
X14355820Y-26080317D01*
X14355820Y-26080317D02*
X14374868Y-26070793D01*
X14374868Y-26070793D02*
X14422487Y-26070793D01*
X14422487Y-26070793D02*
X14441534Y-26061269D01*
X14508201Y-26013650D02*
X14584392Y-26013650D01*
X14536773Y-25946984D02*
X14536773Y-26118412D01*
X14536773Y-26118412D02*
X14546296Y-26137460D01*
X14546296Y-26137460D02*
X14565344Y-26146984D01*
X14565344Y-26146984D02*
X14584392Y-26146984D01*
X14727249Y-26137460D02*
X14708201Y-26146984D01*
X14708201Y-26146984D02*
X14670106Y-26146984D01*
X14670106Y-26146984D02*
X14651058Y-26137460D01*
X14651058Y-26137460D02*
X14641534Y-26118412D01*
X14641534Y-26118412D02*
X14641534Y-26042222D01*
X14641534Y-26042222D02*
X14651058Y-26023174D01*
X14651058Y-26023174D02*
X14670106Y-26013650D01*
X14670106Y-26013650D02*
X14708201Y-26013650D01*
X14708201Y-26013650D02*
X14727249Y-26023174D01*
X14727249Y-26023174D02*
X14736773Y-26042222D01*
X14736773Y-26042222D02*
X14736773Y-26061269D01*
X14736773Y-26061269D02*
X14641534Y-26080317D01*
X14908201Y-26146984D02*
X14908201Y-25946984D01*
X14908201Y-26137460D02*
X14889154Y-26146984D01*
X14889154Y-26146984D02*
X14851058Y-26146984D01*
X14851058Y-26146984D02*
X14832011Y-26137460D01*
X14832011Y-26137460D02*
X14822487Y-26127936D01*
X14822487Y-26127936D02*
X14812963Y-26108888D01*
X14812963Y-26108888D02*
X14812963Y-26051746D01*
X14812963Y-26051746D02*
X14822487Y-26032698D01*
X14822487Y-26032698D02*
X14832011Y-26023174D01*
X14832011Y-26023174D02*
X14851058Y-26013650D01*
X14851058Y-26013650D02*
X14889154Y-26013650D01*
X14889154Y-26013650D02*
X14908201Y-26023174D01*
X14984392Y-26223174D02*
X14993915Y-26213650D01*
X14993915Y-26213650D02*
X15012963Y-26185079D01*
X15012963Y-26185079D02*
X15022487Y-26166031D01*
X15022487Y-26166031D02*
X15032011Y-26137460D01*
X15032011Y-26137460D02*
X15041534Y-26089841D01*
X15041534Y-26089841D02*
X15041534Y-26051746D01*
X15041534Y-26051746D02*
X15032011Y-26004127D01*
X15032011Y-26004127D02*
X15022487Y-25975555D01*
X15022487Y-25975555D02*
X15012963Y-25956508D01*
X15012963Y-25956508D02*
X14993915Y-25927936D01*
X14993915Y-25927936D02*
X14984392Y-25918412D01*
X7937900Y-26475500D02*
X8037900Y-26375500D01*
X7937900Y-26275500D01*
X7837900Y-26375500D01*
X7937900Y-26475500D01*
X8279629Y-26266984D02*
X8403439Y-26266984D01*
X8403439Y-26266984D02*
X8336772Y-26343174D01*
X8336772Y-26343174D02*
X8365343Y-26343174D01*
X8365343Y-26343174D02*
X8384391Y-26352698D01*
X8384391Y-26352698D02*
X8393915Y-26362222D01*
X8393915Y-26362222D02*
X8403439Y-26381269D01*
X8403439Y-26381269D02*
X8403439Y-26428888D01*
X8403439Y-26428888D02*
X8393915Y-26447936D01*
X8393915Y-26447936D02*
X8384391Y-26457460D01*
X8384391Y-26457460D02*
X8365343Y-26466984D01*
X8365343Y-26466984D02*
X8308201Y-26466984D01*
X8308201Y-26466984D02*
X8289153Y-26457460D01*
X8289153Y-26457460D02*
X8279629Y-26447936D01*
X8489153Y-26447936D02*
X8498677Y-26457460D01*
X8498677Y-26457460D02*
X8489153Y-26466984D01*
X8489153Y-26466984D02*
X8479629Y-26457460D01*
X8479629Y-26457460D02*
X8489153Y-26447936D01*
X8489153Y-26447936D02*
X8489153Y-26466984D01*
X8593915Y-26466984D02*
X8632010Y-26466984D01*
X8632010Y-26466984D02*
X8651058Y-26457460D01*
X8651058Y-26457460D02*
X8660582Y-26447936D01*
X8660582Y-26447936D02*
X8679629Y-26419365D01*
X8679629Y-26419365D02*
X8689153Y-26381269D01*
X8689153Y-26381269D02*
X8689153Y-26305079D01*
X8689153Y-26305079D02*
X8679629Y-26286031D01*
X8679629Y-26286031D02*
X8670105Y-26276508D01*
X8670105Y-26276508D02*
X8651058Y-26266984D01*
X8651058Y-26266984D02*
X8612963Y-26266984D01*
X8612963Y-26266984D02*
X8593915Y-26276508D01*
X8593915Y-26276508D02*
X8584391Y-26286031D01*
X8584391Y-26286031D02*
X8574867Y-26305079D01*
X8574867Y-26305079D02*
X8574867Y-26352698D01*
X8574867Y-26352698D02*
X8584391Y-26371746D01*
X8584391Y-26371746D02*
X8593915Y-26381269D01*
X8593915Y-26381269D02*
X8612963Y-26390793D01*
X8612963Y-26390793D02*
X8651058Y-26390793D01*
X8651058Y-26390793D02*
X8670105Y-26381269D01*
X8670105Y-26381269D02*
X8679629Y-26371746D01*
X8679629Y-26371746D02*
X8689153Y-26352698D01*
X8803439Y-26352698D02*
X8784391Y-26343174D01*
X8784391Y-26343174D02*
X8774867Y-26333650D01*
X8774867Y-26333650D02*
X8765344Y-26314603D01*
X8765344Y-26314603D02*
X8765344Y-26305079D01*
X8765344Y-26305079D02*
X8774867Y-26286031D01*
X8774867Y-26286031D02*
X8784391Y-26276508D01*
X8784391Y-26276508D02*
X8803439Y-26266984D01*
X8803439Y-26266984D02*
X8841534Y-26266984D01*
X8841534Y-26266984D02*
X8860582Y-26276508D01*
X8860582Y-26276508D02*
X8870105Y-26286031D01*
X8870105Y-26286031D02*
X8879629Y-26305079D01*
X8879629Y-26305079D02*
X8879629Y-26314603D01*
X8879629Y-26314603D02*
X8870105Y-26333650D01*
X8870105Y-26333650D02*
X8860582Y-26343174D01*
X8860582Y-26343174D02*
X8841534Y-26352698D01*
X8841534Y-26352698D02*
X8803439Y-26352698D01*
X8803439Y-26352698D02*
X8784391Y-26362222D01*
X8784391Y-26362222D02*
X8774867Y-26371746D01*
X8774867Y-26371746D02*
X8765344Y-26390793D01*
X8765344Y-26390793D02*
X8765344Y-26428888D01*
X8765344Y-26428888D02*
X8774867Y-26447936D01*
X8774867Y-26447936D02*
X8784391Y-26457460D01*
X8784391Y-26457460D02*
X8803439Y-26466984D01*
X8803439Y-26466984D02*
X8841534Y-26466984D01*
X8841534Y-26466984D02*
X8860582Y-26457460D01*
X8860582Y-26457460D02*
X8870105Y-26447936D01*
X8870105Y-26447936D02*
X8879629Y-26428888D01*
X8879629Y-26428888D02*
X8879629Y-26390793D01*
X8879629Y-26390793D02*
X8870105Y-26371746D01*
X8870105Y-26371746D02*
X8860582Y-26362222D01*
X8860582Y-26362222D02*
X8841534Y-26352698D01*
X8993915Y-26352698D02*
X8974867Y-26343174D01*
X8974867Y-26343174D02*
X8965344Y-26333650D01*
X8965344Y-26333650D02*
X8955820Y-26314603D01*
X8955820Y-26314603D02*
X8955820Y-26305079D01*
X8955820Y-26305079D02*
X8965344Y-26286031D01*
X8965344Y-26286031D02*
X8974867Y-26276508D01*
X8974867Y-26276508D02*
X8993915Y-26266984D01*
X8993915Y-26266984D02*
X9032010Y-26266984D01*
X9032010Y-26266984D02*
X9051058Y-26276508D01*
X9051058Y-26276508D02*
X9060582Y-26286031D01*
X9060582Y-26286031D02*
X9070105Y-26305079D01*
X9070105Y-26305079D02*
X9070105Y-26314603D01*
X9070105Y-26314603D02*
X9060582Y-26333650D01*
X9060582Y-26333650D02*
X9051058Y-26343174D01*
X9051058Y-26343174D02*
X9032010Y-26352698D01*
X9032010Y-26352698D02*
X8993915Y-26352698D01*
X8993915Y-26352698D02*
X8974867Y-26362222D01*
X8974867Y-26362222D02*
X8965344Y-26371746D01*
X8965344Y-26371746D02*
X8955820Y-26390793D01*
X8955820Y-26390793D02*
X8955820Y-26428888D01*
X8955820Y-26428888D02*
X8965344Y-26447936D01*
X8965344Y-26447936D02*
X8974867Y-26457460D01*
X8974867Y-26457460D02*
X8993915Y-26466984D01*
X8993915Y-26466984D02*
X9032010Y-26466984D01*
X9032010Y-26466984D02*
X9051058Y-26457460D01*
X9051058Y-26457460D02*
X9060582Y-26447936D01*
X9060582Y-26447936D02*
X9070105Y-26428888D01*
X9070105Y-26428888D02*
X9070105Y-26390793D01*
X9070105Y-26390793D02*
X9060582Y-26371746D01*
X9060582Y-26371746D02*
X9051058Y-26362222D01*
X9051058Y-26362222D02*
X9032010Y-26352698D01*
X9155820Y-26466984D02*
X9155820Y-26333650D01*
X9155820Y-26352698D02*
X9165344Y-26343174D01*
X9165344Y-26343174D02*
X9184391Y-26333650D01*
X9184391Y-26333650D02*
X9212963Y-26333650D01*
X9212963Y-26333650D02*
X9232010Y-26343174D01*
X9232010Y-26343174D02*
X9241534Y-26362222D01*
X9241534Y-26362222D02*
X9241534Y-26466984D01*
X9241534Y-26362222D02*
X9251058Y-26343174D01*
X9251058Y-26343174D02*
X9270105Y-26333650D01*
X9270105Y-26333650D02*
X9298677Y-26333650D01*
X9298677Y-26333650D02*
X9317725Y-26343174D01*
X9317725Y-26343174D02*
X9327248Y-26362222D01*
X9327248Y-26362222D02*
X9327248Y-26466984D01*
X9422486Y-26466984D02*
X9422486Y-26333650D01*
X9422486Y-26352698D02*
X9432010Y-26343174D01*
X9432010Y-26343174D02*
X9451058Y-26333650D01*
X9451058Y-26333650D02*
X9479629Y-26333650D01*
X9479629Y-26333650D02*
X9498677Y-26343174D01*
X9498677Y-26343174D02*
X9508201Y-26362222D01*
X9508201Y-26362222D02*
X9508201Y-26466984D01*
X9508201Y-26362222D02*
X9517725Y-26343174D01*
X9517725Y-26343174D02*
X9536772Y-26333650D01*
X9536772Y-26333650D02*
X9565344Y-26333650D01*
X9565344Y-26333650D02*
X9584391Y-26343174D01*
X9584391Y-26343174D02*
X9593915Y-26362222D01*
X9593915Y-26362222D02*
X9593915Y-26466984D01*
X9984391Y-26257460D02*
X9812963Y-26514603D01*
X10241534Y-26266984D02*
X10260582Y-26266984D01*
X10260582Y-26266984D02*
X10279629Y-26276508D01*
X10279629Y-26276508D02*
X10289153Y-26286031D01*
X10289153Y-26286031D02*
X10298677Y-26305079D01*
X10298677Y-26305079D02*
X10308201Y-26343174D01*
X10308201Y-26343174D02*
X10308201Y-26390793D01*
X10308201Y-26390793D02*
X10298677Y-26428888D01*
X10298677Y-26428888D02*
X10289153Y-26447936D01*
X10289153Y-26447936D02*
X10279629Y-26457460D01*
X10279629Y-26457460D02*
X10260582Y-26466984D01*
X10260582Y-26466984D02*
X10241534Y-26466984D01*
X10241534Y-26466984D02*
X10222487Y-26457460D01*
X10222487Y-26457460D02*
X10212963Y-26447936D01*
X10212963Y-26447936D02*
X10203439Y-26428888D01*
X10203439Y-26428888D02*
X10193915Y-26390793D01*
X10193915Y-26390793D02*
X10193915Y-26343174D01*
X10193915Y-26343174D02*
X10203439Y-26305079D01*
X10203439Y-26305079D02*
X10212963Y-26286031D01*
X10212963Y-26286031D02*
X10222487Y-26276508D01*
X10222487Y-26276508D02*
X10241534Y-26266984D01*
X10393915Y-26447936D02*
X10403439Y-26457460D01*
X10403439Y-26457460D02*
X10393915Y-26466984D01*
X10393915Y-26466984D02*
X10384391Y-26457460D01*
X10384391Y-26457460D02*
X10393915Y-26447936D01*
X10393915Y-26447936D02*
X10393915Y-26466984D01*
X10593915Y-26466984D02*
X10479629Y-26466984D01*
X10536772Y-26466984D02*
X10536772Y-26266984D01*
X10536772Y-26266984D02*
X10517725Y-26295555D01*
X10517725Y-26295555D02*
X10498677Y-26314603D01*
X10498677Y-26314603D02*
X10479629Y-26324127D01*
X10774868Y-26266984D02*
X10679629Y-26266984D01*
X10679629Y-26266984D02*
X10670106Y-26362222D01*
X10670106Y-26362222D02*
X10679629Y-26352698D01*
X10679629Y-26352698D02*
X10698677Y-26343174D01*
X10698677Y-26343174D02*
X10746296Y-26343174D01*
X10746296Y-26343174D02*
X10765344Y-26352698D01*
X10765344Y-26352698D02*
X10774868Y-26362222D01*
X10774868Y-26362222D02*
X10784391Y-26381269D01*
X10784391Y-26381269D02*
X10784391Y-26428888D01*
X10784391Y-26428888D02*
X10774868Y-26447936D01*
X10774868Y-26447936D02*
X10765344Y-26457460D01*
X10765344Y-26457460D02*
X10746296Y-26466984D01*
X10746296Y-26466984D02*
X10698677Y-26466984D01*
X10698677Y-26466984D02*
X10679629Y-26457460D01*
X10679629Y-26457460D02*
X10670106Y-26447936D01*
X10851058Y-26266984D02*
X10984391Y-26266984D01*
X10984391Y-26266984D02*
X10898677Y-26466984D01*
X11098677Y-26266984D02*
X11117725Y-26266984D01*
X11117725Y-26266984D02*
X11136772Y-26276508D01*
X11136772Y-26276508D02*
X11146296Y-26286031D01*
X11146296Y-26286031D02*
X11155820Y-26305079D01*
X11155820Y-26305079D02*
X11165344Y-26343174D01*
X11165344Y-26343174D02*
X11165344Y-26390793D01*
X11165344Y-26390793D02*
X11155820Y-26428888D01*
X11155820Y-26428888D02*
X11146296Y-26447936D01*
X11146296Y-26447936D02*
X11136772Y-26457460D01*
X11136772Y-26457460D02*
X11117725Y-26466984D01*
X11117725Y-26466984D02*
X11098677Y-26466984D01*
X11098677Y-26466984D02*
X11079629Y-26457460D01*
X11079629Y-26457460D02*
X11070106Y-26447936D01*
X11070106Y-26447936D02*
X11060582Y-26428888D01*
X11060582Y-26428888D02*
X11051058Y-26390793D01*
X11051058Y-26390793D02*
X11051058Y-26343174D01*
X11051058Y-26343174D02*
X11060582Y-26305079D01*
X11060582Y-26305079D02*
X11070106Y-26286031D01*
X11070106Y-26286031D02*
X11079629Y-26276508D01*
X11079629Y-26276508D02*
X11098677Y-26266984D01*
X11241534Y-26266984D02*
X11241534Y-26305079D01*
X11317725Y-26266984D02*
X11317725Y-26305079D01*
X11612963Y-26543174D02*
X11603439Y-26533650D01*
X11603439Y-26533650D02*
X11584391Y-26505079D01*
X11584391Y-26505079D02*
X11574868Y-26486031D01*
X11574868Y-26486031D02*
X11565344Y-26457460D01*
X11565344Y-26457460D02*
X11555820Y-26409841D01*
X11555820Y-26409841D02*
X11555820Y-26371746D01*
X11555820Y-26371746D02*
X11565344Y-26324127D01*
X11565344Y-26324127D02*
X11574868Y-26295555D01*
X11574868Y-26295555D02*
X11584391Y-26276508D01*
X11584391Y-26276508D02*
X11603439Y-26247936D01*
X11603439Y-26247936D02*
X11612963Y-26238412D01*
X11793915Y-26466984D02*
X11679629Y-26466984D01*
X11736772Y-26466984D02*
X11736772Y-26266984D01*
X11736772Y-26266984D02*
X11717725Y-26295555D01*
X11717725Y-26295555D02*
X11698677Y-26314603D01*
X11698677Y-26314603D02*
X11679629Y-26324127D01*
X11870106Y-26286031D02*
X11879629Y-26276508D01*
X11879629Y-26276508D02*
X11898677Y-26266984D01*
X11898677Y-26266984D02*
X11946296Y-26266984D01*
X11946296Y-26266984D02*
X11965344Y-26276508D01*
X11965344Y-26276508D02*
X11974868Y-26286031D01*
X11974868Y-26286031D02*
X11984391Y-26305079D01*
X11984391Y-26305079D02*
X11984391Y-26324127D01*
X11984391Y-26324127D02*
X11974868Y-26352698D01*
X11974868Y-26352698D02*
X11860582Y-26466984D01*
X11860582Y-26466984D02*
X11984391Y-26466984D01*
X12222487Y-26466984D02*
X12222487Y-26266984D01*
X12308201Y-26466984D02*
X12308201Y-26362222D01*
X12308201Y-26362222D02*
X12298677Y-26343174D01*
X12298677Y-26343174D02*
X12279630Y-26333650D01*
X12279630Y-26333650D02*
X12251058Y-26333650D01*
X12251058Y-26333650D02*
X12232010Y-26343174D01*
X12232010Y-26343174D02*
X12222487Y-26352698D01*
X12432010Y-26466984D02*
X12412963Y-26457460D01*
X12412963Y-26457460D02*
X12403439Y-26447936D01*
X12403439Y-26447936D02*
X12393915Y-26428888D01*
X12393915Y-26428888D02*
X12393915Y-26371746D01*
X12393915Y-26371746D02*
X12403439Y-26352698D01*
X12403439Y-26352698D02*
X12412963Y-26343174D01*
X12412963Y-26343174D02*
X12432010Y-26333650D01*
X12432010Y-26333650D02*
X12460582Y-26333650D01*
X12460582Y-26333650D02*
X12479630Y-26343174D01*
X12479630Y-26343174D02*
X12489153Y-26352698D01*
X12489153Y-26352698D02*
X12498677Y-26371746D01*
X12498677Y-26371746D02*
X12498677Y-26428888D01*
X12498677Y-26428888D02*
X12489153Y-26447936D01*
X12489153Y-26447936D02*
X12479630Y-26457460D01*
X12479630Y-26457460D02*
X12460582Y-26466984D01*
X12460582Y-26466984D02*
X12432010Y-26466984D01*
X12612963Y-26466984D02*
X12593915Y-26457460D01*
X12593915Y-26457460D02*
X12584391Y-26438412D01*
X12584391Y-26438412D02*
X12584391Y-26266984D01*
X12765344Y-26457460D02*
X12746296Y-26466984D01*
X12746296Y-26466984D02*
X12708201Y-26466984D01*
X12708201Y-26466984D02*
X12689153Y-26457460D01*
X12689153Y-26457460D02*
X12679630Y-26438412D01*
X12679630Y-26438412D02*
X12679630Y-26362222D01*
X12679630Y-26362222D02*
X12689153Y-26343174D01*
X12689153Y-26343174D02*
X12708201Y-26333650D01*
X12708201Y-26333650D02*
X12746296Y-26333650D01*
X12746296Y-26333650D02*
X12765344Y-26343174D01*
X12765344Y-26343174D02*
X12774868Y-26362222D01*
X12774868Y-26362222D02*
X12774868Y-26381269D01*
X12774868Y-26381269D02*
X12679630Y-26400317D01*
X12851058Y-26457460D02*
X12870106Y-26466984D01*
X12870106Y-26466984D02*
X12908201Y-26466984D01*
X12908201Y-26466984D02*
X12927249Y-26457460D01*
X12927249Y-26457460D02*
X12936772Y-26438412D01*
X12936772Y-26438412D02*
X12936772Y-26428888D01*
X12936772Y-26428888D02*
X12927249Y-26409841D01*
X12927249Y-26409841D02*
X12908201Y-26400317D01*
X12908201Y-26400317D02*
X12879630Y-26400317D01*
X12879630Y-26400317D02*
X12860582Y-26390793D01*
X12860582Y-26390793D02*
X12851058Y-26371746D01*
X12851058Y-26371746D02*
X12851058Y-26362222D01*
X12851058Y-26362222D02*
X12860582Y-26343174D01*
X12860582Y-26343174D02*
X12879630Y-26333650D01*
X12879630Y-26333650D02*
X12908201Y-26333650D01*
X12908201Y-26333650D02*
X12927249Y-26343174D01*
X13003439Y-26543174D02*
X13012963Y-26533650D01*
X13012963Y-26533650D02*
X13032011Y-26505079D01*
X13032011Y-26505079D02*
X13041534Y-26486031D01*
X13041534Y-26486031D02*
X13051058Y-26457460D01*
X13051058Y-26457460D02*
X13060582Y-26409841D01*
X13060582Y-26409841D02*
X13060582Y-26371746D01*
X13060582Y-26371746D02*
X13051058Y-26324127D01*
X13051058Y-26324127D02*
X13041534Y-26295555D01*
X13041534Y-26295555D02*
X13032011Y-26276508D01*
X13032011Y-26276508D02*
X13012963Y-26247936D01*
X13012963Y-26247936D02*
X13003439Y-26238412D01*
X13365344Y-26543174D02*
X13355820Y-26533650D01*
X13355820Y-26533650D02*
X13336772Y-26505079D01*
X13336772Y-26505079D02*
X13327249Y-26486031D01*
X13327249Y-26486031D02*
X13317725Y-26457460D01*
X13317725Y-26457460D02*
X13308201Y-26409841D01*
X13308201Y-26409841D02*
X13308201Y-26371746D01*
X13308201Y-26371746D02*
X13317725Y-26324127D01*
X13317725Y-26324127D02*
X13327249Y-26295555D01*
X13327249Y-26295555D02*
X13336772Y-26276508D01*
X13336772Y-26276508D02*
X13355820Y-26247936D01*
X13355820Y-26247936D02*
X13365344Y-26238412D01*
X13441534Y-26333650D02*
X13441534Y-26466984D01*
X13441534Y-26352698D02*
X13451058Y-26343174D01*
X13451058Y-26343174D02*
X13470106Y-26333650D01*
X13470106Y-26333650D02*
X13498677Y-26333650D01*
X13498677Y-26333650D02*
X13517725Y-26343174D01*
X13517725Y-26343174D02*
X13527249Y-26362222D01*
X13527249Y-26362222D02*
X13527249Y-26466984D01*
X13651058Y-26466984D02*
X13632011Y-26457460D01*
X13632011Y-26457460D02*
X13622487Y-26447936D01*
X13622487Y-26447936D02*
X13612963Y-26428888D01*
X13612963Y-26428888D02*
X13612963Y-26371746D01*
X13612963Y-26371746D02*
X13622487Y-26352698D01*
X13622487Y-26352698D02*
X13632011Y-26343174D01*
X13632011Y-26343174D02*
X13651058Y-26333650D01*
X13651058Y-26333650D02*
X13679630Y-26333650D01*
X13679630Y-26333650D02*
X13698677Y-26343174D01*
X13698677Y-26343174D02*
X13708201Y-26352698D01*
X13708201Y-26352698D02*
X13717725Y-26371746D01*
X13717725Y-26371746D02*
X13717725Y-26428888D01*
X13717725Y-26428888D02*
X13708201Y-26447936D01*
X13708201Y-26447936D02*
X13698677Y-26457460D01*
X13698677Y-26457460D02*
X13679630Y-26466984D01*
X13679630Y-26466984D02*
X13651058Y-26466984D01*
X13774868Y-26333650D02*
X13851058Y-26333650D01*
X13803439Y-26266984D02*
X13803439Y-26438412D01*
X13803439Y-26438412D02*
X13812963Y-26457460D01*
X13812963Y-26457460D02*
X13832011Y-26466984D01*
X13832011Y-26466984D02*
X13851058Y-26466984D01*
X14070106Y-26333650D02*
X14070106Y-26533650D01*
X14070106Y-26343174D02*
X14089153Y-26333650D01*
X14089153Y-26333650D02*
X14127249Y-26333650D01*
X14127249Y-26333650D02*
X14146296Y-26343174D01*
X14146296Y-26343174D02*
X14155820Y-26352698D01*
X14155820Y-26352698D02*
X14165344Y-26371746D01*
X14165344Y-26371746D02*
X14165344Y-26428888D01*
X14165344Y-26428888D02*
X14155820Y-26447936D01*
X14155820Y-26447936D02*
X14146296Y-26457460D01*
X14146296Y-26457460D02*
X14127249Y-26466984D01*
X14127249Y-26466984D02*
X14089153Y-26466984D01*
X14089153Y-26466984D02*
X14070106Y-26457460D01*
X14279630Y-26466984D02*
X14260582Y-26457460D01*
X14260582Y-26457460D02*
X14251058Y-26438412D01*
X14251058Y-26438412D02*
X14251058Y-26266984D01*
X14441534Y-26466984D02*
X14441534Y-26362222D01*
X14441534Y-26362222D02*
X14432011Y-26343174D01*
X14432011Y-26343174D02*
X14412963Y-26333650D01*
X14412963Y-26333650D02*
X14374868Y-26333650D01*
X14374868Y-26333650D02*
X14355820Y-26343174D01*
X14441534Y-26457460D02*
X14422487Y-26466984D01*
X14422487Y-26466984D02*
X14374868Y-26466984D01*
X14374868Y-26466984D02*
X14355820Y-26457460D01*
X14355820Y-26457460D02*
X14346296Y-26438412D01*
X14346296Y-26438412D02*
X14346296Y-26419365D01*
X14346296Y-26419365D02*
X14355820Y-26400317D01*
X14355820Y-26400317D02*
X14374868Y-26390793D01*
X14374868Y-26390793D02*
X14422487Y-26390793D01*
X14422487Y-26390793D02*
X14441534Y-26381269D01*
X14508201Y-26333650D02*
X14584392Y-26333650D01*
X14536773Y-26266984D02*
X14536773Y-26438412D01*
X14536773Y-26438412D02*
X14546296Y-26457460D01*
X14546296Y-26457460D02*
X14565344Y-26466984D01*
X14565344Y-26466984D02*
X14584392Y-26466984D01*
X14727249Y-26457460D02*
X14708201Y-26466984D01*
X14708201Y-26466984D02*
X14670106Y-26466984D01*
X14670106Y-26466984D02*
X14651058Y-26457460D01*
X14651058Y-26457460D02*
X14641534Y-26438412D01*
X14641534Y-26438412D02*
X14641534Y-26362222D01*
X14641534Y-26362222D02*
X14651058Y-26343174D01*
X14651058Y-26343174D02*
X14670106Y-26333650D01*
X14670106Y-26333650D02*
X14708201Y-26333650D01*
X14708201Y-26333650D02*
X14727249Y-26343174D01*
X14727249Y-26343174D02*
X14736773Y-26362222D01*
X14736773Y-26362222D02*
X14736773Y-26381269D01*
X14736773Y-26381269D02*
X14641534Y-26400317D01*
X14908201Y-26466984D02*
X14908201Y-26266984D01*
X14908201Y-26457460D02*
X14889154Y-26466984D01*
X14889154Y-26466984D02*
X14851058Y-26466984D01*
X14851058Y-26466984D02*
X14832011Y-26457460D01*
X14832011Y-26457460D02*
X14822487Y-26447936D01*
X14822487Y-26447936D02*
X14812963Y-26428888D01*
X14812963Y-26428888D02*
X14812963Y-26371746D01*
X14812963Y-26371746D02*
X14822487Y-26352698D01*
X14822487Y-26352698D02*
X14832011Y-26343174D01*
X14832011Y-26343174D02*
X14851058Y-26333650D01*
X14851058Y-26333650D02*
X14889154Y-26333650D01*
X14889154Y-26333650D02*
X14908201Y-26343174D01*
X14984392Y-26543174D02*
X14993915Y-26533650D01*
X14993915Y-26533650D02*
X15012963Y-26505079D01*
X15012963Y-26505079D02*
X15022487Y-26486031D01*
X15022487Y-26486031D02*
X15032011Y-26457460D01*
X15032011Y-26457460D02*
X15041534Y-26409841D01*
X15041534Y-26409841D02*
X15041534Y-26371746D01*
X15041534Y-26371746D02*
X15032011Y-26324127D01*
X15032011Y-26324127D02*
X15022487Y-26295555D01*
X15022487Y-26295555D02*
X15012963Y-26276508D01*
X15012963Y-26276508D02*
X14993915Y-26247936D01*
X14993915Y-26247936D02*
X14984392Y-26238412D01*
X7837900Y-26595500D02*
X8037900Y-26795500D01*
X8037900Y-26595500D02*
X7837900Y-26795500D01*
X8037900Y-26695500D02*
G75*
G02*
X7837900Y-26695500I-100000J0D01*
G01*
X7837900Y-26695500D02*
G75*
G02*
X8037900Y-26695500I100000J0D01*
G01*
X8384391Y-26653650D02*
X8384391Y-26786984D01*
X8336772Y-26577460D02*
X8289153Y-26720317D01*
X8289153Y-26720317D02*
X8412963Y-26720317D01*
X8489153Y-26767936D02*
X8498677Y-26777460D01*
X8498677Y-26777460D02*
X8489153Y-26786984D01*
X8489153Y-26786984D02*
X8479629Y-26777460D01*
X8479629Y-26777460D02*
X8489153Y-26767936D01*
X8489153Y-26767936D02*
X8489153Y-26786984D01*
X8622486Y-26586984D02*
X8641534Y-26586984D01*
X8641534Y-26586984D02*
X8660582Y-26596508D01*
X8660582Y-26596508D02*
X8670105Y-26606031D01*
X8670105Y-26606031D02*
X8679629Y-26625079D01*
X8679629Y-26625079D02*
X8689153Y-26663174D01*
X8689153Y-26663174D02*
X8689153Y-26710793D01*
X8689153Y-26710793D02*
X8679629Y-26748888D01*
X8679629Y-26748888D02*
X8670105Y-26767936D01*
X8670105Y-26767936D02*
X8660582Y-26777460D01*
X8660582Y-26777460D02*
X8641534Y-26786984D01*
X8641534Y-26786984D02*
X8622486Y-26786984D01*
X8622486Y-26786984D02*
X8603439Y-26777460D01*
X8603439Y-26777460D02*
X8593915Y-26767936D01*
X8593915Y-26767936D02*
X8584391Y-26748888D01*
X8584391Y-26748888D02*
X8574867Y-26710793D01*
X8574867Y-26710793D02*
X8574867Y-26663174D01*
X8574867Y-26663174D02*
X8584391Y-26625079D01*
X8584391Y-26625079D02*
X8593915Y-26606031D01*
X8593915Y-26606031D02*
X8603439Y-26596508D01*
X8603439Y-26596508D02*
X8622486Y-26586984D01*
X8812963Y-26586984D02*
X8832010Y-26586984D01*
X8832010Y-26586984D02*
X8851058Y-26596508D01*
X8851058Y-26596508D02*
X8860582Y-26606031D01*
X8860582Y-26606031D02*
X8870105Y-26625079D01*
X8870105Y-26625079D02*
X8879629Y-26663174D01*
X8879629Y-26663174D02*
X8879629Y-26710793D01*
X8879629Y-26710793D02*
X8870105Y-26748888D01*
X8870105Y-26748888D02*
X8860582Y-26767936D01*
X8860582Y-26767936D02*
X8851058Y-26777460D01*
X8851058Y-26777460D02*
X8832010Y-26786984D01*
X8832010Y-26786984D02*
X8812963Y-26786984D01*
X8812963Y-26786984D02*
X8793915Y-26777460D01*
X8793915Y-26777460D02*
X8784391Y-26767936D01*
X8784391Y-26767936D02*
X8774867Y-26748888D01*
X8774867Y-26748888D02*
X8765344Y-26710793D01*
X8765344Y-26710793D02*
X8765344Y-26663174D01*
X8765344Y-26663174D02*
X8774867Y-26625079D01*
X8774867Y-26625079D02*
X8784391Y-26606031D01*
X8784391Y-26606031D02*
X8793915Y-26596508D01*
X8793915Y-26596508D02*
X8812963Y-26586984D01*
X9003439Y-26586984D02*
X9022486Y-26586984D01*
X9022486Y-26586984D02*
X9041534Y-26596508D01*
X9041534Y-26596508D02*
X9051058Y-26606031D01*
X9051058Y-26606031D02*
X9060582Y-26625079D01*
X9060582Y-26625079D02*
X9070105Y-26663174D01*
X9070105Y-26663174D02*
X9070105Y-26710793D01*
X9070105Y-26710793D02*
X9060582Y-26748888D01*
X9060582Y-26748888D02*
X9051058Y-26767936D01*
X9051058Y-26767936D02*
X9041534Y-26777460D01*
X9041534Y-26777460D02*
X9022486Y-26786984D01*
X9022486Y-26786984D02*
X9003439Y-26786984D01*
X9003439Y-26786984D02*
X8984391Y-26777460D01*
X8984391Y-26777460D02*
X8974867Y-26767936D01*
X8974867Y-26767936D02*
X8965344Y-26748888D01*
X8965344Y-26748888D02*
X8955820Y-26710793D01*
X8955820Y-26710793D02*
X8955820Y-26663174D01*
X8955820Y-26663174D02*
X8965344Y-26625079D01*
X8965344Y-26625079D02*
X8974867Y-26606031D01*
X8974867Y-26606031D02*
X8984391Y-26596508D01*
X8984391Y-26596508D02*
X9003439Y-26586984D01*
X9155820Y-26786984D02*
X9155820Y-26653650D01*
X9155820Y-26672698D02*
X9165344Y-26663174D01*
X9165344Y-26663174D02*
X9184391Y-26653650D01*
X9184391Y-26653650D02*
X9212963Y-26653650D01*
X9212963Y-26653650D02*
X9232010Y-26663174D01*
X9232010Y-26663174D02*
X9241534Y-26682222D01*
X9241534Y-26682222D02*
X9241534Y-26786984D01*
X9241534Y-26682222D02*
X9251058Y-26663174D01*
X9251058Y-26663174D02*
X9270105Y-26653650D01*
X9270105Y-26653650D02*
X9298677Y-26653650D01*
X9298677Y-26653650D02*
X9317725Y-26663174D01*
X9317725Y-26663174D02*
X9327248Y-26682222D01*
X9327248Y-26682222D02*
X9327248Y-26786984D01*
X9422486Y-26786984D02*
X9422486Y-26653650D01*
X9422486Y-26672698D02*
X9432010Y-26663174D01*
X9432010Y-26663174D02*
X9451058Y-26653650D01*
X9451058Y-26653650D02*
X9479629Y-26653650D01*
X9479629Y-26653650D02*
X9498677Y-26663174D01*
X9498677Y-26663174D02*
X9508201Y-26682222D01*
X9508201Y-26682222D02*
X9508201Y-26786984D01*
X9508201Y-26682222D02*
X9517725Y-26663174D01*
X9517725Y-26663174D02*
X9536772Y-26653650D01*
X9536772Y-26653650D02*
X9565344Y-26653650D01*
X9565344Y-26653650D02*
X9584391Y-26663174D01*
X9584391Y-26663174D02*
X9593915Y-26682222D01*
X9593915Y-26682222D02*
X9593915Y-26786984D01*
X9984391Y-26577460D02*
X9812963Y-26834603D01*
X10241534Y-26586984D02*
X10260582Y-26586984D01*
X10260582Y-26586984D02*
X10279629Y-26596508D01*
X10279629Y-26596508D02*
X10289153Y-26606031D01*
X10289153Y-26606031D02*
X10298677Y-26625079D01*
X10298677Y-26625079D02*
X10308201Y-26663174D01*
X10308201Y-26663174D02*
X10308201Y-26710793D01*
X10308201Y-26710793D02*
X10298677Y-26748888D01*
X10298677Y-26748888D02*
X10289153Y-26767936D01*
X10289153Y-26767936D02*
X10279629Y-26777460D01*
X10279629Y-26777460D02*
X10260582Y-26786984D01*
X10260582Y-26786984D02*
X10241534Y-26786984D01*
X10241534Y-26786984D02*
X10222487Y-26777460D01*
X10222487Y-26777460D02*
X10212963Y-26767936D01*
X10212963Y-26767936D02*
X10203439Y-26748888D01*
X10203439Y-26748888D02*
X10193915Y-26710793D01*
X10193915Y-26710793D02*
X10193915Y-26663174D01*
X10193915Y-26663174D02*
X10203439Y-26625079D01*
X10203439Y-26625079D02*
X10212963Y-26606031D01*
X10212963Y-26606031D02*
X10222487Y-26596508D01*
X10222487Y-26596508D02*
X10241534Y-26586984D01*
X10393915Y-26767936D02*
X10403439Y-26777460D01*
X10403439Y-26777460D02*
X10393915Y-26786984D01*
X10393915Y-26786984D02*
X10384391Y-26777460D01*
X10384391Y-26777460D02*
X10393915Y-26767936D01*
X10393915Y-26767936D02*
X10393915Y-26786984D01*
X10593915Y-26786984D02*
X10479629Y-26786984D01*
X10536772Y-26786984D02*
X10536772Y-26586984D01*
X10536772Y-26586984D02*
X10517725Y-26615555D01*
X10517725Y-26615555D02*
X10498677Y-26634603D01*
X10498677Y-26634603D02*
X10479629Y-26644127D01*
X10774868Y-26586984D02*
X10679629Y-26586984D01*
X10679629Y-26586984D02*
X10670106Y-26682222D01*
X10670106Y-26682222D02*
X10679629Y-26672698D01*
X10679629Y-26672698D02*
X10698677Y-26663174D01*
X10698677Y-26663174D02*
X10746296Y-26663174D01*
X10746296Y-26663174D02*
X10765344Y-26672698D01*
X10765344Y-26672698D02*
X10774868Y-26682222D01*
X10774868Y-26682222D02*
X10784391Y-26701269D01*
X10784391Y-26701269D02*
X10784391Y-26748888D01*
X10784391Y-26748888D02*
X10774868Y-26767936D01*
X10774868Y-26767936D02*
X10765344Y-26777460D01*
X10765344Y-26777460D02*
X10746296Y-26786984D01*
X10746296Y-26786984D02*
X10698677Y-26786984D01*
X10698677Y-26786984D02*
X10679629Y-26777460D01*
X10679629Y-26777460D02*
X10670106Y-26767936D01*
X10851058Y-26586984D02*
X10984391Y-26586984D01*
X10984391Y-26586984D02*
X10898677Y-26786984D01*
X11155820Y-26586984D02*
X11060582Y-26586984D01*
X11060582Y-26586984D02*
X11051058Y-26682222D01*
X11051058Y-26682222D02*
X11060582Y-26672698D01*
X11060582Y-26672698D02*
X11079629Y-26663174D01*
X11079629Y-26663174D02*
X11127249Y-26663174D01*
X11127249Y-26663174D02*
X11146296Y-26672698D01*
X11146296Y-26672698D02*
X11155820Y-26682222D01*
X11155820Y-26682222D02*
X11165344Y-26701269D01*
X11165344Y-26701269D02*
X11165344Y-26748888D01*
X11165344Y-26748888D02*
X11155820Y-26767936D01*
X11155820Y-26767936D02*
X11146296Y-26777460D01*
X11146296Y-26777460D02*
X11127249Y-26786984D01*
X11127249Y-26786984D02*
X11079629Y-26786984D01*
X11079629Y-26786984D02*
X11060582Y-26777460D01*
X11060582Y-26777460D02*
X11051058Y-26767936D01*
X11241534Y-26586984D02*
X11241534Y-26625079D01*
X11317725Y-26586984D02*
X11317725Y-26625079D01*
X11612963Y-26863174D02*
X11603439Y-26853650D01*
X11603439Y-26853650D02*
X11584391Y-26825079D01*
X11584391Y-26825079D02*
X11574868Y-26806031D01*
X11574868Y-26806031D02*
X11565344Y-26777460D01*
X11565344Y-26777460D02*
X11555820Y-26729841D01*
X11555820Y-26729841D02*
X11555820Y-26691746D01*
X11555820Y-26691746D02*
X11565344Y-26644127D01*
X11565344Y-26644127D02*
X11574868Y-26615555D01*
X11574868Y-26615555D02*
X11584391Y-26596508D01*
X11584391Y-26596508D02*
X11603439Y-26567936D01*
X11603439Y-26567936D02*
X11612963Y-26558412D01*
X11717725Y-26672698D02*
X11698677Y-26663174D01*
X11698677Y-26663174D02*
X11689153Y-26653650D01*
X11689153Y-26653650D02*
X11679629Y-26634603D01*
X11679629Y-26634603D02*
X11679629Y-26625079D01*
X11679629Y-26625079D02*
X11689153Y-26606031D01*
X11689153Y-26606031D02*
X11698677Y-26596508D01*
X11698677Y-26596508D02*
X11717725Y-26586984D01*
X11717725Y-26586984D02*
X11755820Y-26586984D01*
X11755820Y-26586984D02*
X11774868Y-26596508D01*
X11774868Y-26596508D02*
X11784391Y-26606031D01*
X11784391Y-26606031D02*
X11793915Y-26625079D01*
X11793915Y-26625079D02*
X11793915Y-26634603D01*
X11793915Y-26634603D02*
X11784391Y-26653650D01*
X11784391Y-26653650D02*
X11774868Y-26663174D01*
X11774868Y-26663174D02*
X11755820Y-26672698D01*
X11755820Y-26672698D02*
X11717725Y-26672698D01*
X11717725Y-26672698D02*
X11698677Y-26682222D01*
X11698677Y-26682222D02*
X11689153Y-26691746D01*
X11689153Y-26691746D02*
X11679629Y-26710793D01*
X11679629Y-26710793D02*
X11679629Y-26748888D01*
X11679629Y-26748888D02*
X11689153Y-26767936D01*
X11689153Y-26767936D02*
X11698677Y-26777460D01*
X11698677Y-26777460D02*
X11717725Y-26786984D01*
X11717725Y-26786984D02*
X11755820Y-26786984D01*
X11755820Y-26786984D02*
X11774868Y-26777460D01*
X11774868Y-26777460D02*
X11784391Y-26767936D01*
X11784391Y-26767936D02*
X11793915Y-26748888D01*
X11793915Y-26748888D02*
X11793915Y-26710793D01*
X11793915Y-26710793D02*
X11784391Y-26691746D01*
X11784391Y-26691746D02*
X11774868Y-26682222D01*
X11774868Y-26682222D02*
X11755820Y-26672698D01*
X11870106Y-26606031D02*
X11879629Y-26596508D01*
X11879629Y-26596508D02*
X11898677Y-26586984D01*
X11898677Y-26586984D02*
X11946296Y-26586984D01*
X11946296Y-26586984D02*
X11965344Y-26596508D01*
X11965344Y-26596508D02*
X11974868Y-26606031D01*
X11974868Y-26606031D02*
X11984391Y-26625079D01*
X11984391Y-26625079D02*
X11984391Y-26644127D01*
X11984391Y-26644127D02*
X11974868Y-26672698D01*
X11974868Y-26672698D02*
X11860582Y-26786984D01*
X11860582Y-26786984D02*
X11984391Y-26786984D01*
X12222487Y-26786984D02*
X12222487Y-26586984D01*
X12308201Y-26786984D02*
X12308201Y-26682222D01*
X12308201Y-26682222D02*
X12298677Y-26663174D01*
X12298677Y-26663174D02*
X12279630Y-26653650D01*
X12279630Y-26653650D02*
X12251058Y-26653650D01*
X12251058Y-26653650D02*
X12232010Y-26663174D01*
X12232010Y-26663174D02*
X12222487Y-26672698D01*
X12432010Y-26786984D02*
X12412963Y-26777460D01*
X12412963Y-26777460D02*
X12403439Y-26767936D01*
X12403439Y-26767936D02*
X12393915Y-26748888D01*
X12393915Y-26748888D02*
X12393915Y-26691746D01*
X12393915Y-26691746D02*
X12403439Y-26672698D01*
X12403439Y-26672698D02*
X12412963Y-26663174D01*
X12412963Y-26663174D02*
X12432010Y-26653650D01*
X12432010Y-26653650D02*
X12460582Y-26653650D01*
X12460582Y-26653650D02*
X12479630Y-26663174D01*
X12479630Y-26663174D02*
X12489153Y-26672698D01*
X12489153Y-26672698D02*
X12498677Y-26691746D01*
X12498677Y-26691746D02*
X12498677Y-26748888D01*
X12498677Y-26748888D02*
X12489153Y-26767936D01*
X12489153Y-26767936D02*
X12479630Y-26777460D01*
X12479630Y-26777460D02*
X12460582Y-26786984D01*
X12460582Y-26786984D02*
X12432010Y-26786984D01*
X12612963Y-26786984D02*
X12593915Y-26777460D01*
X12593915Y-26777460D02*
X12584391Y-26758412D01*
X12584391Y-26758412D02*
X12584391Y-26586984D01*
X12765344Y-26777460D02*
X12746296Y-26786984D01*
X12746296Y-26786984D02*
X12708201Y-26786984D01*
X12708201Y-26786984D02*
X12689153Y-26777460D01*
X12689153Y-26777460D02*
X12679630Y-26758412D01*
X12679630Y-26758412D02*
X12679630Y-26682222D01*
X12679630Y-26682222D02*
X12689153Y-26663174D01*
X12689153Y-26663174D02*
X12708201Y-26653650D01*
X12708201Y-26653650D02*
X12746296Y-26653650D01*
X12746296Y-26653650D02*
X12765344Y-26663174D01*
X12765344Y-26663174D02*
X12774868Y-26682222D01*
X12774868Y-26682222D02*
X12774868Y-26701269D01*
X12774868Y-26701269D02*
X12679630Y-26720317D01*
X12851058Y-26777460D02*
X12870106Y-26786984D01*
X12870106Y-26786984D02*
X12908201Y-26786984D01*
X12908201Y-26786984D02*
X12927249Y-26777460D01*
X12927249Y-26777460D02*
X12936772Y-26758412D01*
X12936772Y-26758412D02*
X12936772Y-26748888D01*
X12936772Y-26748888D02*
X12927249Y-26729841D01*
X12927249Y-26729841D02*
X12908201Y-26720317D01*
X12908201Y-26720317D02*
X12879630Y-26720317D01*
X12879630Y-26720317D02*
X12860582Y-26710793D01*
X12860582Y-26710793D02*
X12851058Y-26691746D01*
X12851058Y-26691746D02*
X12851058Y-26682222D01*
X12851058Y-26682222D02*
X12860582Y-26663174D01*
X12860582Y-26663174D02*
X12879630Y-26653650D01*
X12879630Y-26653650D02*
X12908201Y-26653650D01*
X12908201Y-26653650D02*
X12927249Y-26663174D01*
X13003439Y-26863174D02*
X13012963Y-26853650D01*
X13012963Y-26853650D02*
X13032011Y-26825079D01*
X13032011Y-26825079D02*
X13041534Y-26806031D01*
X13041534Y-26806031D02*
X13051058Y-26777460D01*
X13051058Y-26777460D02*
X13060582Y-26729841D01*
X13060582Y-26729841D02*
X13060582Y-26691746D01*
X13060582Y-26691746D02*
X13051058Y-26644127D01*
X13051058Y-26644127D02*
X13041534Y-26615555D01*
X13041534Y-26615555D02*
X13032011Y-26596508D01*
X13032011Y-26596508D02*
X13012963Y-26567936D01*
X13012963Y-26567936D02*
X13003439Y-26558412D01*
X13365344Y-26863174D02*
X13355820Y-26853650D01*
X13355820Y-26853650D02*
X13336772Y-26825079D01*
X13336772Y-26825079D02*
X13327249Y-26806031D01*
X13327249Y-26806031D02*
X13317725Y-26777460D01*
X13317725Y-26777460D02*
X13308201Y-26729841D01*
X13308201Y-26729841D02*
X13308201Y-26691746D01*
X13308201Y-26691746D02*
X13317725Y-26644127D01*
X13317725Y-26644127D02*
X13327249Y-26615555D01*
X13327249Y-26615555D02*
X13336772Y-26596508D01*
X13336772Y-26596508D02*
X13355820Y-26567936D01*
X13355820Y-26567936D02*
X13365344Y-26558412D01*
X13441534Y-26653650D02*
X13441534Y-26786984D01*
X13441534Y-26672698D02*
X13451058Y-26663174D01*
X13451058Y-26663174D02*
X13470106Y-26653650D01*
X13470106Y-26653650D02*
X13498677Y-26653650D01*
X13498677Y-26653650D02*
X13517725Y-26663174D01*
X13517725Y-26663174D02*
X13527249Y-26682222D01*
X13527249Y-26682222D02*
X13527249Y-26786984D01*
X13651058Y-26786984D02*
X13632011Y-26777460D01*
X13632011Y-26777460D02*
X13622487Y-26767936D01*
X13622487Y-26767936D02*
X13612963Y-26748888D01*
X13612963Y-26748888D02*
X13612963Y-26691746D01*
X13612963Y-26691746D02*
X13622487Y-26672698D01*
X13622487Y-26672698D02*
X13632011Y-26663174D01*
X13632011Y-26663174D02*
X13651058Y-26653650D01*
X13651058Y-26653650D02*
X13679630Y-26653650D01*
X13679630Y-26653650D02*
X13698677Y-26663174D01*
X13698677Y-26663174D02*
X13708201Y-26672698D01*
X13708201Y-26672698D02*
X13717725Y-26691746D01*
X13717725Y-26691746D02*
X13717725Y-26748888D01*
X13717725Y-26748888D02*
X13708201Y-26767936D01*
X13708201Y-26767936D02*
X13698677Y-26777460D01*
X13698677Y-26777460D02*
X13679630Y-26786984D01*
X13679630Y-26786984D02*
X13651058Y-26786984D01*
X13774868Y-26653650D02*
X13851058Y-26653650D01*
X13803439Y-26586984D02*
X13803439Y-26758412D01*
X13803439Y-26758412D02*
X13812963Y-26777460D01*
X13812963Y-26777460D02*
X13832011Y-26786984D01*
X13832011Y-26786984D02*
X13851058Y-26786984D01*
X14070106Y-26653650D02*
X14070106Y-26853650D01*
X14070106Y-26663174D02*
X14089153Y-26653650D01*
X14089153Y-26653650D02*
X14127249Y-26653650D01*
X14127249Y-26653650D02*
X14146296Y-26663174D01*
X14146296Y-26663174D02*
X14155820Y-26672698D01*
X14155820Y-26672698D02*
X14165344Y-26691746D01*
X14165344Y-26691746D02*
X14165344Y-26748888D01*
X14165344Y-26748888D02*
X14155820Y-26767936D01*
X14155820Y-26767936D02*
X14146296Y-26777460D01*
X14146296Y-26777460D02*
X14127249Y-26786984D01*
X14127249Y-26786984D02*
X14089153Y-26786984D01*
X14089153Y-26786984D02*
X14070106Y-26777460D01*
X14279630Y-26786984D02*
X14260582Y-26777460D01*
X14260582Y-26777460D02*
X14251058Y-26758412D01*
X14251058Y-26758412D02*
X14251058Y-26586984D01*
X14441534Y-26786984D02*
X14441534Y-26682222D01*
X14441534Y-26682222D02*
X14432011Y-26663174D01*
X14432011Y-26663174D02*
X14412963Y-26653650D01*
X14412963Y-26653650D02*
X14374868Y-26653650D01*
X14374868Y-26653650D02*
X14355820Y-26663174D01*
X14441534Y-26777460D02*
X14422487Y-26786984D01*
X14422487Y-26786984D02*
X14374868Y-26786984D01*
X14374868Y-26786984D02*
X14355820Y-26777460D01*
X14355820Y-26777460D02*
X14346296Y-26758412D01*
X14346296Y-26758412D02*
X14346296Y-26739365D01*
X14346296Y-26739365D02*
X14355820Y-26720317D01*
X14355820Y-26720317D02*
X14374868Y-26710793D01*
X14374868Y-26710793D02*
X14422487Y-26710793D01*
X14422487Y-26710793D02*
X14441534Y-26701269D01*
X14508201Y-26653650D02*
X14584392Y-26653650D01*
X14536773Y-26586984D02*
X14536773Y-26758412D01*
X14536773Y-26758412D02*
X14546296Y-26777460D01*
X14546296Y-26777460D02*
X14565344Y-26786984D01*
X14565344Y-26786984D02*
X14584392Y-26786984D01*
X14727249Y-26777460D02*
X14708201Y-26786984D01*
X14708201Y-26786984D02*
X14670106Y-26786984D01*
X14670106Y-26786984D02*
X14651058Y-26777460D01*
X14651058Y-26777460D02*
X14641534Y-26758412D01*
X14641534Y-26758412D02*
X14641534Y-26682222D01*
X14641534Y-26682222D02*
X14651058Y-26663174D01*
X14651058Y-26663174D02*
X14670106Y-26653650D01*
X14670106Y-26653650D02*
X14708201Y-26653650D01*
X14708201Y-26653650D02*
X14727249Y-26663174D01*
X14727249Y-26663174D02*
X14736773Y-26682222D01*
X14736773Y-26682222D02*
X14736773Y-26701269D01*
X14736773Y-26701269D02*
X14641534Y-26720317D01*
X14908201Y-26786984D02*
X14908201Y-26586984D01*
X14908201Y-26777460D02*
X14889154Y-26786984D01*
X14889154Y-26786984D02*
X14851058Y-26786984D01*
X14851058Y-26786984D02*
X14832011Y-26777460D01*
X14832011Y-26777460D02*
X14822487Y-26767936D01*
X14822487Y-26767936D02*
X14812963Y-26748888D01*
X14812963Y-26748888D02*
X14812963Y-26691746D01*
X14812963Y-26691746D02*
X14822487Y-26672698D01*
X14822487Y-26672698D02*
X14832011Y-26663174D01*
X14832011Y-26663174D02*
X14851058Y-26653650D01*
X14851058Y-26653650D02*
X14889154Y-26653650D01*
X14889154Y-26653650D02*
X14908201Y-26663174D01*
X14984392Y-26863174D02*
X14993915Y-26853650D01*
X14993915Y-26853650D02*
X15012963Y-26825079D01*
X15012963Y-26825079D02*
X15022487Y-26806031D01*
X15022487Y-26806031D02*
X15032011Y-26777460D01*
X15032011Y-26777460D02*
X15041534Y-26729841D01*
X15041534Y-26729841D02*
X15041534Y-26691746D01*
X15041534Y-26691746D02*
X15032011Y-26644127D01*
X15032011Y-26644127D02*
X15022487Y-26615555D01*
X15022487Y-26615555D02*
X15012963Y-26596508D01*
X15012963Y-26596508D02*
X14993915Y-26567936D01*
X14993915Y-26567936D02*
X14984392Y-26558412D01*
M02*
