<?xml version="1.0"?>
<!-- Generated by SVGo -->
<svg width="429.102mm" height="129.065mm"
     viewBox="0.000 0.000 429.102 129.065"
     xmlns="http://www.w3.org/2000/svg" 
     xmlns:xlink="http://www.w3.org/1999/xlink">
<polygon points="424.102,124.064 5.001,124.064 5.001,5.000 424.102,5.000" style="fill:none;stroke-width:0.050000mm;stroke:black"/>
<polygon points="155.163,107.538 155.163,108.538 154.363,108.538 154.363,111.638 155.163,111.638 155.163,112.238 146.488,112.238 146.488,109.008 144.763,109.008 144.763,108.088 141.463,108.088 141.463,109.008 139.738,109.008 139.738,112.238 138.913,112.238 138.913,115.038 139.738,115.038 139.738,121.308 141.463,121.308 141.463,122.288 144.763,122.288 144.763,121.308 146.488,121.308 146.488,116.838 155.163,116.838 155.163,117.438 154.363,117.438 154.363,120.538 155.163,120.538 155.163,121.538 169.163,121.538 169.163,120.538 169.963,120.538 169.963,117.438 169.163,117.438 169.163,116.838 177.838,116.838 177.838,121.308 179.563,121.308 179.563,122.288 182.863,122.288 182.863,121.308 184.588,121.308 184.588,115.038 185.413,115.038 185.413,112.238 184.588,112.238 184.588,109.008 182.863,109.008 182.863,108.088 179.563,108.088 179.563,109.008 177.838,109.008 177.838,112.238 169.163,112.238 169.163,111.638 169.963,111.638 169.963,108.538 169.163,108.538 169.163,107.538" style="fill:none;stroke-width:0.050000mm;stroke:black"/>
<polygon points="231.363,107.538 231.363,108.538 230.563,108.538 230.563,111.638 231.363,111.638 231.363,112.238 222.688,112.238 222.688,109.008 220.963,109.008 220.963,108.088 217.663,108.088 217.663,109.008 215.938,109.008 215.938,112.238 215.113,112.238 215.113,115.038 215.938,115.038 215.938,121.308 217.663,121.308 217.663,122.288 220.963,122.288 220.963,121.308 222.688,121.308 222.688,116.838 231.363,116.838 231.363,117.438 230.563,117.438 230.563,120.538 231.363,120.538 231.363,121.538 245.363,121.538 245.363,120.538 246.163,120.538 246.163,117.438 245.363,117.438 245.363,116.838 254.038,116.838 254.038,121.308 255.763,121.308 255.763,122.288 259.063,122.288 259.063,121.308 260.787,121.308 260.787,115.038 261.613,115.038 261.613,112.238 260.787,112.238 260.787,109.008 259.063,109.008 259.063,108.088 255.763,108.088 255.763,109.008 254.038,109.008 254.038,112.238 245.363,112.238 245.363,111.638 246.163,111.638 246.163,108.538 245.363,108.538 245.363,107.538" style="fill:none;stroke-width:0.050000mm;stroke:black"/>
<polygon points="17.051,107.538 17.051,108.538 16.251,108.538 16.251,111.638 17.051,111.638 17.051,117.438 16.251,117.438 16.251,120.538 17.051,120.538 17.051,121.538 31.051,121.538 31.051,120.538 31.851,120.538 31.851,117.438 31.051,117.438 31.051,111.638 31.851,111.638 31.851,108.538 31.051,108.538 31.051,107.538" style="fill:none;stroke-width:0.050000mm;stroke:black"/>
<polygon points="36.101,107.538 36.101,108.538 35.301,108.538 35.301,111.638 36.101,111.638 36.101,117.438 35.301,117.438 35.301,120.538 36.101,120.538 36.101,121.538 50.101,121.538 50.101,120.538 50.901,120.538 50.901,117.438 50.101,117.438 50.101,111.638 50.901,111.638 50.901,108.538 50.101,108.538 50.101,107.538" style="fill:none;stroke-width:0.050000mm;stroke:black"/>
<polygon points="67.057,107.538 67.057,108.538 66.257,108.538 66.257,111.638 67.057,111.638 67.057,117.438 66.257,117.438 66.257,120.538 67.057,120.538 67.057,121.538 81.057,121.538 81.057,120.538 81.857,120.538 81.857,117.438 81.057,117.438 81.057,111.638 81.857,111.638 81.857,108.538 81.057,108.538 81.057,107.538" style="fill:none;stroke-width:0.050000mm;stroke:black"/>
<polygon points="90.869,107.538 90.869,108.538 90.069,108.538 90.069,111.638 90.869,111.638 90.869,117.438 90.069,117.438 90.069,120.538 90.869,120.538 90.869,121.538 104.869,121.538 104.869,120.538 105.669,120.538 105.669,117.438 104.869,117.438 104.869,111.638 105.669,111.638 105.669,108.538 104.869,108.538 104.869,107.538" style="fill:none;stroke-width:0.050000mm;stroke:black"/>
<polygon points="114.682,107.538 114.682,108.538 113.882,108.538 113.882,111.638 114.682,111.638 114.682,117.438 113.882,117.438 113.882,120.538 114.682,120.538 114.682,121.538 128.682,121.538 128.682,120.538 129.482,120.538 129.482,117.438 128.682,117.438 128.682,111.638 129.482,111.638 129.482,108.538 128.682,108.538 128.682,107.538" style="fill:none;stroke-width:0.050000mm;stroke:black"/>
<polygon points="271.844,107.538 271.844,108.538 271.044,108.538 271.044,111.638 271.844,111.638 271.844,117.438 271.044,117.438 271.044,120.538 271.844,120.538 271.844,121.538 285.844,121.538 285.844,120.538 286.644,120.538 286.644,117.438 285.844,117.438 285.844,111.638 286.644,111.638 286.644,108.538 285.844,108.538 285.844,107.538" style="fill:none;stroke-width:0.050000mm;stroke:black"/>
<polygon points="295.657,107.538 295.657,108.538 294.857,108.538 294.857,111.638 295.657,111.638 295.657,117.438 294.857,117.438 294.857,120.538 295.657,120.538 295.657,121.538 309.657,121.538 309.657,120.538 310.457,120.538 310.457,117.438 309.657,117.438 309.657,111.638 310.457,111.638 310.457,108.538 309.657,108.538 309.657,107.538" style="fill:none;stroke-width:0.050000mm;stroke:black"/>
<polygon points="319.469,107.538 319.469,108.538 318.669,108.538 318.669,111.638 319.469,111.638 319.469,117.438 318.669,117.438 318.669,120.538 319.469,120.538 319.469,121.538 333.469,121.538 333.469,120.538 334.269,120.538 334.269,117.438 333.469,117.438 333.469,111.638 334.269,111.638 334.269,108.538 333.469,108.538 333.469,107.538" style="fill:none;stroke-width:0.050000mm;stroke:black"/>
<polygon points="345.663,107.538 345.663,108.538 344.863,108.538 344.863,111.638 345.663,111.638 345.663,117.438 344.863,117.438 344.863,120.538 345.663,120.538 345.663,121.538 359.663,121.538 359.663,120.538 360.463,120.538 360.463,117.438 359.663,117.438 359.663,111.638 360.463,111.638 360.463,108.538 359.663,108.538 359.663,107.538" style="fill:none;stroke-width:0.050000mm;stroke:black"/>
<polygon points="379.001,107.538 379.001,108.538 378.201,108.538 378.201,111.638 379.001,111.638 379.001,117.438 378.201,117.438 378.201,120.538 379.001,120.538 379.001,121.538 393.001,121.538 393.001,120.538 393.801,120.538 393.801,117.438 393.001,117.438 393.001,111.638 393.801,111.638 393.801,108.538 393.001,108.538 393.001,107.538" style="fill:none;stroke-width:0.050000mm;stroke:black"/>
<polygon points="398.051,107.538 398.051,108.538 397.251,108.538 397.251,111.638 398.051,111.638 398.051,117.438 397.251,117.438 397.251,120.538 398.051,120.538 398.051,121.538 412.051,121.538 412.051,120.538 412.851,120.538 412.851,117.438 412.051,117.438 412.051,111.638 412.851,111.638 412.851,108.538 412.051,108.538 412.051,107.538" style="fill:none;stroke-width:0.050000mm;stroke:black"/>
<polygon points="76.582,88.488 76.582,89.488 75.782,89.488 75.782,92.588 76.582,92.588 76.582,93.188 75.057,93.188 75.057,89.958 73.332,89.958 73.332,89.038 70.032,89.038 70.032,89.958 68.307,89.958 68.307,93.188 67.482,93.188 67.482,95.988 68.307,95.988 68.307,102.258 70.032,102.258 70.032,103.238 73.332,103.238 73.332,102.258 75.057,102.258 75.057,97.788 76.582,97.788 76.582,98.388 75.782,98.388 75.782,101.488 76.582,101.488 76.582,102.488 90.582,102.488 90.582,101.488 91.382,101.488 91.382,98.388 90.582,98.388 90.582,97.788 92.107,97.788 92.107,102.258 93.832,102.258 93.832,103.238 97.132,103.238 97.132,102.258 98.857,102.258 98.857,95.988 99.682,95.988 99.682,93.188 98.857,93.188 98.857,89.958 97.132,89.958 97.132,89.038 93.832,89.038 93.832,89.958 92.107,89.958 92.107,93.188 90.582,93.188 90.582,92.588 91.382,92.588 91.382,89.488 90.582,89.488 90.582,88.488" style="fill:none;stroke-width:0.050000mm;stroke:black"/>
<polygon points="333.757,88.488 333.757,89.488 332.957,89.488 332.957,92.588 333.757,92.588 333.757,93.188 332.232,93.188 332.232,89.958 330.507,89.958 330.507,89.038 327.207,89.038 327.207,89.958 325.482,89.958 325.482,93.188 324.657,93.188 324.657,95.988 325.482,95.988 325.482,102.258 327.207,102.258 327.207,103.238 330.507,103.238 330.507,102.258 332.232,102.258 332.232,97.788 333.757,97.788 333.757,98.388 332.957,98.388 332.957,101.488 333.757,101.488 333.757,102.488 347.757,102.488 347.757,101.488 348.557,101.488 348.557,98.388 347.757,98.388 347.757,97.788 349.282,97.788 349.282,102.258 351.007,102.258 351.007,103.238 354.307,103.238 354.307,102.258 356.032,102.258 356.032,95.988 356.857,95.988 356.857,93.188 356.032,93.188 356.032,89.958 354.307,89.958 354.307,89.038 351.007,89.038 351.007,89.958 349.282,89.958 349.282,93.188 347.757,93.188 347.757,92.588 348.557,92.588 348.557,89.488 347.757,89.488 347.757,88.488" style="fill:none;stroke-width:0.050000mm;stroke:black"/>
<polygon points="12.288,88.488 12.288,89.488 11.488,89.488 11.488,92.588 12.288,92.588 12.288,98.388 11.488,98.388 11.488,101.488 12.288,101.488 12.288,102.488 26.288,102.488 26.288,101.488 27.088,101.488 27.088,98.388 26.288,98.388 26.288,92.588 27.088,92.588 27.088,89.488 26.288,89.488 26.288,88.488" style="fill:none;stroke-width:0.050000mm;stroke:black"/>
<polygon points="31.338,88.488 31.338,89.488 30.538,89.488 30.538,92.588 31.338,92.588 31.338,98.388 30.538,98.388 30.538,101.488 31.338,101.488 31.338,102.488 45.338,102.488 45.338,101.488 46.138,101.488 46.138,98.388 45.338,98.388 45.338,92.588 46.138,92.588 46.138,89.488 45.338,89.488 45.338,88.488" style="fill:none;stroke-width:0.050000mm;stroke:black"/>
<polygon points="107.538,88.488 107.538,89.488 106.738,89.488 106.738,92.588 107.538,92.588 107.538,98.388 106.738,98.388 106.738,101.488 107.538,101.488 107.538,102.488 121.538,102.488 121.538,101.488 122.338,101.488 122.338,98.388 121.538,98.388 121.538,92.588 122.338,92.588 122.338,89.488 121.538,89.488 121.538,88.488" style="fill:none;stroke-width:0.050000mm;stroke:black"/>
<polygon points="126.588,88.488 126.588,89.488 125.788,89.488 125.788,92.588 126.588,92.588 126.588,98.388 125.788,98.388 125.788,101.488 126.588,101.488 126.588,102.488 140.588,102.488 140.588,101.488 141.388,101.488 141.388,98.388 140.588,98.388 140.588,92.588 141.388,92.588 141.388,89.488 140.588,89.488 140.588,88.488" style="fill:none;stroke-width:0.050000mm;stroke:black"/>
<polygon points="145.638,88.488 145.638,89.488 144.838,89.488 144.838,92.588 145.638,92.588 145.638,98.388 144.838,98.388 144.838,101.488 145.638,101.488 145.638,102.488 159.638,102.488 159.638,101.488 160.438,101.488 160.438,98.388 159.638,98.388 159.638,92.588 160.438,92.588 160.438,89.488 159.638,89.488 159.638,88.488" style="fill:none;stroke-width:0.050000mm;stroke:black"/>
<polygon points="164.688,88.488 164.688,89.488 163.888,89.488 163.888,92.588 164.688,92.588 164.688,98.388 163.888,98.388 163.888,101.488 164.688,101.488 164.688,102.488 178.688,102.488 178.688,101.488 179.488,101.488 179.488,98.388 178.688,98.388 178.688,92.588 179.488,92.588 179.488,89.488 178.688,89.488 178.688,88.488" style="fill:none;stroke-width:0.050000mm;stroke:black"/>
<polygon points="183.738,88.488 183.738,89.488 182.938,89.488 182.938,92.588 183.738,92.588 183.738,98.388 182.938,98.388 182.938,101.488 183.738,101.488 183.738,102.488 197.738,102.488 197.738,101.488 198.538,101.488 198.538,98.388 197.738,98.388 197.738,92.588 198.538,92.588 198.538,89.488 197.738,89.488 197.738,88.488" style="fill:none;stroke-width:0.050000mm;stroke:black"/>
<polygon points="221.838,88.488 221.838,89.488 221.038,89.488 221.038,92.588 221.838,92.588 221.838,98.388 221.038,98.388 221.038,101.488 221.838,101.488 221.838,102.488 235.838,102.488 235.838,101.488 236.638,101.488 236.638,98.388 235.838,98.388 235.838,92.588 236.638,92.588 236.638,89.488 235.838,89.488 235.838,88.488" style="fill:none;stroke-width:0.050000mm;stroke:black"/>
<polygon points="240.888,88.488 240.888,89.488 240.088,89.488 240.088,92.588 240.888,92.588 240.888,98.388 240.088,98.388 240.088,101.488 240.888,101.488 240.888,102.488 254.888,102.488 254.888,101.488 255.688,101.488 255.688,98.388 254.888,98.388 254.888,92.588 255.688,92.588 255.688,89.488 254.888,89.488 254.888,88.488" style="fill:none;stroke-width:0.050000mm;stroke:black"/>
<polygon points="259.938,88.488 259.938,89.488 259.138,89.488 259.138,92.588 259.938,92.588 259.938,98.388 259.138,98.388 259.138,101.488 259.938,101.488 259.938,102.488 273.938,102.488 273.938,101.488 274.738,101.488 274.738,98.388 273.938,98.388 273.938,92.588 274.738,92.588 274.738,89.488 273.938,89.488 273.938,88.488" style="fill:none;stroke-width:0.050000mm;stroke:black"/>
<polygon points="278.988,88.488 278.988,89.488 278.188,89.488 278.188,92.588 278.988,92.588 278.988,98.388 278.188,98.388 278.188,101.488 278.988,101.488 278.988,102.488 292.988,102.488 292.988,101.488 293.788,101.488 293.788,98.388 292.988,98.388 292.988,92.588 293.788,92.588 293.788,89.488 292.988,89.488 292.988,88.488" style="fill:none;stroke-width:0.050000mm;stroke:black"/>
<polygon points="298.038,88.488 298.038,89.488 297.238,89.488 297.238,92.588 298.038,92.588 298.038,98.388 297.238,98.388 297.238,101.488 298.038,101.488 298.038,102.488 312.038,102.488 312.038,101.488 312.838,101.488 312.838,98.388 312.038,98.388 312.038,92.588 312.838,92.588 312.838,89.488 312.038,89.488 312.038,88.488" style="fill:none;stroke-width:0.050000mm;stroke:black"/>
<polygon points="383.763,88.488 383.763,89.488 382.963,89.488 382.963,92.588 383.763,92.588 383.763,98.388 382.963,98.388 382.963,101.488 383.763,101.488 383.763,102.488 397.763,102.488 397.763,101.488 398.563,101.488 398.563,98.388 397.763,98.388 397.763,92.588 398.563,92.588 398.563,89.488 397.763,89.488 397.763,88.488" style="fill:none;stroke-width:0.050000mm;stroke:black"/>
<polygon points="402.813,88.488 402.813,89.488 402.013,89.488 402.013,92.588 402.813,92.588 402.813,98.388 402.013,98.388 402.013,101.488 402.813,101.488 402.813,102.488 416.813,102.488 416.813,101.488 417.613,101.488 417.613,98.388 416.813,98.388 416.813,92.588 417.613,92.588 417.613,89.488 416.813,89.488 416.813,88.488" style="fill:none;stroke-width:0.050000mm;stroke:black"/>
<polygon points="338.519,69.438 338.519,70.438 337.719,70.438 337.719,73.538 338.519,73.538 338.519,74.138 336.994,74.138 336.994,70.908 335.269,70.908 335.269,69.988 331.969,69.988 331.969,70.908 330.244,70.908 330.244,74.138 329.419,74.138 329.419,76.938 330.244,76.938 330.244,83.208 331.969,83.208 331.969,84.188 335.269,84.188 335.269,83.208 336.994,83.208 336.994,78.738 338.519,78.738 338.519,79.338 337.719,79.338 337.719,82.438 338.519,82.438 338.519,83.438 352.519,83.438 352.519,82.438 353.319,82.438 353.319,79.338 352.519,79.338 352.519,78.738 354.044,78.738 354.044,83.208 355.769,83.208 355.769,84.188 359.069,84.188 359.069,83.208 360.794,83.208 360.794,76.938 361.619,76.938 361.619,74.138 360.794,74.138 360.794,70.908 359.069,70.908 359.069,69.988 355.769,69.988 355.769,70.908 354.044,70.908 354.044,74.138 352.519,74.138 352.519,73.538 353.319,73.538 353.319,70.438 352.519,70.438 352.519,69.438" style="fill:none;stroke-width:0.050000mm;stroke:black"/>
<polygon points="7.526,69.438 7.526,70.438 6.726,70.438 6.726,73.538 7.526,73.538 7.526,79.338 6.726,79.338 6.726,82.438 7.526,82.438 7.526,83.438 21.526,83.438 21.526,82.438 22.326,82.438 22.326,79.338 21.526,79.338 21.526,73.538 22.326,73.538 22.326,70.438 21.526,70.438 21.526,69.438" style="fill:none;stroke-width:0.050000mm;stroke:black"/>
<polygon points="26.576,69.438 26.576,70.438 25.776,70.438 25.776,73.538 26.576,73.538 26.576,79.338 25.776,79.338 25.776,82.438 26.576,82.438 26.576,83.438 40.576,83.438 40.576,82.438 41.376,82.438 41.376,79.338 40.576,79.338 40.576,73.538 41.376,73.538 41.376,70.438 40.576,70.438 40.576,69.438" style="fill:none;stroke-width:0.050000mm;stroke:black"/>
<polygon points="71.819,69.438 71.819,70.438 71.019,70.438 71.019,73.538 71.819,73.538 71.819,79.338 71.019,79.338 71.019,82.438 71.819,82.438 71.819,83.438 85.819,83.438 85.819,82.438 86.619,82.438 86.619,79.338 85.819,79.338 85.819,73.538 86.619,73.538 86.619,70.438 85.819,70.438 85.819,69.438" style="fill:none;stroke-width:0.050000mm;stroke:black"/>
<polygon points="98.013,69.438 98.013,70.438 97.213,70.438 97.213,73.538 98.013,73.538 98.013,79.338 97.213,79.338 97.213,82.438 98.013,82.438 98.013,83.438 112.013,83.438 112.013,82.438 112.813,82.438 112.813,79.338 112.013,79.338 112.013,73.538 112.813,73.538 112.813,70.438 112.013,70.438 112.013,69.438" style="fill:none;stroke-width:0.050000mm;stroke:black"/>
<polygon points="117.063,69.438 117.063,70.438 116.263,70.438 116.263,73.538 117.063,73.538 117.063,79.338 116.263,79.338 116.263,82.438 117.063,82.438 117.063,83.438 131.063,83.438 131.063,82.438 131.863,82.438 131.863,79.338 131.063,79.338 131.063,73.538 131.863,73.538 131.863,70.438 131.063,70.438 131.063,69.438" style="fill:none;stroke-width:0.050000mm;stroke:black"/>
<polygon points="136.113,69.438 136.113,70.438 135.313,70.438 135.313,73.538 136.113,73.538 136.113,79.338 135.313,79.338 135.313,82.438 136.113,82.438 136.113,83.438 150.113,83.438 150.113,82.438 150.913,82.438 150.913,79.338 150.113,79.338 150.113,73.538 150.913,73.538 150.913,70.438 150.113,70.438 150.113,69.438" style="fill:none;stroke-width:0.050000mm;stroke:black"/>
<polygon points="155.163,69.438 155.163,70.438 154.363,70.438 154.363,73.538 155.163,73.538 155.163,79.338 154.363,79.338 154.363,82.438 155.163,82.438 155.163,83.438 169.163,83.438 169.163,82.438 169.963,82.438 169.963,79.338 169.163,79.338 169.163,73.538 169.963,73.538 169.963,70.438 169.163,70.438 169.163,69.438" style="fill:none;stroke-width:0.050000mm;stroke:black"/>
<polygon points="174.213,69.438 174.213,70.438 173.413,70.438 173.413,73.538 174.213,73.538 174.213,79.338 173.413,79.338 173.413,82.438 174.213,82.438 174.213,83.438 188.213,83.438 188.213,82.438 189.013,82.438 189.013,79.338 188.213,79.338 188.213,73.538 189.013,73.538 189.013,70.438 188.213,70.438 188.213,69.438" style="fill:none;stroke-width:0.050000mm;stroke:black"/>
<polygon points="212.313,69.438 212.313,70.438 211.513,70.438 211.513,73.538 212.313,73.538 212.313,79.338 211.513,79.338 211.513,82.438 212.313,82.438 212.313,83.438 226.313,83.438 226.313,82.438 227.113,82.438 227.113,79.338 226.313,79.338 226.313,73.538 227.113,73.538 227.113,70.438 226.313,70.438 226.313,69.438" style="fill:none;stroke-width:0.050000mm;stroke:black"/>
<polygon points="231.363,69.438 231.363,70.438 230.563,70.438 230.563,73.538 231.363,73.538 231.363,79.338 230.563,79.338 230.563,82.438 231.363,82.438 231.363,83.438 245.363,83.438 245.363,82.438 246.163,82.438 246.163,79.338 245.363,79.338 245.363,73.538 246.163,73.538 246.163,70.438 245.363,70.438 245.363,69.438" style="fill:none;stroke-width:0.050000mm;stroke:black"/>
<polygon points="250.413,69.438 250.413,70.438 249.613,70.438 249.613,73.538 250.413,73.538 250.413,79.338 249.613,79.338 249.613,82.438 250.413,82.438 250.413,83.438 264.413,83.438 264.413,82.438 265.213,82.438 265.213,79.338 264.413,79.338 264.413,73.538 265.213,73.538 265.213,70.438 264.413,70.438 264.413,69.438" style="fill:none;stroke-width:0.050000mm;stroke:black"/>
<polygon points="269.463,69.438 269.463,70.438 268.663,70.438 268.663,73.538 269.463,73.538 269.463,79.338 268.663,79.338 268.663,82.438 269.463,82.438 269.463,83.438 283.463,83.438 283.463,82.438 284.263,82.438 284.263,79.338 283.463,79.338 283.463,73.538 284.263,73.538 284.263,70.438 283.463,70.438 283.463,69.438" style="fill:none;stroke-width:0.050000mm;stroke:black"/>
<polygon points="288.513,69.438 288.513,70.438 287.713,70.438 287.713,73.538 288.513,73.538 288.513,79.338 287.713,79.338 287.713,82.438 288.513,82.438 288.513,83.438 302.513,83.438 302.513,82.438 303.313,82.438 303.313,79.338 302.513,79.338 302.513,73.538 303.313,73.538 303.313,70.438 302.513,70.438 302.513,69.438" style="fill:none;stroke-width:0.050000mm;stroke:black"/>
<polygon points="307.563,69.438 307.563,70.438 306.763,70.438 306.763,73.538 307.563,73.538 307.563,79.338 306.763,79.338 306.763,82.438 307.563,82.438 307.563,83.438 321.563,83.438 321.563,82.438 322.363,82.438 322.363,79.338 321.563,79.338 321.563,73.538 322.363,73.538 322.363,70.438 321.563,70.438 321.563,69.438" style="fill:none;stroke-width:0.050000mm;stroke:black"/>
<polygon points="388.526,69.438 388.526,70.438 387.726,70.438 387.726,73.538 388.526,73.538 388.526,79.338 387.726,79.338 387.726,82.438 388.526,82.438 388.526,83.438 402.526,83.438 402.526,82.438 403.326,82.438 403.326,79.338 402.526,79.338 402.526,73.538 403.326,73.538 403.326,70.438 402.526,70.438 402.526,69.438" style="fill:none;stroke-width:0.050000mm;stroke:black"/>
<polygon points="407.576,69.438 407.576,70.438 406.776,70.438 406.776,73.538 407.576,73.538 407.576,79.338 406.776,79.338 406.776,82.438 407.576,82.438 407.576,83.438 421.576,83.438 421.576,82.438 422.376,82.438 422.376,79.338 421.576,79.338 421.576,73.538 422.376,73.538 422.376,70.438 421.576,70.438 421.576,69.438" style="fill:none;stroke-width:0.050000mm;stroke:black"/>
<polygon points="12.288,50.388 12.288,51.388 11.488,51.388 11.488,54.488 12.288,54.488 12.288,60.288 11.488,60.288 11.488,63.388 12.288,63.388 12.288,64.388 26.288,64.388 26.288,63.388 27.088,63.388 27.088,60.288 26.288,60.288 26.288,54.488 27.088,54.488 27.088,51.388 26.288,51.388 26.288,50.388" style="fill:none;stroke-width:0.050000mm;stroke:black"/>
<polygon points="31.338,50.388 31.338,51.388 30.538,51.388 30.538,54.488 31.338,54.488 31.338,60.288 30.538,60.288 30.538,63.388 31.338,63.388 31.338,64.388 45.338,64.388 45.338,63.388 46.138,63.388 46.138,60.288 45.338,60.288 45.338,54.488 46.138,54.488 46.138,51.388 45.338,51.388 45.338,50.388" style="fill:none;stroke-width:0.050000mm;stroke:black"/>
<polygon points="69.438,50.388 69.438,51.388 68.638,51.388 68.638,54.488 69.438,54.488 69.438,60.288 68.638,60.288 68.638,63.388 69.438,63.388 69.438,64.388 83.438,64.388 83.438,63.388 84.238,63.388 84.238,60.288 83.438,60.288 83.438,54.488 84.238,54.488 84.238,51.388 83.438,51.388 83.438,50.388" style="fill:none;stroke-width:0.050000mm;stroke:black"/>
<polygon points="93.251,50.388 93.251,51.388 92.451,51.388 92.451,54.488 93.251,54.488 93.251,60.288 92.451,60.288 92.451,63.388 93.251,63.388 93.251,64.388 107.251,64.388 107.251,63.388 108.051,63.388 108.051,60.288 107.251,60.288 107.251,54.488 108.051,54.488 108.051,51.388 107.251,51.388 107.251,50.388" style="fill:none;stroke-width:0.050000mm;stroke:black"/>
<polygon points="112.301,50.388 112.301,51.388 111.501,51.388 111.501,54.488 112.301,54.488 112.301,60.288 111.501,60.288 111.501,63.388 112.301,63.388 112.301,64.388 126.301,64.388 126.301,63.388 127.101,63.388 127.101,60.288 126.301,60.288 126.301,54.488 127.101,54.488 127.101,51.388 126.301,51.388 126.301,50.388" style="fill:none;stroke-width:0.050000mm;stroke:black"/>
<polygon points="131.351,50.388 131.351,51.388 130.550,51.388 130.550,54.488 131.351,54.488 131.351,60.288 130.550,60.288 130.550,63.388 131.351,63.388 131.351,64.388 145.351,64.388 145.351,63.388 146.151,63.388 146.151,60.288 145.351,60.288 145.351,54.488 146.151,54.488 146.151,51.388 145.351,51.388 145.351,50.388" style="fill:none;stroke-width:0.050000mm;stroke:black"/>
<polygon points="150.401,50.388 150.401,51.388 149.601,51.388 149.601,54.488 150.401,54.488 150.401,60.288 149.601,60.288 149.601,63.388 150.401,63.388 150.401,64.388 164.401,64.388 164.401,63.388 165.201,63.388 165.201,60.288 164.401,60.288 164.401,54.488 165.201,54.488 165.201,51.388 164.401,51.388 164.401,50.388" style="fill:none;stroke-width:0.050000mm;stroke:black"/>
<polygon points="169.451,50.388 169.451,51.388 168.651,51.388 168.651,54.488 169.451,54.488 169.451,60.288 168.651,60.288 168.651,63.388 169.451,63.388 169.451,64.388 183.451,64.388 183.451,63.388 184.251,63.388 184.251,60.288 183.451,60.288 183.451,54.488 184.251,54.488 184.251,51.388 183.451,51.388 183.451,50.388" style="fill:none;stroke-width:0.050000mm;stroke:black"/>
<polygon points="188.501,50.388 188.501,51.388 187.701,51.388 187.701,54.488 188.501,54.488 188.501,60.288 187.701,60.288 187.701,63.388 188.501,63.388 188.501,64.388 202.501,64.388 202.501,63.388 203.301,63.388 203.301,60.288 202.501,60.288 202.501,54.488 203.301,54.488 203.301,51.388 202.501,51.388 202.501,50.388" style="fill:none;stroke-width:0.050000mm;stroke:black"/>
<polygon points="226.601,50.388 226.601,51.388 225.801,51.388 225.801,54.488 226.601,54.488 226.601,60.288 225.801,60.288 225.801,63.388 226.601,63.388 226.601,64.388 240.601,64.388 240.601,63.388 241.401,63.388 241.401,60.288 240.601,60.288 240.601,54.488 241.401,54.488 241.401,51.388 240.601,51.388 240.601,50.388" style="fill:none;stroke-width:0.050000mm;stroke:black"/>
<polygon points="245.651,50.388 245.651,51.388 244.851,51.388 244.851,54.488 245.651,54.488 245.651,60.288 244.851,60.288 244.851,63.388 245.651,63.388 245.651,64.388 259.650,64.388 259.650,63.388 260.451,63.388 260.451,60.288 259.650,60.288 259.650,54.488 260.451,54.488 260.451,51.388 259.650,51.388 259.650,50.388" style="fill:none;stroke-width:0.050000mm;stroke:black"/>
<polygon points="264.701,50.388 264.701,51.388 263.901,51.388 263.901,54.488 264.701,54.488 264.701,60.288 263.901,60.288 263.901,63.388 264.701,63.388 264.701,64.388 278.701,64.388 278.701,63.388 279.501,63.388 279.501,60.288 278.701,60.288 278.701,54.488 279.501,54.488 279.501,51.388 278.701,51.388 278.701,50.388" style="fill:none;stroke-width:0.050000mm;stroke:black"/>
<polygon points="283.751,50.388 283.751,51.388 282.951,51.388 282.951,54.488 283.751,54.488 283.751,60.288 282.951,60.288 282.951,63.388 283.751,63.388 283.751,64.388 297.751,64.388 297.751,63.388 298.551,63.388 298.551,60.288 297.751,60.288 297.751,54.488 298.551,54.488 298.551,51.388 297.751,51.388 297.751,50.388" style="fill:none;stroke-width:0.050000mm;stroke:black"/>
<polygon points="302.801,50.388 302.801,51.388 302.001,51.388 302.001,54.488 302.801,54.488 302.801,60.288 302.001,60.288 302.001,63.388 302.801,63.388 302.801,64.388 316.801,64.388 316.801,63.388 317.601,63.388 317.601,60.288 316.801,60.288 316.801,54.488 317.601,54.488 317.601,51.388 316.801,51.388 316.801,50.388" style="fill:none;stroke-width:0.050000mm;stroke:black"/>
<polygon points="321.851,50.388 321.851,51.388 321.051,51.388 321.051,54.488 321.851,54.488 321.851,60.288 321.051,60.288 321.051,63.388 321.851,63.388 321.851,64.388 335.851,64.388 335.851,63.388 336.651,63.388 336.651,60.288 335.851,60.288 335.851,54.488 336.651,54.488 336.651,51.388 335.851,51.388 335.851,50.388" style="fill:none;stroke-width:0.050000mm;stroke:black"/>
<polygon points="345.663,50.388 345.663,51.388 344.863,51.388 344.863,54.488 345.663,54.488 345.663,60.288 344.863,60.288 344.863,63.388 345.663,63.388 345.663,64.388 359.663,64.388 359.663,63.388 360.463,63.388 360.463,60.288 359.663,60.288 359.663,54.488 360.463,54.488 360.463,51.388 359.663,51.388 359.663,50.388" style="fill:none;stroke-width:0.050000mm;stroke:black"/>
<polygon points="383.763,50.388 383.763,51.388 382.963,51.388 382.963,54.488 383.763,54.488 383.763,60.288 382.963,60.288 382.963,63.388 383.763,63.388 383.763,64.388 397.763,64.388 397.763,63.388 398.563,63.388 398.563,60.288 397.763,60.288 397.763,54.488 398.563,54.488 398.563,51.388 397.763,51.388 397.763,50.388" style="fill:none;stroke-width:0.050000mm;stroke:black"/>
<polygon points="402.813,50.388 402.813,51.388 402.013,51.388 402.013,54.488 402.813,54.488 402.813,60.288 402.013,60.288 402.013,63.388 402.813,63.388 402.813,64.388 416.813,64.388 416.813,63.388 417.613,63.388 417.613,60.288 416.813,60.288 416.813,54.488 417.613,54.488 417.613,51.388 416.813,51.388 416.813,50.388" style="fill:none;stroke-width:0.050000mm;stroke:black"/>
<polygon points="340.901,31.338 340.901,32.338 340.101,32.338 340.101,35.438 340.901,35.438 340.901,36.038 339.376,36.038 339.376,32.808 337.651,32.808 337.651,31.888 334.351,31.888 334.351,32.808 332.626,32.808 332.626,36.038 331.801,36.038 331.801,38.838 332.626,38.838 332.626,45.108 334.351,45.108 334.351,46.088 337.651,46.088 337.651,45.108 339.376,45.108 339.376,40.638 340.901,40.638 340.901,41.238 340.101,41.238 340.101,44.338 340.901,44.338 340.901,45.338 354.901,45.338 354.901,44.338 355.701,44.338 355.701,41.238 354.901,41.238 354.901,40.638 356.426,40.638 356.426,45.108 358.151,45.108 358.151,46.088 361.451,46.088 361.451,45.108 363.176,45.108 363.176,38.838 364.001,38.838 364.001,36.038 363.176,36.038 363.176,32.808 361.451,32.808 361.451,31.888 358.151,31.888 358.151,32.808 356.426,32.808 356.426,36.038 354.901,36.038 354.901,35.438 355.701,35.438 355.701,32.338 354.901,32.338 354.901,31.338" style="fill:none;stroke-width:0.050000mm;stroke:black"/>
<polygon points="17.051,31.338 17.051,32.338 16.251,32.338 16.251,35.438 17.051,35.438 17.051,41.238 16.251,41.238 16.251,44.338 17.051,44.338 17.051,45.338 31.051,45.338 31.051,44.338 31.851,44.338 31.851,41.238 31.051,41.238 31.051,35.438 31.851,35.438 31.851,32.338 31.051,32.338 31.051,31.338" style="fill:none;stroke-width:0.050000mm;stroke:black"/>
<polygon points="36.101,31.338 36.101,32.338 35.301,32.338 35.301,35.438 36.101,35.438 36.101,41.238 35.301,41.238 35.301,44.338 36.101,44.338 36.101,45.338 50.101,45.338 50.101,44.338 50.901,44.338 50.901,41.238 50.101,41.238 50.101,35.438 50.901,35.438 50.901,32.338 50.101,32.338 50.101,31.338" style="fill:none;stroke-width:0.050000mm;stroke:black"/>
<polygon points="64.676,31.338 64.676,32.338 63.876,32.338 63.876,35.438 64.676,35.438 64.676,41.238 63.876,41.238 63.876,44.338 64.676,44.338 64.676,45.338 78.676,45.338 78.676,44.338 79.476,44.338 79.476,41.238 78.676,41.238 78.676,35.438 79.476,35.438 79.476,32.338 78.676,32.338 78.676,31.338" style="fill:none;stroke-width:0.050000mm;stroke:black"/>
<polygon points="83.726,31.338 83.726,32.338 82.926,32.338 82.926,35.438 83.726,35.438 83.726,41.238 82.926,41.238 82.926,44.338 83.726,44.338 83.726,45.338 97.726,45.338 97.726,44.338 98.526,44.338 98.526,41.238 97.726,41.238 97.726,35.438 98.526,35.438 98.526,32.338 97.726,32.338 97.726,31.338" style="fill:none;stroke-width:0.050000mm;stroke:black"/>
<polygon points="102.776,31.338 102.776,32.338 101.976,32.338 101.976,35.438 102.776,35.438 102.776,41.238 101.976,41.238 101.976,44.338 102.776,44.338 102.776,45.338 116.776,45.338 116.776,44.338 117.576,44.338 117.576,41.238 116.776,41.238 116.776,35.438 117.576,35.438 117.576,32.338 116.776,32.338 116.776,31.338" style="fill:none;stroke-width:0.050000mm;stroke:black"/>
<polygon points="121.826,31.338 121.826,32.338 121.026,32.338 121.026,35.438 121.826,35.438 121.826,41.238 121.026,41.238 121.026,44.338 121.826,44.338 121.826,45.338 135.826,45.338 135.826,44.338 136.626,44.338 136.626,41.238 135.826,41.238 135.826,35.438 136.626,35.438 136.626,32.338 135.826,32.338 135.826,31.338" style="fill:none;stroke-width:0.050000mm;stroke:black"/>
<polygon points="140.876,31.338 140.876,32.338 140.076,32.338 140.076,35.438 140.876,35.438 140.876,41.238 140.076,41.238 140.076,44.338 140.876,44.338 140.876,45.338 154.876,45.338 154.876,44.338 155.676,44.338 155.676,41.238 154.876,41.238 154.876,35.438 155.676,35.438 155.676,32.338 154.876,32.338 154.876,31.338" style="fill:none;stroke-width:0.050000mm;stroke:black"/>
<polygon points="159.926,31.338 159.926,32.338 159.126,32.338 159.126,35.438 159.926,35.438 159.926,41.238 159.126,41.238 159.126,44.338 159.926,44.338 159.926,45.338 173.926,45.338 173.926,44.338 174.726,44.338 174.726,41.238 173.926,41.238 173.926,35.438 174.726,35.438 174.726,32.338 173.926,32.338 173.926,31.338" style="fill:none;stroke-width:0.050000mm;stroke:black"/>
<polygon points="178.976,31.338 178.976,32.338 178.176,32.338 178.176,35.438 178.976,35.438 178.976,41.238 178.176,41.238 178.176,44.338 178.976,44.338 178.976,45.338 192.976,45.338 192.976,44.338 193.776,44.338 193.776,41.238 192.976,41.238 192.976,35.438 193.776,35.438 193.776,32.338 192.976,32.338 192.976,31.338" style="fill:none;stroke-width:0.050000mm;stroke:black"/>
<polygon points="217.076,31.338 217.076,32.338 216.276,32.338 216.276,35.438 217.076,35.438 217.076,41.238 216.276,41.238 216.276,44.338 217.076,44.338 217.076,45.338 231.076,45.338 231.076,44.338 231.876,44.338 231.876,41.238 231.076,41.238 231.076,35.438 231.876,35.438 231.876,32.338 231.076,32.338 231.076,31.338" style="fill:none;stroke-width:0.050000mm;stroke:black"/>
<polygon points="236.126,31.338 236.126,32.338 235.326,32.338 235.326,35.438 236.126,35.438 236.126,41.238 235.326,41.238 235.326,44.338 236.126,44.338 236.126,45.338 250.126,45.338 250.126,44.338 250.926,44.338 250.926,41.238 250.126,41.238 250.126,35.438 250.926,35.438 250.926,32.338 250.126,32.338 250.126,31.338" style="fill:none;stroke-width:0.050000mm;stroke:black"/>
<polygon points="255.176,31.338 255.176,32.338 254.376,32.338 254.376,35.438 255.176,35.438 255.176,41.238 254.376,41.238 254.376,44.338 255.176,44.338 255.176,45.338 269.176,45.338 269.176,44.338 269.976,44.338 269.976,41.238 269.176,41.238 269.176,35.438 269.976,35.438 269.976,32.338 269.176,32.338 269.176,31.338" style="fill:none;stroke-width:0.050000mm;stroke:black"/>
<polygon points="274.226,31.338 274.226,32.338 273.426,32.338 273.426,35.438 274.226,35.438 274.226,41.238 273.426,41.238 273.426,44.338 274.226,44.338 274.226,45.338 288.226,45.338 288.226,44.338 289.026,44.338 289.026,41.238 288.226,41.238 288.226,35.438 289.026,35.438 289.026,32.338 288.226,32.338 288.226,31.338" style="fill:none;stroke-width:0.050000mm;stroke:black"/>
<polygon points="293.276,31.338 293.276,32.338 292.476,32.338 292.476,35.438 293.276,35.438 293.276,41.238 292.476,41.238 292.476,44.338 293.276,44.338 293.276,45.338 307.276,45.338 307.276,44.338 308.076,44.338 308.076,41.238 307.276,41.238 307.276,35.438 308.076,35.438 308.076,32.338 307.276,32.338 307.276,31.338" style="fill:none;stroke-width:0.050000mm;stroke:black"/>
<polygon points="312.326,31.338 312.326,32.338 311.526,32.338 311.526,35.438 312.326,35.438 312.326,41.238 311.526,41.238 311.526,44.338 312.326,44.338 312.326,45.338 326.326,45.338 326.326,44.338 327.126,44.338 327.126,41.238 326.326,41.238 326.326,35.438 327.126,35.438 327.126,32.338 326.326,32.338 326.326,31.338" style="fill:none;stroke-width:0.050000mm;stroke:black"/>
<polygon points="379.001,31.338 379.001,32.338 378.201,32.338 378.201,35.438 379.001,35.438 379.001,41.238 378.201,41.238 378.201,44.338 379.001,44.338 379.001,45.338 393.001,45.338 393.001,44.338 393.801,44.338 393.801,41.238 393.001,41.238 393.001,35.438 393.801,35.438 393.801,32.338 393.001,32.338 393.001,31.338" style="fill:none;stroke-width:0.050000mm;stroke:black"/>
<polygon points="398.051,31.338 398.051,32.338 397.251,32.338 397.251,35.438 398.051,35.438 398.051,41.238 397.251,41.238 397.251,44.338 398.051,44.338 398.051,45.338 412.051,45.338 412.051,44.338 412.851,44.338 412.851,41.238 412.051,41.238 412.051,35.438 412.851,35.438 412.851,32.338 412.051,32.338 412.051,31.338" style="fill:none;stroke-width:0.050000mm;stroke:black"/>
</svg>
