M48
; DRILL file {KiCad 8.0.1} date 2024-04-01T00:03:22+0000
; FORMAT={-:-/ absolute / metric / decimal}
; #@! TF.CreationDate,2024-04-01T00:03:22+00:00
; #@! TF.GenerationSoftware,Kicad,Pcbnew,8.0.1
; #@! TF.FileFunction,Plated,1,2,PTH
FMAT,2
METRIC
; #@! TA.AperFunction,Plated,PTH,ComponentDrill
T1C0.900
; #@! TA.AperFunction,Plated,PTH,ComponentDrill
T2C1.000
; #@! TA.AperFunction,Plated,PTH,ComponentDrill
T3C3.050
%
G90
G05
T2
X142.309Y-104.291
X142.309Y-106.831
X142.309Y-109.371
X142.309Y-111.911
X142.309Y-114.451
X142.309Y-116.991
X142.309Y-119.531
X142.309Y-122.071
X142.309Y-124.611
X144.849Y-124.611
X147.389Y-124.611
X149.929Y-124.611
X152.469Y-124.611
X155.009Y-124.611
X157.549Y-104.291
X157.549Y-106.831
X157.549Y-109.371
X157.549Y-111.911
X157.549Y-114.451
X157.549Y-116.991
X157.549Y-119.531
X157.549Y-122.071
X157.549Y-124.611
X432.533Y-104.131
X432.533Y-106.671
X432.533Y-109.211
X432.533Y-111.751
X432.533Y-114.291
X432.533Y-116.831
X432.533Y-119.371
X432.533Y-121.911
X432.533Y-124.451
X435.073Y-124.451
X437.613Y-124.451
X440.153Y-124.451
X442.693Y-124.451
X445.233Y-124.451
X447.773Y-104.131
X447.773Y-106.671
X447.773Y-109.211
X447.773Y-111.751
X447.773Y-114.291
X447.773Y-116.831
X447.773Y-119.371
X447.773Y-121.911
X447.773Y-124.451
T3
X88.869Y-190.4
X93.632Y-171.35
X93.632Y-209.45
X95.219Y-187.86
X98.394Y-152.3
X98.394Y-228.5
X99.981Y-168.81
X99.981Y-206.91
X104.744Y-149.76
X104.744Y-225.96
X107.919Y-190.4
X112.681Y-171.35
X112.681Y-209.45
X114.269Y-187.86
X117.444Y-152.3
X117.444Y-228.5
X119.031Y-168.81
X119.031Y-206.91
X123.794Y-149.76
X123.794Y-225.96
X146.019Y-152.3
X148.4Y-228.5
X150.781Y-171.35
X152.369Y-149.76
X153.163Y-190.4
X154.75Y-225.96
X157.131Y-168.81
X157.925Y-209.45
X159.513Y-187.86
X164.275Y-206.91
X165.069Y-152.3
X171.419Y-149.76
X172.213Y-228.5
X174.594Y-171.35
X178.563Y-225.96
X179.356Y-190.4
X180.944Y-168.81
X184.119Y-152.3
X185.707Y-187.86
X188.881Y-209.45
X190.469Y-149.76
X193.644Y-171.35
X195.231Y-206.91
X196.025Y-228.5
X198.406Y-190.4
X199.994Y-168.81
X202.375Y-225.96
X203.169Y-152.3
X204.756Y-187.86
X207.931Y-209.45
X209.519Y-149.76
X212.694Y-171.35
X214.281Y-206.91
X217.456Y-190.4
X219.044Y-168.81
X222.219Y-152.3
X223.806Y-187.86
X226.981Y-209.45
X228.569Y-149.76
X231.744Y-171.35
X233.331Y-206.91
X236.506Y-190.4
X236.506Y-228.5
X238.094Y-168.81
X241.269Y-152.3
X242.856Y-187.86
X242.856Y-225.96
X246.031Y-209.45
X247.619Y-149.76
X250.794Y-171.35
X252.381Y-206.91
X255.556Y-190.4
X257.144Y-168.81
X260.319Y-152.3
X261.906Y-187.86
X265.082Y-209.45
X266.669Y-149.76
X269.844Y-171.35
X271.431Y-206.91
X276.194Y-168.81
X299.119Y-190.4
X303.881Y-152.3
X305.469Y-187.86
X308.644Y-209.45
X310.231Y-149.76
X313.406Y-171.35
X314.994Y-206.91
X318.169Y-190.4
X318.169Y-228.5
X319.756Y-168.81
X322.931Y-152.3
X324.519Y-187.86
X324.519Y-225.96
X327.694Y-209.45
X329.281Y-149.76
X332.456Y-171.35
X334.044Y-206.91
X337.219Y-190.4
X338.806Y-168.81
X341.981Y-152.3
X343.569Y-187.86
X346.744Y-209.45
X348.331Y-149.76
X351.506Y-171.35
X353.094Y-206.91
X356.269Y-190.4
X357.856Y-168.81
X358.65Y-228.5
X361.031Y-152.3
X362.619Y-187.86
X365.0Y-225.96
X365.794Y-209.45
X367.381Y-149.76
X370.556Y-171.35
X372.144Y-206.91
X375.319Y-190.4
X376.906Y-168.81
X380.081Y-152.3
X381.669Y-187.86
X382.462Y-228.5
X384.844Y-209.45
X386.431Y-149.76
X388.812Y-225.96
X389.606Y-171.35
X391.194Y-206.91
X394.369Y-190.4
X395.956Y-168.81
X399.131Y-152.3
X400.719Y-187.86
X405.481Y-149.76
X406.275Y-228.5
X408.656Y-171.35
X412.625Y-225.96
X415.006Y-168.81
X420.562Y-209.45
X425.325Y-190.4
X426.912Y-206.91
X427.706Y-152.3
X431.675Y-187.86
X432.469Y-171.35
X432.469Y-228.5
X434.056Y-149.76
X438.819Y-168.81
X438.819Y-225.96
X465.806Y-152.3
X465.806Y-228.5
X470.569Y-171.35
X470.569Y-209.45
X472.156Y-149.76
X472.156Y-225.96
X475.331Y-190.4
X476.919Y-168.81
X476.919Y-206.91
X481.681Y-187.86
X484.856Y-152.3
X484.856Y-228.5
X489.619Y-171.35
X489.619Y-209.45
X491.206Y-149.76
X491.206Y-225.96
X494.381Y-190.4
X495.969Y-168.81
X495.969Y-206.91
X500.731Y-187.86
T1
G00X260.817Y-115.465
M15
G01X260.817Y-115.865
M16
G05
G00X265.417Y-107.365
M15
G01X265.417Y-107.765
M16
G05
G00X265.417Y-110.365
M15
G01X265.417Y-110.765
M16
G05
G00X265.417Y-114.365
M15
G01X265.417Y-114.765
M16
G05
G00X306.377Y-115.552
M15
G01X306.377Y-115.953
M16
G05
G00X310.977Y-107.453
M15
G01X310.977Y-107.852
M16
G05
G00X310.977Y-110.453
M15
G01X310.977Y-110.852
M16
G05
G00X310.977Y-114.453
M15
G01X310.977Y-114.852
M16
G05
M30
