M48
; DRILL file {KiCad 8.0.1} date 2024-04-01T00:03:22+0000
; FORMAT={-:-/ absolute / metric / decimal}
; #@! TF.CreationDate,2024-04-01T00:03:22+00:00
; #@! TF.GenerationSoftware,Kicad,Pcbnew,8.0.1
; #@! TF.FileFunction,NonPlated,1,2,NPTH
FMAT,2
METRIC
; #@! TA.AperFunction,NonPlated,NPTH,ComponentDrill
T1C0.800
; #@! TA.AperFunction,NonPlated,NPTH,ComponentDrill
T2C1.750
; #@! TA.AperFunction,NonPlated,NPTH,ComponentDrill
T3C2.200
; #@! TA.AperFunction,NonPlated,NPTH,ComponentDrill
T4C3.048
; #@! TA.AperFunction,NonPlated,NPTH,ComponentDrill
T5C3.988
; #@! TA.AperFunction,NonPlated,NPTH,ComponentDrill
T6C4.000
%
G90
G05
T1
X263.117Y-105.965
X263.117Y-112.965
X308.677Y-106.052
X308.677Y-113.052
T2
X87.599Y-192.94
X92.361Y-173.89
X92.361Y-211.99
X97.124Y-154.84
X97.124Y-231.04
X97.759Y-192.94
X102.521Y-173.89
X102.521Y-211.99
X106.649Y-192.94
X107.284Y-154.84
X107.284Y-231.04
X111.411Y-173.89
X111.411Y-211.99
X116.174Y-154.84
X116.174Y-231.04
X116.809Y-192.94
X121.572Y-173.89
X121.572Y-211.99
X126.334Y-154.84
X126.334Y-231.04
X144.749Y-154.84
X147.13Y-231.04
X149.511Y-173.89
X151.893Y-192.94
X154.909Y-154.84
X156.655Y-211.99
X157.29Y-231.04
X159.671Y-173.89
X162.053Y-192.94
X163.799Y-154.84
X166.815Y-211.99
X170.943Y-231.04
X173.324Y-173.89
X173.959Y-154.84
X178.087Y-192.94
X181.103Y-231.04
X182.849Y-154.84
X183.484Y-173.89
X187.611Y-211.99
X188.246Y-192.94
X192.374Y-173.89
X193.009Y-154.84
X194.755Y-231.04
X197.136Y-192.94
X197.772Y-211.99
X201.899Y-154.84
X202.534Y-173.89
X204.915Y-231.04
X206.661Y-211.99
X207.296Y-192.94
X211.424Y-173.89
X212.059Y-154.84
X216.186Y-192.94
X216.821Y-211.99
X220.949Y-154.84
X221.584Y-173.89
X225.712Y-211.99
X226.346Y-192.94
X230.474Y-173.89
X231.109Y-154.84
X235.236Y-192.94
X235.236Y-231.04
X235.871Y-211.99
X239.999Y-154.84
X240.634Y-173.89
X244.761Y-211.99
X245.396Y-192.94
X245.396Y-231.04
X249.524Y-173.89
X250.159Y-154.84
X254.286Y-192.94
X254.921Y-211.99
X259.049Y-154.84
X259.684Y-173.89
X263.811Y-211.99
X264.447Y-192.94
X268.574Y-173.89
X269.209Y-154.84
X273.971Y-211.99
X278.734Y-173.89
X297.849Y-192.94
X302.611Y-154.84
X307.374Y-211.99
X308.009Y-192.94
X312.136Y-173.89
X312.771Y-154.84
X316.899Y-192.94
X316.899Y-231.04
X317.534Y-211.99
X321.661Y-154.84
X322.296Y-173.89
X326.424Y-211.99
X327.059Y-192.94
X327.059Y-231.04
X331.186Y-173.89
X331.821Y-154.84
X335.949Y-192.94
X336.584Y-211.99
X340.711Y-154.84
X341.346Y-173.89
X345.474Y-211.99
X346.109Y-192.94
X350.236Y-173.89
X350.871Y-154.84
X354.999Y-192.94
X355.634Y-211.99
X357.38Y-231.04
X359.761Y-154.84
X360.396Y-173.89
X364.524Y-211.99
X365.159Y-192.94
X367.54Y-231.04
X369.286Y-173.89
X369.921Y-154.84
X374.049Y-192.94
X374.684Y-211.99
X378.811Y-154.84
X379.446Y-173.89
X381.192Y-231.04
X383.574Y-211.99
X384.209Y-192.94
X388.336Y-173.89
X388.971Y-154.84
X391.352Y-231.04
X393.099Y-192.94
X393.734Y-211.99
X397.861Y-154.84
X398.496Y-173.89
X403.259Y-192.94
X405.005Y-231.04
X407.386Y-173.89
X408.021Y-154.84
X415.165Y-231.04
X417.546Y-173.89
X419.292Y-211.99
X424.055Y-192.94
X426.436Y-154.84
X429.452Y-211.99
X431.199Y-173.89
X431.199Y-231.04
X434.215Y-192.94
X436.596Y-154.84
X441.359Y-173.89
X441.359Y-231.04
X464.536Y-154.84
X464.536Y-231.04
X469.299Y-173.89
X469.299Y-211.99
X474.061Y-192.94
X474.696Y-154.84
X474.696Y-231.04
X479.459Y-173.89
X479.459Y-211.99
X483.586Y-154.84
X483.586Y-231.04
X484.221Y-192.94
X488.349Y-173.89
X488.349Y-211.99
X493.111Y-192.94
X493.746Y-154.84
X493.746Y-231.04
X498.509Y-173.89
X498.509Y-211.99
X503.271Y-192.94
T3
X86.693Y-239.451
X115.093Y-132.251
X181.735Y-208.39
X187.916Y-165.44
X213.516Y-110.09
X255.992Y-231.66
X263.716Y-132.84
X266.316Y-184.44
X303.716Y-134.44
X308.716Y-231.44
X311.116Y-183.24
X377.016Y-111.34
X401.916Y-207.04
X423.916Y-167.24
X474.516Y-135.24
X478.74Y-393.251
X478.74Y-393.251
X506.116Y-241.44
T4
X149.797Y-205.005
X173.673Y-205.005
X221.266Y-224.055
X259.366Y-224.055
X302.929Y-224.055
X341.029Y-224.055
X412.434Y-205.005
X417.197Y-185.955
X419.578Y-147.855
X436.31Y-205.005
X441.073Y-185.955
X443.454Y-147.855
T5
X149.797Y-220.215
X173.673Y-220.215
X221.266Y-239.265
X259.366Y-239.265
X302.929Y-239.265
X341.029Y-239.265
X412.434Y-220.215
X417.197Y-201.165
X419.578Y-163.065
X436.31Y-220.215
X441.073Y-201.165
X443.454Y-163.065
T6
X92.679Y-192.94
X97.441Y-173.89
X97.441Y-211.99
X102.204Y-154.84
X102.204Y-231.04
X111.729Y-192.94
X116.491Y-173.89
X116.491Y-211.99
X121.254Y-154.84
X121.254Y-231.04
X149.829Y-154.84
X152.21Y-231.04
X154.591Y-173.89
X156.973Y-192.94
X161.735Y-211.99
X168.879Y-154.84
X176.023Y-231.04
X178.404Y-173.89
X183.166Y-192.94
X187.929Y-154.84
X192.691Y-211.99
X197.454Y-173.89
X199.835Y-231.04
X202.216Y-192.94
X206.979Y-154.84
X211.742Y-211.99
X216.504Y-173.89
X221.266Y-192.94
X226.029Y-154.84
X230.791Y-211.99
X235.554Y-173.89
X240.316Y-192.94
X240.316Y-231.04
X245.079Y-154.84
X249.841Y-211.99
X254.604Y-173.89
X259.366Y-192.94
X264.129Y-154.84
X268.892Y-211.99
X273.654Y-173.89
X302.929Y-192.94
X307.691Y-154.84
X312.454Y-211.99
X317.216Y-173.89
X321.979Y-192.94
X321.979Y-231.04
X326.741Y-154.84
X331.504Y-211.99
X336.266Y-173.89
X341.029Y-192.94
X345.791Y-154.84
X350.554Y-211.99
X355.316Y-173.89
X360.079Y-192.94
X362.46Y-231.04
X364.841Y-154.84
X369.604Y-211.99
X374.366Y-173.89
X379.129Y-192.94
X383.891Y-154.84
X386.272Y-231.04
X388.654Y-211.99
X393.416Y-173.89
X398.179Y-192.94
X402.941Y-154.84
X410.085Y-231.04
X412.466Y-173.89
X424.373Y-211.99
X429.135Y-192.94
X431.516Y-154.84
X436.279Y-173.89
X436.279Y-231.04
X469.616Y-154.84
X469.616Y-231.04
X474.379Y-173.89
X474.379Y-211.99
X479.141Y-192.94
X488.666Y-154.84
X488.666Y-231.04
X493.429Y-173.89
X493.429Y-211.99
X498.191Y-192.94
M30
