G04 #@! TF.GenerationSoftware,KiCad,Pcbnew,8.0.1*
G04 #@! TF.CreationDate,2024-04-01T00:03:47+00:00*
G04 #@! TF.ProjectId,SplitSync,53706c69-7453-4796-9e63-2e6b69636164,rev?*
G04 #@! TF.SameCoordinates,Original*
G04 #@! TF.FileFunction,Legend,Bot*
G04 #@! TF.FilePolarity,Positive*
%FSLAX46Y46*%
G04 Gerber Fmt 4.6, Leading zero omitted, Abs format (unit mm)*
G04 Created by KiCad (PCBNEW 8.0.1) date 2024-04-01 00:03:47*
%MOMM*%
%LPD*%
G01*
G04 APERTURE LIST*
%ADD10C,0.150000*%
%ADD11C,0.120000*%
G04 APERTURE END LIST*
D10*
X425249583Y-164494819D02*
X425582916Y-164018628D01*
X425821011Y-164494819D02*
X425821011Y-163494819D01*
X425821011Y-163494819D02*
X425440059Y-163494819D01*
X425440059Y-163494819D02*
X425344821Y-163542438D01*
X425344821Y-163542438D02*
X425297202Y-163590057D01*
X425297202Y-163590057D02*
X425249583Y-163685295D01*
X425249583Y-163685295D02*
X425249583Y-163828152D01*
X425249583Y-163828152D02*
X425297202Y-163923390D01*
X425297202Y-163923390D02*
X425344821Y-163971009D01*
X425344821Y-163971009D02*
X425440059Y-164018628D01*
X425440059Y-164018628D02*
X425821011Y-164018628D01*
X424821011Y-163971009D02*
X424487678Y-163971009D01*
X424344821Y-164494819D02*
X424821011Y-164494819D01*
X424821011Y-164494819D02*
X424821011Y-163494819D01*
X424821011Y-163494819D02*
X424344821Y-163494819D01*
X423582916Y-163971009D02*
X423916249Y-163971009D01*
X423916249Y-164494819D02*
X423916249Y-163494819D01*
X423916249Y-163494819D02*
X423440059Y-163494819D01*
X422916249Y-163494819D02*
X422916249Y-163732914D01*
X423154344Y-163637676D02*
X422916249Y-163732914D01*
X422916249Y-163732914D02*
X422678154Y-163637676D01*
X423059106Y-163923390D02*
X422916249Y-163732914D01*
X422916249Y-163732914D02*
X422773392Y-163923390D01*
X422154344Y-163494819D02*
X422154344Y-163732914D01*
X422392439Y-163637676D02*
X422154344Y-163732914D01*
X422154344Y-163732914D02*
X421916249Y-163637676D01*
X422297201Y-163923390D02*
X422154344Y-163732914D01*
X422154344Y-163732914D02*
X422011487Y-163923390D01*
X480073137Y-390505888D02*
X480406470Y-390029697D01*
X480644565Y-390505888D02*
X480644565Y-389505888D01*
X480644565Y-389505888D02*
X480263613Y-389505888D01*
X480263613Y-389505888D02*
X480168375Y-389553507D01*
X480168375Y-389553507D02*
X480120756Y-389601126D01*
X480120756Y-389601126D02*
X480073137Y-389696364D01*
X480073137Y-389696364D02*
X480073137Y-389839221D01*
X480073137Y-389839221D02*
X480120756Y-389934459D01*
X480120756Y-389934459D02*
X480168375Y-389982078D01*
X480168375Y-389982078D02*
X480263613Y-390029697D01*
X480263613Y-390029697D02*
X480644565Y-390029697D01*
X479644565Y-389982078D02*
X479311232Y-389982078D01*
X479168375Y-390505888D02*
X479644565Y-390505888D01*
X479644565Y-390505888D02*
X479644565Y-389505888D01*
X479644565Y-389505888D02*
X479168375Y-389505888D01*
X478406470Y-389982078D02*
X478739803Y-389982078D01*
X478739803Y-390505888D02*
X478739803Y-389505888D01*
X478739803Y-389505888D02*
X478263613Y-389505888D01*
X477739803Y-389505888D02*
X477739803Y-389743983D01*
X477977898Y-389648745D02*
X477739803Y-389743983D01*
X477739803Y-389743983D02*
X477501708Y-389648745D01*
X477882660Y-389934459D02*
X477739803Y-389743983D01*
X477739803Y-389743983D02*
X477596946Y-389934459D01*
X476977898Y-389505888D02*
X476977898Y-389743983D01*
X477215993Y-389648745D02*
X476977898Y-389743983D01*
X476977898Y-389743983D02*
X476739803Y-389648745D01*
X477120755Y-389934459D02*
X476977898Y-389743983D01*
X476977898Y-389743983D02*
X476835041Y-389934459D01*
X404083569Y-179169762D02*
X403083569Y-179169762D01*
X403083569Y-179169762D02*
X403083569Y-179407857D01*
X403083569Y-179407857D02*
X403131188Y-179550714D01*
X403131188Y-179550714D02*
X403226426Y-179645952D01*
X403226426Y-179645952D02*
X403321664Y-179693571D01*
X403321664Y-179693571D02*
X403512140Y-179741190D01*
X403512140Y-179741190D02*
X403654997Y-179741190D01*
X403654997Y-179741190D02*
X403845473Y-179693571D01*
X403845473Y-179693571D02*
X403940711Y-179645952D01*
X403940711Y-179645952D02*
X404035950Y-179550714D01*
X404035950Y-179550714D02*
X404083569Y-179407857D01*
X404083569Y-179407857D02*
X404083569Y-179169762D01*
X404178807Y-179931667D02*
X404178807Y-180693571D01*
X403083569Y-180836429D02*
X403083569Y-181455476D01*
X403083569Y-181455476D02*
X403464521Y-181122143D01*
X403464521Y-181122143D02*
X403464521Y-181265000D01*
X403464521Y-181265000D02*
X403512140Y-181360238D01*
X403512140Y-181360238D02*
X403559759Y-181407857D01*
X403559759Y-181407857D02*
X403654997Y-181455476D01*
X403654997Y-181455476D02*
X403893092Y-181455476D01*
X403893092Y-181455476D02*
X403988330Y-181407857D01*
X403988330Y-181407857D02*
X404035950Y-181360238D01*
X404035950Y-181360238D02*
X404083569Y-181265000D01*
X404083569Y-181265000D02*
X404083569Y-180979286D01*
X404083569Y-180979286D02*
X404035950Y-180884048D01*
X404035950Y-180884048D02*
X403988330Y-180836429D01*
X404083569Y-182407857D02*
X404083569Y-181836429D01*
X404083569Y-182122143D02*
X403083569Y-182122143D01*
X403083569Y-182122143D02*
X403226426Y-182026905D01*
X403226426Y-182026905D02*
X403321664Y-181931667D01*
X403321664Y-181931667D02*
X403369283Y-181836429D01*
X160496319Y-160595952D02*
X159496319Y-160595952D01*
X159496319Y-160595952D02*
X159496319Y-160834047D01*
X159496319Y-160834047D02*
X159543938Y-160976904D01*
X159543938Y-160976904D02*
X159639176Y-161072142D01*
X159639176Y-161072142D02*
X159734414Y-161119761D01*
X159734414Y-161119761D02*
X159924890Y-161167380D01*
X159924890Y-161167380D02*
X160067747Y-161167380D01*
X160067747Y-161167380D02*
X160258223Y-161119761D01*
X160258223Y-161119761D02*
X160353461Y-161072142D01*
X160353461Y-161072142D02*
X160448700Y-160976904D01*
X160448700Y-160976904D02*
X160496319Y-160834047D01*
X160496319Y-160834047D02*
X160496319Y-160595952D01*
X160591557Y-161357857D02*
X160591557Y-162119761D01*
X159591557Y-162310238D02*
X159543938Y-162357857D01*
X159543938Y-162357857D02*
X159496319Y-162453095D01*
X159496319Y-162453095D02*
X159496319Y-162691190D01*
X159496319Y-162691190D02*
X159543938Y-162786428D01*
X159543938Y-162786428D02*
X159591557Y-162834047D01*
X159591557Y-162834047D02*
X159686795Y-162881666D01*
X159686795Y-162881666D02*
X159782033Y-162881666D01*
X159782033Y-162881666D02*
X159924890Y-162834047D01*
X159924890Y-162834047D02*
X160496319Y-162262619D01*
X160496319Y-162262619D02*
X160496319Y-162881666D01*
X346933569Y-179169762D02*
X345933569Y-179169762D01*
X345933569Y-179169762D02*
X345933569Y-179407857D01*
X345933569Y-179407857D02*
X345981188Y-179550714D01*
X345981188Y-179550714D02*
X346076426Y-179645952D01*
X346076426Y-179645952D02*
X346171664Y-179693571D01*
X346171664Y-179693571D02*
X346362140Y-179741190D01*
X346362140Y-179741190D02*
X346504997Y-179741190D01*
X346504997Y-179741190D02*
X346695473Y-179693571D01*
X346695473Y-179693571D02*
X346790711Y-179645952D01*
X346790711Y-179645952D02*
X346885950Y-179550714D01*
X346885950Y-179550714D02*
X346933569Y-179407857D01*
X346933569Y-179407857D02*
X346933569Y-179169762D01*
X347028807Y-179931667D02*
X347028807Y-180693571D01*
X346028807Y-180884048D02*
X345981188Y-180931667D01*
X345981188Y-180931667D02*
X345933569Y-181026905D01*
X345933569Y-181026905D02*
X345933569Y-181265000D01*
X345933569Y-181265000D02*
X345981188Y-181360238D01*
X345981188Y-181360238D02*
X346028807Y-181407857D01*
X346028807Y-181407857D02*
X346124045Y-181455476D01*
X346124045Y-181455476D02*
X346219283Y-181455476D01*
X346219283Y-181455476D02*
X346362140Y-181407857D01*
X346362140Y-181407857D02*
X346933569Y-180836429D01*
X346933569Y-180836429D02*
X346933569Y-181455476D01*
X346362140Y-182026905D02*
X346314521Y-181931667D01*
X346314521Y-181931667D02*
X346266902Y-181884048D01*
X346266902Y-181884048D02*
X346171664Y-181836429D01*
X346171664Y-181836429D02*
X346124045Y-181836429D01*
X346124045Y-181836429D02*
X346028807Y-181884048D01*
X346028807Y-181884048D02*
X345981188Y-181931667D01*
X345981188Y-181931667D02*
X345933569Y-182026905D01*
X345933569Y-182026905D02*
X345933569Y-182217381D01*
X345933569Y-182217381D02*
X345981188Y-182312619D01*
X345981188Y-182312619D02*
X346028807Y-182360238D01*
X346028807Y-182360238D02*
X346124045Y-182407857D01*
X346124045Y-182407857D02*
X346171664Y-182407857D01*
X346171664Y-182407857D02*
X346266902Y-182360238D01*
X346266902Y-182360238D02*
X346314521Y-182312619D01*
X346314521Y-182312619D02*
X346362140Y-182217381D01*
X346362140Y-182217381D02*
X346362140Y-182026905D01*
X346362140Y-182026905D02*
X346409759Y-181931667D01*
X346409759Y-181931667D02*
X346457378Y-181884048D01*
X346457378Y-181884048D02*
X346552616Y-181836429D01*
X346552616Y-181836429D02*
X346743092Y-181836429D01*
X346743092Y-181836429D02*
X346838330Y-181884048D01*
X346838330Y-181884048D02*
X346885950Y-181931667D01*
X346885950Y-181931667D02*
X346933569Y-182026905D01*
X346933569Y-182026905D02*
X346933569Y-182217381D01*
X346933569Y-182217381D02*
X346885950Y-182312619D01*
X346885950Y-182312619D02*
X346838330Y-182360238D01*
X346838330Y-182360238D02*
X346743092Y-182407857D01*
X346743092Y-182407857D02*
X346552616Y-182407857D01*
X346552616Y-182407857D02*
X346457378Y-182360238D01*
X346457378Y-182360238D02*
X346409759Y-182312619D01*
X346409759Y-182312619D02*
X346362140Y-182217381D01*
X108108819Y-179169762D02*
X107108819Y-179169762D01*
X107108819Y-179169762D02*
X107108819Y-179407857D01*
X107108819Y-179407857D02*
X107156438Y-179550714D01*
X107156438Y-179550714D02*
X107251676Y-179645952D01*
X107251676Y-179645952D02*
X107346914Y-179693571D01*
X107346914Y-179693571D02*
X107537390Y-179741190D01*
X107537390Y-179741190D02*
X107680247Y-179741190D01*
X107680247Y-179741190D02*
X107870723Y-179693571D01*
X107870723Y-179693571D02*
X107965961Y-179645952D01*
X107965961Y-179645952D02*
X108061200Y-179550714D01*
X108061200Y-179550714D02*
X108108819Y-179407857D01*
X108108819Y-179407857D02*
X108108819Y-179169762D01*
X108204057Y-179931667D02*
X108204057Y-180693571D01*
X108108819Y-181455476D02*
X108108819Y-180884048D01*
X108108819Y-181169762D02*
X107108819Y-181169762D01*
X107108819Y-181169762D02*
X107251676Y-181074524D01*
X107251676Y-181074524D02*
X107346914Y-180979286D01*
X107346914Y-180979286D02*
X107394533Y-180884048D01*
X107537390Y-182026905D02*
X107489771Y-181931667D01*
X107489771Y-181931667D02*
X107442152Y-181884048D01*
X107442152Y-181884048D02*
X107346914Y-181836429D01*
X107346914Y-181836429D02*
X107299295Y-181836429D01*
X107299295Y-181836429D02*
X107204057Y-181884048D01*
X107204057Y-181884048D02*
X107156438Y-181931667D01*
X107156438Y-181931667D02*
X107108819Y-182026905D01*
X107108819Y-182026905D02*
X107108819Y-182217381D01*
X107108819Y-182217381D02*
X107156438Y-182312619D01*
X107156438Y-182312619D02*
X107204057Y-182360238D01*
X107204057Y-182360238D02*
X107299295Y-182407857D01*
X107299295Y-182407857D02*
X107346914Y-182407857D01*
X107346914Y-182407857D02*
X107442152Y-182360238D01*
X107442152Y-182360238D02*
X107489771Y-182312619D01*
X107489771Y-182312619D02*
X107537390Y-182217381D01*
X107537390Y-182217381D02*
X107537390Y-182026905D01*
X107537390Y-182026905D02*
X107585009Y-181931667D01*
X107585009Y-181931667D02*
X107632628Y-181884048D01*
X107632628Y-181884048D02*
X107727866Y-181836429D01*
X107727866Y-181836429D02*
X107918342Y-181836429D01*
X107918342Y-181836429D02*
X108013580Y-181884048D01*
X108013580Y-181884048D02*
X108061200Y-181931667D01*
X108061200Y-181931667D02*
X108108819Y-182026905D01*
X108108819Y-182026905D02*
X108108819Y-182217381D01*
X108108819Y-182217381D02*
X108061200Y-182312619D01*
X108061200Y-182312619D02*
X108013580Y-182360238D01*
X108013580Y-182360238D02*
X107918342Y-182407857D01*
X107918342Y-182407857D02*
X107727866Y-182407857D01*
X107727866Y-182407857D02*
X107632628Y-182360238D01*
X107632628Y-182360238D02*
X107585009Y-182312619D01*
X107585009Y-182312619D02*
X107537390Y-182217381D01*
X375508569Y-160119762D02*
X374508569Y-160119762D01*
X374508569Y-160119762D02*
X374508569Y-160357857D01*
X374508569Y-160357857D02*
X374556188Y-160500714D01*
X374556188Y-160500714D02*
X374651426Y-160595952D01*
X374651426Y-160595952D02*
X374746664Y-160643571D01*
X374746664Y-160643571D02*
X374937140Y-160691190D01*
X374937140Y-160691190D02*
X375079997Y-160691190D01*
X375079997Y-160691190D02*
X375270473Y-160643571D01*
X375270473Y-160643571D02*
X375365711Y-160595952D01*
X375365711Y-160595952D02*
X375460950Y-160500714D01*
X375460950Y-160500714D02*
X375508569Y-160357857D01*
X375508569Y-160357857D02*
X375508569Y-160119762D01*
X375603807Y-160881667D02*
X375603807Y-161643571D01*
X375508569Y-162405476D02*
X375508569Y-161834048D01*
X375508569Y-162119762D02*
X374508569Y-162119762D01*
X374508569Y-162119762D02*
X374651426Y-162024524D01*
X374651426Y-162024524D02*
X374746664Y-161929286D01*
X374746664Y-161929286D02*
X374794283Y-161834048D01*
X374603807Y-162786429D02*
X374556188Y-162834048D01*
X374556188Y-162834048D02*
X374508569Y-162929286D01*
X374508569Y-162929286D02*
X374508569Y-163167381D01*
X374508569Y-163167381D02*
X374556188Y-163262619D01*
X374556188Y-163262619D02*
X374603807Y-163310238D01*
X374603807Y-163310238D02*
X374699045Y-163357857D01*
X374699045Y-163357857D02*
X374794283Y-163357857D01*
X374794283Y-163357857D02*
X374937140Y-163310238D01*
X374937140Y-163310238D02*
X375508569Y-162738810D01*
X375508569Y-162738810D02*
X375508569Y-163357857D01*
X127158819Y-217269762D02*
X126158819Y-217269762D01*
X126158819Y-217269762D02*
X126158819Y-217507857D01*
X126158819Y-217507857D02*
X126206438Y-217650714D01*
X126206438Y-217650714D02*
X126301676Y-217745952D01*
X126301676Y-217745952D02*
X126396914Y-217793571D01*
X126396914Y-217793571D02*
X126587390Y-217841190D01*
X126587390Y-217841190D02*
X126730247Y-217841190D01*
X126730247Y-217841190D02*
X126920723Y-217793571D01*
X126920723Y-217793571D02*
X127015961Y-217745952D01*
X127015961Y-217745952D02*
X127111200Y-217650714D01*
X127111200Y-217650714D02*
X127158819Y-217507857D01*
X127158819Y-217507857D02*
X127158819Y-217269762D01*
X127254057Y-218031667D02*
X127254057Y-218793571D01*
X126158819Y-219507857D02*
X126158819Y-219031667D01*
X126158819Y-219031667D02*
X126635009Y-218984048D01*
X126635009Y-218984048D02*
X126587390Y-219031667D01*
X126587390Y-219031667D02*
X126539771Y-219126905D01*
X126539771Y-219126905D02*
X126539771Y-219365000D01*
X126539771Y-219365000D02*
X126587390Y-219460238D01*
X126587390Y-219460238D02*
X126635009Y-219507857D01*
X126635009Y-219507857D02*
X126730247Y-219555476D01*
X126730247Y-219555476D02*
X126968342Y-219555476D01*
X126968342Y-219555476D02*
X127063580Y-219507857D01*
X127063580Y-219507857D02*
X127111200Y-219460238D01*
X127111200Y-219460238D02*
X127158819Y-219365000D01*
X127158819Y-219365000D02*
X127158819Y-219126905D01*
X127158819Y-219126905D02*
X127111200Y-219031667D01*
X127111200Y-219031667D02*
X127063580Y-218984048D01*
X126492152Y-220412619D02*
X127158819Y-220412619D01*
X126111200Y-220174524D02*
X126825485Y-219936429D01*
X126825485Y-219936429D02*
X126825485Y-220555476D01*
X365983569Y-179169762D02*
X364983569Y-179169762D01*
X364983569Y-179169762D02*
X364983569Y-179407857D01*
X364983569Y-179407857D02*
X365031188Y-179550714D01*
X365031188Y-179550714D02*
X365126426Y-179645952D01*
X365126426Y-179645952D02*
X365221664Y-179693571D01*
X365221664Y-179693571D02*
X365412140Y-179741190D01*
X365412140Y-179741190D02*
X365554997Y-179741190D01*
X365554997Y-179741190D02*
X365745473Y-179693571D01*
X365745473Y-179693571D02*
X365840711Y-179645952D01*
X365840711Y-179645952D02*
X365935950Y-179550714D01*
X365935950Y-179550714D02*
X365983569Y-179407857D01*
X365983569Y-179407857D02*
X365983569Y-179169762D01*
X366078807Y-179931667D02*
X366078807Y-180693571D01*
X365078807Y-180884048D02*
X365031188Y-180931667D01*
X365031188Y-180931667D02*
X364983569Y-181026905D01*
X364983569Y-181026905D02*
X364983569Y-181265000D01*
X364983569Y-181265000D02*
X365031188Y-181360238D01*
X365031188Y-181360238D02*
X365078807Y-181407857D01*
X365078807Y-181407857D02*
X365174045Y-181455476D01*
X365174045Y-181455476D02*
X365269283Y-181455476D01*
X365269283Y-181455476D02*
X365412140Y-181407857D01*
X365412140Y-181407857D02*
X365983569Y-180836429D01*
X365983569Y-180836429D02*
X365983569Y-181455476D01*
X365983569Y-181931667D02*
X365983569Y-182122143D01*
X365983569Y-182122143D02*
X365935950Y-182217381D01*
X365935950Y-182217381D02*
X365888330Y-182265000D01*
X365888330Y-182265000D02*
X365745473Y-182360238D01*
X365745473Y-182360238D02*
X365554997Y-182407857D01*
X365554997Y-182407857D02*
X365174045Y-182407857D01*
X365174045Y-182407857D02*
X365078807Y-182360238D01*
X365078807Y-182360238D02*
X365031188Y-182312619D01*
X365031188Y-182312619D02*
X364983569Y-182217381D01*
X364983569Y-182217381D02*
X364983569Y-182026905D01*
X364983569Y-182026905D02*
X365031188Y-181931667D01*
X365031188Y-181931667D02*
X365078807Y-181884048D01*
X365078807Y-181884048D02*
X365174045Y-181836429D01*
X365174045Y-181836429D02*
X365412140Y-181836429D01*
X365412140Y-181836429D02*
X365507378Y-181884048D01*
X365507378Y-181884048D02*
X365554997Y-181931667D01*
X365554997Y-181931667D02*
X365602616Y-182026905D01*
X365602616Y-182026905D02*
X365602616Y-182217381D01*
X365602616Y-182217381D02*
X365554997Y-182312619D01*
X365554997Y-182312619D02*
X365507378Y-182360238D01*
X365507378Y-182360238D02*
X365412140Y-182407857D01*
X112871319Y-160595952D02*
X111871319Y-160595952D01*
X111871319Y-160595952D02*
X111871319Y-160834047D01*
X111871319Y-160834047D02*
X111918938Y-160976904D01*
X111918938Y-160976904D02*
X112014176Y-161072142D01*
X112014176Y-161072142D02*
X112109414Y-161119761D01*
X112109414Y-161119761D02*
X112299890Y-161167380D01*
X112299890Y-161167380D02*
X112442747Y-161167380D01*
X112442747Y-161167380D02*
X112633223Y-161119761D01*
X112633223Y-161119761D02*
X112728461Y-161072142D01*
X112728461Y-161072142D02*
X112823700Y-160976904D01*
X112823700Y-160976904D02*
X112871319Y-160834047D01*
X112871319Y-160834047D02*
X112871319Y-160595952D01*
X112966557Y-161357857D02*
X112966557Y-162119761D01*
X111871319Y-162548333D02*
X111871319Y-162643571D01*
X111871319Y-162643571D02*
X111918938Y-162738809D01*
X111918938Y-162738809D02*
X111966557Y-162786428D01*
X111966557Y-162786428D02*
X112061795Y-162834047D01*
X112061795Y-162834047D02*
X112252271Y-162881666D01*
X112252271Y-162881666D02*
X112490366Y-162881666D01*
X112490366Y-162881666D02*
X112680842Y-162834047D01*
X112680842Y-162834047D02*
X112776080Y-162786428D01*
X112776080Y-162786428D02*
X112823700Y-162738809D01*
X112823700Y-162738809D02*
X112871319Y-162643571D01*
X112871319Y-162643571D02*
X112871319Y-162548333D01*
X112871319Y-162548333D02*
X112823700Y-162453095D01*
X112823700Y-162453095D02*
X112776080Y-162405476D01*
X112776080Y-162405476D02*
X112680842Y-162357857D01*
X112680842Y-162357857D02*
X112490366Y-162310238D01*
X112490366Y-162310238D02*
X112252271Y-162310238D01*
X112252271Y-162310238D02*
X112061795Y-162357857D01*
X112061795Y-162357857D02*
X111966557Y-162405476D01*
X111966557Y-162405476D02*
X111918938Y-162453095D01*
X111918938Y-162453095D02*
X111871319Y-162548333D01*
X451708569Y-217269762D02*
X450708569Y-217269762D01*
X450708569Y-217269762D02*
X450708569Y-217507857D01*
X450708569Y-217507857D02*
X450756188Y-217650714D01*
X450756188Y-217650714D02*
X450851426Y-217745952D01*
X450851426Y-217745952D02*
X450946664Y-217793571D01*
X450946664Y-217793571D02*
X451137140Y-217841190D01*
X451137140Y-217841190D02*
X451279997Y-217841190D01*
X451279997Y-217841190D02*
X451470473Y-217793571D01*
X451470473Y-217793571D02*
X451565711Y-217745952D01*
X451565711Y-217745952D02*
X451660950Y-217650714D01*
X451660950Y-217650714D02*
X451708569Y-217507857D01*
X451708569Y-217507857D02*
X451708569Y-217269762D01*
X451803807Y-218031667D02*
X451803807Y-218793571D01*
X450708569Y-219460238D02*
X450708569Y-219269762D01*
X450708569Y-219269762D02*
X450756188Y-219174524D01*
X450756188Y-219174524D02*
X450803807Y-219126905D01*
X450803807Y-219126905D02*
X450946664Y-219031667D01*
X450946664Y-219031667D02*
X451137140Y-218984048D01*
X451137140Y-218984048D02*
X451518092Y-218984048D01*
X451518092Y-218984048D02*
X451613330Y-219031667D01*
X451613330Y-219031667D02*
X451660950Y-219079286D01*
X451660950Y-219079286D02*
X451708569Y-219174524D01*
X451708569Y-219174524D02*
X451708569Y-219365000D01*
X451708569Y-219365000D02*
X451660950Y-219460238D01*
X451660950Y-219460238D02*
X451613330Y-219507857D01*
X451613330Y-219507857D02*
X451518092Y-219555476D01*
X451518092Y-219555476D02*
X451279997Y-219555476D01*
X451279997Y-219555476D02*
X451184759Y-219507857D01*
X451184759Y-219507857D02*
X451137140Y-219460238D01*
X451137140Y-219460238D02*
X451089521Y-219365000D01*
X451089521Y-219365000D02*
X451089521Y-219174524D01*
X451089521Y-219174524D02*
X451137140Y-219079286D01*
X451137140Y-219079286D02*
X451184759Y-219031667D01*
X451184759Y-219031667D02*
X451279997Y-218984048D01*
X450708569Y-220412619D02*
X450708569Y-220222143D01*
X450708569Y-220222143D02*
X450756188Y-220126905D01*
X450756188Y-220126905D02*
X450803807Y-220079286D01*
X450803807Y-220079286D02*
X450946664Y-219984048D01*
X450946664Y-219984048D02*
X451137140Y-219936429D01*
X451137140Y-219936429D02*
X451518092Y-219936429D01*
X451518092Y-219936429D02*
X451613330Y-219984048D01*
X451613330Y-219984048D02*
X451660950Y-220031667D01*
X451660950Y-220031667D02*
X451708569Y-220126905D01*
X451708569Y-220126905D02*
X451708569Y-220317381D01*
X451708569Y-220317381D02*
X451660950Y-220412619D01*
X451660950Y-220412619D02*
X451613330Y-220460238D01*
X451613330Y-220460238D02*
X451518092Y-220507857D01*
X451518092Y-220507857D02*
X451279997Y-220507857D01*
X451279997Y-220507857D02*
X451184759Y-220460238D01*
X451184759Y-220460238D02*
X451137140Y-220412619D01*
X451137140Y-220412619D02*
X451089521Y-220317381D01*
X451089521Y-220317381D02*
X451089521Y-220126905D01*
X451089521Y-220126905D02*
X451137140Y-220031667D01*
X451137140Y-220031667D02*
X451184759Y-219984048D01*
X451184759Y-219984048D02*
X451279997Y-219936429D01*
X212883819Y-198219762D02*
X211883819Y-198219762D01*
X211883819Y-198219762D02*
X211883819Y-198457857D01*
X211883819Y-198457857D02*
X211931438Y-198600714D01*
X211931438Y-198600714D02*
X212026676Y-198695952D01*
X212026676Y-198695952D02*
X212121914Y-198743571D01*
X212121914Y-198743571D02*
X212312390Y-198791190D01*
X212312390Y-198791190D02*
X212455247Y-198791190D01*
X212455247Y-198791190D02*
X212645723Y-198743571D01*
X212645723Y-198743571D02*
X212740961Y-198695952D01*
X212740961Y-198695952D02*
X212836200Y-198600714D01*
X212836200Y-198600714D02*
X212883819Y-198457857D01*
X212883819Y-198457857D02*
X212883819Y-198219762D01*
X212979057Y-198981667D02*
X212979057Y-199743571D01*
X212217152Y-200410238D02*
X212883819Y-200410238D01*
X211836200Y-200172143D02*
X212550485Y-199934048D01*
X212550485Y-199934048D02*
X212550485Y-200553095D01*
X211883819Y-201124524D02*
X211883819Y-201219762D01*
X211883819Y-201219762D02*
X211931438Y-201315000D01*
X211931438Y-201315000D02*
X211979057Y-201362619D01*
X211979057Y-201362619D02*
X212074295Y-201410238D01*
X212074295Y-201410238D02*
X212264771Y-201457857D01*
X212264771Y-201457857D02*
X212502866Y-201457857D01*
X212502866Y-201457857D02*
X212693342Y-201410238D01*
X212693342Y-201410238D02*
X212788580Y-201362619D01*
X212788580Y-201362619D02*
X212836200Y-201315000D01*
X212836200Y-201315000D02*
X212883819Y-201219762D01*
X212883819Y-201219762D02*
X212883819Y-201124524D01*
X212883819Y-201124524D02*
X212836200Y-201029286D01*
X212836200Y-201029286D02*
X212788580Y-200981667D01*
X212788580Y-200981667D02*
X212693342Y-200934048D01*
X212693342Y-200934048D02*
X212502866Y-200886429D01*
X212502866Y-200886429D02*
X212264771Y-200886429D01*
X212264771Y-200886429D02*
X212074295Y-200934048D01*
X212074295Y-200934048D02*
X211979057Y-200981667D01*
X211979057Y-200981667D02*
X211931438Y-201029286D01*
X211931438Y-201029286D02*
X211883819Y-201124524D01*
X423133569Y-236319762D02*
X422133569Y-236319762D01*
X422133569Y-236319762D02*
X422133569Y-236557857D01*
X422133569Y-236557857D02*
X422181188Y-236700714D01*
X422181188Y-236700714D02*
X422276426Y-236795952D01*
X422276426Y-236795952D02*
X422371664Y-236843571D01*
X422371664Y-236843571D02*
X422562140Y-236891190D01*
X422562140Y-236891190D02*
X422704997Y-236891190D01*
X422704997Y-236891190D02*
X422895473Y-236843571D01*
X422895473Y-236843571D02*
X422990711Y-236795952D01*
X422990711Y-236795952D02*
X423085950Y-236700714D01*
X423085950Y-236700714D02*
X423133569Y-236557857D01*
X423133569Y-236557857D02*
X423133569Y-236319762D01*
X423228807Y-237081667D02*
X423228807Y-237843571D01*
X422133569Y-237986429D02*
X422133569Y-238653095D01*
X422133569Y-238653095D02*
X423133569Y-238224524D01*
X422562140Y-239176905D02*
X422514521Y-239081667D01*
X422514521Y-239081667D02*
X422466902Y-239034048D01*
X422466902Y-239034048D02*
X422371664Y-238986429D01*
X422371664Y-238986429D02*
X422324045Y-238986429D01*
X422324045Y-238986429D02*
X422228807Y-239034048D01*
X422228807Y-239034048D02*
X422181188Y-239081667D01*
X422181188Y-239081667D02*
X422133569Y-239176905D01*
X422133569Y-239176905D02*
X422133569Y-239367381D01*
X422133569Y-239367381D02*
X422181188Y-239462619D01*
X422181188Y-239462619D02*
X422228807Y-239510238D01*
X422228807Y-239510238D02*
X422324045Y-239557857D01*
X422324045Y-239557857D02*
X422371664Y-239557857D01*
X422371664Y-239557857D02*
X422466902Y-239510238D01*
X422466902Y-239510238D02*
X422514521Y-239462619D01*
X422514521Y-239462619D02*
X422562140Y-239367381D01*
X422562140Y-239367381D02*
X422562140Y-239176905D01*
X422562140Y-239176905D02*
X422609759Y-239081667D01*
X422609759Y-239081667D02*
X422657378Y-239034048D01*
X422657378Y-239034048D02*
X422752616Y-238986429D01*
X422752616Y-238986429D02*
X422943092Y-238986429D01*
X422943092Y-238986429D02*
X423038330Y-239034048D01*
X423038330Y-239034048D02*
X423085950Y-239081667D01*
X423085950Y-239081667D02*
X423133569Y-239176905D01*
X423133569Y-239176905D02*
X423133569Y-239367381D01*
X423133569Y-239367381D02*
X423085950Y-239462619D01*
X423085950Y-239462619D02*
X423038330Y-239510238D01*
X423038330Y-239510238D02*
X422943092Y-239557857D01*
X422943092Y-239557857D02*
X422752616Y-239557857D01*
X422752616Y-239557857D02*
X422657378Y-239510238D01*
X422657378Y-239510238D02*
X422609759Y-239462619D01*
X422609759Y-239462619D02*
X422562140Y-239367381D01*
X250983819Y-198219762D02*
X249983819Y-198219762D01*
X249983819Y-198219762D02*
X249983819Y-198457857D01*
X249983819Y-198457857D02*
X250031438Y-198600714D01*
X250031438Y-198600714D02*
X250126676Y-198695952D01*
X250126676Y-198695952D02*
X250221914Y-198743571D01*
X250221914Y-198743571D02*
X250412390Y-198791190D01*
X250412390Y-198791190D02*
X250555247Y-198791190D01*
X250555247Y-198791190D02*
X250745723Y-198743571D01*
X250745723Y-198743571D02*
X250840961Y-198695952D01*
X250840961Y-198695952D02*
X250936200Y-198600714D01*
X250936200Y-198600714D02*
X250983819Y-198457857D01*
X250983819Y-198457857D02*
X250983819Y-198219762D01*
X251079057Y-198981667D02*
X251079057Y-199743571D01*
X250317152Y-200410238D02*
X250983819Y-200410238D01*
X249936200Y-200172143D02*
X250650485Y-199934048D01*
X250650485Y-199934048D02*
X250650485Y-200553095D01*
X250079057Y-200886429D02*
X250031438Y-200934048D01*
X250031438Y-200934048D02*
X249983819Y-201029286D01*
X249983819Y-201029286D02*
X249983819Y-201267381D01*
X249983819Y-201267381D02*
X250031438Y-201362619D01*
X250031438Y-201362619D02*
X250079057Y-201410238D01*
X250079057Y-201410238D02*
X250174295Y-201457857D01*
X250174295Y-201457857D02*
X250269533Y-201457857D01*
X250269533Y-201457857D02*
X250412390Y-201410238D01*
X250412390Y-201410238D02*
X250983819Y-200838810D01*
X250983819Y-200838810D02*
X250983819Y-201457857D01*
X279883819Y-176719762D02*
X278883819Y-176719762D01*
X278883819Y-176719762D02*
X278883819Y-176957857D01*
X278883819Y-176957857D02*
X278931438Y-177100714D01*
X278931438Y-177100714D02*
X279026676Y-177195952D01*
X279026676Y-177195952D02*
X279121914Y-177243571D01*
X279121914Y-177243571D02*
X279312390Y-177291190D01*
X279312390Y-177291190D02*
X279455247Y-177291190D01*
X279455247Y-177291190D02*
X279645723Y-177243571D01*
X279645723Y-177243571D02*
X279740961Y-177195952D01*
X279740961Y-177195952D02*
X279836200Y-177100714D01*
X279836200Y-177100714D02*
X279883819Y-176957857D01*
X279883819Y-176957857D02*
X279883819Y-176719762D01*
X279979057Y-177481667D02*
X279979057Y-178243571D01*
X278979057Y-178434048D02*
X278931438Y-178481667D01*
X278931438Y-178481667D02*
X278883819Y-178576905D01*
X278883819Y-178576905D02*
X278883819Y-178815000D01*
X278883819Y-178815000D02*
X278931438Y-178910238D01*
X278931438Y-178910238D02*
X278979057Y-178957857D01*
X278979057Y-178957857D02*
X279074295Y-179005476D01*
X279074295Y-179005476D02*
X279169533Y-179005476D01*
X279169533Y-179005476D02*
X279312390Y-178957857D01*
X279312390Y-178957857D02*
X279883819Y-178386429D01*
X279883819Y-178386429D02*
X279883819Y-179005476D01*
X278883819Y-179862619D02*
X278883819Y-179672143D01*
X278883819Y-179672143D02*
X278931438Y-179576905D01*
X278931438Y-179576905D02*
X278979057Y-179529286D01*
X278979057Y-179529286D02*
X279121914Y-179434048D01*
X279121914Y-179434048D02*
X279312390Y-179386429D01*
X279312390Y-179386429D02*
X279693342Y-179386429D01*
X279693342Y-179386429D02*
X279788580Y-179434048D01*
X279788580Y-179434048D02*
X279836200Y-179481667D01*
X279836200Y-179481667D02*
X279883819Y-179576905D01*
X279883819Y-179576905D02*
X279883819Y-179767381D01*
X279883819Y-179767381D02*
X279836200Y-179862619D01*
X279836200Y-179862619D02*
X279788580Y-179910238D01*
X279788580Y-179910238D02*
X279693342Y-179957857D01*
X279693342Y-179957857D02*
X279455247Y-179957857D01*
X279455247Y-179957857D02*
X279360009Y-179910238D01*
X279360009Y-179910238D02*
X279312390Y-179862619D01*
X279312390Y-179862619D02*
X279264771Y-179767381D01*
X279264771Y-179767381D02*
X279264771Y-179576905D01*
X279264771Y-179576905D02*
X279312390Y-179481667D01*
X279312390Y-179481667D02*
X279360009Y-179434048D01*
X279360009Y-179434048D02*
X279455247Y-179386429D01*
X408846069Y-198219762D02*
X407846069Y-198219762D01*
X407846069Y-198219762D02*
X407846069Y-198457857D01*
X407846069Y-198457857D02*
X407893688Y-198600714D01*
X407893688Y-198600714D02*
X407988926Y-198695952D01*
X407988926Y-198695952D02*
X408084164Y-198743571D01*
X408084164Y-198743571D02*
X408274640Y-198791190D01*
X408274640Y-198791190D02*
X408417497Y-198791190D01*
X408417497Y-198791190D02*
X408607973Y-198743571D01*
X408607973Y-198743571D02*
X408703211Y-198695952D01*
X408703211Y-198695952D02*
X408798450Y-198600714D01*
X408798450Y-198600714D02*
X408846069Y-198457857D01*
X408846069Y-198457857D02*
X408846069Y-198219762D01*
X408941307Y-198981667D02*
X408941307Y-199743571D01*
X408179402Y-200410238D02*
X408846069Y-200410238D01*
X407798450Y-200172143D02*
X408512735Y-199934048D01*
X408512735Y-199934048D02*
X408512735Y-200553095D01*
X408846069Y-200981667D02*
X408846069Y-201172143D01*
X408846069Y-201172143D02*
X408798450Y-201267381D01*
X408798450Y-201267381D02*
X408750830Y-201315000D01*
X408750830Y-201315000D02*
X408607973Y-201410238D01*
X408607973Y-201410238D02*
X408417497Y-201457857D01*
X408417497Y-201457857D02*
X408036545Y-201457857D01*
X408036545Y-201457857D02*
X407941307Y-201410238D01*
X407941307Y-201410238D02*
X407893688Y-201362619D01*
X407893688Y-201362619D02*
X407846069Y-201267381D01*
X407846069Y-201267381D02*
X407846069Y-201076905D01*
X407846069Y-201076905D02*
X407893688Y-200981667D01*
X407893688Y-200981667D02*
X407941307Y-200934048D01*
X407941307Y-200934048D02*
X408036545Y-200886429D01*
X408036545Y-200886429D02*
X408274640Y-200886429D01*
X408274640Y-200886429D02*
X408369878Y-200934048D01*
X408369878Y-200934048D02*
X408417497Y-200981667D01*
X408417497Y-200981667D02*
X408465116Y-201076905D01*
X408465116Y-201076905D02*
X408465116Y-201267381D01*
X408465116Y-201267381D02*
X408417497Y-201362619D01*
X408417497Y-201362619D02*
X408369878Y-201410238D01*
X408369878Y-201410238D02*
X408274640Y-201457857D01*
X112871319Y-236319762D02*
X111871319Y-236319762D01*
X111871319Y-236319762D02*
X111871319Y-236557857D01*
X111871319Y-236557857D02*
X111918938Y-236700714D01*
X111918938Y-236700714D02*
X112014176Y-236795952D01*
X112014176Y-236795952D02*
X112109414Y-236843571D01*
X112109414Y-236843571D02*
X112299890Y-236891190D01*
X112299890Y-236891190D02*
X112442747Y-236891190D01*
X112442747Y-236891190D02*
X112633223Y-236843571D01*
X112633223Y-236843571D02*
X112728461Y-236795952D01*
X112728461Y-236795952D02*
X112823700Y-236700714D01*
X112823700Y-236700714D02*
X112871319Y-236557857D01*
X112871319Y-236557857D02*
X112871319Y-236319762D01*
X112966557Y-237081667D02*
X112966557Y-237843571D01*
X111871319Y-238510238D02*
X111871319Y-238319762D01*
X111871319Y-238319762D02*
X111918938Y-238224524D01*
X111918938Y-238224524D02*
X111966557Y-238176905D01*
X111966557Y-238176905D02*
X112109414Y-238081667D01*
X112109414Y-238081667D02*
X112299890Y-238034048D01*
X112299890Y-238034048D02*
X112680842Y-238034048D01*
X112680842Y-238034048D02*
X112776080Y-238081667D01*
X112776080Y-238081667D02*
X112823700Y-238129286D01*
X112823700Y-238129286D02*
X112871319Y-238224524D01*
X112871319Y-238224524D02*
X112871319Y-238415000D01*
X112871319Y-238415000D02*
X112823700Y-238510238D01*
X112823700Y-238510238D02*
X112776080Y-238557857D01*
X112776080Y-238557857D02*
X112680842Y-238605476D01*
X112680842Y-238605476D02*
X112442747Y-238605476D01*
X112442747Y-238605476D02*
X112347509Y-238557857D01*
X112347509Y-238557857D02*
X112299890Y-238510238D01*
X112299890Y-238510238D02*
X112252271Y-238415000D01*
X112252271Y-238415000D02*
X112252271Y-238224524D01*
X112252271Y-238224524D02*
X112299890Y-238129286D01*
X112299890Y-238129286D02*
X112347509Y-238081667D01*
X112347509Y-238081667D02*
X112442747Y-238034048D01*
X112871319Y-239081667D02*
X112871319Y-239272143D01*
X112871319Y-239272143D02*
X112823700Y-239367381D01*
X112823700Y-239367381D02*
X112776080Y-239415000D01*
X112776080Y-239415000D02*
X112633223Y-239510238D01*
X112633223Y-239510238D02*
X112442747Y-239557857D01*
X112442747Y-239557857D02*
X112061795Y-239557857D01*
X112061795Y-239557857D02*
X111966557Y-239510238D01*
X111966557Y-239510238D02*
X111918938Y-239462619D01*
X111918938Y-239462619D02*
X111871319Y-239367381D01*
X111871319Y-239367381D02*
X111871319Y-239176905D01*
X111871319Y-239176905D02*
X111918938Y-239081667D01*
X111918938Y-239081667D02*
X111966557Y-239034048D01*
X111966557Y-239034048D02*
X112061795Y-238986429D01*
X112061795Y-238986429D02*
X112299890Y-238986429D01*
X112299890Y-238986429D02*
X112395128Y-239034048D01*
X112395128Y-239034048D02*
X112442747Y-239081667D01*
X112442747Y-239081667D02*
X112490366Y-239176905D01*
X112490366Y-239176905D02*
X112490366Y-239367381D01*
X112490366Y-239367381D02*
X112442747Y-239462619D01*
X112442747Y-239462619D02*
X112395128Y-239510238D01*
X112395128Y-239510238D02*
X112299890Y-239557857D01*
X198596319Y-160595952D02*
X197596319Y-160595952D01*
X197596319Y-160595952D02*
X197596319Y-160834047D01*
X197596319Y-160834047D02*
X197643938Y-160976904D01*
X197643938Y-160976904D02*
X197739176Y-161072142D01*
X197739176Y-161072142D02*
X197834414Y-161119761D01*
X197834414Y-161119761D02*
X198024890Y-161167380D01*
X198024890Y-161167380D02*
X198167747Y-161167380D01*
X198167747Y-161167380D02*
X198358223Y-161119761D01*
X198358223Y-161119761D02*
X198453461Y-161072142D01*
X198453461Y-161072142D02*
X198548700Y-160976904D01*
X198548700Y-160976904D02*
X198596319Y-160834047D01*
X198596319Y-160834047D02*
X198596319Y-160595952D01*
X198691557Y-161357857D02*
X198691557Y-162119761D01*
X197929652Y-162786428D02*
X198596319Y-162786428D01*
X197548700Y-162548333D02*
X198262985Y-162310238D01*
X198262985Y-162310238D02*
X198262985Y-162929285D01*
X451708569Y-198219762D02*
X450708569Y-198219762D01*
X450708569Y-198219762D02*
X450708569Y-198457857D01*
X450708569Y-198457857D02*
X450756188Y-198600714D01*
X450756188Y-198600714D02*
X450851426Y-198695952D01*
X450851426Y-198695952D02*
X450946664Y-198743571D01*
X450946664Y-198743571D02*
X451137140Y-198791190D01*
X451137140Y-198791190D02*
X451279997Y-198791190D01*
X451279997Y-198791190D02*
X451470473Y-198743571D01*
X451470473Y-198743571D02*
X451565711Y-198695952D01*
X451565711Y-198695952D02*
X451660950Y-198600714D01*
X451660950Y-198600714D02*
X451708569Y-198457857D01*
X451708569Y-198457857D02*
X451708569Y-198219762D01*
X451803807Y-198981667D02*
X451803807Y-199743571D01*
X450708569Y-200457857D02*
X450708569Y-199981667D01*
X450708569Y-199981667D02*
X451184759Y-199934048D01*
X451184759Y-199934048D02*
X451137140Y-199981667D01*
X451137140Y-199981667D02*
X451089521Y-200076905D01*
X451089521Y-200076905D02*
X451089521Y-200315000D01*
X451089521Y-200315000D02*
X451137140Y-200410238D01*
X451137140Y-200410238D02*
X451184759Y-200457857D01*
X451184759Y-200457857D02*
X451279997Y-200505476D01*
X451279997Y-200505476D02*
X451518092Y-200505476D01*
X451518092Y-200505476D02*
X451613330Y-200457857D01*
X451613330Y-200457857D02*
X451660950Y-200410238D01*
X451660950Y-200410238D02*
X451708569Y-200315000D01*
X451708569Y-200315000D02*
X451708569Y-200076905D01*
X451708569Y-200076905D02*
X451660950Y-199981667D01*
X451660950Y-199981667D02*
X451613330Y-199934048D01*
X450708569Y-201124524D02*
X450708569Y-201219762D01*
X450708569Y-201219762D02*
X450756188Y-201315000D01*
X450756188Y-201315000D02*
X450803807Y-201362619D01*
X450803807Y-201362619D02*
X450899045Y-201410238D01*
X450899045Y-201410238D02*
X451089521Y-201457857D01*
X451089521Y-201457857D02*
X451327616Y-201457857D01*
X451327616Y-201457857D02*
X451518092Y-201410238D01*
X451518092Y-201410238D02*
X451613330Y-201362619D01*
X451613330Y-201362619D02*
X451660950Y-201315000D01*
X451660950Y-201315000D02*
X451708569Y-201219762D01*
X451708569Y-201219762D02*
X451708569Y-201124524D01*
X451708569Y-201124524D02*
X451660950Y-201029286D01*
X451660950Y-201029286D02*
X451613330Y-200981667D01*
X451613330Y-200981667D02*
X451518092Y-200934048D01*
X451518092Y-200934048D02*
X451327616Y-200886429D01*
X451327616Y-200886429D02*
X451089521Y-200886429D01*
X451089521Y-200886429D02*
X450899045Y-200934048D01*
X450899045Y-200934048D02*
X450803807Y-200981667D01*
X450803807Y-200981667D02*
X450756188Y-201029286D01*
X450756188Y-201029286D02*
X450708569Y-201124524D01*
X351696069Y-236319762D02*
X350696069Y-236319762D01*
X350696069Y-236319762D02*
X350696069Y-236557857D01*
X350696069Y-236557857D02*
X350743688Y-236700714D01*
X350743688Y-236700714D02*
X350838926Y-236795952D01*
X350838926Y-236795952D02*
X350934164Y-236843571D01*
X350934164Y-236843571D02*
X351124640Y-236891190D01*
X351124640Y-236891190D02*
X351267497Y-236891190D01*
X351267497Y-236891190D02*
X351457973Y-236843571D01*
X351457973Y-236843571D02*
X351553211Y-236795952D01*
X351553211Y-236795952D02*
X351648450Y-236700714D01*
X351648450Y-236700714D02*
X351696069Y-236557857D01*
X351696069Y-236557857D02*
X351696069Y-236319762D01*
X351791307Y-237081667D02*
X351791307Y-237843571D01*
X350696069Y-237986429D02*
X350696069Y-238653095D01*
X350696069Y-238653095D02*
X351696069Y-238224524D01*
X350696069Y-239510238D02*
X350696069Y-239034048D01*
X350696069Y-239034048D02*
X351172259Y-238986429D01*
X351172259Y-238986429D02*
X351124640Y-239034048D01*
X351124640Y-239034048D02*
X351077021Y-239129286D01*
X351077021Y-239129286D02*
X351077021Y-239367381D01*
X351077021Y-239367381D02*
X351124640Y-239462619D01*
X351124640Y-239462619D02*
X351172259Y-239510238D01*
X351172259Y-239510238D02*
X351267497Y-239557857D01*
X351267497Y-239557857D02*
X351505592Y-239557857D01*
X351505592Y-239557857D02*
X351600830Y-239510238D01*
X351600830Y-239510238D02*
X351648450Y-239462619D01*
X351648450Y-239462619D02*
X351696069Y-239367381D01*
X351696069Y-239367381D02*
X351696069Y-239129286D01*
X351696069Y-239129286D02*
X351648450Y-239034048D01*
X351648450Y-239034048D02*
X351600830Y-238986429D01*
X189071319Y-236319762D02*
X188071319Y-236319762D01*
X188071319Y-236319762D02*
X188071319Y-236557857D01*
X188071319Y-236557857D02*
X188118938Y-236700714D01*
X188118938Y-236700714D02*
X188214176Y-236795952D01*
X188214176Y-236795952D02*
X188309414Y-236843571D01*
X188309414Y-236843571D02*
X188499890Y-236891190D01*
X188499890Y-236891190D02*
X188642747Y-236891190D01*
X188642747Y-236891190D02*
X188833223Y-236843571D01*
X188833223Y-236843571D02*
X188928461Y-236795952D01*
X188928461Y-236795952D02*
X189023700Y-236700714D01*
X189023700Y-236700714D02*
X189071319Y-236557857D01*
X189071319Y-236557857D02*
X189071319Y-236319762D01*
X189166557Y-237081667D02*
X189166557Y-237843571D01*
X188071319Y-237986429D02*
X188071319Y-238653095D01*
X188071319Y-238653095D02*
X189071319Y-238224524D01*
X188166557Y-238986429D02*
X188118938Y-239034048D01*
X188118938Y-239034048D02*
X188071319Y-239129286D01*
X188071319Y-239129286D02*
X188071319Y-239367381D01*
X188071319Y-239367381D02*
X188118938Y-239462619D01*
X188118938Y-239462619D02*
X188166557Y-239510238D01*
X188166557Y-239510238D02*
X188261795Y-239557857D01*
X188261795Y-239557857D02*
X188357033Y-239557857D01*
X188357033Y-239557857D02*
X188499890Y-239510238D01*
X188499890Y-239510238D02*
X189071319Y-238938810D01*
X189071319Y-238938810D02*
X189071319Y-239557857D01*
X236696319Y-160595952D02*
X235696319Y-160595952D01*
X235696319Y-160595952D02*
X235696319Y-160834047D01*
X235696319Y-160834047D02*
X235743938Y-160976904D01*
X235743938Y-160976904D02*
X235839176Y-161072142D01*
X235839176Y-161072142D02*
X235934414Y-161119761D01*
X235934414Y-161119761D02*
X236124890Y-161167380D01*
X236124890Y-161167380D02*
X236267747Y-161167380D01*
X236267747Y-161167380D02*
X236458223Y-161119761D01*
X236458223Y-161119761D02*
X236553461Y-161072142D01*
X236553461Y-161072142D02*
X236648700Y-160976904D01*
X236648700Y-160976904D02*
X236696319Y-160834047D01*
X236696319Y-160834047D02*
X236696319Y-160595952D01*
X236791557Y-161357857D02*
X236791557Y-162119761D01*
X235696319Y-162786428D02*
X235696319Y-162595952D01*
X235696319Y-162595952D02*
X235743938Y-162500714D01*
X235743938Y-162500714D02*
X235791557Y-162453095D01*
X235791557Y-162453095D02*
X235934414Y-162357857D01*
X235934414Y-162357857D02*
X236124890Y-162310238D01*
X236124890Y-162310238D02*
X236505842Y-162310238D01*
X236505842Y-162310238D02*
X236601080Y-162357857D01*
X236601080Y-162357857D02*
X236648700Y-162405476D01*
X236648700Y-162405476D02*
X236696319Y-162500714D01*
X236696319Y-162500714D02*
X236696319Y-162691190D01*
X236696319Y-162691190D02*
X236648700Y-162786428D01*
X236648700Y-162786428D02*
X236601080Y-162834047D01*
X236601080Y-162834047D02*
X236505842Y-162881666D01*
X236505842Y-162881666D02*
X236267747Y-162881666D01*
X236267747Y-162881666D02*
X236172509Y-162834047D01*
X236172509Y-162834047D02*
X236124890Y-162786428D01*
X236124890Y-162786428D02*
X236077271Y-162691190D01*
X236077271Y-162691190D02*
X236077271Y-162500714D01*
X236077271Y-162500714D02*
X236124890Y-162405476D01*
X236124890Y-162405476D02*
X236172509Y-162357857D01*
X236172509Y-162357857D02*
X236267747Y-162310238D01*
X246221319Y-179169762D02*
X245221319Y-179169762D01*
X245221319Y-179169762D02*
X245221319Y-179407857D01*
X245221319Y-179407857D02*
X245268938Y-179550714D01*
X245268938Y-179550714D02*
X245364176Y-179645952D01*
X245364176Y-179645952D02*
X245459414Y-179693571D01*
X245459414Y-179693571D02*
X245649890Y-179741190D01*
X245649890Y-179741190D02*
X245792747Y-179741190D01*
X245792747Y-179741190D02*
X245983223Y-179693571D01*
X245983223Y-179693571D02*
X246078461Y-179645952D01*
X246078461Y-179645952D02*
X246173700Y-179550714D01*
X246173700Y-179550714D02*
X246221319Y-179407857D01*
X246221319Y-179407857D02*
X246221319Y-179169762D01*
X246316557Y-179931667D02*
X246316557Y-180693571D01*
X245316557Y-180884048D02*
X245268938Y-180931667D01*
X245268938Y-180931667D02*
X245221319Y-181026905D01*
X245221319Y-181026905D02*
X245221319Y-181265000D01*
X245221319Y-181265000D02*
X245268938Y-181360238D01*
X245268938Y-181360238D02*
X245316557Y-181407857D01*
X245316557Y-181407857D02*
X245411795Y-181455476D01*
X245411795Y-181455476D02*
X245507033Y-181455476D01*
X245507033Y-181455476D02*
X245649890Y-181407857D01*
X245649890Y-181407857D02*
X246221319Y-180836429D01*
X246221319Y-180836429D02*
X246221319Y-181455476D01*
X245554652Y-182312619D02*
X246221319Y-182312619D01*
X245173700Y-182074524D02*
X245887985Y-181836429D01*
X245887985Y-181836429D02*
X245887985Y-182455476D01*
X212883819Y-236319762D02*
X211883819Y-236319762D01*
X211883819Y-236319762D02*
X211883819Y-236557857D01*
X211883819Y-236557857D02*
X211931438Y-236700714D01*
X211931438Y-236700714D02*
X212026676Y-236795952D01*
X212026676Y-236795952D02*
X212121914Y-236843571D01*
X212121914Y-236843571D02*
X212312390Y-236891190D01*
X212312390Y-236891190D02*
X212455247Y-236891190D01*
X212455247Y-236891190D02*
X212645723Y-236843571D01*
X212645723Y-236843571D02*
X212740961Y-236795952D01*
X212740961Y-236795952D02*
X212836200Y-236700714D01*
X212836200Y-236700714D02*
X212883819Y-236557857D01*
X212883819Y-236557857D02*
X212883819Y-236319762D01*
X212979057Y-237081667D02*
X212979057Y-237843571D01*
X211883819Y-237986429D02*
X211883819Y-238653095D01*
X211883819Y-238653095D02*
X212883819Y-238224524D01*
X211883819Y-238938810D02*
X211883819Y-239557857D01*
X211883819Y-239557857D02*
X212264771Y-239224524D01*
X212264771Y-239224524D02*
X212264771Y-239367381D01*
X212264771Y-239367381D02*
X212312390Y-239462619D01*
X212312390Y-239462619D02*
X212360009Y-239510238D01*
X212360009Y-239510238D02*
X212455247Y-239557857D01*
X212455247Y-239557857D02*
X212693342Y-239557857D01*
X212693342Y-239557857D02*
X212788580Y-239510238D01*
X212788580Y-239510238D02*
X212836200Y-239462619D01*
X212836200Y-239462619D02*
X212883819Y-239367381D01*
X212883819Y-239367381D02*
X212883819Y-239081667D01*
X212883819Y-239081667D02*
X212836200Y-238986429D01*
X212836200Y-238986429D02*
X212788580Y-238938810D01*
X480733819Y-160319762D02*
X479733819Y-160319762D01*
X479733819Y-160319762D02*
X479733819Y-160557857D01*
X479733819Y-160557857D02*
X479781438Y-160700714D01*
X479781438Y-160700714D02*
X479876676Y-160795952D01*
X479876676Y-160795952D02*
X479971914Y-160843571D01*
X479971914Y-160843571D02*
X480162390Y-160891190D01*
X480162390Y-160891190D02*
X480305247Y-160891190D01*
X480305247Y-160891190D02*
X480495723Y-160843571D01*
X480495723Y-160843571D02*
X480590961Y-160795952D01*
X480590961Y-160795952D02*
X480686200Y-160700714D01*
X480686200Y-160700714D02*
X480733819Y-160557857D01*
X480733819Y-160557857D02*
X480733819Y-160319762D01*
X480829057Y-161081667D02*
X480829057Y-161843571D01*
X480733819Y-162605476D02*
X480733819Y-162034048D01*
X480733819Y-162319762D02*
X479733819Y-162319762D01*
X479733819Y-162319762D02*
X479876676Y-162224524D01*
X479876676Y-162224524D02*
X479971914Y-162129286D01*
X479971914Y-162129286D02*
X480019533Y-162034048D01*
X479733819Y-163462619D02*
X479733819Y-163272143D01*
X479733819Y-163272143D02*
X479781438Y-163176905D01*
X479781438Y-163176905D02*
X479829057Y-163129286D01*
X479829057Y-163129286D02*
X479971914Y-163034048D01*
X479971914Y-163034048D02*
X480162390Y-162986429D01*
X480162390Y-162986429D02*
X480543342Y-162986429D01*
X480543342Y-162986429D02*
X480638580Y-163034048D01*
X480638580Y-163034048D02*
X480686200Y-163081667D01*
X480686200Y-163081667D02*
X480733819Y-163176905D01*
X480733819Y-163176905D02*
X480733819Y-163367381D01*
X480733819Y-163367381D02*
X480686200Y-163462619D01*
X480686200Y-163462619D02*
X480638580Y-163510238D01*
X480638580Y-163510238D02*
X480543342Y-163557857D01*
X480543342Y-163557857D02*
X480305247Y-163557857D01*
X480305247Y-163557857D02*
X480210009Y-163510238D01*
X480210009Y-163510238D02*
X480162390Y-163462619D01*
X480162390Y-163462619D02*
X480114771Y-163367381D01*
X480114771Y-163367381D02*
X480114771Y-163176905D01*
X480114771Y-163176905D02*
X480162390Y-163081667D01*
X480162390Y-163081667D02*
X480210009Y-163034048D01*
X480210009Y-163034048D02*
X480305247Y-162986429D01*
X170021319Y-179169762D02*
X169021319Y-179169762D01*
X169021319Y-179169762D02*
X169021319Y-179407857D01*
X169021319Y-179407857D02*
X169068938Y-179550714D01*
X169068938Y-179550714D02*
X169164176Y-179645952D01*
X169164176Y-179645952D02*
X169259414Y-179693571D01*
X169259414Y-179693571D02*
X169449890Y-179741190D01*
X169449890Y-179741190D02*
X169592747Y-179741190D01*
X169592747Y-179741190D02*
X169783223Y-179693571D01*
X169783223Y-179693571D02*
X169878461Y-179645952D01*
X169878461Y-179645952D02*
X169973700Y-179550714D01*
X169973700Y-179550714D02*
X170021319Y-179407857D01*
X170021319Y-179407857D02*
X170021319Y-179169762D01*
X170116557Y-179931667D02*
X170116557Y-180693571D01*
X169116557Y-180884048D02*
X169068938Y-180931667D01*
X169068938Y-180931667D02*
X169021319Y-181026905D01*
X169021319Y-181026905D02*
X169021319Y-181265000D01*
X169021319Y-181265000D02*
X169068938Y-181360238D01*
X169068938Y-181360238D02*
X169116557Y-181407857D01*
X169116557Y-181407857D02*
X169211795Y-181455476D01*
X169211795Y-181455476D02*
X169307033Y-181455476D01*
X169307033Y-181455476D02*
X169449890Y-181407857D01*
X169449890Y-181407857D02*
X170021319Y-180836429D01*
X170021319Y-180836429D02*
X170021319Y-181455476D01*
X169021319Y-182074524D02*
X169021319Y-182169762D01*
X169021319Y-182169762D02*
X169068938Y-182265000D01*
X169068938Y-182265000D02*
X169116557Y-182312619D01*
X169116557Y-182312619D02*
X169211795Y-182360238D01*
X169211795Y-182360238D02*
X169402271Y-182407857D01*
X169402271Y-182407857D02*
X169640366Y-182407857D01*
X169640366Y-182407857D02*
X169830842Y-182360238D01*
X169830842Y-182360238D02*
X169926080Y-182312619D01*
X169926080Y-182312619D02*
X169973700Y-182265000D01*
X169973700Y-182265000D02*
X170021319Y-182169762D01*
X170021319Y-182169762D02*
X170021319Y-182074524D01*
X170021319Y-182074524D02*
X169973700Y-181979286D01*
X169973700Y-181979286D02*
X169926080Y-181931667D01*
X169926080Y-181931667D02*
X169830842Y-181884048D01*
X169830842Y-181884048D02*
X169640366Y-181836429D01*
X169640366Y-181836429D02*
X169402271Y-181836429D01*
X169402271Y-181836429D02*
X169211795Y-181884048D01*
X169211795Y-181884048D02*
X169116557Y-181931667D01*
X169116557Y-181931667D02*
X169068938Y-181979286D01*
X169068938Y-181979286D02*
X169021319Y-182074524D01*
X380271069Y-217269762D02*
X379271069Y-217269762D01*
X379271069Y-217269762D02*
X379271069Y-217507857D01*
X379271069Y-217507857D02*
X379318688Y-217650714D01*
X379318688Y-217650714D02*
X379413926Y-217745952D01*
X379413926Y-217745952D02*
X379509164Y-217793571D01*
X379509164Y-217793571D02*
X379699640Y-217841190D01*
X379699640Y-217841190D02*
X379842497Y-217841190D01*
X379842497Y-217841190D02*
X380032973Y-217793571D01*
X380032973Y-217793571D02*
X380128211Y-217745952D01*
X380128211Y-217745952D02*
X380223450Y-217650714D01*
X380223450Y-217650714D02*
X380271069Y-217507857D01*
X380271069Y-217507857D02*
X380271069Y-217269762D01*
X380366307Y-218031667D02*
X380366307Y-218793571D01*
X379271069Y-219460238D02*
X379271069Y-219269762D01*
X379271069Y-219269762D02*
X379318688Y-219174524D01*
X379318688Y-219174524D02*
X379366307Y-219126905D01*
X379366307Y-219126905D02*
X379509164Y-219031667D01*
X379509164Y-219031667D02*
X379699640Y-218984048D01*
X379699640Y-218984048D02*
X380080592Y-218984048D01*
X380080592Y-218984048D02*
X380175830Y-219031667D01*
X380175830Y-219031667D02*
X380223450Y-219079286D01*
X380223450Y-219079286D02*
X380271069Y-219174524D01*
X380271069Y-219174524D02*
X380271069Y-219365000D01*
X380271069Y-219365000D02*
X380223450Y-219460238D01*
X380223450Y-219460238D02*
X380175830Y-219507857D01*
X380175830Y-219507857D02*
X380080592Y-219555476D01*
X380080592Y-219555476D02*
X379842497Y-219555476D01*
X379842497Y-219555476D02*
X379747259Y-219507857D01*
X379747259Y-219507857D02*
X379699640Y-219460238D01*
X379699640Y-219460238D02*
X379652021Y-219365000D01*
X379652021Y-219365000D02*
X379652021Y-219174524D01*
X379652021Y-219174524D02*
X379699640Y-219079286D01*
X379699640Y-219079286D02*
X379747259Y-219031667D01*
X379747259Y-219031667D02*
X379842497Y-218984048D01*
X379604402Y-220412619D02*
X380271069Y-220412619D01*
X379223450Y-220174524D02*
X379937735Y-219936429D01*
X379937735Y-219936429D02*
X379937735Y-220555476D01*
X342171069Y-217269762D02*
X341171069Y-217269762D01*
X341171069Y-217269762D02*
X341171069Y-217507857D01*
X341171069Y-217507857D02*
X341218688Y-217650714D01*
X341218688Y-217650714D02*
X341313926Y-217745952D01*
X341313926Y-217745952D02*
X341409164Y-217793571D01*
X341409164Y-217793571D02*
X341599640Y-217841190D01*
X341599640Y-217841190D02*
X341742497Y-217841190D01*
X341742497Y-217841190D02*
X341932973Y-217793571D01*
X341932973Y-217793571D02*
X342028211Y-217745952D01*
X342028211Y-217745952D02*
X342123450Y-217650714D01*
X342123450Y-217650714D02*
X342171069Y-217507857D01*
X342171069Y-217507857D02*
X342171069Y-217269762D01*
X342266307Y-218031667D02*
X342266307Y-218793571D01*
X341171069Y-219460238D02*
X341171069Y-219269762D01*
X341171069Y-219269762D02*
X341218688Y-219174524D01*
X341218688Y-219174524D02*
X341266307Y-219126905D01*
X341266307Y-219126905D02*
X341409164Y-219031667D01*
X341409164Y-219031667D02*
X341599640Y-218984048D01*
X341599640Y-218984048D02*
X341980592Y-218984048D01*
X341980592Y-218984048D02*
X342075830Y-219031667D01*
X342075830Y-219031667D02*
X342123450Y-219079286D01*
X342123450Y-219079286D02*
X342171069Y-219174524D01*
X342171069Y-219174524D02*
X342171069Y-219365000D01*
X342171069Y-219365000D02*
X342123450Y-219460238D01*
X342123450Y-219460238D02*
X342075830Y-219507857D01*
X342075830Y-219507857D02*
X341980592Y-219555476D01*
X341980592Y-219555476D02*
X341742497Y-219555476D01*
X341742497Y-219555476D02*
X341647259Y-219507857D01*
X341647259Y-219507857D02*
X341599640Y-219460238D01*
X341599640Y-219460238D02*
X341552021Y-219365000D01*
X341552021Y-219365000D02*
X341552021Y-219174524D01*
X341552021Y-219174524D02*
X341599640Y-219079286D01*
X341599640Y-219079286D02*
X341647259Y-219031667D01*
X341647259Y-219031667D02*
X341742497Y-218984048D01*
X341266307Y-219936429D02*
X341218688Y-219984048D01*
X341218688Y-219984048D02*
X341171069Y-220079286D01*
X341171069Y-220079286D02*
X341171069Y-220317381D01*
X341171069Y-220317381D02*
X341218688Y-220412619D01*
X341218688Y-220412619D02*
X341266307Y-220460238D01*
X341266307Y-220460238D02*
X341361545Y-220507857D01*
X341361545Y-220507857D02*
X341456783Y-220507857D01*
X341456783Y-220507857D02*
X341599640Y-220460238D01*
X341599640Y-220460238D02*
X342171069Y-219888810D01*
X342171069Y-219888810D02*
X342171069Y-220507857D01*
X127158819Y-179169762D02*
X126158819Y-179169762D01*
X126158819Y-179169762D02*
X126158819Y-179407857D01*
X126158819Y-179407857D02*
X126206438Y-179550714D01*
X126206438Y-179550714D02*
X126301676Y-179645952D01*
X126301676Y-179645952D02*
X126396914Y-179693571D01*
X126396914Y-179693571D02*
X126587390Y-179741190D01*
X126587390Y-179741190D02*
X126730247Y-179741190D01*
X126730247Y-179741190D02*
X126920723Y-179693571D01*
X126920723Y-179693571D02*
X127015961Y-179645952D01*
X127015961Y-179645952D02*
X127111200Y-179550714D01*
X127111200Y-179550714D02*
X127158819Y-179407857D01*
X127158819Y-179407857D02*
X127158819Y-179169762D01*
X127254057Y-179931667D02*
X127254057Y-180693571D01*
X127158819Y-181455476D02*
X127158819Y-180884048D01*
X127158819Y-181169762D02*
X126158819Y-181169762D01*
X126158819Y-181169762D02*
X126301676Y-181074524D01*
X126301676Y-181074524D02*
X126396914Y-180979286D01*
X126396914Y-180979286D02*
X126444533Y-180884048D01*
X127158819Y-181931667D02*
X127158819Y-182122143D01*
X127158819Y-182122143D02*
X127111200Y-182217381D01*
X127111200Y-182217381D02*
X127063580Y-182265000D01*
X127063580Y-182265000D02*
X126920723Y-182360238D01*
X126920723Y-182360238D02*
X126730247Y-182407857D01*
X126730247Y-182407857D02*
X126349295Y-182407857D01*
X126349295Y-182407857D02*
X126254057Y-182360238D01*
X126254057Y-182360238D02*
X126206438Y-182312619D01*
X126206438Y-182312619D02*
X126158819Y-182217381D01*
X126158819Y-182217381D02*
X126158819Y-182026905D01*
X126158819Y-182026905D02*
X126206438Y-181931667D01*
X126206438Y-181931667D02*
X126254057Y-181884048D01*
X126254057Y-181884048D02*
X126349295Y-181836429D01*
X126349295Y-181836429D02*
X126587390Y-181836429D01*
X126587390Y-181836429D02*
X126682628Y-181884048D01*
X126682628Y-181884048D02*
X126730247Y-181931667D01*
X126730247Y-181931667D02*
X126777866Y-182026905D01*
X126777866Y-182026905D02*
X126777866Y-182217381D01*
X126777866Y-182217381D02*
X126730247Y-182312619D01*
X126730247Y-182312619D02*
X126682628Y-182360238D01*
X126682628Y-182360238D02*
X126587390Y-182407857D01*
X174783819Y-198219762D02*
X173783819Y-198219762D01*
X173783819Y-198219762D02*
X173783819Y-198457857D01*
X173783819Y-198457857D02*
X173831438Y-198600714D01*
X173831438Y-198600714D02*
X173926676Y-198695952D01*
X173926676Y-198695952D02*
X174021914Y-198743571D01*
X174021914Y-198743571D02*
X174212390Y-198791190D01*
X174212390Y-198791190D02*
X174355247Y-198791190D01*
X174355247Y-198791190D02*
X174545723Y-198743571D01*
X174545723Y-198743571D02*
X174640961Y-198695952D01*
X174640961Y-198695952D02*
X174736200Y-198600714D01*
X174736200Y-198600714D02*
X174783819Y-198457857D01*
X174783819Y-198457857D02*
X174783819Y-198219762D01*
X174879057Y-198981667D02*
X174879057Y-199743571D01*
X173783819Y-199886429D02*
X173783819Y-200505476D01*
X173783819Y-200505476D02*
X174164771Y-200172143D01*
X174164771Y-200172143D02*
X174164771Y-200315000D01*
X174164771Y-200315000D02*
X174212390Y-200410238D01*
X174212390Y-200410238D02*
X174260009Y-200457857D01*
X174260009Y-200457857D02*
X174355247Y-200505476D01*
X174355247Y-200505476D02*
X174593342Y-200505476D01*
X174593342Y-200505476D02*
X174688580Y-200457857D01*
X174688580Y-200457857D02*
X174736200Y-200410238D01*
X174736200Y-200410238D02*
X174783819Y-200315000D01*
X174783819Y-200315000D02*
X174783819Y-200029286D01*
X174783819Y-200029286D02*
X174736200Y-199934048D01*
X174736200Y-199934048D02*
X174688580Y-199886429D01*
X174212390Y-201076905D02*
X174164771Y-200981667D01*
X174164771Y-200981667D02*
X174117152Y-200934048D01*
X174117152Y-200934048D02*
X174021914Y-200886429D01*
X174021914Y-200886429D02*
X173974295Y-200886429D01*
X173974295Y-200886429D02*
X173879057Y-200934048D01*
X173879057Y-200934048D02*
X173831438Y-200981667D01*
X173831438Y-200981667D02*
X173783819Y-201076905D01*
X173783819Y-201076905D02*
X173783819Y-201267381D01*
X173783819Y-201267381D02*
X173831438Y-201362619D01*
X173831438Y-201362619D02*
X173879057Y-201410238D01*
X173879057Y-201410238D02*
X173974295Y-201457857D01*
X173974295Y-201457857D02*
X174021914Y-201457857D01*
X174021914Y-201457857D02*
X174117152Y-201410238D01*
X174117152Y-201410238D02*
X174164771Y-201362619D01*
X174164771Y-201362619D02*
X174212390Y-201267381D01*
X174212390Y-201267381D02*
X174212390Y-201076905D01*
X174212390Y-201076905D02*
X174260009Y-200981667D01*
X174260009Y-200981667D02*
X174307628Y-200934048D01*
X174307628Y-200934048D02*
X174402866Y-200886429D01*
X174402866Y-200886429D02*
X174593342Y-200886429D01*
X174593342Y-200886429D02*
X174688580Y-200934048D01*
X174688580Y-200934048D02*
X174736200Y-200981667D01*
X174736200Y-200981667D02*
X174783819Y-201076905D01*
X174783819Y-201076905D02*
X174783819Y-201267381D01*
X174783819Y-201267381D02*
X174736200Y-201362619D01*
X174736200Y-201362619D02*
X174688580Y-201410238D01*
X174688580Y-201410238D02*
X174593342Y-201457857D01*
X174593342Y-201457857D02*
X174402866Y-201457857D01*
X174402866Y-201457857D02*
X174307628Y-201410238D01*
X174307628Y-201410238D02*
X174260009Y-201362619D01*
X174260009Y-201362619D02*
X174212390Y-201267381D01*
X260508819Y-217269762D02*
X259508819Y-217269762D01*
X259508819Y-217269762D02*
X259508819Y-217507857D01*
X259508819Y-217507857D02*
X259556438Y-217650714D01*
X259556438Y-217650714D02*
X259651676Y-217745952D01*
X259651676Y-217745952D02*
X259746914Y-217793571D01*
X259746914Y-217793571D02*
X259937390Y-217841190D01*
X259937390Y-217841190D02*
X260080247Y-217841190D01*
X260080247Y-217841190D02*
X260270723Y-217793571D01*
X260270723Y-217793571D02*
X260365961Y-217745952D01*
X260365961Y-217745952D02*
X260461200Y-217650714D01*
X260461200Y-217650714D02*
X260508819Y-217507857D01*
X260508819Y-217507857D02*
X260508819Y-217269762D01*
X260604057Y-218031667D02*
X260604057Y-218793571D01*
X259508819Y-219507857D02*
X259508819Y-219031667D01*
X259508819Y-219031667D02*
X259985009Y-218984048D01*
X259985009Y-218984048D02*
X259937390Y-219031667D01*
X259937390Y-219031667D02*
X259889771Y-219126905D01*
X259889771Y-219126905D02*
X259889771Y-219365000D01*
X259889771Y-219365000D02*
X259937390Y-219460238D01*
X259937390Y-219460238D02*
X259985009Y-219507857D01*
X259985009Y-219507857D02*
X260080247Y-219555476D01*
X260080247Y-219555476D02*
X260318342Y-219555476D01*
X260318342Y-219555476D02*
X260413580Y-219507857D01*
X260413580Y-219507857D02*
X260461200Y-219460238D01*
X260461200Y-219460238D02*
X260508819Y-219365000D01*
X260508819Y-219365000D02*
X260508819Y-219126905D01*
X260508819Y-219126905D02*
X260461200Y-219031667D01*
X260461200Y-219031667D02*
X260413580Y-218984048D01*
X260508819Y-220031667D02*
X260508819Y-220222143D01*
X260508819Y-220222143D02*
X260461200Y-220317381D01*
X260461200Y-220317381D02*
X260413580Y-220365000D01*
X260413580Y-220365000D02*
X260270723Y-220460238D01*
X260270723Y-220460238D02*
X260080247Y-220507857D01*
X260080247Y-220507857D02*
X259699295Y-220507857D01*
X259699295Y-220507857D02*
X259604057Y-220460238D01*
X259604057Y-220460238D02*
X259556438Y-220412619D01*
X259556438Y-220412619D02*
X259508819Y-220317381D01*
X259508819Y-220317381D02*
X259508819Y-220126905D01*
X259508819Y-220126905D02*
X259556438Y-220031667D01*
X259556438Y-220031667D02*
X259604057Y-219984048D01*
X259604057Y-219984048D02*
X259699295Y-219936429D01*
X259699295Y-219936429D02*
X259937390Y-219936429D01*
X259937390Y-219936429D02*
X260032628Y-219984048D01*
X260032628Y-219984048D02*
X260080247Y-220031667D01*
X260080247Y-220031667D02*
X260127866Y-220126905D01*
X260127866Y-220126905D02*
X260127866Y-220317381D01*
X260127866Y-220317381D02*
X260080247Y-220412619D01*
X260080247Y-220412619D02*
X260032628Y-220460238D01*
X260032628Y-220460238D02*
X259937390Y-220507857D01*
X399321069Y-217269762D02*
X398321069Y-217269762D01*
X398321069Y-217269762D02*
X398321069Y-217507857D01*
X398321069Y-217507857D02*
X398368688Y-217650714D01*
X398368688Y-217650714D02*
X398463926Y-217745952D01*
X398463926Y-217745952D02*
X398559164Y-217793571D01*
X398559164Y-217793571D02*
X398749640Y-217841190D01*
X398749640Y-217841190D02*
X398892497Y-217841190D01*
X398892497Y-217841190D02*
X399082973Y-217793571D01*
X399082973Y-217793571D02*
X399178211Y-217745952D01*
X399178211Y-217745952D02*
X399273450Y-217650714D01*
X399273450Y-217650714D02*
X399321069Y-217507857D01*
X399321069Y-217507857D02*
X399321069Y-217269762D01*
X399416307Y-218031667D02*
X399416307Y-218793571D01*
X398321069Y-219460238D02*
X398321069Y-219269762D01*
X398321069Y-219269762D02*
X398368688Y-219174524D01*
X398368688Y-219174524D02*
X398416307Y-219126905D01*
X398416307Y-219126905D02*
X398559164Y-219031667D01*
X398559164Y-219031667D02*
X398749640Y-218984048D01*
X398749640Y-218984048D02*
X399130592Y-218984048D01*
X399130592Y-218984048D02*
X399225830Y-219031667D01*
X399225830Y-219031667D02*
X399273450Y-219079286D01*
X399273450Y-219079286D02*
X399321069Y-219174524D01*
X399321069Y-219174524D02*
X399321069Y-219365000D01*
X399321069Y-219365000D02*
X399273450Y-219460238D01*
X399273450Y-219460238D02*
X399225830Y-219507857D01*
X399225830Y-219507857D02*
X399130592Y-219555476D01*
X399130592Y-219555476D02*
X398892497Y-219555476D01*
X398892497Y-219555476D02*
X398797259Y-219507857D01*
X398797259Y-219507857D02*
X398749640Y-219460238D01*
X398749640Y-219460238D02*
X398702021Y-219365000D01*
X398702021Y-219365000D02*
X398702021Y-219174524D01*
X398702021Y-219174524D02*
X398749640Y-219079286D01*
X398749640Y-219079286D02*
X398797259Y-219031667D01*
X398797259Y-219031667D02*
X398892497Y-218984048D01*
X398321069Y-220460238D02*
X398321069Y-219984048D01*
X398321069Y-219984048D02*
X398797259Y-219936429D01*
X398797259Y-219936429D02*
X398749640Y-219984048D01*
X398749640Y-219984048D02*
X398702021Y-220079286D01*
X398702021Y-220079286D02*
X398702021Y-220317381D01*
X398702021Y-220317381D02*
X398749640Y-220412619D01*
X398749640Y-220412619D02*
X398797259Y-220460238D01*
X398797259Y-220460238D02*
X398892497Y-220507857D01*
X398892497Y-220507857D02*
X399130592Y-220507857D01*
X399130592Y-220507857D02*
X399225830Y-220460238D01*
X399225830Y-220460238D02*
X399273450Y-220412619D01*
X399273450Y-220412619D02*
X399321069Y-220317381D01*
X399321069Y-220317381D02*
X399321069Y-220079286D01*
X399321069Y-220079286D02*
X399273450Y-219984048D01*
X399273450Y-219984048D02*
X399225830Y-219936429D01*
X270383819Y-158695952D02*
X269383819Y-158695952D01*
X269383819Y-158695952D02*
X269383819Y-158934047D01*
X269383819Y-158934047D02*
X269431438Y-159076904D01*
X269431438Y-159076904D02*
X269526676Y-159172142D01*
X269526676Y-159172142D02*
X269621914Y-159219761D01*
X269621914Y-159219761D02*
X269812390Y-159267380D01*
X269812390Y-159267380D02*
X269955247Y-159267380D01*
X269955247Y-159267380D02*
X270145723Y-159219761D01*
X270145723Y-159219761D02*
X270240961Y-159172142D01*
X270240961Y-159172142D02*
X270336200Y-159076904D01*
X270336200Y-159076904D02*
X270383819Y-158934047D01*
X270383819Y-158934047D02*
X270383819Y-158695952D01*
X270479057Y-159457857D02*
X270479057Y-160219761D01*
X269812390Y-160600714D02*
X269764771Y-160505476D01*
X269764771Y-160505476D02*
X269717152Y-160457857D01*
X269717152Y-160457857D02*
X269621914Y-160410238D01*
X269621914Y-160410238D02*
X269574295Y-160410238D01*
X269574295Y-160410238D02*
X269479057Y-160457857D01*
X269479057Y-160457857D02*
X269431438Y-160505476D01*
X269431438Y-160505476D02*
X269383819Y-160600714D01*
X269383819Y-160600714D02*
X269383819Y-160791190D01*
X269383819Y-160791190D02*
X269431438Y-160886428D01*
X269431438Y-160886428D02*
X269479057Y-160934047D01*
X269479057Y-160934047D02*
X269574295Y-160981666D01*
X269574295Y-160981666D02*
X269621914Y-160981666D01*
X269621914Y-160981666D02*
X269717152Y-160934047D01*
X269717152Y-160934047D02*
X269764771Y-160886428D01*
X269764771Y-160886428D02*
X269812390Y-160791190D01*
X269812390Y-160791190D02*
X269812390Y-160600714D01*
X269812390Y-160600714D02*
X269860009Y-160505476D01*
X269860009Y-160505476D02*
X269907628Y-160457857D01*
X269907628Y-160457857D02*
X270002866Y-160410238D01*
X270002866Y-160410238D02*
X270193342Y-160410238D01*
X270193342Y-160410238D02*
X270288580Y-160457857D01*
X270288580Y-160457857D02*
X270336200Y-160505476D01*
X270336200Y-160505476D02*
X270383819Y-160600714D01*
X270383819Y-160600714D02*
X270383819Y-160791190D01*
X270383819Y-160791190D02*
X270336200Y-160886428D01*
X270336200Y-160886428D02*
X270288580Y-160934047D01*
X270288580Y-160934047D02*
X270193342Y-160981666D01*
X270193342Y-160981666D02*
X270002866Y-160981666D01*
X270002866Y-160981666D02*
X269907628Y-160934047D01*
X269907628Y-160934047D02*
X269860009Y-160886428D01*
X269860009Y-160886428D02*
X269812390Y-160791190D01*
X231933819Y-198219762D02*
X230933819Y-198219762D01*
X230933819Y-198219762D02*
X230933819Y-198457857D01*
X230933819Y-198457857D02*
X230981438Y-198600714D01*
X230981438Y-198600714D02*
X231076676Y-198695952D01*
X231076676Y-198695952D02*
X231171914Y-198743571D01*
X231171914Y-198743571D02*
X231362390Y-198791190D01*
X231362390Y-198791190D02*
X231505247Y-198791190D01*
X231505247Y-198791190D02*
X231695723Y-198743571D01*
X231695723Y-198743571D02*
X231790961Y-198695952D01*
X231790961Y-198695952D02*
X231886200Y-198600714D01*
X231886200Y-198600714D02*
X231933819Y-198457857D01*
X231933819Y-198457857D02*
X231933819Y-198219762D01*
X232029057Y-198981667D02*
X232029057Y-199743571D01*
X231267152Y-200410238D02*
X231933819Y-200410238D01*
X230886200Y-200172143D02*
X231600485Y-199934048D01*
X231600485Y-199934048D02*
X231600485Y-200553095D01*
X231933819Y-201457857D02*
X231933819Y-200886429D01*
X231933819Y-201172143D02*
X230933819Y-201172143D01*
X230933819Y-201172143D02*
X231076676Y-201076905D01*
X231076676Y-201076905D02*
X231171914Y-200981667D01*
X231171914Y-200981667D02*
X231219533Y-200886429D01*
X499521569Y-160319762D02*
X498521569Y-160319762D01*
X498521569Y-160319762D02*
X498521569Y-160557857D01*
X498521569Y-160557857D02*
X498569188Y-160700714D01*
X498569188Y-160700714D02*
X498664426Y-160795952D01*
X498664426Y-160795952D02*
X498759664Y-160843571D01*
X498759664Y-160843571D02*
X498950140Y-160891190D01*
X498950140Y-160891190D02*
X499092997Y-160891190D01*
X499092997Y-160891190D02*
X499283473Y-160843571D01*
X499283473Y-160843571D02*
X499378711Y-160795952D01*
X499378711Y-160795952D02*
X499473950Y-160700714D01*
X499473950Y-160700714D02*
X499521569Y-160557857D01*
X499521569Y-160557857D02*
X499521569Y-160319762D01*
X499616807Y-161081667D02*
X499616807Y-161843571D01*
X499521569Y-162605476D02*
X499521569Y-162034048D01*
X499521569Y-162319762D02*
X498521569Y-162319762D01*
X498521569Y-162319762D02*
X498664426Y-162224524D01*
X498664426Y-162224524D02*
X498759664Y-162129286D01*
X498759664Y-162129286D02*
X498807283Y-162034048D01*
X498521569Y-162938810D02*
X498521569Y-163605476D01*
X498521569Y-163605476D02*
X499521569Y-163176905D01*
X413608569Y-160119762D02*
X412608569Y-160119762D01*
X412608569Y-160119762D02*
X412608569Y-160357857D01*
X412608569Y-160357857D02*
X412656188Y-160500714D01*
X412656188Y-160500714D02*
X412751426Y-160595952D01*
X412751426Y-160595952D02*
X412846664Y-160643571D01*
X412846664Y-160643571D02*
X413037140Y-160691190D01*
X413037140Y-160691190D02*
X413179997Y-160691190D01*
X413179997Y-160691190D02*
X413370473Y-160643571D01*
X413370473Y-160643571D02*
X413465711Y-160595952D01*
X413465711Y-160595952D02*
X413560950Y-160500714D01*
X413560950Y-160500714D02*
X413608569Y-160357857D01*
X413608569Y-160357857D02*
X413608569Y-160119762D01*
X413703807Y-160881667D02*
X413703807Y-161643571D01*
X413608569Y-162405476D02*
X413608569Y-161834048D01*
X413608569Y-162119762D02*
X412608569Y-162119762D01*
X412608569Y-162119762D02*
X412751426Y-162024524D01*
X412751426Y-162024524D02*
X412846664Y-161929286D01*
X412846664Y-161929286D02*
X412894283Y-161834048D01*
X412941902Y-163262619D02*
X413608569Y-163262619D01*
X412560950Y-163024524D02*
X413275235Y-162786429D01*
X413275235Y-162786429D02*
X413275235Y-163405476D01*
X351696069Y-198219762D02*
X350696069Y-198219762D01*
X350696069Y-198219762D02*
X350696069Y-198457857D01*
X350696069Y-198457857D02*
X350743688Y-198600714D01*
X350743688Y-198600714D02*
X350838926Y-198695952D01*
X350838926Y-198695952D02*
X350934164Y-198743571D01*
X350934164Y-198743571D02*
X351124640Y-198791190D01*
X351124640Y-198791190D02*
X351267497Y-198791190D01*
X351267497Y-198791190D02*
X351457973Y-198743571D01*
X351457973Y-198743571D02*
X351553211Y-198695952D01*
X351553211Y-198695952D02*
X351648450Y-198600714D01*
X351648450Y-198600714D02*
X351696069Y-198457857D01*
X351696069Y-198457857D02*
X351696069Y-198219762D01*
X351791307Y-198981667D02*
X351791307Y-199743571D01*
X351029402Y-200410238D02*
X351696069Y-200410238D01*
X350648450Y-200172143D02*
X351362735Y-199934048D01*
X351362735Y-199934048D02*
X351362735Y-200553095D01*
X350696069Y-201362619D02*
X350696069Y-201172143D01*
X350696069Y-201172143D02*
X350743688Y-201076905D01*
X350743688Y-201076905D02*
X350791307Y-201029286D01*
X350791307Y-201029286D02*
X350934164Y-200934048D01*
X350934164Y-200934048D02*
X351124640Y-200886429D01*
X351124640Y-200886429D02*
X351505592Y-200886429D01*
X351505592Y-200886429D02*
X351600830Y-200934048D01*
X351600830Y-200934048D02*
X351648450Y-200981667D01*
X351648450Y-200981667D02*
X351696069Y-201076905D01*
X351696069Y-201076905D02*
X351696069Y-201267381D01*
X351696069Y-201267381D02*
X351648450Y-201362619D01*
X351648450Y-201362619D02*
X351600830Y-201410238D01*
X351600830Y-201410238D02*
X351505592Y-201457857D01*
X351505592Y-201457857D02*
X351267497Y-201457857D01*
X351267497Y-201457857D02*
X351172259Y-201410238D01*
X351172259Y-201410238D02*
X351124640Y-201362619D01*
X351124640Y-201362619D02*
X351077021Y-201267381D01*
X351077021Y-201267381D02*
X351077021Y-201076905D01*
X351077021Y-201076905D02*
X351124640Y-200981667D01*
X351124640Y-200981667D02*
X351172259Y-200934048D01*
X351172259Y-200934048D02*
X351267497Y-200886429D01*
X193833819Y-198219762D02*
X192833819Y-198219762D01*
X192833819Y-198219762D02*
X192833819Y-198457857D01*
X192833819Y-198457857D02*
X192881438Y-198600714D01*
X192881438Y-198600714D02*
X192976676Y-198695952D01*
X192976676Y-198695952D02*
X193071914Y-198743571D01*
X193071914Y-198743571D02*
X193262390Y-198791190D01*
X193262390Y-198791190D02*
X193405247Y-198791190D01*
X193405247Y-198791190D02*
X193595723Y-198743571D01*
X193595723Y-198743571D02*
X193690961Y-198695952D01*
X193690961Y-198695952D02*
X193786200Y-198600714D01*
X193786200Y-198600714D02*
X193833819Y-198457857D01*
X193833819Y-198457857D02*
X193833819Y-198219762D01*
X193929057Y-198981667D02*
X193929057Y-199743571D01*
X192833819Y-199886429D02*
X192833819Y-200505476D01*
X192833819Y-200505476D02*
X193214771Y-200172143D01*
X193214771Y-200172143D02*
X193214771Y-200315000D01*
X193214771Y-200315000D02*
X193262390Y-200410238D01*
X193262390Y-200410238D02*
X193310009Y-200457857D01*
X193310009Y-200457857D02*
X193405247Y-200505476D01*
X193405247Y-200505476D02*
X193643342Y-200505476D01*
X193643342Y-200505476D02*
X193738580Y-200457857D01*
X193738580Y-200457857D02*
X193786200Y-200410238D01*
X193786200Y-200410238D02*
X193833819Y-200315000D01*
X193833819Y-200315000D02*
X193833819Y-200029286D01*
X193833819Y-200029286D02*
X193786200Y-199934048D01*
X193786200Y-199934048D02*
X193738580Y-199886429D01*
X193833819Y-200981667D02*
X193833819Y-201172143D01*
X193833819Y-201172143D02*
X193786200Y-201267381D01*
X193786200Y-201267381D02*
X193738580Y-201315000D01*
X193738580Y-201315000D02*
X193595723Y-201410238D01*
X193595723Y-201410238D02*
X193405247Y-201457857D01*
X193405247Y-201457857D02*
X193024295Y-201457857D01*
X193024295Y-201457857D02*
X192929057Y-201410238D01*
X192929057Y-201410238D02*
X192881438Y-201362619D01*
X192881438Y-201362619D02*
X192833819Y-201267381D01*
X192833819Y-201267381D02*
X192833819Y-201076905D01*
X192833819Y-201076905D02*
X192881438Y-200981667D01*
X192881438Y-200981667D02*
X192929057Y-200934048D01*
X192929057Y-200934048D02*
X193024295Y-200886429D01*
X193024295Y-200886429D02*
X193262390Y-200886429D01*
X193262390Y-200886429D02*
X193357628Y-200934048D01*
X193357628Y-200934048D02*
X193405247Y-200981667D01*
X193405247Y-200981667D02*
X193452866Y-201076905D01*
X193452866Y-201076905D02*
X193452866Y-201267381D01*
X193452866Y-201267381D02*
X193405247Y-201362619D01*
X193405247Y-201362619D02*
X193357628Y-201410238D01*
X193357628Y-201410238D02*
X193262390Y-201457857D01*
X485046069Y-179169762D02*
X484046069Y-179169762D01*
X484046069Y-179169762D02*
X484046069Y-179407857D01*
X484046069Y-179407857D02*
X484093688Y-179550714D01*
X484093688Y-179550714D02*
X484188926Y-179645952D01*
X484188926Y-179645952D02*
X484284164Y-179693571D01*
X484284164Y-179693571D02*
X484474640Y-179741190D01*
X484474640Y-179741190D02*
X484617497Y-179741190D01*
X484617497Y-179741190D02*
X484807973Y-179693571D01*
X484807973Y-179693571D02*
X484903211Y-179645952D01*
X484903211Y-179645952D02*
X484998450Y-179550714D01*
X484998450Y-179550714D02*
X485046069Y-179407857D01*
X485046069Y-179407857D02*
X485046069Y-179169762D01*
X485141307Y-179931667D02*
X485141307Y-180693571D01*
X484046069Y-180836429D02*
X484046069Y-181455476D01*
X484046069Y-181455476D02*
X484427021Y-181122143D01*
X484427021Y-181122143D02*
X484427021Y-181265000D01*
X484427021Y-181265000D02*
X484474640Y-181360238D01*
X484474640Y-181360238D02*
X484522259Y-181407857D01*
X484522259Y-181407857D02*
X484617497Y-181455476D01*
X484617497Y-181455476D02*
X484855592Y-181455476D01*
X484855592Y-181455476D02*
X484950830Y-181407857D01*
X484950830Y-181407857D02*
X484998450Y-181360238D01*
X484998450Y-181360238D02*
X485046069Y-181265000D01*
X485046069Y-181265000D02*
X485046069Y-180979286D01*
X485046069Y-180979286D02*
X484998450Y-180884048D01*
X484998450Y-180884048D02*
X484950830Y-180836429D01*
X484379402Y-182312619D02*
X485046069Y-182312619D01*
X483998450Y-182074524D02*
X484712735Y-181836429D01*
X484712735Y-181836429D02*
X484712735Y-182455476D01*
X179546319Y-160595952D02*
X178546319Y-160595952D01*
X178546319Y-160595952D02*
X178546319Y-160834047D01*
X178546319Y-160834047D02*
X178593938Y-160976904D01*
X178593938Y-160976904D02*
X178689176Y-161072142D01*
X178689176Y-161072142D02*
X178784414Y-161119761D01*
X178784414Y-161119761D02*
X178974890Y-161167380D01*
X178974890Y-161167380D02*
X179117747Y-161167380D01*
X179117747Y-161167380D02*
X179308223Y-161119761D01*
X179308223Y-161119761D02*
X179403461Y-161072142D01*
X179403461Y-161072142D02*
X179498700Y-160976904D01*
X179498700Y-160976904D02*
X179546319Y-160834047D01*
X179546319Y-160834047D02*
X179546319Y-160595952D01*
X179641557Y-161357857D02*
X179641557Y-162119761D01*
X178546319Y-162262619D02*
X178546319Y-162881666D01*
X178546319Y-162881666D02*
X178927271Y-162548333D01*
X178927271Y-162548333D02*
X178927271Y-162691190D01*
X178927271Y-162691190D02*
X178974890Y-162786428D01*
X178974890Y-162786428D02*
X179022509Y-162834047D01*
X179022509Y-162834047D02*
X179117747Y-162881666D01*
X179117747Y-162881666D02*
X179355842Y-162881666D01*
X179355842Y-162881666D02*
X179451080Y-162834047D01*
X179451080Y-162834047D02*
X179498700Y-162786428D01*
X179498700Y-162786428D02*
X179546319Y-162691190D01*
X179546319Y-162691190D02*
X179546319Y-162405476D01*
X179546319Y-162405476D02*
X179498700Y-162310238D01*
X179498700Y-162310238D02*
X179451080Y-162262619D01*
X122396319Y-198219762D02*
X121396319Y-198219762D01*
X121396319Y-198219762D02*
X121396319Y-198457857D01*
X121396319Y-198457857D02*
X121443938Y-198600714D01*
X121443938Y-198600714D02*
X121539176Y-198695952D01*
X121539176Y-198695952D02*
X121634414Y-198743571D01*
X121634414Y-198743571D02*
X121824890Y-198791190D01*
X121824890Y-198791190D02*
X121967747Y-198791190D01*
X121967747Y-198791190D02*
X122158223Y-198743571D01*
X122158223Y-198743571D02*
X122253461Y-198695952D01*
X122253461Y-198695952D02*
X122348700Y-198600714D01*
X122348700Y-198600714D02*
X122396319Y-198457857D01*
X122396319Y-198457857D02*
X122396319Y-198219762D01*
X122491557Y-198981667D02*
X122491557Y-199743571D01*
X121396319Y-199886429D02*
X121396319Y-200505476D01*
X121396319Y-200505476D02*
X121777271Y-200172143D01*
X121777271Y-200172143D02*
X121777271Y-200315000D01*
X121777271Y-200315000D02*
X121824890Y-200410238D01*
X121824890Y-200410238D02*
X121872509Y-200457857D01*
X121872509Y-200457857D02*
X121967747Y-200505476D01*
X121967747Y-200505476D02*
X122205842Y-200505476D01*
X122205842Y-200505476D02*
X122301080Y-200457857D01*
X122301080Y-200457857D02*
X122348700Y-200410238D01*
X122348700Y-200410238D02*
X122396319Y-200315000D01*
X122396319Y-200315000D02*
X122396319Y-200029286D01*
X122396319Y-200029286D02*
X122348700Y-199934048D01*
X122348700Y-199934048D02*
X122301080Y-199886429D01*
X121396319Y-200838810D02*
X121396319Y-201505476D01*
X121396319Y-201505476D02*
X122396319Y-201076905D01*
X451708569Y-236319762D02*
X450708569Y-236319762D01*
X450708569Y-236319762D02*
X450708569Y-236557857D01*
X450708569Y-236557857D02*
X450756188Y-236700714D01*
X450756188Y-236700714D02*
X450851426Y-236795952D01*
X450851426Y-236795952D02*
X450946664Y-236843571D01*
X450946664Y-236843571D02*
X451137140Y-236891190D01*
X451137140Y-236891190D02*
X451279997Y-236891190D01*
X451279997Y-236891190D02*
X451470473Y-236843571D01*
X451470473Y-236843571D02*
X451565711Y-236795952D01*
X451565711Y-236795952D02*
X451660950Y-236700714D01*
X451660950Y-236700714D02*
X451708569Y-236557857D01*
X451708569Y-236557857D02*
X451708569Y-236319762D01*
X451803807Y-237081667D02*
X451803807Y-237843571D01*
X450708569Y-237986429D02*
X450708569Y-238653095D01*
X450708569Y-238653095D02*
X451708569Y-238224524D01*
X451708569Y-239081667D02*
X451708569Y-239272143D01*
X451708569Y-239272143D02*
X451660950Y-239367381D01*
X451660950Y-239367381D02*
X451613330Y-239415000D01*
X451613330Y-239415000D02*
X451470473Y-239510238D01*
X451470473Y-239510238D02*
X451279997Y-239557857D01*
X451279997Y-239557857D02*
X450899045Y-239557857D01*
X450899045Y-239557857D02*
X450803807Y-239510238D01*
X450803807Y-239510238D02*
X450756188Y-239462619D01*
X450756188Y-239462619D02*
X450708569Y-239367381D01*
X450708569Y-239367381D02*
X450708569Y-239176905D01*
X450708569Y-239176905D02*
X450756188Y-239081667D01*
X450756188Y-239081667D02*
X450803807Y-239034048D01*
X450803807Y-239034048D02*
X450899045Y-238986429D01*
X450899045Y-238986429D02*
X451137140Y-238986429D01*
X451137140Y-238986429D02*
X451232378Y-239034048D01*
X451232378Y-239034048D02*
X451279997Y-239081667D01*
X451279997Y-239081667D02*
X451327616Y-239176905D01*
X451327616Y-239176905D02*
X451327616Y-239367381D01*
X451327616Y-239367381D02*
X451279997Y-239462619D01*
X451279997Y-239462619D02*
X451232378Y-239510238D01*
X451232378Y-239510238D02*
X451137140Y-239557857D01*
X131921319Y-160595952D02*
X130921319Y-160595952D01*
X130921319Y-160595952D02*
X130921319Y-160834047D01*
X130921319Y-160834047D02*
X130968938Y-160976904D01*
X130968938Y-160976904D02*
X131064176Y-161072142D01*
X131064176Y-161072142D02*
X131159414Y-161119761D01*
X131159414Y-161119761D02*
X131349890Y-161167380D01*
X131349890Y-161167380D02*
X131492747Y-161167380D01*
X131492747Y-161167380D02*
X131683223Y-161119761D01*
X131683223Y-161119761D02*
X131778461Y-161072142D01*
X131778461Y-161072142D02*
X131873700Y-160976904D01*
X131873700Y-160976904D02*
X131921319Y-160834047D01*
X131921319Y-160834047D02*
X131921319Y-160595952D01*
X132016557Y-161357857D02*
X132016557Y-162119761D01*
X131921319Y-162881666D02*
X131921319Y-162310238D01*
X131921319Y-162595952D02*
X130921319Y-162595952D01*
X130921319Y-162595952D02*
X131064176Y-162500714D01*
X131064176Y-162500714D02*
X131159414Y-162405476D01*
X131159414Y-162405476D02*
X131207033Y-162310238D01*
X356458569Y-160119762D02*
X355458569Y-160119762D01*
X355458569Y-160119762D02*
X355458569Y-160357857D01*
X355458569Y-160357857D02*
X355506188Y-160500714D01*
X355506188Y-160500714D02*
X355601426Y-160595952D01*
X355601426Y-160595952D02*
X355696664Y-160643571D01*
X355696664Y-160643571D02*
X355887140Y-160691190D01*
X355887140Y-160691190D02*
X356029997Y-160691190D01*
X356029997Y-160691190D02*
X356220473Y-160643571D01*
X356220473Y-160643571D02*
X356315711Y-160595952D01*
X356315711Y-160595952D02*
X356410950Y-160500714D01*
X356410950Y-160500714D02*
X356458569Y-160357857D01*
X356458569Y-160357857D02*
X356458569Y-160119762D01*
X356553807Y-160881667D02*
X356553807Y-161643571D01*
X356458569Y-162405476D02*
X356458569Y-161834048D01*
X356458569Y-162119762D02*
X355458569Y-162119762D01*
X355458569Y-162119762D02*
X355601426Y-162024524D01*
X355601426Y-162024524D02*
X355696664Y-161929286D01*
X355696664Y-161929286D02*
X355744283Y-161834048D01*
X356458569Y-163357857D02*
X356458569Y-162786429D01*
X356458569Y-163072143D02*
X355458569Y-163072143D01*
X355458569Y-163072143D02*
X355601426Y-162976905D01*
X355601426Y-162976905D02*
X355696664Y-162881667D01*
X355696664Y-162881667D02*
X355744283Y-162786429D01*
X423133569Y-179169762D02*
X422133569Y-179169762D01*
X422133569Y-179169762D02*
X422133569Y-179407857D01*
X422133569Y-179407857D02*
X422181188Y-179550714D01*
X422181188Y-179550714D02*
X422276426Y-179645952D01*
X422276426Y-179645952D02*
X422371664Y-179693571D01*
X422371664Y-179693571D02*
X422562140Y-179741190D01*
X422562140Y-179741190D02*
X422704997Y-179741190D01*
X422704997Y-179741190D02*
X422895473Y-179693571D01*
X422895473Y-179693571D02*
X422990711Y-179645952D01*
X422990711Y-179645952D02*
X423085950Y-179550714D01*
X423085950Y-179550714D02*
X423133569Y-179407857D01*
X423133569Y-179407857D02*
X423133569Y-179169762D01*
X423228807Y-179931667D02*
X423228807Y-180693571D01*
X422133569Y-180836429D02*
X422133569Y-181455476D01*
X422133569Y-181455476D02*
X422514521Y-181122143D01*
X422514521Y-181122143D02*
X422514521Y-181265000D01*
X422514521Y-181265000D02*
X422562140Y-181360238D01*
X422562140Y-181360238D02*
X422609759Y-181407857D01*
X422609759Y-181407857D02*
X422704997Y-181455476D01*
X422704997Y-181455476D02*
X422943092Y-181455476D01*
X422943092Y-181455476D02*
X423038330Y-181407857D01*
X423038330Y-181407857D02*
X423085950Y-181360238D01*
X423085950Y-181360238D02*
X423133569Y-181265000D01*
X423133569Y-181265000D02*
X423133569Y-180979286D01*
X423133569Y-180979286D02*
X423085950Y-180884048D01*
X423085950Y-180884048D02*
X423038330Y-180836429D01*
X422228807Y-181836429D02*
X422181188Y-181884048D01*
X422181188Y-181884048D02*
X422133569Y-181979286D01*
X422133569Y-181979286D02*
X422133569Y-182217381D01*
X422133569Y-182217381D02*
X422181188Y-182312619D01*
X422181188Y-182312619D02*
X422228807Y-182360238D01*
X422228807Y-182360238D02*
X422324045Y-182407857D01*
X422324045Y-182407857D02*
X422419283Y-182407857D01*
X422419283Y-182407857D02*
X422562140Y-182360238D01*
X422562140Y-182360238D02*
X423133569Y-181788810D01*
X423133569Y-181788810D02*
X423133569Y-182407857D01*
X241458819Y-217269762D02*
X240458819Y-217269762D01*
X240458819Y-217269762D02*
X240458819Y-217507857D01*
X240458819Y-217507857D02*
X240506438Y-217650714D01*
X240506438Y-217650714D02*
X240601676Y-217745952D01*
X240601676Y-217745952D02*
X240696914Y-217793571D01*
X240696914Y-217793571D02*
X240887390Y-217841190D01*
X240887390Y-217841190D02*
X241030247Y-217841190D01*
X241030247Y-217841190D02*
X241220723Y-217793571D01*
X241220723Y-217793571D02*
X241315961Y-217745952D01*
X241315961Y-217745952D02*
X241411200Y-217650714D01*
X241411200Y-217650714D02*
X241458819Y-217507857D01*
X241458819Y-217507857D02*
X241458819Y-217269762D01*
X241554057Y-218031667D02*
X241554057Y-218793571D01*
X240458819Y-219507857D02*
X240458819Y-219031667D01*
X240458819Y-219031667D02*
X240935009Y-218984048D01*
X240935009Y-218984048D02*
X240887390Y-219031667D01*
X240887390Y-219031667D02*
X240839771Y-219126905D01*
X240839771Y-219126905D02*
X240839771Y-219365000D01*
X240839771Y-219365000D02*
X240887390Y-219460238D01*
X240887390Y-219460238D02*
X240935009Y-219507857D01*
X240935009Y-219507857D02*
X241030247Y-219555476D01*
X241030247Y-219555476D02*
X241268342Y-219555476D01*
X241268342Y-219555476D02*
X241363580Y-219507857D01*
X241363580Y-219507857D02*
X241411200Y-219460238D01*
X241411200Y-219460238D02*
X241458819Y-219365000D01*
X241458819Y-219365000D02*
X241458819Y-219126905D01*
X241458819Y-219126905D02*
X241411200Y-219031667D01*
X241411200Y-219031667D02*
X241363580Y-218984048D01*
X240887390Y-220126905D02*
X240839771Y-220031667D01*
X240839771Y-220031667D02*
X240792152Y-219984048D01*
X240792152Y-219984048D02*
X240696914Y-219936429D01*
X240696914Y-219936429D02*
X240649295Y-219936429D01*
X240649295Y-219936429D02*
X240554057Y-219984048D01*
X240554057Y-219984048D02*
X240506438Y-220031667D01*
X240506438Y-220031667D02*
X240458819Y-220126905D01*
X240458819Y-220126905D02*
X240458819Y-220317381D01*
X240458819Y-220317381D02*
X240506438Y-220412619D01*
X240506438Y-220412619D02*
X240554057Y-220460238D01*
X240554057Y-220460238D02*
X240649295Y-220507857D01*
X240649295Y-220507857D02*
X240696914Y-220507857D01*
X240696914Y-220507857D02*
X240792152Y-220460238D01*
X240792152Y-220460238D02*
X240839771Y-220412619D01*
X240839771Y-220412619D02*
X240887390Y-220317381D01*
X240887390Y-220317381D02*
X240887390Y-220126905D01*
X240887390Y-220126905D02*
X240935009Y-220031667D01*
X240935009Y-220031667D02*
X240982628Y-219984048D01*
X240982628Y-219984048D02*
X241077866Y-219936429D01*
X241077866Y-219936429D02*
X241268342Y-219936429D01*
X241268342Y-219936429D02*
X241363580Y-219984048D01*
X241363580Y-219984048D02*
X241411200Y-220031667D01*
X241411200Y-220031667D02*
X241458819Y-220126905D01*
X241458819Y-220126905D02*
X241458819Y-220317381D01*
X241458819Y-220317381D02*
X241411200Y-220412619D01*
X241411200Y-220412619D02*
X241363580Y-220460238D01*
X241363580Y-220460238D02*
X241268342Y-220507857D01*
X241268342Y-220507857D02*
X241077866Y-220507857D01*
X241077866Y-220507857D02*
X240982628Y-220460238D01*
X240982628Y-220460238D02*
X240935009Y-220412619D01*
X240935009Y-220412619D02*
X240887390Y-220317381D01*
X265271319Y-179169762D02*
X264271319Y-179169762D01*
X264271319Y-179169762D02*
X264271319Y-179407857D01*
X264271319Y-179407857D02*
X264318938Y-179550714D01*
X264318938Y-179550714D02*
X264414176Y-179645952D01*
X264414176Y-179645952D02*
X264509414Y-179693571D01*
X264509414Y-179693571D02*
X264699890Y-179741190D01*
X264699890Y-179741190D02*
X264842747Y-179741190D01*
X264842747Y-179741190D02*
X265033223Y-179693571D01*
X265033223Y-179693571D02*
X265128461Y-179645952D01*
X265128461Y-179645952D02*
X265223700Y-179550714D01*
X265223700Y-179550714D02*
X265271319Y-179407857D01*
X265271319Y-179407857D02*
X265271319Y-179169762D01*
X265366557Y-179931667D02*
X265366557Y-180693571D01*
X264366557Y-180884048D02*
X264318938Y-180931667D01*
X264318938Y-180931667D02*
X264271319Y-181026905D01*
X264271319Y-181026905D02*
X264271319Y-181265000D01*
X264271319Y-181265000D02*
X264318938Y-181360238D01*
X264318938Y-181360238D02*
X264366557Y-181407857D01*
X264366557Y-181407857D02*
X264461795Y-181455476D01*
X264461795Y-181455476D02*
X264557033Y-181455476D01*
X264557033Y-181455476D02*
X264699890Y-181407857D01*
X264699890Y-181407857D02*
X265271319Y-180836429D01*
X265271319Y-180836429D02*
X265271319Y-181455476D01*
X264271319Y-182360238D02*
X264271319Y-181884048D01*
X264271319Y-181884048D02*
X264747509Y-181836429D01*
X264747509Y-181836429D02*
X264699890Y-181884048D01*
X264699890Y-181884048D02*
X264652271Y-181979286D01*
X264652271Y-181979286D02*
X264652271Y-182217381D01*
X264652271Y-182217381D02*
X264699890Y-182312619D01*
X264699890Y-182312619D02*
X264747509Y-182360238D01*
X264747509Y-182360238D02*
X264842747Y-182407857D01*
X264842747Y-182407857D02*
X265080842Y-182407857D01*
X265080842Y-182407857D02*
X265176080Y-182360238D01*
X265176080Y-182360238D02*
X265223700Y-182312619D01*
X265223700Y-182312619D02*
X265271319Y-182217381D01*
X265271319Y-182217381D02*
X265271319Y-181979286D01*
X265271319Y-181979286D02*
X265223700Y-181884048D01*
X265223700Y-181884048D02*
X265176080Y-181836429D01*
X480283569Y-236319762D02*
X479283569Y-236319762D01*
X479283569Y-236319762D02*
X479283569Y-236557857D01*
X479283569Y-236557857D02*
X479331188Y-236700714D01*
X479331188Y-236700714D02*
X479426426Y-236795952D01*
X479426426Y-236795952D02*
X479521664Y-236843571D01*
X479521664Y-236843571D02*
X479712140Y-236891190D01*
X479712140Y-236891190D02*
X479854997Y-236891190D01*
X479854997Y-236891190D02*
X480045473Y-236843571D01*
X480045473Y-236843571D02*
X480140711Y-236795952D01*
X480140711Y-236795952D02*
X480235950Y-236700714D01*
X480235950Y-236700714D02*
X480283569Y-236557857D01*
X480283569Y-236557857D02*
X480283569Y-236319762D01*
X480378807Y-237081667D02*
X480378807Y-237843571D01*
X479712140Y-238224524D02*
X479664521Y-238129286D01*
X479664521Y-238129286D02*
X479616902Y-238081667D01*
X479616902Y-238081667D02*
X479521664Y-238034048D01*
X479521664Y-238034048D02*
X479474045Y-238034048D01*
X479474045Y-238034048D02*
X479378807Y-238081667D01*
X479378807Y-238081667D02*
X479331188Y-238129286D01*
X479331188Y-238129286D02*
X479283569Y-238224524D01*
X479283569Y-238224524D02*
X479283569Y-238415000D01*
X479283569Y-238415000D02*
X479331188Y-238510238D01*
X479331188Y-238510238D02*
X479378807Y-238557857D01*
X479378807Y-238557857D02*
X479474045Y-238605476D01*
X479474045Y-238605476D02*
X479521664Y-238605476D01*
X479521664Y-238605476D02*
X479616902Y-238557857D01*
X479616902Y-238557857D02*
X479664521Y-238510238D01*
X479664521Y-238510238D02*
X479712140Y-238415000D01*
X479712140Y-238415000D02*
X479712140Y-238224524D01*
X479712140Y-238224524D02*
X479759759Y-238129286D01*
X479759759Y-238129286D02*
X479807378Y-238081667D01*
X479807378Y-238081667D02*
X479902616Y-238034048D01*
X479902616Y-238034048D02*
X480093092Y-238034048D01*
X480093092Y-238034048D02*
X480188330Y-238081667D01*
X480188330Y-238081667D02*
X480235950Y-238129286D01*
X480235950Y-238129286D02*
X480283569Y-238224524D01*
X480283569Y-238224524D02*
X480283569Y-238415000D01*
X480283569Y-238415000D02*
X480235950Y-238510238D01*
X480235950Y-238510238D02*
X480188330Y-238557857D01*
X480188330Y-238557857D02*
X480093092Y-238605476D01*
X480093092Y-238605476D02*
X479902616Y-238605476D01*
X479902616Y-238605476D02*
X479807378Y-238557857D01*
X479807378Y-238557857D02*
X479759759Y-238510238D01*
X479759759Y-238510238D02*
X479712140Y-238415000D01*
X479283569Y-239224524D02*
X479283569Y-239319762D01*
X479283569Y-239319762D02*
X479331188Y-239415000D01*
X479331188Y-239415000D02*
X479378807Y-239462619D01*
X479378807Y-239462619D02*
X479474045Y-239510238D01*
X479474045Y-239510238D02*
X479664521Y-239557857D01*
X479664521Y-239557857D02*
X479902616Y-239557857D01*
X479902616Y-239557857D02*
X480093092Y-239510238D01*
X480093092Y-239510238D02*
X480188330Y-239462619D01*
X480188330Y-239462619D02*
X480235950Y-239415000D01*
X480235950Y-239415000D02*
X480283569Y-239319762D01*
X480283569Y-239319762D02*
X480283569Y-239224524D01*
X480283569Y-239224524D02*
X480235950Y-239129286D01*
X480235950Y-239129286D02*
X480188330Y-239081667D01*
X480188330Y-239081667D02*
X480093092Y-239034048D01*
X480093092Y-239034048D02*
X479902616Y-238986429D01*
X479902616Y-238986429D02*
X479664521Y-238986429D01*
X479664521Y-238986429D02*
X479474045Y-239034048D01*
X479474045Y-239034048D02*
X479378807Y-239081667D01*
X479378807Y-239081667D02*
X479331188Y-239129286D01*
X479331188Y-239129286D02*
X479283569Y-239224524D01*
X389796069Y-198219762D02*
X388796069Y-198219762D01*
X388796069Y-198219762D02*
X388796069Y-198457857D01*
X388796069Y-198457857D02*
X388843688Y-198600714D01*
X388843688Y-198600714D02*
X388938926Y-198695952D01*
X388938926Y-198695952D02*
X389034164Y-198743571D01*
X389034164Y-198743571D02*
X389224640Y-198791190D01*
X389224640Y-198791190D02*
X389367497Y-198791190D01*
X389367497Y-198791190D02*
X389557973Y-198743571D01*
X389557973Y-198743571D02*
X389653211Y-198695952D01*
X389653211Y-198695952D02*
X389748450Y-198600714D01*
X389748450Y-198600714D02*
X389796069Y-198457857D01*
X389796069Y-198457857D02*
X389796069Y-198219762D01*
X389891307Y-198981667D02*
X389891307Y-199743571D01*
X389129402Y-200410238D02*
X389796069Y-200410238D01*
X388748450Y-200172143D02*
X389462735Y-199934048D01*
X389462735Y-199934048D02*
X389462735Y-200553095D01*
X389224640Y-201076905D02*
X389177021Y-200981667D01*
X389177021Y-200981667D02*
X389129402Y-200934048D01*
X389129402Y-200934048D02*
X389034164Y-200886429D01*
X389034164Y-200886429D02*
X388986545Y-200886429D01*
X388986545Y-200886429D02*
X388891307Y-200934048D01*
X388891307Y-200934048D02*
X388843688Y-200981667D01*
X388843688Y-200981667D02*
X388796069Y-201076905D01*
X388796069Y-201076905D02*
X388796069Y-201267381D01*
X388796069Y-201267381D02*
X388843688Y-201362619D01*
X388843688Y-201362619D02*
X388891307Y-201410238D01*
X388891307Y-201410238D02*
X388986545Y-201457857D01*
X388986545Y-201457857D02*
X389034164Y-201457857D01*
X389034164Y-201457857D02*
X389129402Y-201410238D01*
X389129402Y-201410238D02*
X389177021Y-201362619D01*
X389177021Y-201362619D02*
X389224640Y-201267381D01*
X389224640Y-201267381D02*
X389224640Y-201076905D01*
X389224640Y-201076905D02*
X389272259Y-200981667D01*
X389272259Y-200981667D02*
X389319878Y-200934048D01*
X389319878Y-200934048D02*
X389415116Y-200886429D01*
X389415116Y-200886429D02*
X389605592Y-200886429D01*
X389605592Y-200886429D02*
X389700830Y-200934048D01*
X389700830Y-200934048D02*
X389748450Y-200981667D01*
X389748450Y-200981667D02*
X389796069Y-201076905D01*
X389796069Y-201076905D02*
X389796069Y-201267381D01*
X389796069Y-201267381D02*
X389748450Y-201362619D01*
X389748450Y-201362619D02*
X389700830Y-201410238D01*
X389700830Y-201410238D02*
X389605592Y-201457857D01*
X389605592Y-201457857D02*
X389415116Y-201457857D01*
X389415116Y-201457857D02*
X389319878Y-201410238D01*
X389319878Y-201410238D02*
X389272259Y-201362619D01*
X389272259Y-201362619D02*
X389224640Y-201267381D01*
X217646319Y-160595952D02*
X216646319Y-160595952D01*
X216646319Y-160595952D02*
X216646319Y-160834047D01*
X216646319Y-160834047D02*
X216693938Y-160976904D01*
X216693938Y-160976904D02*
X216789176Y-161072142D01*
X216789176Y-161072142D02*
X216884414Y-161119761D01*
X216884414Y-161119761D02*
X217074890Y-161167380D01*
X217074890Y-161167380D02*
X217217747Y-161167380D01*
X217217747Y-161167380D02*
X217408223Y-161119761D01*
X217408223Y-161119761D02*
X217503461Y-161072142D01*
X217503461Y-161072142D02*
X217598700Y-160976904D01*
X217598700Y-160976904D02*
X217646319Y-160834047D01*
X217646319Y-160834047D02*
X217646319Y-160595952D01*
X217741557Y-161357857D02*
X217741557Y-162119761D01*
X216646319Y-162834047D02*
X216646319Y-162357857D01*
X216646319Y-162357857D02*
X217122509Y-162310238D01*
X217122509Y-162310238D02*
X217074890Y-162357857D01*
X217074890Y-162357857D02*
X217027271Y-162453095D01*
X217027271Y-162453095D02*
X217027271Y-162691190D01*
X217027271Y-162691190D02*
X217074890Y-162786428D01*
X217074890Y-162786428D02*
X217122509Y-162834047D01*
X217122509Y-162834047D02*
X217217747Y-162881666D01*
X217217747Y-162881666D02*
X217455842Y-162881666D01*
X217455842Y-162881666D02*
X217551080Y-162834047D01*
X217551080Y-162834047D02*
X217598700Y-162786428D01*
X217598700Y-162786428D02*
X217646319Y-162691190D01*
X217646319Y-162691190D02*
X217646319Y-162453095D01*
X217646319Y-162453095D02*
X217598700Y-162357857D01*
X217598700Y-162357857D02*
X217551080Y-162310238D01*
X499071319Y-236319762D02*
X498071319Y-236319762D01*
X498071319Y-236319762D02*
X498071319Y-236557857D01*
X498071319Y-236557857D02*
X498118938Y-236700714D01*
X498118938Y-236700714D02*
X498214176Y-236795952D01*
X498214176Y-236795952D02*
X498309414Y-236843571D01*
X498309414Y-236843571D02*
X498499890Y-236891190D01*
X498499890Y-236891190D02*
X498642747Y-236891190D01*
X498642747Y-236891190D02*
X498833223Y-236843571D01*
X498833223Y-236843571D02*
X498928461Y-236795952D01*
X498928461Y-236795952D02*
X499023700Y-236700714D01*
X499023700Y-236700714D02*
X499071319Y-236557857D01*
X499071319Y-236557857D02*
X499071319Y-236319762D01*
X499166557Y-237081667D02*
X499166557Y-237843571D01*
X498499890Y-238224524D02*
X498452271Y-238129286D01*
X498452271Y-238129286D02*
X498404652Y-238081667D01*
X498404652Y-238081667D02*
X498309414Y-238034048D01*
X498309414Y-238034048D02*
X498261795Y-238034048D01*
X498261795Y-238034048D02*
X498166557Y-238081667D01*
X498166557Y-238081667D02*
X498118938Y-238129286D01*
X498118938Y-238129286D02*
X498071319Y-238224524D01*
X498071319Y-238224524D02*
X498071319Y-238415000D01*
X498071319Y-238415000D02*
X498118938Y-238510238D01*
X498118938Y-238510238D02*
X498166557Y-238557857D01*
X498166557Y-238557857D02*
X498261795Y-238605476D01*
X498261795Y-238605476D02*
X498309414Y-238605476D01*
X498309414Y-238605476D02*
X498404652Y-238557857D01*
X498404652Y-238557857D02*
X498452271Y-238510238D01*
X498452271Y-238510238D02*
X498499890Y-238415000D01*
X498499890Y-238415000D02*
X498499890Y-238224524D01*
X498499890Y-238224524D02*
X498547509Y-238129286D01*
X498547509Y-238129286D02*
X498595128Y-238081667D01*
X498595128Y-238081667D02*
X498690366Y-238034048D01*
X498690366Y-238034048D02*
X498880842Y-238034048D01*
X498880842Y-238034048D02*
X498976080Y-238081667D01*
X498976080Y-238081667D02*
X499023700Y-238129286D01*
X499023700Y-238129286D02*
X499071319Y-238224524D01*
X499071319Y-238224524D02*
X499071319Y-238415000D01*
X499071319Y-238415000D02*
X499023700Y-238510238D01*
X499023700Y-238510238D02*
X498976080Y-238557857D01*
X498976080Y-238557857D02*
X498880842Y-238605476D01*
X498880842Y-238605476D02*
X498690366Y-238605476D01*
X498690366Y-238605476D02*
X498595128Y-238557857D01*
X498595128Y-238557857D02*
X498547509Y-238510238D01*
X498547509Y-238510238D02*
X498499890Y-238415000D01*
X499071319Y-239557857D02*
X499071319Y-238986429D01*
X499071319Y-239272143D02*
X498071319Y-239272143D01*
X498071319Y-239272143D02*
X498214176Y-239176905D01*
X498214176Y-239176905D02*
X498309414Y-239081667D01*
X498309414Y-239081667D02*
X498357033Y-238986429D01*
X255746319Y-160595952D02*
X254746319Y-160595952D01*
X254746319Y-160595952D02*
X254746319Y-160834047D01*
X254746319Y-160834047D02*
X254793938Y-160976904D01*
X254793938Y-160976904D02*
X254889176Y-161072142D01*
X254889176Y-161072142D02*
X254984414Y-161119761D01*
X254984414Y-161119761D02*
X255174890Y-161167380D01*
X255174890Y-161167380D02*
X255317747Y-161167380D01*
X255317747Y-161167380D02*
X255508223Y-161119761D01*
X255508223Y-161119761D02*
X255603461Y-161072142D01*
X255603461Y-161072142D02*
X255698700Y-160976904D01*
X255698700Y-160976904D02*
X255746319Y-160834047D01*
X255746319Y-160834047D02*
X255746319Y-160595952D01*
X255841557Y-161357857D02*
X255841557Y-162119761D01*
X254746319Y-162262619D02*
X254746319Y-162929285D01*
X254746319Y-162929285D02*
X255746319Y-162500714D01*
X323121069Y-217269762D02*
X322121069Y-217269762D01*
X322121069Y-217269762D02*
X322121069Y-217507857D01*
X322121069Y-217507857D02*
X322168688Y-217650714D01*
X322168688Y-217650714D02*
X322263926Y-217745952D01*
X322263926Y-217745952D02*
X322359164Y-217793571D01*
X322359164Y-217793571D02*
X322549640Y-217841190D01*
X322549640Y-217841190D02*
X322692497Y-217841190D01*
X322692497Y-217841190D02*
X322882973Y-217793571D01*
X322882973Y-217793571D02*
X322978211Y-217745952D01*
X322978211Y-217745952D02*
X323073450Y-217650714D01*
X323073450Y-217650714D02*
X323121069Y-217507857D01*
X323121069Y-217507857D02*
X323121069Y-217269762D01*
X323216307Y-218031667D02*
X323216307Y-218793571D01*
X322121069Y-219460238D02*
X322121069Y-219269762D01*
X322121069Y-219269762D02*
X322168688Y-219174524D01*
X322168688Y-219174524D02*
X322216307Y-219126905D01*
X322216307Y-219126905D02*
X322359164Y-219031667D01*
X322359164Y-219031667D02*
X322549640Y-218984048D01*
X322549640Y-218984048D02*
X322930592Y-218984048D01*
X322930592Y-218984048D02*
X323025830Y-219031667D01*
X323025830Y-219031667D02*
X323073450Y-219079286D01*
X323073450Y-219079286D02*
X323121069Y-219174524D01*
X323121069Y-219174524D02*
X323121069Y-219365000D01*
X323121069Y-219365000D02*
X323073450Y-219460238D01*
X323073450Y-219460238D02*
X323025830Y-219507857D01*
X323025830Y-219507857D02*
X322930592Y-219555476D01*
X322930592Y-219555476D02*
X322692497Y-219555476D01*
X322692497Y-219555476D02*
X322597259Y-219507857D01*
X322597259Y-219507857D02*
X322549640Y-219460238D01*
X322549640Y-219460238D02*
X322502021Y-219365000D01*
X322502021Y-219365000D02*
X322502021Y-219174524D01*
X322502021Y-219174524D02*
X322549640Y-219079286D01*
X322549640Y-219079286D02*
X322597259Y-219031667D01*
X322597259Y-219031667D02*
X322692497Y-218984048D01*
X323121069Y-220507857D02*
X323121069Y-219936429D01*
X323121069Y-220222143D02*
X322121069Y-220222143D01*
X322121069Y-220222143D02*
X322263926Y-220126905D01*
X322263926Y-220126905D02*
X322359164Y-220031667D01*
X322359164Y-220031667D02*
X322406783Y-219936429D01*
X370746069Y-198219762D02*
X369746069Y-198219762D01*
X369746069Y-198219762D02*
X369746069Y-198457857D01*
X369746069Y-198457857D02*
X369793688Y-198600714D01*
X369793688Y-198600714D02*
X369888926Y-198695952D01*
X369888926Y-198695952D02*
X369984164Y-198743571D01*
X369984164Y-198743571D02*
X370174640Y-198791190D01*
X370174640Y-198791190D02*
X370317497Y-198791190D01*
X370317497Y-198791190D02*
X370507973Y-198743571D01*
X370507973Y-198743571D02*
X370603211Y-198695952D01*
X370603211Y-198695952D02*
X370698450Y-198600714D01*
X370698450Y-198600714D02*
X370746069Y-198457857D01*
X370746069Y-198457857D02*
X370746069Y-198219762D01*
X370841307Y-198981667D02*
X370841307Y-199743571D01*
X370079402Y-200410238D02*
X370746069Y-200410238D01*
X369698450Y-200172143D02*
X370412735Y-199934048D01*
X370412735Y-199934048D02*
X370412735Y-200553095D01*
X369746069Y-200838810D02*
X369746069Y-201505476D01*
X369746069Y-201505476D02*
X370746069Y-201076905D01*
X203358819Y-217269762D02*
X202358819Y-217269762D01*
X202358819Y-217269762D02*
X202358819Y-217507857D01*
X202358819Y-217507857D02*
X202406438Y-217650714D01*
X202406438Y-217650714D02*
X202501676Y-217745952D01*
X202501676Y-217745952D02*
X202596914Y-217793571D01*
X202596914Y-217793571D02*
X202787390Y-217841190D01*
X202787390Y-217841190D02*
X202930247Y-217841190D01*
X202930247Y-217841190D02*
X203120723Y-217793571D01*
X203120723Y-217793571D02*
X203215961Y-217745952D01*
X203215961Y-217745952D02*
X203311200Y-217650714D01*
X203311200Y-217650714D02*
X203358819Y-217507857D01*
X203358819Y-217507857D02*
X203358819Y-217269762D01*
X203454057Y-218031667D02*
X203454057Y-218793571D01*
X202358819Y-219507857D02*
X202358819Y-219031667D01*
X202358819Y-219031667D02*
X202835009Y-218984048D01*
X202835009Y-218984048D02*
X202787390Y-219031667D01*
X202787390Y-219031667D02*
X202739771Y-219126905D01*
X202739771Y-219126905D02*
X202739771Y-219365000D01*
X202739771Y-219365000D02*
X202787390Y-219460238D01*
X202787390Y-219460238D02*
X202835009Y-219507857D01*
X202835009Y-219507857D02*
X202930247Y-219555476D01*
X202930247Y-219555476D02*
X203168342Y-219555476D01*
X203168342Y-219555476D02*
X203263580Y-219507857D01*
X203263580Y-219507857D02*
X203311200Y-219460238D01*
X203311200Y-219460238D02*
X203358819Y-219365000D01*
X203358819Y-219365000D02*
X203358819Y-219126905D01*
X203358819Y-219126905D02*
X203311200Y-219031667D01*
X203311200Y-219031667D02*
X203263580Y-218984048D01*
X202358819Y-220412619D02*
X202358819Y-220222143D01*
X202358819Y-220222143D02*
X202406438Y-220126905D01*
X202406438Y-220126905D02*
X202454057Y-220079286D01*
X202454057Y-220079286D02*
X202596914Y-219984048D01*
X202596914Y-219984048D02*
X202787390Y-219936429D01*
X202787390Y-219936429D02*
X203168342Y-219936429D01*
X203168342Y-219936429D02*
X203263580Y-219984048D01*
X203263580Y-219984048D02*
X203311200Y-220031667D01*
X203311200Y-220031667D02*
X203358819Y-220126905D01*
X203358819Y-220126905D02*
X203358819Y-220317381D01*
X203358819Y-220317381D02*
X203311200Y-220412619D01*
X203311200Y-220412619D02*
X203263580Y-220460238D01*
X203263580Y-220460238D02*
X203168342Y-220507857D01*
X203168342Y-220507857D02*
X202930247Y-220507857D01*
X202930247Y-220507857D02*
X202835009Y-220460238D01*
X202835009Y-220460238D02*
X202787390Y-220412619D01*
X202787390Y-220412619D02*
X202739771Y-220317381D01*
X202739771Y-220317381D02*
X202739771Y-220126905D01*
X202739771Y-220126905D02*
X202787390Y-220031667D01*
X202787390Y-220031667D02*
X202835009Y-219984048D01*
X202835009Y-219984048D02*
X202930247Y-219936429D01*
X337408569Y-160119762D02*
X336408569Y-160119762D01*
X336408569Y-160119762D02*
X336408569Y-160357857D01*
X336408569Y-160357857D02*
X336456188Y-160500714D01*
X336456188Y-160500714D02*
X336551426Y-160595952D01*
X336551426Y-160595952D02*
X336646664Y-160643571D01*
X336646664Y-160643571D02*
X336837140Y-160691190D01*
X336837140Y-160691190D02*
X336979997Y-160691190D01*
X336979997Y-160691190D02*
X337170473Y-160643571D01*
X337170473Y-160643571D02*
X337265711Y-160595952D01*
X337265711Y-160595952D02*
X337360950Y-160500714D01*
X337360950Y-160500714D02*
X337408569Y-160357857D01*
X337408569Y-160357857D02*
X337408569Y-160119762D01*
X337503807Y-160881667D02*
X337503807Y-161643571D01*
X337408569Y-162405476D02*
X337408569Y-161834048D01*
X337408569Y-162119762D02*
X336408569Y-162119762D01*
X336408569Y-162119762D02*
X336551426Y-162024524D01*
X336551426Y-162024524D02*
X336646664Y-161929286D01*
X336646664Y-161929286D02*
X336694283Y-161834048D01*
X336408569Y-163024524D02*
X336408569Y-163119762D01*
X336408569Y-163119762D02*
X336456188Y-163215000D01*
X336456188Y-163215000D02*
X336503807Y-163262619D01*
X336503807Y-163262619D02*
X336599045Y-163310238D01*
X336599045Y-163310238D02*
X336789521Y-163357857D01*
X336789521Y-163357857D02*
X337027616Y-163357857D01*
X337027616Y-163357857D02*
X337218092Y-163310238D01*
X337218092Y-163310238D02*
X337313330Y-163262619D01*
X337313330Y-163262619D02*
X337360950Y-163215000D01*
X337360950Y-163215000D02*
X337408569Y-163119762D01*
X337408569Y-163119762D02*
X337408569Y-163024524D01*
X337408569Y-163024524D02*
X337360950Y-162929286D01*
X337360950Y-162929286D02*
X337313330Y-162881667D01*
X337313330Y-162881667D02*
X337218092Y-162834048D01*
X337218092Y-162834048D02*
X337027616Y-162786429D01*
X337027616Y-162786429D02*
X336789521Y-162786429D01*
X336789521Y-162786429D02*
X336599045Y-162834048D01*
X336599045Y-162834048D02*
X336503807Y-162881667D01*
X336503807Y-162881667D02*
X336456188Y-162929286D01*
X336456188Y-162929286D02*
X336408569Y-163024524D01*
X451708569Y-160119762D02*
X450708569Y-160119762D01*
X450708569Y-160119762D02*
X450708569Y-160357857D01*
X450708569Y-160357857D02*
X450756188Y-160500714D01*
X450756188Y-160500714D02*
X450851426Y-160595952D01*
X450851426Y-160595952D02*
X450946664Y-160643571D01*
X450946664Y-160643571D02*
X451137140Y-160691190D01*
X451137140Y-160691190D02*
X451279997Y-160691190D01*
X451279997Y-160691190D02*
X451470473Y-160643571D01*
X451470473Y-160643571D02*
X451565711Y-160595952D01*
X451565711Y-160595952D02*
X451660950Y-160500714D01*
X451660950Y-160500714D02*
X451708569Y-160357857D01*
X451708569Y-160357857D02*
X451708569Y-160119762D01*
X451803807Y-160881667D02*
X451803807Y-161643571D01*
X451708569Y-162405476D02*
X451708569Y-161834048D01*
X451708569Y-162119762D02*
X450708569Y-162119762D01*
X450708569Y-162119762D02*
X450851426Y-162024524D01*
X450851426Y-162024524D02*
X450946664Y-161929286D01*
X450946664Y-161929286D02*
X450994283Y-161834048D01*
X450708569Y-163310238D02*
X450708569Y-162834048D01*
X450708569Y-162834048D02*
X451184759Y-162786429D01*
X451184759Y-162786429D02*
X451137140Y-162834048D01*
X451137140Y-162834048D02*
X451089521Y-162929286D01*
X451089521Y-162929286D02*
X451089521Y-163167381D01*
X451089521Y-163167381D02*
X451137140Y-163262619D01*
X451137140Y-163262619D02*
X451184759Y-163310238D01*
X451184759Y-163310238D02*
X451279997Y-163357857D01*
X451279997Y-163357857D02*
X451518092Y-163357857D01*
X451518092Y-163357857D02*
X451613330Y-163310238D01*
X451613330Y-163310238D02*
X451660950Y-163262619D01*
X451660950Y-163262619D02*
X451708569Y-163167381D01*
X451708569Y-163167381D02*
X451708569Y-162929286D01*
X451708569Y-162929286D02*
X451660950Y-162834048D01*
X451660950Y-162834048D02*
X451613330Y-162786429D01*
X489808569Y-198219762D02*
X488808569Y-198219762D01*
X488808569Y-198219762D02*
X488808569Y-198457857D01*
X488808569Y-198457857D02*
X488856188Y-198600714D01*
X488856188Y-198600714D02*
X488951426Y-198695952D01*
X488951426Y-198695952D02*
X489046664Y-198743571D01*
X489046664Y-198743571D02*
X489237140Y-198791190D01*
X489237140Y-198791190D02*
X489379997Y-198791190D01*
X489379997Y-198791190D02*
X489570473Y-198743571D01*
X489570473Y-198743571D02*
X489665711Y-198695952D01*
X489665711Y-198695952D02*
X489760950Y-198600714D01*
X489760950Y-198600714D02*
X489808569Y-198457857D01*
X489808569Y-198457857D02*
X489808569Y-198219762D01*
X489903807Y-198981667D02*
X489903807Y-199743571D01*
X488808569Y-200457857D02*
X488808569Y-199981667D01*
X488808569Y-199981667D02*
X489284759Y-199934048D01*
X489284759Y-199934048D02*
X489237140Y-199981667D01*
X489237140Y-199981667D02*
X489189521Y-200076905D01*
X489189521Y-200076905D02*
X489189521Y-200315000D01*
X489189521Y-200315000D02*
X489237140Y-200410238D01*
X489237140Y-200410238D02*
X489284759Y-200457857D01*
X489284759Y-200457857D02*
X489379997Y-200505476D01*
X489379997Y-200505476D02*
X489618092Y-200505476D01*
X489618092Y-200505476D02*
X489713330Y-200457857D01*
X489713330Y-200457857D02*
X489760950Y-200410238D01*
X489760950Y-200410238D02*
X489808569Y-200315000D01*
X489808569Y-200315000D02*
X489808569Y-200076905D01*
X489808569Y-200076905D02*
X489760950Y-199981667D01*
X489760950Y-199981667D02*
X489713330Y-199934048D01*
X489808569Y-201457857D02*
X489808569Y-200886429D01*
X489808569Y-201172143D02*
X488808569Y-201172143D01*
X488808569Y-201172143D02*
X488951426Y-201076905D01*
X488951426Y-201076905D02*
X489046664Y-200981667D01*
X489046664Y-200981667D02*
X489094283Y-200886429D01*
X485046069Y-217269762D02*
X484046069Y-217269762D01*
X484046069Y-217269762D02*
X484046069Y-217507857D01*
X484046069Y-217507857D02*
X484093688Y-217650714D01*
X484093688Y-217650714D02*
X484188926Y-217745952D01*
X484188926Y-217745952D02*
X484284164Y-217793571D01*
X484284164Y-217793571D02*
X484474640Y-217841190D01*
X484474640Y-217841190D02*
X484617497Y-217841190D01*
X484617497Y-217841190D02*
X484807973Y-217793571D01*
X484807973Y-217793571D02*
X484903211Y-217745952D01*
X484903211Y-217745952D02*
X484998450Y-217650714D01*
X484998450Y-217650714D02*
X485046069Y-217507857D01*
X485046069Y-217507857D02*
X485046069Y-217269762D01*
X485141307Y-218031667D02*
X485141307Y-218793571D01*
X484046069Y-219460238D02*
X484046069Y-219269762D01*
X484046069Y-219269762D02*
X484093688Y-219174524D01*
X484093688Y-219174524D02*
X484141307Y-219126905D01*
X484141307Y-219126905D02*
X484284164Y-219031667D01*
X484284164Y-219031667D02*
X484474640Y-218984048D01*
X484474640Y-218984048D02*
X484855592Y-218984048D01*
X484855592Y-218984048D02*
X484950830Y-219031667D01*
X484950830Y-219031667D02*
X484998450Y-219079286D01*
X484998450Y-219079286D02*
X485046069Y-219174524D01*
X485046069Y-219174524D02*
X485046069Y-219365000D01*
X485046069Y-219365000D02*
X484998450Y-219460238D01*
X484998450Y-219460238D02*
X484950830Y-219507857D01*
X484950830Y-219507857D02*
X484855592Y-219555476D01*
X484855592Y-219555476D02*
X484617497Y-219555476D01*
X484617497Y-219555476D02*
X484522259Y-219507857D01*
X484522259Y-219507857D02*
X484474640Y-219460238D01*
X484474640Y-219460238D02*
X484427021Y-219365000D01*
X484427021Y-219365000D02*
X484427021Y-219174524D01*
X484427021Y-219174524D02*
X484474640Y-219079286D01*
X484474640Y-219079286D02*
X484522259Y-219031667D01*
X484522259Y-219031667D02*
X484617497Y-218984048D01*
X484046069Y-219888810D02*
X484046069Y-220555476D01*
X484046069Y-220555476D02*
X485046069Y-220126905D01*
X165258819Y-236319762D02*
X164258819Y-236319762D01*
X164258819Y-236319762D02*
X164258819Y-236557857D01*
X164258819Y-236557857D02*
X164306438Y-236700714D01*
X164306438Y-236700714D02*
X164401676Y-236795952D01*
X164401676Y-236795952D02*
X164496914Y-236843571D01*
X164496914Y-236843571D02*
X164687390Y-236891190D01*
X164687390Y-236891190D02*
X164830247Y-236891190D01*
X164830247Y-236891190D02*
X165020723Y-236843571D01*
X165020723Y-236843571D02*
X165115961Y-236795952D01*
X165115961Y-236795952D02*
X165211200Y-236700714D01*
X165211200Y-236700714D02*
X165258819Y-236557857D01*
X165258819Y-236557857D02*
X165258819Y-236319762D01*
X165354057Y-237081667D02*
X165354057Y-237843571D01*
X164258819Y-237986429D02*
X164258819Y-238653095D01*
X164258819Y-238653095D02*
X165258819Y-238224524D01*
X165258819Y-239557857D02*
X165258819Y-238986429D01*
X165258819Y-239272143D02*
X164258819Y-239272143D01*
X164258819Y-239272143D02*
X164401676Y-239176905D01*
X164401676Y-239176905D02*
X164496914Y-239081667D01*
X164496914Y-239081667D02*
X164544533Y-238986429D01*
X131921319Y-236319762D02*
X130921319Y-236319762D01*
X130921319Y-236319762D02*
X130921319Y-236557857D01*
X130921319Y-236557857D02*
X130968938Y-236700714D01*
X130968938Y-236700714D02*
X131064176Y-236795952D01*
X131064176Y-236795952D02*
X131159414Y-236843571D01*
X131159414Y-236843571D02*
X131349890Y-236891190D01*
X131349890Y-236891190D02*
X131492747Y-236891190D01*
X131492747Y-236891190D02*
X131683223Y-236843571D01*
X131683223Y-236843571D02*
X131778461Y-236795952D01*
X131778461Y-236795952D02*
X131873700Y-236700714D01*
X131873700Y-236700714D02*
X131921319Y-236557857D01*
X131921319Y-236557857D02*
X131921319Y-236319762D01*
X132016557Y-237081667D02*
X132016557Y-237843571D01*
X130921319Y-237986429D02*
X130921319Y-238653095D01*
X130921319Y-238653095D02*
X131921319Y-238224524D01*
X130921319Y-239224524D02*
X130921319Y-239319762D01*
X130921319Y-239319762D02*
X130968938Y-239415000D01*
X130968938Y-239415000D02*
X131016557Y-239462619D01*
X131016557Y-239462619D02*
X131111795Y-239510238D01*
X131111795Y-239510238D02*
X131302271Y-239557857D01*
X131302271Y-239557857D02*
X131540366Y-239557857D01*
X131540366Y-239557857D02*
X131730842Y-239510238D01*
X131730842Y-239510238D02*
X131826080Y-239462619D01*
X131826080Y-239462619D02*
X131873700Y-239415000D01*
X131873700Y-239415000D02*
X131921319Y-239319762D01*
X131921319Y-239319762D02*
X131921319Y-239224524D01*
X131921319Y-239224524D02*
X131873700Y-239129286D01*
X131873700Y-239129286D02*
X131826080Y-239081667D01*
X131826080Y-239081667D02*
X131730842Y-239034048D01*
X131730842Y-239034048D02*
X131540366Y-238986429D01*
X131540366Y-238986429D02*
X131302271Y-238986429D01*
X131302271Y-238986429D02*
X131111795Y-239034048D01*
X131111795Y-239034048D02*
X131016557Y-239081667D01*
X131016557Y-239081667D02*
X130968938Y-239129286D01*
X130968938Y-239129286D02*
X130921319Y-239224524D01*
X503833819Y-217269762D02*
X502833819Y-217269762D01*
X502833819Y-217269762D02*
X502833819Y-217507857D01*
X502833819Y-217507857D02*
X502881438Y-217650714D01*
X502881438Y-217650714D02*
X502976676Y-217745952D01*
X502976676Y-217745952D02*
X503071914Y-217793571D01*
X503071914Y-217793571D02*
X503262390Y-217841190D01*
X503262390Y-217841190D02*
X503405247Y-217841190D01*
X503405247Y-217841190D02*
X503595723Y-217793571D01*
X503595723Y-217793571D02*
X503690961Y-217745952D01*
X503690961Y-217745952D02*
X503786200Y-217650714D01*
X503786200Y-217650714D02*
X503833819Y-217507857D01*
X503833819Y-217507857D02*
X503833819Y-217269762D01*
X503929057Y-218031667D02*
X503929057Y-218793571D01*
X502833819Y-219460238D02*
X502833819Y-219269762D01*
X502833819Y-219269762D02*
X502881438Y-219174524D01*
X502881438Y-219174524D02*
X502929057Y-219126905D01*
X502929057Y-219126905D02*
X503071914Y-219031667D01*
X503071914Y-219031667D02*
X503262390Y-218984048D01*
X503262390Y-218984048D02*
X503643342Y-218984048D01*
X503643342Y-218984048D02*
X503738580Y-219031667D01*
X503738580Y-219031667D02*
X503786200Y-219079286D01*
X503786200Y-219079286D02*
X503833819Y-219174524D01*
X503833819Y-219174524D02*
X503833819Y-219365000D01*
X503833819Y-219365000D02*
X503786200Y-219460238D01*
X503786200Y-219460238D02*
X503738580Y-219507857D01*
X503738580Y-219507857D02*
X503643342Y-219555476D01*
X503643342Y-219555476D02*
X503405247Y-219555476D01*
X503405247Y-219555476D02*
X503310009Y-219507857D01*
X503310009Y-219507857D02*
X503262390Y-219460238D01*
X503262390Y-219460238D02*
X503214771Y-219365000D01*
X503214771Y-219365000D02*
X503214771Y-219174524D01*
X503214771Y-219174524D02*
X503262390Y-219079286D01*
X503262390Y-219079286D02*
X503310009Y-219031667D01*
X503310009Y-219031667D02*
X503405247Y-218984048D01*
X503262390Y-220126905D02*
X503214771Y-220031667D01*
X503214771Y-220031667D02*
X503167152Y-219984048D01*
X503167152Y-219984048D02*
X503071914Y-219936429D01*
X503071914Y-219936429D02*
X503024295Y-219936429D01*
X503024295Y-219936429D02*
X502929057Y-219984048D01*
X502929057Y-219984048D02*
X502881438Y-220031667D01*
X502881438Y-220031667D02*
X502833819Y-220126905D01*
X502833819Y-220126905D02*
X502833819Y-220317381D01*
X502833819Y-220317381D02*
X502881438Y-220412619D01*
X502881438Y-220412619D02*
X502929057Y-220460238D01*
X502929057Y-220460238D02*
X503024295Y-220507857D01*
X503024295Y-220507857D02*
X503071914Y-220507857D01*
X503071914Y-220507857D02*
X503167152Y-220460238D01*
X503167152Y-220460238D02*
X503214771Y-220412619D01*
X503214771Y-220412619D02*
X503262390Y-220317381D01*
X503262390Y-220317381D02*
X503262390Y-220126905D01*
X503262390Y-220126905D02*
X503310009Y-220031667D01*
X503310009Y-220031667D02*
X503357628Y-219984048D01*
X503357628Y-219984048D02*
X503452866Y-219936429D01*
X503452866Y-219936429D02*
X503643342Y-219936429D01*
X503643342Y-219936429D02*
X503738580Y-219984048D01*
X503738580Y-219984048D02*
X503786200Y-220031667D01*
X503786200Y-220031667D02*
X503833819Y-220126905D01*
X503833819Y-220126905D02*
X503833819Y-220317381D01*
X503833819Y-220317381D02*
X503786200Y-220412619D01*
X503786200Y-220412619D02*
X503738580Y-220460238D01*
X503738580Y-220460238D02*
X503643342Y-220507857D01*
X503643342Y-220507857D02*
X503452866Y-220507857D01*
X503452866Y-220507857D02*
X503357628Y-220460238D01*
X503357628Y-220460238D02*
X503310009Y-220412619D01*
X503310009Y-220412619D02*
X503262390Y-220317381D01*
X327883569Y-179169762D02*
X326883569Y-179169762D01*
X326883569Y-179169762D02*
X326883569Y-179407857D01*
X326883569Y-179407857D02*
X326931188Y-179550714D01*
X326931188Y-179550714D02*
X327026426Y-179645952D01*
X327026426Y-179645952D02*
X327121664Y-179693571D01*
X327121664Y-179693571D02*
X327312140Y-179741190D01*
X327312140Y-179741190D02*
X327454997Y-179741190D01*
X327454997Y-179741190D02*
X327645473Y-179693571D01*
X327645473Y-179693571D02*
X327740711Y-179645952D01*
X327740711Y-179645952D02*
X327835950Y-179550714D01*
X327835950Y-179550714D02*
X327883569Y-179407857D01*
X327883569Y-179407857D02*
X327883569Y-179169762D01*
X327978807Y-179931667D02*
X327978807Y-180693571D01*
X326978807Y-180884048D02*
X326931188Y-180931667D01*
X326931188Y-180931667D02*
X326883569Y-181026905D01*
X326883569Y-181026905D02*
X326883569Y-181265000D01*
X326883569Y-181265000D02*
X326931188Y-181360238D01*
X326931188Y-181360238D02*
X326978807Y-181407857D01*
X326978807Y-181407857D02*
X327074045Y-181455476D01*
X327074045Y-181455476D02*
X327169283Y-181455476D01*
X327169283Y-181455476D02*
X327312140Y-181407857D01*
X327312140Y-181407857D02*
X327883569Y-180836429D01*
X327883569Y-180836429D02*
X327883569Y-181455476D01*
X326883569Y-181788810D02*
X326883569Y-182455476D01*
X326883569Y-182455476D02*
X327883569Y-182026905D01*
X399321069Y-236319762D02*
X398321069Y-236319762D01*
X398321069Y-236319762D02*
X398321069Y-236557857D01*
X398321069Y-236557857D02*
X398368688Y-236700714D01*
X398368688Y-236700714D02*
X398463926Y-236795952D01*
X398463926Y-236795952D02*
X398559164Y-236843571D01*
X398559164Y-236843571D02*
X398749640Y-236891190D01*
X398749640Y-236891190D02*
X398892497Y-236891190D01*
X398892497Y-236891190D02*
X399082973Y-236843571D01*
X399082973Y-236843571D02*
X399178211Y-236795952D01*
X399178211Y-236795952D02*
X399273450Y-236700714D01*
X399273450Y-236700714D02*
X399321069Y-236557857D01*
X399321069Y-236557857D02*
X399321069Y-236319762D01*
X399416307Y-237081667D02*
X399416307Y-237843571D01*
X398321069Y-237986429D02*
X398321069Y-238653095D01*
X398321069Y-238653095D02*
X399321069Y-238224524D01*
X398321069Y-238938810D02*
X398321069Y-239605476D01*
X398321069Y-239605476D02*
X399321069Y-239176905D01*
X227171319Y-179169762D02*
X226171319Y-179169762D01*
X226171319Y-179169762D02*
X226171319Y-179407857D01*
X226171319Y-179407857D02*
X226218938Y-179550714D01*
X226218938Y-179550714D02*
X226314176Y-179645952D01*
X226314176Y-179645952D02*
X226409414Y-179693571D01*
X226409414Y-179693571D02*
X226599890Y-179741190D01*
X226599890Y-179741190D02*
X226742747Y-179741190D01*
X226742747Y-179741190D02*
X226933223Y-179693571D01*
X226933223Y-179693571D02*
X227028461Y-179645952D01*
X227028461Y-179645952D02*
X227123700Y-179550714D01*
X227123700Y-179550714D02*
X227171319Y-179407857D01*
X227171319Y-179407857D02*
X227171319Y-179169762D01*
X227266557Y-179931667D02*
X227266557Y-180693571D01*
X226266557Y-180884048D02*
X226218938Y-180931667D01*
X226218938Y-180931667D02*
X226171319Y-181026905D01*
X226171319Y-181026905D02*
X226171319Y-181265000D01*
X226171319Y-181265000D02*
X226218938Y-181360238D01*
X226218938Y-181360238D02*
X226266557Y-181407857D01*
X226266557Y-181407857D02*
X226361795Y-181455476D01*
X226361795Y-181455476D02*
X226457033Y-181455476D01*
X226457033Y-181455476D02*
X226599890Y-181407857D01*
X226599890Y-181407857D02*
X227171319Y-180836429D01*
X227171319Y-180836429D02*
X227171319Y-181455476D01*
X226171319Y-181788810D02*
X226171319Y-182407857D01*
X226171319Y-182407857D02*
X226552271Y-182074524D01*
X226552271Y-182074524D02*
X226552271Y-182217381D01*
X226552271Y-182217381D02*
X226599890Y-182312619D01*
X226599890Y-182312619D02*
X226647509Y-182360238D01*
X226647509Y-182360238D02*
X226742747Y-182407857D01*
X226742747Y-182407857D02*
X226980842Y-182407857D01*
X226980842Y-182407857D02*
X227076080Y-182360238D01*
X227076080Y-182360238D02*
X227123700Y-182312619D01*
X227123700Y-182312619D02*
X227171319Y-182217381D01*
X227171319Y-182217381D02*
X227171319Y-181931667D01*
X227171319Y-181931667D02*
X227123700Y-181836429D01*
X227123700Y-181836429D02*
X227076080Y-181788810D01*
X361221069Y-217269762D02*
X360221069Y-217269762D01*
X360221069Y-217269762D02*
X360221069Y-217507857D01*
X360221069Y-217507857D02*
X360268688Y-217650714D01*
X360268688Y-217650714D02*
X360363926Y-217745952D01*
X360363926Y-217745952D02*
X360459164Y-217793571D01*
X360459164Y-217793571D02*
X360649640Y-217841190D01*
X360649640Y-217841190D02*
X360792497Y-217841190D01*
X360792497Y-217841190D02*
X360982973Y-217793571D01*
X360982973Y-217793571D02*
X361078211Y-217745952D01*
X361078211Y-217745952D02*
X361173450Y-217650714D01*
X361173450Y-217650714D02*
X361221069Y-217507857D01*
X361221069Y-217507857D02*
X361221069Y-217269762D01*
X361316307Y-218031667D02*
X361316307Y-218793571D01*
X360221069Y-219460238D02*
X360221069Y-219269762D01*
X360221069Y-219269762D02*
X360268688Y-219174524D01*
X360268688Y-219174524D02*
X360316307Y-219126905D01*
X360316307Y-219126905D02*
X360459164Y-219031667D01*
X360459164Y-219031667D02*
X360649640Y-218984048D01*
X360649640Y-218984048D02*
X361030592Y-218984048D01*
X361030592Y-218984048D02*
X361125830Y-219031667D01*
X361125830Y-219031667D02*
X361173450Y-219079286D01*
X361173450Y-219079286D02*
X361221069Y-219174524D01*
X361221069Y-219174524D02*
X361221069Y-219365000D01*
X361221069Y-219365000D02*
X361173450Y-219460238D01*
X361173450Y-219460238D02*
X361125830Y-219507857D01*
X361125830Y-219507857D02*
X361030592Y-219555476D01*
X361030592Y-219555476D02*
X360792497Y-219555476D01*
X360792497Y-219555476D02*
X360697259Y-219507857D01*
X360697259Y-219507857D02*
X360649640Y-219460238D01*
X360649640Y-219460238D02*
X360602021Y-219365000D01*
X360602021Y-219365000D02*
X360602021Y-219174524D01*
X360602021Y-219174524D02*
X360649640Y-219079286D01*
X360649640Y-219079286D02*
X360697259Y-219031667D01*
X360697259Y-219031667D02*
X360792497Y-218984048D01*
X360221069Y-219888810D02*
X360221069Y-220507857D01*
X360221069Y-220507857D02*
X360602021Y-220174524D01*
X360602021Y-220174524D02*
X360602021Y-220317381D01*
X360602021Y-220317381D02*
X360649640Y-220412619D01*
X360649640Y-220412619D02*
X360697259Y-220460238D01*
X360697259Y-220460238D02*
X360792497Y-220507857D01*
X360792497Y-220507857D02*
X361030592Y-220507857D01*
X361030592Y-220507857D02*
X361125830Y-220460238D01*
X361125830Y-220460238D02*
X361173450Y-220412619D01*
X361173450Y-220412619D02*
X361221069Y-220317381D01*
X361221069Y-220317381D02*
X361221069Y-220031667D01*
X361221069Y-220031667D02*
X361173450Y-219936429D01*
X361173450Y-219936429D02*
X361125830Y-219888810D01*
X313596069Y-198219762D02*
X312596069Y-198219762D01*
X312596069Y-198219762D02*
X312596069Y-198457857D01*
X312596069Y-198457857D02*
X312643688Y-198600714D01*
X312643688Y-198600714D02*
X312738926Y-198695952D01*
X312738926Y-198695952D02*
X312834164Y-198743571D01*
X312834164Y-198743571D02*
X313024640Y-198791190D01*
X313024640Y-198791190D02*
X313167497Y-198791190D01*
X313167497Y-198791190D02*
X313357973Y-198743571D01*
X313357973Y-198743571D02*
X313453211Y-198695952D01*
X313453211Y-198695952D02*
X313548450Y-198600714D01*
X313548450Y-198600714D02*
X313596069Y-198457857D01*
X313596069Y-198457857D02*
X313596069Y-198219762D01*
X313691307Y-198981667D02*
X313691307Y-199743571D01*
X312929402Y-200410238D02*
X313596069Y-200410238D01*
X312548450Y-200172143D02*
X313262735Y-199934048D01*
X313262735Y-199934048D02*
X313262735Y-200553095D01*
X312929402Y-201362619D02*
X313596069Y-201362619D01*
X312548450Y-201124524D02*
X313262735Y-200886429D01*
X313262735Y-200886429D02*
X313262735Y-201505476D01*
X451708569Y-179169762D02*
X450708569Y-179169762D01*
X450708569Y-179169762D02*
X450708569Y-179407857D01*
X450708569Y-179407857D02*
X450756188Y-179550714D01*
X450756188Y-179550714D02*
X450851426Y-179645952D01*
X450851426Y-179645952D02*
X450946664Y-179693571D01*
X450946664Y-179693571D02*
X451137140Y-179741190D01*
X451137140Y-179741190D02*
X451279997Y-179741190D01*
X451279997Y-179741190D02*
X451470473Y-179693571D01*
X451470473Y-179693571D02*
X451565711Y-179645952D01*
X451565711Y-179645952D02*
X451660950Y-179550714D01*
X451660950Y-179550714D02*
X451708569Y-179407857D01*
X451708569Y-179407857D02*
X451708569Y-179169762D01*
X451803807Y-179931667D02*
X451803807Y-180693571D01*
X450708569Y-180836429D02*
X450708569Y-181455476D01*
X450708569Y-181455476D02*
X451089521Y-181122143D01*
X451089521Y-181122143D02*
X451089521Y-181265000D01*
X451089521Y-181265000D02*
X451137140Y-181360238D01*
X451137140Y-181360238D02*
X451184759Y-181407857D01*
X451184759Y-181407857D02*
X451279997Y-181455476D01*
X451279997Y-181455476D02*
X451518092Y-181455476D01*
X451518092Y-181455476D02*
X451613330Y-181407857D01*
X451613330Y-181407857D02*
X451660950Y-181360238D01*
X451660950Y-181360238D02*
X451708569Y-181265000D01*
X451708569Y-181265000D02*
X451708569Y-180979286D01*
X451708569Y-180979286D02*
X451660950Y-180884048D01*
X451660950Y-180884048D02*
X451613330Y-180836429D01*
X450708569Y-181788810D02*
X450708569Y-182407857D01*
X450708569Y-182407857D02*
X451089521Y-182074524D01*
X451089521Y-182074524D02*
X451089521Y-182217381D01*
X451089521Y-182217381D02*
X451137140Y-182312619D01*
X451137140Y-182312619D02*
X451184759Y-182360238D01*
X451184759Y-182360238D02*
X451279997Y-182407857D01*
X451279997Y-182407857D02*
X451518092Y-182407857D01*
X451518092Y-182407857D02*
X451613330Y-182360238D01*
X451613330Y-182360238D02*
X451660950Y-182312619D01*
X451660950Y-182312619D02*
X451708569Y-182217381D01*
X451708569Y-182217381D02*
X451708569Y-181931667D01*
X451708569Y-181931667D02*
X451660950Y-181836429D01*
X451660950Y-181836429D02*
X451613330Y-181788810D01*
X103346319Y-198219762D02*
X102346319Y-198219762D01*
X102346319Y-198219762D02*
X102346319Y-198457857D01*
X102346319Y-198457857D02*
X102393938Y-198600714D01*
X102393938Y-198600714D02*
X102489176Y-198695952D01*
X102489176Y-198695952D02*
X102584414Y-198743571D01*
X102584414Y-198743571D02*
X102774890Y-198791190D01*
X102774890Y-198791190D02*
X102917747Y-198791190D01*
X102917747Y-198791190D02*
X103108223Y-198743571D01*
X103108223Y-198743571D02*
X103203461Y-198695952D01*
X103203461Y-198695952D02*
X103298700Y-198600714D01*
X103298700Y-198600714D02*
X103346319Y-198457857D01*
X103346319Y-198457857D02*
X103346319Y-198219762D01*
X103441557Y-198981667D02*
X103441557Y-199743571D01*
X102346319Y-199886429D02*
X102346319Y-200505476D01*
X102346319Y-200505476D02*
X102727271Y-200172143D01*
X102727271Y-200172143D02*
X102727271Y-200315000D01*
X102727271Y-200315000D02*
X102774890Y-200410238D01*
X102774890Y-200410238D02*
X102822509Y-200457857D01*
X102822509Y-200457857D02*
X102917747Y-200505476D01*
X102917747Y-200505476D02*
X103155842Y-200505476D01*
X103155842Y-200505476D02*
X103251080Y-200457857D01*
X103251080Y-200457857D02*
X103298700Y-200410238D01*
X103298700Y-200410238D02*
X103346319Y-200315000D01*
X103346319Y-200315000D02*
X103346319Y-200029286D01*
X103346319Y-200029286D02*
X103298700Y-199934048D01*
X103298700Y-199934048D02*
X103251080Y-199886429D01*
X102346319Y-201362619D02*
X102346319Y-201172143D01*
X102346319Y-201172143D02*
X102393938Y-201076905D01*
X102393938Y-201076905D02*
X102441557Y-201029286D01*
X102441557Y-201029286D02*
X102584414Y-200934048D01*
X102584414Y-200934048D02*
X102774890Y-200886429D01*
X102774890Y-200886429D02*
X103155842Y-200886429D01*
X103155842Y-200886429D02*
X103251080Y-200934048D01*
X103251080Y-200934048D02*
X103298700Y-200981667D01*
X103298700Y-200981667D02*
X103346319Y-201076905D01*
X103346319Y-201076905D02*
X103346319Y-201267381D01*
X103346319Y-201267381D02*
X103298700Y-201362619D01*
X103298700Y-201362619D02*
X103251080Y-201410238D01*
X103251080Y-201410238D02*
X103155842Y-201457857D01*
X103155842Y-201457857D02*
X102917747Y-201457857D01*
X102917747Y-201457857D02*
X102822509Y-201410238D01*
X102822509Y-201410238D02*
X102774890Y-201362619D01*
X102774890Y-201362619D02*
X102727271Y-201267381D01*
X102727271Y-201267381D02*
X102727271Y-201076905D01*
X102727271Y-201076905D02*
X102774890Y-200981667D01*
X102774890Y-200981667D02*
X102822509Y-200934048D01*
X102822509Y-200934048D02*
X102917747Y-200886429D01*
X184308819Y-217269762D02*
X183308819Y-217269762D01*
X183308819Y-217269762D02*
X183308819Y-217507857D01*
X183308819Y-217507857D02*
X183356438Y-217650714D01*
X183356438Y-217650714D02*
X183451676Y-217745952D01*
X183451676Y-217745952D02*
X183546914Y-217793571D01*
X183546914Y-217793571D02*
X183737390Y-217841190D01*
X183737390Y-217841190D02*
X183880247Y-217841190D01*
X183880247Y-217841190D02*
X184070723Y-217793571D01*
X184070723Y-217793571D02*
X184165961Y-217745952D01*
X184165961Y-217745952D02*
X184261200Y-217650714D01*
X184261200Y-217650714D02*
X184308819Y-217507857D01*
X184308819Y-217507857D02*
X184308819Y-217269762D01*
X184404057Y-218031667D02*
X184404057Y-218793571D01*
X183308819Y-219507857D02*
X183308819Y-219031667D01*
X183308819Y-219031667D02*
X183785009Y-218984048D01*
X183785009Y-218984048D02*
X183737390Y-219031667D01*
X183737390Y-219031667D02*
X183689771Y-219126905D01*
X183689771Y-219126905D02*
X183689771Y-219365000D01*
X183689771Y-219365000D02*
X183737390Y-219460238D01*
X183737390Y-219460238D02*
X183785009Y-219507857D01*
X183785009Y-219507857D02*
X183880247Y-219555476D01*
X183880247Y-219555476D02*
X184118342Y-219555476D01*
X184118342Y-219555476D02*
X184213580Y-219507857D01*
X184213580Y-219507857D02*
X184261200Y-219460238D01*
X184261200Y-219460238D02*
X184308819Y-219365000D01*
X184308819Y-219365000D02*
X184308819Y-219126905D01*
X184308819Y-219126905D02*
X184261200Y-219031667D01*
X184261200Y-219031667D02*
X184213580Y-218984048D01*
X183308819Y-220460238D02*
X183308819Y-219984048D01*
X183308819Y-219984048D02*
X183785009Y-219936429D01*
X183785009Y-219936429D02*
X183737390Y-219984048D01*
X183737390Y-219984048D02*
X183689771Y-220079286D01*
X183689771Y-220079286D02*
X183689771Y-220317381D01*
X183689771Y-220317381D02*
X183737390Y-220412619D01*
X183737390Y-220412619D02*
X183785009Y-220460238D01*
X183785009Y-220460238D02*
X183880247Y-220507857D01*
X183880247Y-220507857D02*
X184118342Y-220507857D01*
X184118342Y-220507857D02*
X184213580Y-220460238D01*
X184213580Y-220460238D02*
X184261200Y-220412619D01*
X184261200Y-220412619D02*
X184308819Y-220317381D01*
X184308819Y-220317381D02*
X184308819Y-220079286D01*
X184308819Y-220079286D02*
X184261200Y-219984048D01*
X184261200Y-219984048D02*
X184213580Y-219936429D01*
X385033569Y-179169762D02*
X384033569Y-179169762D01*
X384033569Y-179169762D02*
X384033569Y-179407857D01*
X384033569Y-179407857D02*
X384081188Y-179550714D01*
X384081188Y-179550714D02*
X384176426Y-179645952D01*
X384176426Y-179645952D02*
X384271664Y-179693571D01*
X384271664Y-179693571D02*
X384462140Y-179741190D01*
X384462140Y-179741190D02*
X384604997Y-179741190D01*
X384604997Y-179741190D02*
X384795473Y-179693571D01*
X384795473Y-179693571D02*
X384890711Y-179645952D01*
X384890711Y-179645952D02*
X384985950Y-179550714D01*
X384985950Y-179550714D02*
X385033569Y-179407857D01*
X385033569Y-179407857D02*
X385033569Y-179169762D01*
X385128807Y-179931667D02*
X385128807Y-180693571D01*
X384033569Y-180836429D02*
X384033569Y-181455476D01*
X384033569Y-181455476D02*
X384414521Y-181122143D01*
X384414521Y-181122143D02*
X384414521Y-181265000D01*
X384414521Y-181265000D02*
X384462140Y-181360238D01*
X384462140Y-181360238D02*
X384509759Y-181407857D01*
X384509759Y-181407857D02*
X384604997Y-181455476D01*
X384604997Y-181455476D02*
X384843092Y-181455476D01*
X384843092Y-181455476D02*
X384938330Y-181407857D01*
X384938330Y-181407857D02*
X384985950Y-181360238D01*
X384985950Y-181360238D02*
X385033569Y-181265000D01*
X385033569Y-181265000D02*
X385033569Y-180979286D01*
X385033569Y-180979286D02*
X384985950Y-180884048D01*
X384985950Y-180884048D02*
X384938330Y-180836429D01*
X384033569Y-182074524D02*
X384033569Y-182169762D01*
X384033569Y-182169762D02*
X384081188Y-182265000D01*
X384081188Y-182265000D02*
X384128807Y-182312619D01*
X384128807Y-182312619D02*
X384224045Y-182360238D01*
X384224045Y-182360238D02*
X384414521Y-182407857D01*
X384414521Y-182407857D02*
X384652616Y-182407857D01*
X384652616Y-182407857D02*
X384843092Y-182360238D01*
X384843092Y-182360238D02*
X384938330Y-182312619D01*
X384938330Y-182312619D02*
X384985950Y-182265000D01*
X384985950Y-182265000D02*
X385033569Y-182169762D01*
X385033569Y-182169762D02*
X385033569Y-182074524D01*
X385033569Y-182074524D02*
X384985950Y-181979286D01*
X384985950Y-181979286D02*
X384938330Y-181931667D01*
X384938330Y-181931667D02*
X384843092Y-181884048D01*
X384843092Y-181884048D02*
X384652616Y-181836429D01*
X384652616Y-181836429D02*
X384414521Y-181836429D01*
X384414521Y-181836429D02*
X384224045Y-181884048D01*
X384224045Y-181884048D02*
X384128807Y-181931667D01*
X384128807Y-181931667D02*
X384081188Y-181979286D01*
X384081188Y-181979286D02*
X384033569Y-182074524D01*
X503833819Y-179169762D02*
X502833819Y-179169762D01*
X502833819Y-179169762D02*
X502833819Y-179407857D01*
X502833819Y-179407857D02*
X502881438Y-179550714D01*
X502881438Y-179550714D02*
X502976676Y-179645952D01*
X502976676Y-179645952D02*
X503071914Y-179693571D01*
X503071914Y-179693571D02*
X503262390Y-179741190D01*
X503262390Y-179741190D02*
X503405247Y-179741190D01*
X503405247Y-179741190D02*
X503595723Y-179693571D01*
X503595723Y-179693571D02*
X503690961Y-179645952D01*
X503690961Y-179645952D02*
X503786200Y-179550714D01*
X503786200Y-179550714D02*
X503833819Y-179407857D01*
X503833819Y-179407857D02*
X503833819Y-179169762D01*
X503929057Y-179931667D02*
X503929057Y-180693571D01*
X502833819Y-180836429D02*
X502833819Y-181455476D01*
X502833819Y-181455476D02*
X503214771Y-181122143D01*
X503214771Y-181122143D02*
X503214771Y-181265000D01*
X503214771Y-181265000D02*
X503262390Y-181360238D01*
X503262390Y-181360238D02*
X503310009Y-181407857D01*
X503310009Y-181407857D02*
X503405247Y-181455476D01*
X503405247Y-181455476D02*
X503643342Y-181455476D01*
X503643342Y-181455476D02*
X503738580Y-181407857D01*
X503738580Y-181407857D02*
X503786200Y-181360238D01*
X503786200Y-181360238D02*
X503833819Y-181265000D01*
X503833819Y-181265000D02*
X503833819Y-180979286D01*
X503833819Y-180979286D02*
X503786200Y-180884048D01*
X503786200Y-180884048D02*
X503738580Y-180836429D01*
X502833819Y-182360238D02*
X502833819Y-181884048D01*
X502833819Y-181884048D02*
X503310009Y-181836429D01*
X503310009Y-181836429D02*
X503262390Y-181884048D01*
X503262390Y-181884048D02*
X503214771Y-181979286D01*
X503214771Y-181979286D02*
X503214771Y-182217381D01*
X503214771Y-182217381D02*
X503262390Y-182312619D01*
X503262390Y-182312619D02*
X503310009Y-182360238D01*
X503310009Y-182360238D02*
X503405247Y-182407857D01*
X503405247Y-182407857D02*
X503643342Y-182407857D01*
X503643342Y-182407857D02*
X503738580Y-182360238D01*
X503738580Y-182360238D02*
X503786200Y-182312619D01*
X503786200Y-182312619D02*
X503833819Y-182217381D01*
X503833819Y-182217381D02*
X503833819Y-181979286D01*
X503833819Y-181979286D02*
X503786200Y-181884048D01*
X503786200Y-181884048D02*
X503738580Y-181836429D01*
X332646069Y-198219762D02*
X331646069Y-198219762D01*
X331646069Y-198219762D02*
X331646069Y-198457857D01*
X331646069Y-198457857D02*
X331693688Y-198600714D01*
X331693688Y-198600714D02*
X331788926Y-198695952D01*
X331788926Y-198695952D02*
X331884164Y-198743571D01*
X331884164Y-198743571D02*
X332074640Y-198791190D01*
X332074640Y-198791190D02*
X332217497Y-198791190D01*
X332217497Y-198791190D02*
X332407973Y-198743571D01*
X332407973Y-198743571D02*
X332503211Y-198695952D01*
X332503211Y-198695952D02*
X332598450Y-198600714D01*
X332598450Y-198600714D02*
X332646069Y-198457857D01*
X332646069Y-198457857D02*
X332646069Y-198219762D01*
X332741307Y-198981667D02*
X332741307Y-199743571D01*
X331979402Y-200410238D02*
X332646069Y-200410238D01*
X331598450Y-200172143D02*
X332312735Y-199934048D01*
X332312735Y-199934048D02*
X332312735Y-200553095D01*
X331646069Y-201410238D02*
X331646069Y-200934048D01*
X331646069Y-200934048D02*
X332122259Y-200886429D01*
X332122259Y-200886429D02*
X332074640Y-200934048D01*
X332074640Y-200934048D02*
X332027021Y-201029286D01*
X332027021Y-201029286D02*
X332027021Y-201267381D01*
X332027021Y-201267381D02*
X332074640Y-201362619D01*
X332074640Y-201362619D02*
X332122259Y-201410238D01*
X332122259Y-201410238D02*
X332217497Y-201457857D01*
X332217497Y-201457857D02*
X332455592Y-201457857D01*
X332455592Y-201457857D02*
X332550830Y-201410238D01*
X332550830Y-201410238D02*
X332598450Y-201362619D01*
X332598450Y-201362619D02*
X332646069Y-201267381D01*
X332646069Y-201267381D02*
X332646069Y-201029286D01*
X332646069Y-201029286D02*
X332598450Y-200934048D01*
X332598450Y-200934048D02*
X332550830Y-200886429D01*
X108108819Y-217269762D02*
X107108819Y-217269762D01*
X107108819Y-217269762D02*
X107108819Y-217507857D01*
X107108819Y-217507857D02*
X107156438Y-217650714D01*
X107156438Y-217650714D02*
X107251676Y-217745952D01*
X107251676Y-217745952D02*
X107346914Y-217793571D01*
X107346914Y-217793571D02*
X107537390Y-217841190D01*
X107537390Y-217841190D02*
X107680247Y-217841190D01*
X107680247Y-217841190D02*
X107870723Y-217793571D01*
X107870723Y-217793571D02*
X107965961Y-217745952D01*
X107965961Y-217745952D02*
X108061200Y-217650714D01*
X108061200Y-217650714D02*
X108108819Y-217507857D01*
X108108819Y-217507857D02*
X108108819Y-217269762D01*
X108204057Y-218031667D02*
X108204057Y-218793571D01*
X107108819Y-219507857D02*
X107108819Y-219031667D01*
X107108819Y-219031667D02*
X107585009Y-218984048D01*
X107585009Y-218984048D02*
X107537390Y-219031667D01*
X107537390Y-219031667D02*
X107489771Y-219126905D01*
X107489771Y-219126905D02*
X107489771Y-219365000D01*
X107489771Y-219365000D02*
X107537390Y-219460238D01*
X107537390Y-219460238D02*
X107585009Y-219507857D01*
X107585009Y-219507857D02*
X107680247Y-219555476D01*
X107680247Y-219555476D02*
X107918342Y-219555476D01*
X107918342Y-219555476D02*
X108013580Y-219507857D01*
X108013580Y-219507857D02*
X108061200Y-219460238D01*
X108061200Y-219460238D02*
X108108819Y-219365000D01*
X108108819Y-219365000D02*
X108108819Y-219126905D01*
X108108819Y-219126905D02*
X108061200Y-219031667D01*
X108061200Y-219031667D02*
X108013580Y-218984048D01*
X107108819Y-219888810D02*
X107108819Y-220507857D01*
X107108819Y-220507857D02*
X107489771Y-220174524D01*
X107489771Y-220174524D02*
X107489771Y-220317381D01*
X107489771Y-220317381D02*
X107537390Y-220412619D01*
X107537390Y-220412619D02*
X107585009Y-220460238D01*
X107585009Y-220460238D02*
X107680247Y-220507857D01*
X107680247Y-220507857D02*
X107918342Y-220507857D01*
X107918342Y-220507857D02*
X108013580Y-220460238D01*
X108013580Y-220460238D02*
X108061200Y-220412619D01*
X108061200Y-220412619D02*
X108108819Y-220317381D01*
X108108819Y-220317381D02*
X108108819Y-220031667D01*
X108108819Y-220031667D02*
X108061200Y-219936429D01*
X108061200Y-219936429D02*
X108013580Y-219888810D01*
X189071319Y-179169762D02*
X188071319Y-179169762D01*
X188071319Y-179169762D02*
X188071319Y-179407857D01*
X188071319Y-179407857D02*
X188118938Y-179550714D01*
X188118938Y-179550714D02*
X188214176Y-179645952D01*
X188214176Y-179645952D02*
X188309414Y-179693571D01*
X188309414Y-179693571D02*
X188499890Y-179741190D01*
X188499890Y-179741190D02*
X188642747Y-179741190D01*
X188642747Y-179741190D02*
X188833223Y-179693571D01*
X188833223Y-179693571D02*
X188928461Y-179645952D01*
X188928461Y-179645952D02*
X189023700Y-179550714D01*
X189023700Y-179550714D02*
X189071319Y-179407857D01*
X189071319Y-179407857D02*
X189071319Y-179169762D01*
X189166557Y-179931667D02*
X189166557Y-180693571D01*
X188166557Y-180884048D02*
X188118938Y-180931667D01*
X188118938Y-180931667D02*
X188071319Y-181026905D01*
X188071319Y-181026905D02*
X188071319Y-181265000D01*
X188071319Y-181265000D02*
X188118938Y-181360238D01*
X188118938Y-181360238D02*
X188166557Y-181407857D01*
X188166557Y-181407857D02*
X188261795Y-181455476D01*
X188261795Y-181455476D02*
X188357033Y-181455476D01*
X188357033Y-181455476D02*
X188499890Y-181407857D01*
X188499890Y-181407857D02*
X189071319Y-180836429D01*
X189071319Y-180836429D02*
X189071319Y-181455476D01*
X189071319Y-182407857D02*
X189071319Y-181836429D01*
X189071319Y-182122143D02*
X188071319Y-182122143D01*
X188071319Y-182122143D02*
X188214176Y-182026905D01*
X188214176Y-182026905D02*
X188309414Y-181931667D01*
X188309414Y-181931667D02*
X188357033Y-181836429D01*
X394558569Y-160119762D02*
X393558569Y-160119762D01*
X393558569Y-160119762D02*
X393558569Y-160357857D01*
X393558569Y-160357857D02*
X393606188Y-160500714D01*
X393606188Y-160500714D02*
X393701426Y-160595952D01*
X393701426Y-160595952D02*
X393796664Y-160643571D01*
X393796664Y-160643571D02*
X393987140Y-160691190D01*
X393987140Y-160691190D02*
X394129997Y-160691190D01*
X394129997Y-160691190D02*
X394320473Y-160643571D01*
X394320473Y-160643571D02*
X394415711Y-160595952D01*
X394415711Y-160595952D02*
X394510950Y-160500714D01*
X394510950Y-160500714D02*
X394558569Y-160357857D01*
X394558569Y-160357857D02*
X394558569Y-160119762D01*
X394653807Y-160881667D02*
X394653807Y-161643571D01*
X394558569Y-162405476D02*
X394558569Y-161834048D01*
X394558569Y-162119762D02*
X393558569Y-162119762D01*
X393558569Y-162119762D02*
X393701426Y-162024524D01*
X393701426Y-162024524D02*
X393796664Y-161929286D01*
X393796664Y-161929286D02*
X393844283Y-161834048D01*
X393558569Y-162738810D02*
X393558569Y-163357857D01*
X393558569Y-163357857D02*
X393939521Y-163024524D01*
X393939521Y-163024524D02*
X393939521Y-163167381D01*
X393939521Y-163167381D02*
X393987140Y-163262619D01*
X393987140Y-163262619D02*
X394034759Y-163310238D01*
X394034759Y-163310238D02*
X394129997Y-163357857D01*
X394129997Y-163357857D02*
X394368092Y-163357857D01*
X394368092Y-163357857D02*
X394463330Y-163310238D01*
X394463330Y-163310238D02*
X394510950Y-163262619D01*
X394510950Y-163262619D02*
X394558569Y-163167381D01*
X394558569Y-163167381D02*
X394558569Y-162881667D01*
X394558569Y-162881667D02*
X394510950Y-162786429D01*
X394510950Y-162786429D02*
X394463330Y-162738810D01*
X265633819Y-195719762D02*
X264633819Y-195719762D01*
X264633819Y-195719762D02*
X264633819Y-195957857D01*
X264633819Y-195957857D02*
X264681438Y-196100714D01*
X264681438Y-196100714D02*
X264776676Y-196195952D01*
X264776676Y-196195952D02*
X264871914Y-196243571D01*
X264871914Y-196243571D02*
X265062390Y-196291190D01*
X265062390Y-196291190D02*
X265205247Y-196291190D01*
X265205247Y-196291190D02*
X265395723Y-196243571D01*
X265395723Y-196243571D02*
X265490961Y-196195952D01*
X265490961Y-196195952D02*
X265586200Y-196100714D01*
X265586200Y-196100714D02*
X265633819Y-195957857D01*
X265633819Y-195957857D02*
X265633819Y-195719762D01*
X265729057Y-196481667D02*
X265729057Y-197243571D01*
X264967152Y-197910238D02*
X265633819Y-197910238D01*
X264586200Y-197672143D02*
X265300485Y-197434048D01*
X265300485Y-197434048D02*
X265300485Y-198053095D01*
X264633819Y-198338810D02*
X264633819Y-198957857D01*
X264633819Y-198957857D02*
X265014771Y-198624524D01*
X265014771Y-198624524D02*
X265014771Y-198767381D01*
X265014771Y-198767381D02*
X265062390Y-198862619D01*
X265062390Y-198862619D02*
X265110009Y-198910238D01*
X265110009Y-198910238D02*
X265205247Y-198957857D01*
X265205247Y-198957857D02*
X265443342Y-198957857D01*
X265443342Y-198957857D02*
X265538580Y-198910238D01*
X265538580Y-198910238D02*
X265586200Y-198862619D01*
X265586200Y-198862619D02*
X265633819Y-198767381D01*
X265633819Y-198767381D02*
X265633819Y-198481667D01*
X265633819Y-198481667D02*
X265586200Y-198386429D01*
X265586200Y-198386429D02*
X265538580Y-198338810D01*
X222408819Y-217269762D02*
X221408819Y-217269762D01*
X221408819Y-217269762D02*
X221408819Y-217507857D01*
X221408819Y-217507857D02*
X221456438Y-217650714D01*
X221456438Y-217650714D02*
X221551676Y-217745952D01*
X221551676Y-217745952D02*
X221646914Y-217793571D01*
X221646914Y-217793571D02*
X221837390Y-217841190D01*
X221837390Y-217841190D02*
X221980247Y-217841190D01*
X221980247Y-217841190D02*
X222170723Y-217793571D01*
X222170723Y-217793571D02*
X222265961Y-217745952D01*
X222265961Y-217745952D02*
X222361200Y-217650714D01*
X222361200Y-217650714D02*
X222408819Y-217507857D01*
X222408819Y-217507857D02*
X222408819Y-217269762D01*
X222504057Y-218031667D02*
X222504057Y-218793571D01*
X221408819Y-219507857D02*
X221408819Y-219031667D01*
X221408819Y-219031667D02*
X221885009Y-218984048D01*
X221885009Y-218984048D02*
X221837390Y-219031667D01*
X221837390Y-219031667D02*
X221789771Y-219126905D01*
X221789771Y-219126905D02*
X221789771Y-219365000D01*
X221789771Y-219365000D02*
X221837390Y-219460238D01*
X221837390Y-219460238D02*
X221885009Y-219507857D01*
X221885009Y-219507857D02*
X221980247Y-219555476D01*
X221980247Y-219555476D02*
X222218342Y-219555476D01*
X222218342Y-219555476D02*
X222313580Y-219507857D01*
X222313580Y-219507857D02*
X222361200Y-219460238D01*
X222361200Y-219460238D02*
X222408819Y-219365000D01*
X222408819Y-219365000D02*
X222408819Y-219126905D01*
X222408819Y-219126905D02*
X222361200Y-219031667D01*
X222361200Y-219031667D02*
X222313580Y-218984048D01*
X221408819Y-219888810D02*
X221408819Y-220555476D01*
X221408819Y-220555476D02*
X222408819Y-220126905D01*
X318358569Y-160595952D02*
X317358569Y-160595952D01*
X317358569Y-160595952D02*
X317358569Y-160834047D01*
X317358569Y-160834047D02*
X317406188Y-160976904D01*
X317406188Y-160976904D02*
X317501426Y-161072142D01*
X317501426Y-161072142D02*
X317596664Y-161119761D01*
X317596664Y-161119761D02*
X317787140Y-161167380D01*
X317787140Y-161167380D02*
X317929997Y-161167380D01*
X317929997Y-161167380D02*
X318120473Y-161119761D01*
X318120473Y-161119761D02*
X318215711Y-161072142D01*
X318215711Y-161072142D02*
X318310950Y-160976904D01*
X318310950Y-160976904D02*
X318358569Y-160834047D01*
X318358569Y-160834047D02*
X318358569Y-160595952D01*
X318453807Y-161357857D02*
X318453807Y-162119761D01*
X318358569Y-162405476D02*
X318358569Y-162595952D01*
X318358569Y-162595952D02*
X318310950Y-162691190D01*
X318310950Y-162691190D02*
X318263330Y-162738809D01*
X318263330Y-162738809D02*
X318120473Y-162834047D01*
X318120473Y-162834047D02*
X317929997Y-162881666D01*
X317929997Y-162881666D02*
X317549045Y-162881666D01*
X317549045Y-162881666D02*
X317453807Y-162834047D01*
X317453807Y-162834047D02*
X317406188Y-162786428D01*
X317406188Y-162786428D02*
X317358569Y-162691190D01*
X317358569Y-162691190D02*
X317358569Y-162500714D01*
X317358569Y-162500714D02*
X317406188Y-162405476D01*
X317406188Y-162405476D02*
X317453807Y-162357857D01*
X317453807Y-162357857D02*
X317549045Y-162310238D01*
X317549045Y-162310238D02*
X317787140Y-162310238D01*
X317787140Y-162310238D02*
X317882378Y-162357857D01*
X317882378Y-162357857D02*
X317929997Y-162405476D01*
X317929997Y-162405476D02*
X317977616Y-162500714D01*
X317977616Y-162500714D02*
X317977616Y-162691190D01*
X317977616Y-162691190D02*
X317929997Y-162786428D01*
X317929997Y-162786428D02*
X317882378Y-162834047D01*
X317882378Y-162834047D02*
X317787140Y-162881666D01*
X208121319Y-179169762D02*
X207121319Y-179169762D01*
X207121319Y-179169762D02*
X207121319Y-179407857D01*
X207121319Y-179407857D02*
X207168938Y-179550714D01*
X207168938Y-179550714D02*
X207264176Y-179645952D01*
X207264176Y-179645952D02*
X207359414Y-179693571D01*
X207359414Y-179693571D02*
X207549890Y-179741190D01*
X207549890Y-179741190D02*
X207692747Y-179741190D01*
X207692747Y-179741190D02*
X207883223Y-179693571D01*
X207883223Y-179693571D02*
X207978461Y-179645952D01*
X207978461Y-179645952D02*
X208073700Y-179550714D01*
X208073700Y-179550714D02*
X208121319Y-179407857D01*
X208121319Y-179407857D02*
X208121319Y-179169762D01*
X208216557Y-179931667D02*
X208216557Y-180693571D01*
X207216557Y-180884048D02*
X207168938Y-180931667D01*
X207168938Y-180931667D02*
X207121319Y-181026905D01*
X207121319Y-181026905D02*
X207121319Y-181265000D01*
X207121319Y-181265000D02*
X207168938Y-181360238D01*
X207168938Y-181360238D02*
X207216557Y-181407857D01*
X207216557Y-181407857D02*
X207311795Y-181455476D01*
X207311795Y-181455476D02*
X207407033Y-181455476D01*
X207407033Y-181455476D02*
X207549890Y-181407857D01*
X207549890Y-181407857D02*
X208121319Y-180836429D01*
X208121319Y-180836429D02*
X208121319Y-181455476D01*
X207216557Y-181836429D02*
X207168938Y-181884048D01*
X207168938Y-181884048D02*
X207121319Y-181979286D01*
X207121319Y-181979286D02*
X207121319Y-182217381D01*
X207121319Y-182217381D02*
X207168938Y-182312619D01*
X207168938Y-182312619D02*
X207216557Y-182360238D01*
X207216557Y-182360238D02*
X207311795Y-182407857D01*
X207311795Y-182407857D02*
X207407033Y-182407857D01*
X207407033Y-182407857D02*
X207549890Y-182360238D01*
X207549890Y-182360238D02*
X208121319Y-181788810D01*
X208121319Y-181788810D02*
X208121319Y-182407857D01*
X265633819Y-233719762D02*
X264633819Y-233719762D01*
X264633819Y-233719762D02*
X264633819Y-233957857D01*
X264633819Y-233957857D02*
X264681438Y-234100714D01*
X264681438Y-234100714D02*
X264776676Y-234195952D01*
X264776676Y-234195952D02*
X264871914Y-234243571D01*
X264871914Y-234243571D02*
X265062390Y-234291190D01*
X265062390Y-234291190D02*
X265205247Y-234291190D01*
X265205247Y-234291190D02*
X265395723Y-234243571D01*
X265395723Y-234243571D02*
X265490961Y-234195952D01*
X265490961Y-234195952D02*
X265586200Y-234100714D01*
X265586200Y-234100714D02*
X265633819Y-233957857D01*
X265633819Y-233957857D02*
X265633819Y-233719762D01*
X265729057Y-234481667D02*
X265729057Y-235243571D01*
X264633819Y-235386429D02*
X264633819Y-236053095D01*
X264633819Y-236053095D02*
X265633819Y-235624524D01*
X264967152Y-236862619D02*
X265633819Y-236862619D01*
X264586200Y-236624524D02*
X265300485Y-236386429D01*
X265300485Y-236386429D02*
X265300485Y-237005476D01*
X508596319Y-198219762D02*
X507596319Y-198219762D01*
X507596319Y-198219762D02*
X507596319Y-198457857D01*
X507596319Y-198457857D02*
X507643938Y-198600714D01*
X507643938Y-198600714D02*
X507739176Y-198695952D01*
X507739176Y-198695952D02*
X507834414Y-198743571D01*
X507834414Y-198743571D02*
X508024890Y-198791190D01*
X508024890Y-198791190D02*
X508167747Y-198791190D01*
X508167747Y-198791190D02*
X508358223Y-198743571D01*
X508358223Y-198743571D02*
X508453461Y-198695952D01*
X508453461Y-198695952D02*
X508548700Y-198600714D01*
X508548700Y-198600714D02*
X508596319Y-198457857D01*
X508596319Y-198457857D02*
X508596319Y-198219762D01*
X508691557Y-198981667D02*
X508691557Y-199743571D01*
X507596319Y-200457857D02*
X507596319Y-199981667D01*
X507596319Y-199981667D02*
X508072509Y-199934048D01*
X508072509Y-199934048D02*
X508024890Y-199981667D01*
X508024890Y-199981667D02*
X507977271Y-200076905D01*
X507977271Y-200076905D02*
X507977271Y-200315000D01*
X507977271Y-200315000D02*
X508024890Y-200410238D01*
X508024890Y-200410238D02*
X508072509Y-200457857D01*
X508072509Y-200457857D02*
X508167747Y-200505476D01*
X508167747Y-200505476D02*
X508405842Y-200505476D01*
X508405842Y-200505476D02*
X508501080Y-200457857D01*
X508501080Y-200457857D02*
X508548700Y-200410238D01*
X508548700Y-200410238D02*
X508596319Y-200315000D01*
X508596319Y-200315000D02*
X508596319Y-200076905D01*
X508596319Y-200076905D02*
X508548700Y-199981667D01*
X508548700Y-199981667D02*
X508501080Y-199934048D01*
X507691557Y-200886429D02*
X507643938Y-200934048D01*
X507643938Y-200934048D02*
X507596319Y-201029286D01*
X507596319Y-201029286D02*
X507596319Y-201267381D01*
X507596319Y-201267381D02*
X507643938Y-201362619D01*
X507643938Y-201362619D02*
X507691557Y-201410238D01*
X507691557Y-201410238D02*
X507786795Y-201457857D01*
X507786795Y-201457857D02*
X507882033Y-201457857D01*
X507882033Y-201457857D02*
X508024890Y-201410238D01*
X508024890Y-201410238D02*
X508596319Y-200838810D01*
X508596319Y-200838810D02*
X508596319Y-201457857D01*
X275133819Y-214719762D02*
X274133819Y-214719762D01*
X274133819Y-214719762D02*
X274133819Y-214957857D01*
X274133819Y-214957857D02*
X274181438Y-215100714D01*
X274181438Y-215100714D02*
X274276676Y-215195952D01*
X274276676Y-215195952D02*
X274371914Y-215243571D01*
X274371914Y-215243571D02*
X274562390Y-215291190D01*
X274562390Y-215291190D02*
X274705247Y-215291190D01*
X274705247Y-215291190D02*
X274895723Y-215243571D01*
X274895723Y-215243571D02*
X274990961Y-215195952D01*
X274990961Y-215195952D02*
X275086200Y-215100714D01*
X275086200Y-215100714D02*
X275133819Y-214957857D01*
X275133819Y-214957857D02*
X275133819Y-214719762D01*
X275229057Y-215481667D02*
X275229057Y-216243571D01*
X274133819Y-216910238D02*
X274133819Y-216719762D01*
X274133819Y-216719762D02*
X274181438Y-216624524D01*
X274181438Y-216624524D02*
X274229057Y-216576905D01*
X274229057Y-216576905D02*
X274371914Y-216481667D01*
X274371914Y-216481667D02*
X274562390Y-216434048D01*
X274562390Y-216434048D02*
X274943342Y-216434048D01*
X274943342Y-216434048D02*
X275038580Y-216481667D01*
X275038580Y-216481667D02*
X275086200Y-216529286D01*
X275086200Y-216529286D02*
X275133819Y-216624524D01*
X275133819Y-216624524D02*
X275133819Y-216815000D01*
X275133819Y-216815000D02*
X275086200Y-216910238D01*
X275086200Y-216910238D02*
X275038580Y-216957857D01*
X275038580Y-216957857D02*
X274943342Y-217005476D01*
X274943342Y-217005476D02*
X274705247Y-217005476D01*
X274705247Y-217005476D02*
X274610009Y-216957857D01*
X274610009Y-216957857D02*
X274562390Y-216910238D01*
X274562390Y-216910238D02*
X274514771Y-216815000D01*
X274514771Y-216815000D02*
X274514771Y-216624524D01*
X274514771Y-216624524D02*
X274562390Y-216529286D01*
X274562390Y-216529286D02*
X274610009Y-216481667D01*
X274610009Y-216481667D02*
X274705247Y-216434048D01*
X274133819Y-217624524D02*
X274133819Y-217719762D01*
X274133819Y-217719762D02*
X274181438Y-217815000D01*
X274181438Y-217815000D02*
X274229057Y-217862619D01*
X274229057Y-217862619D02*
X274324295Y-217910238D01*
X274324295Y-217910238D02*
X274514771Y-217957857D01*
X274514771Y-217957857D02*
X274752866Y-217957857D01*
X274752866Y-217957857D02*
X274943342Y-217910238D01*
X274943342Y-217910238D02*
X275038580Y-217862619D01*
X275038580Y-217862619D02*
X275086200Y-217815000D01*
X275086200Y-217815000D02*
X275133819Y-217719762D01*
X275133819Y-217719762D02*
X275133819Y-217624524D01*
X275133819Y-217624524D02*
X275086200Y-217529286D01*
X275086200Y-217529286D02*
X275038580Y-217481667D01*
X275038580Y-217481667D02*
X274943342Y-217434048D01*
X274943342Y-217434048D02*
X274752866Y-217386429D01*
X274752866Y-217386429D02*
X274514771Y-217386429D01*
X274514771Y-217386429D02*
X274324295Y-217434048D01*
X274324295Y-217434048D02*
X274229057Y-217481667D01*
X274229057Y-217481667D02*
X274181438Y-217529286D01*
X274181438Y-217529286D02*
X274133819Y-217624524D01*
X375508569Y-236319762D02*
X374508569Y-236319762D01*
X374508569Y-236319762D02*
X374508569Y-236557857D01*
X374508569Y-236557857D02*
X374556188Y-236700714D01*
X374556188Y-236700714D02*
X374651426Y-236795952D01*
X374651426Y-236795952D02*
X374746664Y-236843571D01*
X374746664Y-236843571D02*
X374937140Y-236891190D01*
X374937140Y-236891190D02*
X375079997Y-236891190D01*
X375079997Y-236891190D02*
X375270473Y-236843571D01*
X375270473Y-236843571D02*
X375365711Y-236795952D01*
X375365711Y-236795952D02*
X375460950Y-236700714D01*
X375460950Y-236700714D02*
X375508569Y-236557857D01*
X375508569Y-236557857D02*
X375508569Y-236319762D01*
X375603807Y-237081667D02*
X375603807Y-237843571D01*
X374508569Y-237986429D02*
X374508569Y-238653095D01*
X374508569Y-238653095D02*
X375508569Y-238224524D01*
X374508569Y-239462619D02*
X374508569Y-239272143D01*
X374508569Y-239272143D02*
X374556188Y-239176905D01*
X374556188Y-239176905D02*
X374603807Y-239129286D01*
X374603807Y-239129286D02*
X374746664Y-239034048D01*
X374746664Y-239034048D02*
X374937140Y-238986429D01*
X374937140Y-238986429D02*
X375318092Y-238986429D01*
X375318092Y-238986429D02*
X375413330Y-239034048D01*
X375413330Y-239034048D02*
X375460950Y-239081667D01*
X375460950Y-239081667D02*
X375508569Y-239176905D01*
X375508569Y-239176905D02*
X375508569Y-239367381D01*
X375508569Y-239367381D02*
X375460950Y-239462619D01*
X375460950Y-239462619D02*
X375413330Y-239510238D01*
X375413330Y-239510238D02*
X375318092Y-239557857D01*
X375318092Y-239557857D02*
X375079997Y-239557857D01*
X375079997Y-239557857D02*
X374984759Y-239510238D01*
X374984759Y-239510238D02*
X374937140Y-239462619D01*
X374937140Y-239462619D02*
X374889521Y-239367381D01*
X374889521Y-239367381D02*
X374889521Y-239176905D01*
X374889521Y-239176905D02*
X374937140Y-239081667D01*
X374937140Y-239081667D02*
X374984759Y-239034048D01*
X374984759Y-239034048D02*
X375079997Y-238986429D01*
D11*
X427416250Y-147940000D02*
X432516250Y-147940000D01*
X431316250Y-152140000D02*
X436416250Y-152140000D01*
X425416250Y-149940000D02*
G75*
G02*
X427416250Y-147940000I1999999J1D01*
G01*
X429316250Y-154140000D02*
G75*
G02*
X431316250Y-152140000I1999999J1D01*
G01*
X434078750Y-230340000D02*
G75*
G02*
X436078750Y-228340000I1999999J1D01*
G01*
X430178750Y-226140000D02*
G75*
G02*
X432178750Y-224140000I1999999J1D01*
G01*
X436078750Y-228340000D02*
X441178750Y-228340000D01*
X432178750Y-224140000D02*
X437278750Y-224140000D01*
X407885000Y-230340000D02*
G75*
G02*
X409885000Y-228340000I1999999J1D01*
G01*
X403985000Y-226140000D02*
G75*
G02*
X405985000Y-224140000I1999999J1D01*
G01*
X409885000Y-228340000D02*
X414985000Y-228340000D01*
X405985000Y-224140000D02*
X411085000Y-224140000D01*
X384072500Y-230340000D02*
G75*
G02*
X386072500Y-228340000I1999999J1D01*
G01*
X380172500Y-226140000D02*
G75*
G02*
X382172500Y-224140000I1999999J1D01*
G01*
X386072500Y-228340000D02*
X391172500Y-228340000D01*
X382172500Y-224140000D02*
X387272500Y-224140000D01*
X360260000Y-230340000D02*
G75*
G02*
X362260000Y-228340000I1999999J1D01*
G01*
X356360000Y-226140000D02*
G75*
G02*
X358360000Y-224140000I1999999J1D01*
G01*
X362260000Y-228340000D02*
X367360000Y-228340000D01*
X358360000Y-224140000D02*
X363460000Y-224140000D01*
X319778750Y-230340000D02*
G75*
G02*
X321778750Y-228340000I1999999J1D01*
G01*
X315878750Y-226140000D02*
G75*
G02*
X317878750Y-224140000I1999999J1D01*
G01*
X321778750Y-228340000D02*
X326878750Y-228340000D01*
X317878750Y-224140000D02*
X322978750Y-224140000D01*
X238116500Y-230340000D02*
G75*
G02*
X240116500Y-228340000I1999999J1D01*
G01*
X234216500Y-226140000D02*
G75*
G02*
X236216500Y-224140000I1999999J1D01*
G01*
X240116500Y-228340000D02*
X245216500Y-228340000D01*
X236216500Y-224140000D02*
X241316500Y-224140000D01*
X197635250Y-230340000D02*
G75*
G02*
X199635250Y-228340000I1999999J1D01*
G01*
X193735250Y-226140000D02*
G75*
G02*
X195735250Y-224140000I1999999J1D01*
G01*
X199635250Y-228340000D02*
X204735250Y-228340000D01*
X195735250Y-224140000D02*
X200835250Y-224140000D01*
X173822750Y-230340000D02*
G75*
G02*
X175822750Y-228340000I1999999J1D01*
G01*
X169922750Y-226140000D02*
G75*
G02*
X171922750Y-224140000I1999999J1D01*
G01*
X175822750Y-228340000D02*
X180922750Y-228340000D01*
X171922750Y-224140000D02*
X177022750Y-224140000D01*
X150010250Y-230340000D02*
G75*
G02*
X152010250Y-228340000I1999999J1D01*
G01*
X146110250Y-226140000D02*
G75*
G02*
X148110250Y-224140000I1999999J1D01*
G01*
X152010250Y-228340000D02*
X157110250Y-228340000D01*
X148110250Y-224140000D02*
X153210250Y-224140000D01*
X422172500Y-211290000D02*
G75*
G02*
X424172500Y-209290000I1999999J1D01*
G01*
X418272500Y-207090000D02*
G75*
G02*
X420272500Y-205090000I1999999J1D01*
G01*
X424172500Y-209290000D02*
X429272500Y-209290000D01*
X420272500Y-205090000D02*
X425372500Y-205090000D01*
X159535250Y-211290000D02*
G75*
G02*
X161535250Y-209290000I1999999J1D01*
G01*
X155635250Y-207090000D02*
G75*
G02*
X157635250Y-205090000I1999999J1D01*
G01*
X161535250Y-209290000D02*
X166635250Y-209290000D01*
X157635250Y-205090000D02*
X162735250Y-205090000D01*
X426935000Y-192240000D02*
G75*
G02*
X428935000Y-190240000I1999999J1D01*
G01*
X423035000Y-188040000D02*
G75*
G02*
X425035000Y-186040000I1999999J1D01*
G01*
X428935000Y-190240000D02*
X434035000Y-190240000D01*
X425035000Y-186040000D02*
X430135000Y-186040000D01*
X154772750Y-192240000D02*
G75*
G02*
X156772750Y-190240000I1999999J1D01*
G01*
X150872750Y-188040000D02*
G75*
G02*
X152872750Y-186040000I1999999J1D01*
G01*
X156772750Y-190240000D02*
X161872750Y-190240000D01*
X152872750Y-186040000D02*
X157972750Y-186040000D01*
X434078750Y-173190000D02*
G75*
G02*
X436078750Y-171190000I1999999J1D01*
G01*
X430178750Y-168990000D02*
G75*
G02*
X432178750Y-166990000I1999999J1D01*
G01*
X436078750Y-171190000D02*
X441178750Y-171190000D01*
X432178750Y-166990000D02*
X437278750Y-166990000D01*
X152391500Y-173190000D02*
G75*
G02*
X154391500Y-171190000I1999999J1D01*
G01*
X148491500Y-168990000D02*
G75*
G02*
X150491500Y-166990000I1999999J1D01*
G01*
X154391500Y-171190000D02*
X159491500Y-171190000D01*
X150491500Y-166990000D02*
X155591500Y-166990000D01*
X486466250Y-230340000D02*
G75*
G02*
X488466250Y-228340000I1999999J1D01*
G01*
X482566250Y-226140000D02*
G75*
G02*
X484566250Y-224140000I1999999J1D01*
G01*
X488466250Y-228340000D02*
X493566250Y-228340000D01*
X484566250Y-224140000D02*
X489666250Y-224140000D01*
X467416250Y-230340000D02*
G75*
G02*
X469416250Y-228340000I1999999J1D01*
G01*
X463516250Y-226140000D02*
G75*
G02*
X465516250Y-224140000I1999999J1D01*
G01*
X469416250Y-228340000D02*
X474516250Y-228340000D01*
X465516250Y-224140000D02*
X470616250Y-224140000D01*
X119054000Y-230340000D02*
G75*
G02*
X121054000Y-228340000I1999999J1D01*
G01*
X115154000Y-226140000D02*
G75*
G02*
X117154000Y-224140000I1999999J1D01*
G01*
X121054000Y-228340000D02*
X126154000Y-228340000D01*
X117154000Y-224140000D02*
X122254000Y-224140000D01*
X100004000Y-230340000D02*
G75*
G02*
X102004000Y-228340000I1999999J1D01*
G01*
X96104000Y-226140000D02*
G75*
G02*
X98104000Y-224140000I1999999J1D01*
G01*
X102004000Y-228340000D02*
X107104000Y-228340000D01*
X98104000Y-224140000D02*
X103204000Y-224140000D01*
X491228750Y-211290000D02*
G75*
G02*
X493228750Y-209290000I1999999J1D01*
G01*
X487328750Y-207090000D02*
G75*
G02*
X489328750Y-205090000I1999999J1D01*
G01*
X493228750Y-209290000D02*
X498328750Y-209290000D01*
X489328750Y-205090000D02*
X494428750Y-205090000D01*
X472178750Y-211290000D02*
G75*
G02*
X474178750Y-209290000I1999999J1D01*
G01*
X468278750Y-207090000D02*
G75*
G02*
X470278750Y-205090000I1999999J1D01*
G01*
X474178750Y-209290000D02*
X479278750Y-209290000D01*
X470278750Y-205090000D02*
X475378750Y-205090000D01*
X386453750Y-211290000D02*
G75*
G02*
X388453750Y-209290000I1999999J1D01*
G01*
X382553750Y-207090000D02*
G75*
G02*
X384553750Y-205090000I1999999J1D01*
G01*
X388453750Y-209290000D02*
X393553750Y-209290000D01*
X384553750Y-205090000D02*
X389653750Y-205090000D01*
X367403750Y-211290000D02*
G75*
G02*
X369403750Y-209290000I1999999J1D01*
G01*
X363503750Y-207090000D02*
G75*
G02*
X365503750Y-205090000I1999999J1D01*
G01*
X369403750Y-209290000D02*
X374503750Y-209290000D01*
X365503750Y-205090000D02*
X370603750Y-205090000D01*
X348353750Y-211290000D02*
G75*
G02*
X350353750Y-209290000I1999999J1D01*
G01*
X344453750Y-207090000D02*
G75*
G02*
X346453750Y-205090000I1999999J1D01*
G01*
X350353750Y-209290000D02*
X355453750Y-209290000D01*
X346453750Y-205090000D02*
X351553750Y-205090000D01*
X329303750Y-211290000D02*
G75*
G02*
X331303750Y-209290000I1999999J1D01*
G01*
X325403750Y-207090000D02*
G75*
G02*
X327403750Y-205090000I1999999J1D01*
G01*
X331303750Y-209290000D02*
X336403750Y-209290000D01*
X327403750Y-205090000D02*
X332503750Y-205090000D01*
X310253750Y-211290000D02*
G75*
G02*
X312253750Y-209290000I1999999J1D01*
G01*
X306353750Y-207090000D02*
G75*
G02*
X308353750Y-205090000I1999999J1D01*
G01*
X312253750Y-209290000D02*
X317353750Y-209290000D01*
X308353750Y-205090000D02*
X313453750Y-205090000D01*
X266691500Y-211290000D02*
G75*
G02*
X268691500Y-209290000I1999999J1D01*
G01*
X262791500Y-207090000D02*
G75*
G02*
X264791500Y-205090000I1999999J1D01*
G01*
X268691500Y-209290000D02*
X273791500Y-209290000D01*
X264791500Y-205090000D02*
X269891500Y-205090000D01*
X247641500Y-211290000D02*
G75*
G02*
X249641500Y-209290000I1999999J1D01*
G01*
X243741500Y-207090000D02*
G75*
G02*
X245741500Y-205090000I1999999J1D01*
G01*
X249641500Y-209290000D02*
X254741500Y-209290000D01*
X245741500Y-205090000D02*
X250841500Y-205090000D01*
X228591500Y-211290000D02*
G75*
G02*
X230591500Y-209290000I1999999J1D01*
G01*
X224691500Y-207090000D02*
G75*
G02*
X226691500Y-205090000I1999999J1D01*
G01*
X230591500Y-209290000D02*
X235691500Y-209290000D01*
X226691500Y-205090000D02*
X231791500Y-205090000D01*
X209541500Y-211290000D02*
G75*
G02*
X211541500Y-209290000I1999999J1D01*
G01*
X205641500Y-207090000D02*
G75*
G02*
X207641500Y-205090000I1999999J1D01*
G01*
X211541500Y-209290000D02*
X216641500Y-209290000D01*
X207641500Y-205090000D02*
X212741500Y-205090000D01*
X190491500Y-211290000D02*
G75*
G02*
X192491500Y-209290000I1999999J1D01*
G01*
X186591500Y-207090000D02*
G75*
G02*
X188591500Y-205090000I1999999J1D01*
G01*
X192491500Y-209290000D02*
X197591500Y-209290000D01*
X188591500Y-205090000D02*
X193691500Y-205090000D01*
X114291500Y-211290000D02*
G75*
G02*
X116291500Y-209290000I1999999J1D01*
G01*
X110391500Y-207090000D02*
G75*
G02*
X112391500Y-205090000I1999999J1D01*
G01*
X116291500Y-209290000D02*
X121391500Y-209290000D01*
X112391500Y-205090000D02*
X117491500Y-205090000D01*
X95241500Y-211290000D02*
G75*
G02*
X97241500Y-209290000I1999999J1D01*
G01*
X91341500Y-207090000D02*
G75*
G02*
X93341500Y-205090000I1999999J1D01*
G01*
X97241500Y-209290000D02*
X102341500Y-209290000D01*
X93341500Y-205090000D02*
X98441500Y-205090000D01*
X495991250Y-192240000D02*
G75*
G02*
X497991250Y-190240000I1999999J1D01*
G01*
X492091250Y-188040000D02*
G75*
G02*
X494091250Y-186040000I1999999J1D01*
G01*
X497991250Y-190240000D02*
X503091250Y-190240000D01*
X494091250Y-186040000D02*
X499191250Y-186040000D01*
X476941250Y-192240000D02*
G75*
G02*
X478941250Y-190240000I1999999J1D01*
G01*
X473041250Y-188040000D02*
G75*
G02*
X475041250Y-186040000I1999999J1D01*
G01*
X478941250Y-190240000D02*
X484041250Y-190240000D01*
X475041250Y-186040000D02*
X480141250Y-186040000D01*
X395978750Y-192240000D02*
G75*
G02*
X397978750Y-190240000I1999999J1D01*
G01*
X392078750Y-188040000D02*
G75*
G02*
X394078750Y-186040000I1999999J1D01*
G01*
X397978750Y-190240000D02*
X403078750Y-190240000D01*
X394078750Y-186040000D02*
X399178750Y-186040000D01*
X376928750Y-192240000D02*
G75*
G02*
X378928750Y-190240000I1999999J1D01*
G01*
X373028750Y-188040000D02*
G75*
G02*
X375028750Y-186040000I1999999J1D01*
G01*
X378928750Y-190240000D02*
X384028750Y-190240000D01*
X375028750Y-186040000D02*
X380128750Y-186040000D01*
X357878750Y-192240000D02*
G75*
G02*
X359878750Y-190240000I1999999J1D01*
G01*
X353978750Y-188040000D02*
G75*
G02*
X355978750Y-186040000I1999999J1D01*
G01*
X359878750Y-190240000D02*
X364978750Y-190240000D01*
X355978750Y-186040000D02*
X361078750Y-186040000D01*
X338828750Y-192240000D02*
G75*
G02*
X340828750Y-190240000I1999999J1D01*
G01*
X334928750Y-188040000D02*
G75*
G02*
X336928750Y-186040000I1999999J1D01*
G01*
X340828750Y-190240000D02*
X345928750Y-190240000D01*
X336928750Y-186040000D02*
X342028750Y-186040000D01*
X319778750Y-192240000D02*
G75*
G02*
X321778750Y-190240000I1999999J1D01*
G01*
X315878750Y-188040000D02*
G75*
G02*
X317878750Y-186040000I1999999J1D01*
G01*
X321778750Y-190240000D02*
X326878750Y-190240000D01*
X317878750Y-186040000D02*
X322978750Y-186040000D01*
X300728750Y-192240000D02*
G75*
G02*
X302728750Y-190240000I1999999J1D01*
G01*
X296828750Y-188040000D02*
G75*
G02*
X298828750Y-186040000I1999999J1D01*
G01*
X302728750Y-190240000D02*
X307828750Y-190240000D01*
X298828750Y-186040000D02*
X303928750Y-186040000D01*
X257166500Y-192240000D02*
G75*
G02*
X259166500Y-190240000I1999999J1D01*
G01*
X253266500Y-188040000D02*
G75*
G02*
X255266500Y-186040000I1999999J1D01*
G01*
X259166500Y-190240000D02*
X264266500Y-190240000D01*
X255266500Y-186040000D02*
X260366500Y-186040000D01*
X238116500Y-192240000D02*
G75*
G02*
X240116500Y-190240000I1999999J1D01*
G01*
X234216500Y-188040000D02*
G75*
G02*
X236216500Y-186040000I1999999J1D01*
G01*
X240116500Y-190240000D02*
X245216500Y-190240000D01*
X236216500Y-186040000D02*
X241316500Y-186040000D01*
X219066500Y-192240000D02*
G75*
G02*
X221066500Y-190240000I1999999J1D01*
G01*
X215166500Y-188040000D02*
G75*
G02*
X217166500Y-186040000I1999999J1D01*
G01*
X221066500Y-190240000D02*
X226166500Y-190240000D01*
X217166500Y-186040000D02*
X222266500Y-186040000D01*
X200016500Y-192240000D02*
G75*
G02*
X202016500Y-190240000I1999999J1D01*
G01*
X196116500Y-188040000D02*
G75*
G02*
X198116500Y-186040000I1999999J1D01*
G01*
X202016500Y-190240000D02*
X207116500Y-190240000D01*
X198116500Y-186040000D02*
X203216500Y-186040000D01*
X180966500Y-192240000D02*
G75*
G02*
X182966500Y-190240000I1999999J1D01*
G01*
X177066500Y-188040000D02*
G75*
G02*
X179066500Y-186040000I1999999J1D01*
G01*
X182966500Y-190240000D02*
X188066500Y-190240000D01*
X179066500Y-186040000D02*
X184166500Y-186040000D01*
X109529000Y-192240000D02*
G75*
G02*
X111529000Y-190240000I1999999J1D01*
G01*
X105629000Y-188040000D02*
G75*
G02*
X107629000Y-186040000I1999999J1D01*
G01*
X111529000Y-190240000D02*
X116629000Y-190240000D01*
X107629000Y-186040000D02*
X112729000Y-186040000D01*
X90479000Y-192240000D02*
G75*
G02*
X92479000Y-190240000I1999999J1D01*
G01*
X86579000Y-188040000D02*
G75*
G02*
X88579000Y-186040000I1999999J1D01*
G01*
X92479000Y-190240000D02*
X97579000Y-190240000D01*
X88579000Y-186040000D02*
X93679000Y-186040000D01*
X491228750Y-173190000D02*
G75*
G02*
X493228750Y-171190000I1999999J1D01*
G01*
X487328750Y-168990000D02*
G75*
G02*
X489328750Y-166990000I1999999J1D01*
G01*
X493228750Y-171190000D02*
X498328750Y-171190000D01*
X489328750Y-166990000D02*
X494428750Y-166990000D01*
X472178750Y-173190000D02*
G75*
G02*
X474178750Y-171190000I1999999J1D01*
G01*
X468278750Y-168990000D02*
G75*
G02*
X470278750Y-166990000I1999999J1D01*
G01*
X474178750Y-171190000D02*
X479278750Y-171190000D01*
X470278750Y-166990000D02*
X475378750Y-166990000D01*
X410266250Y-173190000D02*
G75*
G02*
X412266250Y-171190000I1999999J1D01*
G01*
X406366250Y-168990000D02*
G75*
G02*
X408366250Y-166990000I1999999J1D01*
G01*
X412266250Y-171190000D02*
X417366250Y-171190000D01*
X408366250Y-166990000D02*
X413466250Y-166990000D01*
X391216250Y-173190000D02*
G75*
G02*
X393216250Y-171190000I1999999J1D01*
G01*
X387316250Y-168990000D02*
G75*
G02*
X389316250Y-166990000I1999999J1D01*
G01*
X393216250Y-171190000D02*
X398316250Y-171190000D01*
X389316250Y-166990000D02*
X394416250Y-166990000D01*
X372166250Y-173190000D02*
G75*
G02*
X374166250Y-171190000I1999999J1D01*
G01*
X368266250Y-168990000D02*
G75*
G02*
X370266250Y-166990000I1999999J1D01*
G01*
X374166250Y-171190000D02*
X379266250Y-171190000D01*
X370266250Y-166990000D02*
X375366250Y-166990000D01*
X353116250Y-173190000D02*
G75*
G02*
X355116250Y-171190000I1999999J1D01*
G01*
X349216250Y-168990000D02*
G75*
G02*
X351216250Y-166990000I1999999J1D01*
G01*
X355116250Y-171190000D02*
X360216250Y-171190000D01*
X351216250Y-166990000D02*
X356316250Y-166990000D01*
X334066250Y-173190000D02*
G75*
G02*
X336066250Y-171190000I1999999J1D01*
G01*
X330166250Y-168990000D02*
G75*
G02*
X332166250Y-166990000I1999999J1D01*
G01*
X336066250Y-171190000D02*
X341166250Y-171190000D01*
X332166250Y-166990000D02*
X337266250Y-166990000D01*
X315016250Y-173190000D02*
G75*
G02*
X317016250Y-171190000I1999999J1D01*
G01*
X311116250Y-168990000D02*
G75*
G02*
X313116250Y-166990000I1999999J1D01*
G01*
X317016250Y-171190000D02*
X322116250Y-171190000D01*
X313116250Y-166990000D02*
X318216250Y-166990000D01*
X271454000Y-173190000D02*
G75*
G02*
X273454000Y-171190000I1999999J1D01*
G01*
X267554000Y-168990000D02*
G75*
G02*
X269554000Y-166990000I1999999J1D01*
G01*
X273454000Y-171190000D02*
X278554000Y-171190000D01*
X269554000Y-166990000D02*
X274654000Y-166990000D01*
X252404000Y-173190000D02*
G75*
G02*
X254404000Y-171190000I1999999J1D01*
G01*
X248504000Y-168990000D02*
G75*
G02*
X250504000Y-166990000I1999999J1D01*
G01*
X254404000Y-171190000D02*
X259504000Y-171190000D01*
X250504000Y-166990000D02*
X255604000Y-166990000D01*
X233354000Y-173190000D02*
G75*
G02*
X235354000Y-171190000I1999999J1D01*
G01*
X229454000Y-168990000D02*
G75*
G02*
X231454000Y-166990000I1999999J1D01*
G01*
X235354000Y-171190000D02*
X240454000Y-171190000D01*
X231454000Y-166990000D02*
X236554000Y-166990000D01*
X214304000Y-173190000D02*
G75*
G02*
X216304000Y-171190000I1999999J1D01*
G01*
X210404000Y-168990000D02*
G75*
G02*
X212404000Y-166990000I1999999J1D01*
G01*
X216304000Y-171190000D02*
X221404000Y-171190000D01*
X212404000Y-166990000D02*
X217504000Y-166990000D01*
X195254000Y-173190000D02*
G75*
G02*
X197254000Y-171190000I1999999J1D01*
G01*
X191354000Y-168990000D02*
G75*
G02*
X193354000Y-166990000I1999999J1D01*
G01*
X197254000Y-171190000D02*
X202354000Y-171190000D01*
X193354000Y-166990000D02*
X198454000Y-166990000D01*
X176204000Y-173190000D02*
G75*
G02*
X178204000Y-171190000I1999999J1D01*
G01*
X172304000Y-168990000D02*
G75*
G02*
X174304000Y-166990000I1999999J1D01*
G01*
X178204000Y-171190000D02*
X183304000Y-171190000D01*
X174304000Y-166990000D02*
X179404000Y-166990000D01*
X114291500Y-173190000D02*
G75*
G02*
X116291500Y-171190000I1999999J1D01*
G01*
X110391500Y-168990000D02*
G75*
G02*
X112391500Y-166990000I1999999J1D01*
G01*
X116291500Y-171190000D02*
X121391500Y-171190000D01*
X112391500Y-166990000D02*
X117491500Y-166990000D01*
X95241500Y-173190000D02*
G75*
G02*
X97241500Y-171190000I1999999J1D01*
G01*
X91341500Y-168990000D02*
G75*
G02*
X93341500Y-166990000I1999999J1D01*
G01*
X97241500Y-171190000D02*
X102341500Y-171190000D01*
X93341500Y-166990000D02*
X98441500Y-166990000D01*
X486466250Y-154140000D02*
G75*
G02*
X488466250Y-152140000I1999999J1D01*
G01*
X482566250Y-149940000D02*
G75*
G02*
X484566250Y-147940000I1999999J1D01*
G01*
X488466250Y-152140000D02*
X493566250Y-152140000D01*
X484566250Y-147940000D02*
X489666250Y-147940000D01*
X467416250Y-154140000D02*
G75*
G02*
X469416250Y-152140000I1999999J1D01*
G01*
X463516250Y-149940000D02*
G75*
G02*
X465516250Y-147940000I1999999J1D01*
G01*
X469416250Y-152140000D02*
X474516250Y-152140000D01*
X465516250Y-147940000D02*
X470616250Y-147940000D01*
X400741250Y-154140000D02*
G75*
G02*
X402741250Y-152140000I1999999J1D01*
G01*
X396841250Y-149940000D02*
G75*
G02*
X398841250Y-147940000I1999999J1D01*
G01*
X402741250Y-152140000D02*
X407841250Y-152140000D01*
X398841250Y-147940000D02*
X403941250Y-147940000D01*
X381691250Y-154140000D02*
G75*
G02*
X383691250Y-152140000I1999999J1D01*
G01*
X377791250Y-149940000D02*
G75*
G02*
X379791250Y-147940000I1999999J1D01*
G01*
X383691250Y-152140000D02*
X388791250Y-152140000D01*
X379791250Y-147940000D02*
X384891250Y-147940000D01*
X362641250Y-154140000D02*
G75*
G02*
X364641250Y-152140000I1999999J1D01*
G01*
X358741250Y-149940000D02*
G75*
G02*
X360741250Y-147940000I1999999J1D01*
G01*
X364641250Y-152140000D02*
X369741250Y-152140000D01*
X360741250Y-147940000D02*
X365841250Y-147940000D01*
X343591250Y-154140000D02*
G75*
G02*
X345591250Y-152140000I1999999J1D01*
G01*
X339691250Y-149940000D02*
G75*
G02*
X341691250Y-147940000I1999999J1D01*
G01*
X345591250Y-152140000D02*
X350691250Y-152140000D01*
X341691250Y-147940000D02*
X346791250Y-147940000D01*
X324541250Y-154140000D02*
G75*
G02*
X326541250Y-152140000I1999999J1D01*
G01*
X320641250Y-149940000D02*
G75*
G02*
X322641250Y-147940000I1999999J1D01*
G01*
X326541250Y-152140000D02*
X331641250Y-152140000D01*
X322641250Y-147940000D02*
X327741250Y-147940000D01*
X305491250Y-154140000D02*
G75*
G02*
X307491250Y-152140000I1999999J1D01*
G01*
X301591250Y-149940000D02*
G75*
G02*
X303591250Y-147940000I1999999J1D01*
G01*
X307491250Y-152140000D02*
X312591250Y-152140000D01*
X303591250Y-147940000D02*
X308691250Y-147940000D01*
X261929000Y-154140000D02*
G75*
G02*
X263929000Y-152140000I1999999J1D01*
G01*
X258029000Y-149940000D02*
G75*
G02*
X260029000Y-147940000I1999999J1D01*
G01*
X263929000Y-152140000D02*
X269029000Y-152140000D01*
X260029000Y-147940000D02*
X265129000Y-147940000D01*
X242879000Y-154140000D02*
G75*
G02*
X244879000Y-152140000I1999999J1D01*
G01*
X238979000Y-149940000D02*
G75*
G02*
X240979000Y-147940000I1999999J1D01*
G01*
X244879000Y-152140000D02*
X249979000Y-152140000D01*
X240979000Y-147940000D02*
X246079000Y-147940000D01*
X223829000Y-154140000D02*
G75*
G02*
X225829000Y-152140000I1999999J1D01*
G01*
X219929000Y-149940000D02*
G75*
G02*
X221929000Y-147940000I1999999J1D01*
G01*
X225829000Y-152140000D02*
X230929000Y-152140000D01*
X221929000Y-147940000D02*
X227029000Y-147940000D01*
X204779000Y-154140000D02*
G75*
G02*
X206779000Y-152140000I1999999J1D01*
G01*
X200879000Y-149940000D02*
G75*
G02*
X202879000Y-147940000I1999999J1D01*
G01*
X206779000Y-152140000D02*
X211879000Y-152140000D01*
X202879000Y-147940000D02*
X207979000Y-147940000D01*
X185729000Y-154140000D02*
G75*
G02*
X187729000Y-152140000I1999999J1D01*
G01*
X181829000Y-149940000D02*
G75*
G02*
X183829000Y-147940000I1999999J1D01*
G01*
X187729000Y-152140000D02*
X192829000Y-152140000D01*
X183829000Y-147940000D02*
X188929000Y-147940000D01*
X166679000Y-154140000D02*
G75*
G02*
X168679000Y-152140000I1999999J1D01*
G01*
X162779000Y-149940000D02*
G75*
G02*
X164779000Y-147940000I1999999J1D01*
G01*
X168679000Y-152140000D02*
X173779000Y-152140000D01*
X164779000Y-147940000D02*
X169879000Y-147940000D01*
X147629000Y-154140000D02*
G75*
G02*
X149629000Y-152140000I1999999J1D01*
G01*
X143729000Y-149940000D02*
G75*
G02*
X145729000Y-147940000I1999999J1D01*
G01*
X149629000Y-152140000D02*
X154729000Y-152140000D01*
X145729000Y-147940000D02*
X150829000Y-147940000D01*
X119054000Y-154140000D02*
G75*
G02*
X121054000Y-152140000I1999999J1D01*
G01*
X115154000Y-149940000D02*
G75*
G02*
X117154000Y-147940000I1999999J1D01*
G01*
X121054000Y-152140000D02*
X126154000Y-152140000D01*
X117154000Y-147940000D02*
X122254000Y-147940000D01*
X100004000Y-154140000D02*
G75*
G02*
X102004000Y-152140000I1999999J1D01*
G01*
X96104000Y-149940000D02*
G75*
G02*
X98104000Y-147940000I1999999J1D01*
G01*
X102004000Y-152140000D02*
X107104000Y-152140000D01*
X98104000Y-147940000D02*
X103204000Y-147940000D01*
X402628750Y-183015000D02*
X402628750Y-179115000D01*
X402628750Y-183015000D02*
X400628750Y-183015000D01*
X400628750Y-183015000D02*
X400628750Y-179115000D01*
X159041500Y-163965000D02*
X159041500Y-160065000D01*
X159041500Y-163965000D02*
X157041500Y-163965000D01*
X157041500Y-163965000D02*
X157041500Y-160065000D01*
X345478750Y-183015000D02*
X345478750Y-179115000D01*
X345478750Y-183015000D02*
X343478750Y-183015000D01*
X343478750Y-183015000D02*
X343478750Y-179115000D01*
X106654000Y-183015000D02*
X106654000Y-179115000D01*
X106654000Y-183015000D02*
X104654000Y-183015000D01*
X104654000Y-183015000D02*
X104654000Y-179115000D01*
X374053750Y-163965000D02*
X374053750Y-160065000D01*
X374053750Y-163965000D02*
X372053750Y-163965000D01*
X372053750Y-163965000D02*
X372053750Y-160065000D01*
X125704000Y-221115000D02*
X125704000Y-217215000D01*
X125704000Y-221115000D02*
X123704000Y-221115000D01*
X123704000Y-221115000D02*
X123704000Y-217215000D01*
X364528750Y-183015000D02*
X364528750Y-179115000D01*
X364528750Y-183015000D02*
X362528750Y-183015000D01*
X362528750Y-183015000D02*
X362528750Y-179115000D01*
X111416500Y-163965000D02*
X111416500Y-160065000D01*
X111416500Y-163965000D02*
X109416500Y-163965000D01*
X109416500Y-163965000D02*
X109416500Y-160065000D01*
X450253750Y-221115000D02*
X450253750Y-217215000D01*
X450253750Y-221115000D02*
X448253750Y-221115000D01*
X448253750Y-221115000D02*
X448253750Y-217215000D01*
X211429000Y-202065000D02*
X211429000Y-198165000D01*
X211429000Y-202065000D02*
X209429000Y-202065000D01*
X209429000Y-202065000D02*
X209429000Y-198165000D01*
X421678750Y-240165000D02*
X421678750Y-236265000D01*
X421678750Y-240165000D02*
X419678750Y-240165000D01*
X419678750Y-240165000D02*
X419678750Y-236265000D01*
X249529000Y-202065000D02*
X249529000Y-198165000D01*
X249529000Y-202065000D02*
X247529000Y-202065000D01*
X247529000Y-202065000D02*
X247529000Y-198165000D01*
X282629000Y-182990000D02*
X282629000Y-179090000D01*
X282629000Y-182990000D02*
X280629000Y-182990000D01*
X280629000Y-182990000D02*
X280629000Y-179090000D01*
X407391250Y-202065000D02*
X407391250Y-198165000D01*
X407391250Y-202065000D02*
X405391250Y-202065000D01*
X405391250Y-202065000D02*
X405391250Y-198165000D01*
X111416500Y-240165000D02*
X111416500Y-236265000D01*
X111416500Y-240165000D02*
X109416500Y-240165000D01*
X109416500Y-240165000D02*
X109416500Y-236265000D01*
X197141500Y-163965000D02*
X197141500Y-160065000D01*
X197141500Y-163965000D02*
X195141500Y-163965000D01*
X195141500Y-163965000D02*
X195141500Y-160065000D01*
X450253750Y-202065000D02*
X450253750Y-198165000D01*
X450253750Y-202065000D02*
X448253750Y-202065000D01*
X448253750Y-202065000D02*
X448253750Y-198165000D01*
X350241250Y-240165000D02*
X350241250Y-236265000D01*
X350241250Y-240165000D02*
X348241250Y-240165000D01*
X348241250Y-240165000D02*
X348241250Y-236265000D01*
X187616500Y-240165000D02*
X187616500Y-236265000D01*
X187616500Y-240165000D02*
X185616500Y-240165000D01*
X185616500Y-240165000D02*
X185616500Y-236265000D01*
X235241500Y-163965000D02*
X235241500Y-160065000D01*
X235241500Y-163965000D02*
X233241500Y-163965000D01*
X233241500Y-163965000D02*
X233241500Y-160065000D01*
X244766500Y-183015000D02*
X244766500Y-179115000D01*
X244766500Y-183015000D02*
X242766500Y-183015000D01*
X242766500Y-183015000D02*
X242766500Y-179115000D01*
X211429000Y-240165000D02*
X211429000Y-236265000D01*
X211429000Y-240165000D02*
X209429000Y-240165000D01*
X209429000Y-240165000D02*
X209429000Y-236265000D01*
X477279000Y-164165000D02*
X477279000Y-160265000D01*
X479279000Y-164165000D02*
X477279000Y-164165000D01*
X479279000Y-164165000D02*
X479279000Y-160265000D01*
X168566500Y-183015000D02*
X168566500Y-179115000D01*
X168566500Y-183015000D02*
X166566500Y-183015000D01*
X166566500Y-183015000D02*
X166566500Y-179115000D01*
X378816250Y-221115000D02*
X378816250Y-217215000D01*
X378816250Y-221115000D02*
X376816250Y-221115000D01*
X376816250Y-221115000D02*
X376816250Y-217215000D01*
X340716250Y-221115000D02*
X340716250Y-217215000D01*
X340716250Y-221115000D02*
X338716250Y-221115000D01*
X338716250Y-221115000D02*
X338716250Y-217215000D01*
X125704000Y-183015000D02*
X125704000Y-179115000D01*
X125704000Y-183015000D02*
X123704000Y-183015000D01*
X123704000Y-183015000D02*
X123704000Y-179115000D01*
X173329000Y-202065000D02*
X173329000Y-198165000D01*
X173329000Y-202065000D02*
X171329000Y-202065000D01*
X171329000Y-202065000D02*
X171329000Y-198165000D01*
X259054000Y-221115000D02*
X259054000Y-217215000D01*
X259054000Y-221115000D02*
X257054000Y-221115000D01*
X257054000Y-221115000D02*
X257054000Y-217215000D01*
X397866250Y-221115000D02*
X397866250Y-217215000D01*
X397866250Y-221115000D02*
X395866250Y-221115000D01*
X395866250Y-221115000D02*
X395866250Y-217215000D01*
X273104000Y-163940000D02*
X273104000Y-160040000D01*
X273104000Y-163940000D02*
X271104000Y-163940000D01*
X271104000Y-163940000D02*
X271104000Y-160040000D01*
X230479000Y-202065000D02*
X230479000Y-198165000D01*
X230479000Y-202065000D02*
X228479000Y-202065000D01*
X228479000Y-202065000D02*
X228479000Y-198165000D01*
X496066750Y-164165000D02*
X496066750Y-160265000D01*
X498066750Y-164165000D02*
X496066750Y-164165000D01*
X498066750Y-164165000D02*
X498066750Y-160265000D01*
X412153750Y-163965000D02*
X412153750Y-160065000D01*
X412153750Y-163965000D02*
X410153750Y-163965000D01*
X410153750Y-163965000D02*
X410153750Y-160065000D01*
X350241250Y-202065000D02*
X350241250Y-198165000D01*
X350241250Y-202065000D02*
X348241250Y-202065000D01*
X348241250Y-202065000D02*
X348241250Y-198165000D01*
X192379000Y-202065000D02*
X192379000Y-198165000D01*
X192379000Y-202065000D02*
X190379000Y-202065000D01*
X190379000Y-202065000D02*
X190379000Y-198165000D01*
X483591250Y-183015000D02*
X483591250Y-179115000D01*
X483591250Y-183015000D02*
X481591250Y-183015000D01*
X481591250Y-183015000D02*
X481591250Y-179115000D01*
X178091500Y-163965000D02*
X178091500Y-160065000D01*
X178091500Y-163965000D02*
X176091500Y-163965000D01*
X176091500Y-163965000D02*
X176091500Y-160065000D01*
X120941500Y-202065000D02*
X120941500Y-198165000D01*
X120941500Y-202065000D02*
X118941500Y-202065000D01*
X118941500Y-202065000D02*
X118941500Y-198165000D01*
X450253750Y-240165000D02*
X450253750Y-236265000D01*
X450253750Y-240165000D02*
X448253750Y-240165000D01*
X448253750Y-240165000D02*
X448253750Y-236265000D01*
X130466500Y-163965000D02*
X130466500Y-160065000D01*
X130466500Y-163965000D02*
X128466500Y-163965000D01*
X128466500Y-163965000D02*
X128466500Y-160065000D01*
X355003750Y-163965000D02*
X355003750Y-160065000D01*
X355003750Y-163965000D02*
X353003750Y-163965000D01*
X353003750Y-163965000D02*
X353003750Y-160065000D01*
X421678750Y-183015000D02*
X421678750Y-179115000D01*
X421678750Y-183015000D02*
X419678750Y-183015000D01*
X419678750Y-183015000D02*
X419678750Y-179115000D01*
X240004000Y-221115000D02*
X240004000Y-217215000D01*
X240004000Y-221115000D02*
X238004000Y-221115000D01*
X238004000Y-221115000D02*
X238004000Y-217215000D01*
X263816500Y-183015000D02*
X263816500Y-179115000D01*
X263816500Y-183015000D02*
X261816500Y-183015000D01*
X261816500Y-183015000D02*
X261816500Y-179115000D01*
X478828750Y-240165000D02*
X478828750Y-236265000D01*
X478828750Y-240165000D02*
X476828750Y-240165000D01*
X476828750Y-240165000D02*
X476828750Y-236265000D01*
X388341250Y-202065000D02*
X388341250Y-198165000D01*
X388341250Y-202065000D02*
X386341250Y-202065000D01*
X386341250Y-202065000D02*
X386341250Y-198165000D01*
X216191500Y-163965000D02*
X216191500Y-160065000D01*
X216191500Y-163965000D02*
X214191500Y-163965000D01*
X214191500Y-163965000D02*
X214191500Y-160065000D01*
X497616500Y-240165000D02*
X497616500Y-236265000D01*
X497616500Y-240165000D02*
X495616500Y-240165000D01*
X495616500Y-240165000D02*
X495616500Y-236265000D01*
X254291500Y-163965000D02*
X254291500Y-160065000D01*
X254291500Y-163965000D02*
X252291500Y-163965000D01*
X252291500Y-163965000D02*
X252291500Y-160065000D01*
X321666250Y-221115000D02*
X321666250Y-217215000D01*
X321666250Y-221115000D02*
X319666250Y-221115000D01*
X319666250Y-221115000D02*
X319666250Y-217215000D01*
X369291250Y-202065000D02*
X369291250Y-198165000D01*
X369291250Y-202065000D02*
X367291250Y-202065000D01*
X367291250Y-202065000D02*
X367291250Y-198165000D01*
X201904000Y-221115000D02*
X201904000Y-217215000D01*
X201904000Y-221115000D02*
X199904000Y-221115000D01*
X199904000Y-221115000D02*
X199904000Y-217215000D01*
X335953750Y-163965000D02*
X335953750Y-160065000D01*
X335953750Y-163965000D02*
X333953750Y-163965000D01*
X333953750Y-163965000D02*
X333953750Y-160065000D01*
X450253750Y-163965000D02*
X450253750Y-160065000D01*
X450253750Y-163965000D02*
X448253750Y-163965000D01*
X448253750Y-163965000D02*
X448253750Y-160065000D01*
X488353750Y-202065000D02*
X488353750Y-198165000D01*
X488353750Y-202065000D02*
X486353750Y-202065000D01*
X486353750Y-202065000D02*
X486353750Y-198165000D01*
X483591250Y-221115000D02*
X483591250Y-217215000D01*
X483591250Y-221115000D02*
X481591250Y-221115000D01*
X481591250Y-221115000D02*
X481591250Y-217215000D01*
X163804000Y-240165000D02*
X163804000Y-236265000D01*
X163804000Y-240165000D02*
X161804000Y-240165000D01*
X161804000Y-240165000D02*
X161804000Y-236265000D01*
X130466500Y-240165000D02*
X130466500Y-236265000D01*
X130466500Y-240165000D02*
X128466500Y-240165000D01*
X128466500Y-240165000D02*
X128466500Y-236265000D01*
X502379000Y-221115000D02*
X502379000Y-217215000D01*
X502379000Y-221115000D02*
X500379000Y-221115000D01*
X500379000Y-221115000D02*
X500379000Y-217215000D01*
X326428750Y-183015000D02*
X326428750Y-179115000D01*
X326428750Y-183015000D02*
X324428750Y-183015000D01*
X324428750Y-183015000D02*
X324428750Y-179115000D01*
X397866250Y-240165000D02*
X397866250Y-236265000D01*
X397866250Y-240165000D02*
X395866250Y-240165000D01*
X395866250Y-240165000D02*
X395866250Y-236265000D01*
X225716500Y-183015000D02*
X225716500Y-179115000D01*
X225716500Y-183015000D02*
X223716500Y-183015000D01*
X223716500Y-183015000D02*
X223716500Y-179115000D01*
X359766250Y-221115000D02*
X359766250Y-217215000D01*
X359766250Y-221115000D02*
X357766250Y-221115000D01*
X357766250Y-221115000D02*
X357766250Y-217215000D01*
X312141250Y-202065000D02*
X312141250Y-198165000D01*
X312141250Y-202065000D02*
X310141250Y-202065000D01*
X310141250Y-202065000D02*
X310141250Y-198165000D01*
X450253750Y-183015000D02*
X450253750Y-179115000D01*
X450253750Y-183015000D02*
X448253750Y-183015000D01*
X448253750Y-183015000D02*
X448253750Y-179115000D01*
X101891500Y-202065000D02*
X101891500Y-198165000D01*
X101891500Y-202065000D02*
X99891500Y-202065000D01*
X99891500Y-202065000D02*
X99891500Y-198165000D01*
X182854000Y-221115000D02*
X182854000Y-217215000D01*
X182854000Y-221115000D02*
X180854000Y-221115000D01*
X180854000Y-221115000D02*
X180854000Y-217215000D01*
X383578750Y-183015000D02*
X383578750Y-179115000D01*
X383578750Y-183015000D02*
X381578750Y-183015000D01*
X381578750Y-183015000D02*
X381578750Y-179115000D01*
X502379000Y-183015000D02*
X502379000Y-179115000D01*
X502379000Y-183015000D02*
X500379000Y-183015000D01*
X500379000Y-183015000D02*
X500379000Y-179115000D01*
X331191250Y-202065000D02*
X331191250Y-198165000D01*
X331191250Y-202065000D02*
X329191250Y-202065000D01*
X329191250Y-202065000D02*
X329191250Y-198165000D01*
X106654000Y-221115000D02*
X106654000Y-217215000D01*
X106654000Y-221115000D02*
X104654000Y-221115000D01*
X104654000Y-221115000D02*
X104654000Y-217215000D01*
X187616500Y-183015000D02*
X187616500Y-179115000D01*
X187616500Y-183015000D02*
X185616500Y-183015000D01*
X185616500Y-183015000D02*
X185616500Y-179115000D01*
X393103750Y-163965000D02*
X393103750Y-160065000D01*
X393103750Y-163965000D02*
X391103750Y-163965000D01*
X391103750Y-163965000D02*
X391103750Y-160065000D01*
X268341500Y-202040000D02*
X268341500Y-198140000D01*
X268341500Y-202040000D02*
X266341500Y-202040000D01*
X266341500Y-202040000D02*
X266341500Y-198140000D01*
X220954000Y-221115000D02*
X220954000Y-217215000D01*
X220954000Y-221115000D02*
X218954000Y-221115000D01*
X218954000Y-221115000D02*
X218954000Y-217215000D01*
X316903750Y-163965000D02*
X316903750Y-160065000D01*
X316903750Y-163965000D02*
X314903750Y-163965000D01*
X314903750Y-163965000D02*
X314903750Y-160065000D01*
X206666500Y-183015000D02*
X206666500Y-179115000D01*
X206666500Y-183015000D02*
X204666500Y-183015000D01*
X204666500Y-183015000D02*
X204666500Y-179115000D01*
X268341500Y-240140000D02*
X268341500Y-236240000D01*
X268341500Y-240140000D02*
X266341500Y-240140000D01*
X266341500Y-240140000D02*
X266341500Y-236240000D01*
X507141500Y-202065000D02*
X507141500Y-198165000D01*
X507141500Y-202065000D02*
X505141500Y-202065000D01*
X505141500Y-202065000D02*
X505141500Y-198165000D01*
X277866500Y-221090000D02*
X277866500Y-217190000D01*
X277866500Y-221090000D02*
X275866500Y-221090000D01*
X275866500Y-221090000D02*
X275866500Y-217190000D01*
X374053750Y-240165000D02*
X374053750Y-236265000D01*
X374053750Y-240165000D02*
X372053750Y-240165000D01*
X372053750Y-240165000D02*
X372053750Y-236265000D01*
M02*
