G04 #@! TF.GenerationSoftware,KiCad,Pcbnew,8.0.1*
G04 #@! TF.CreationDate,2024-04-01T00:03:47+00:00*
G04 #@! TF.ProjectId,SplitSync,53706c69-7453-4796-9e63-2e6b69636164,rev?*
G04 #@! TF.SameCoordinates,Original*
G04 #@! TF.FileFunction,Soldermask,Bot*
G04 #@! TF.FilePolarity,Negative*
%FSLAX46Y46*%
G04 Gerber Fmt 4.6, Leading zero omitted, Abs format (unit mm)*
G04 Created by KiCad (PCBNEW 8.0.1) date 2024-04-01 00:03:47*
%MOMM*%
%LPD*%
G01*
G04 APERTURE LIST*
G04 Aperture macros list*
%AMRoundRect*
0 Rectangle with rounded corners*
0 $1 Rounding radius*
0 $2 $3 $4 $5 $6 $7 $8 $9 X,Y pos of 4 corners*
0 Add a 4 corners polygon primitive as box body*
4,1,4,$2,$3,$4,$5,$6,$7,$8,$9,$2,$3,0*
0 Add four circle primitives for the rounded corners*
1,1,$1+$1,$2,$3*
1,1,$1+$1,$4,$5*
1,1,$1+$1,$6,$7*
1,1,$1+$1,$8,$9*
0 Add four rect primitives between the rounded corners*
20,1,$1+$1,$2,$3,$4,$5,0*
20,1,$1+$1,$4,$5,$6,$7,0*
20,1,$1+$1,$6,$7,$8,$9,0*
20,1,$1+$1,$8,$9,$2,$3,0*%
G04 Aperture macros list end*
%ADD10C,3.987800*%
%ADD11C,3.048000*%
%ADD12RoundRect,0.250000X-1.025000X-1.000000X1.025000X-1.000000X1.025000X1.000000X-1.025000X1.000000X0*%
%ADD13C,1.750000*%
%ADD14C,4.000000*%
%ADD15C,3.600000*%
%ADD16C,2.200000*%
%ADD17O,1.600000X2.000000*%
%ADD18C,0.800000*%
%ADD19O,2.500000X1.500000*%
%ADD20O,1.500000X2.500000*%
%ADD21R,1.200000X0.900000*%
G04 APERTURE END LIST*
D10*
X259366500Y-239265000D03*
X221266500Y-239265000D03*
D11*
X259366500Y-224055000D03*
X221266500Y-224055000D03*
D12*
X424431250Y-152300000D03*
D13*
X426436250Y-154840000D03*
D14*
X431516250Y-154840000D03*
D13*
X436596250Y-154840000D03*
D12*
X437358250Y-149760000D03*
D15*
X427706250Y-152300000D03*
X434056250Y-149760000D03*
D16*
X263716250Y-132840000D03*
X303716250Y-134440000D03*
X423916250Y-167240000D03*
X478739804Y-393251069D03*
X377016250Y-111340000D03*
X311116250Y-183240000D03*
X478739804Y-393251069D03*
X474516250Y-135240000D03*
X401916250Y-207040000D03*
X506116250Y-241440000D03*
X308716250Y-231440000D03*
X187916250Y-165440000D03*
X266316250Y-184440000D03*
D10*
X443454250Y-163065000D03*
X419578250Y-163065000D03*
D11*
X443454250Y-147855000D03*
X419578250Y-147855000D03*
D10*
X441073000Y-201165000D03*
X417197000Y-201165000D03*
D11*
X441073000Y-185955000D03*
X417197000Y-185955000D03*
D10*
X436310500Y-220215000D03*
X412434500Y-220215000D03*
D11*
X436310500Y-205005000D03*
X412434500Y-205005000D03*
D16*
X255991500Y-231660000D03*
D10*
X173673250Y-220215000D03*
X149797250Y-220215000D03*
D11*
X173673250Y-205005000D03*
X149797250Y-205005000D03*
D10*
X341028750Y-239265000D03*
X302928750Y-239265000D03*
D11*
X341028750Y-224055000D03*
X302928750Y-224055000D03*
D16*
X181735250Y-208390000D03*
X86692696Y-239451069D03*
X115092696Y-132251069D03*
X213516250Y-110090000D03*
D15*
X438818750Y-225960000D03*
X432468750Y-228500000D03*
D12*
X442120750Y-225960000D03*
D13*
X441358750Y-231040000D03*
D14*
X436278750Y-231040000D03*
D13*
X431198750Y-231040000D03*
D12*
X429193750Y-228500000D03*
D15*
X412625000Y-225960000D03*
X406275000Y-228500000D03*
D12*
X415927000Y-225960000D03*
D13*
X415165000Y-231040000D03*
D14*
X410085000Y-231040000D03*
D13*
X405005000Y-231040000D03*
D12*
X403000000Y-228500000D03*
D15*
X388812500Y-225960000D03*
X382462500Y-228500000D03*
D12*
X392114500Y-225960000D03*
D13*
X391352500Y-231040000D03*
D14*
X386272500Y-231040000D03*
D13*
X381192500Y-231040000D03*
D12*
X379187500Y-228500000D03*
D15*
X365000000Y-225960000D03*
X358650000Y-228500000D03*
D12*
X368302000Y-225960000D03*
D13*
X367540000Y-231040000D03*
D14*
X362460000Y-231040000D03*
D13*
X357380000Y-231040000D03*
D12*
X355375000Y-228500000D03*
D15*
X324518750Y-225960000D03*
X318168750Y-228500000D03*
D12*
X327820750Y-225960000D03*
D13*
X327058750Y-231040000D03*
D14*
X321978750Y-231040000D03*
D13*
X316898750Y-231040000D03*
D12*
X314893750Y-228500000D03*
D15*
X242856500Y-225960000D03*
X236506500Y-228500000D03*
D12*
X246158500Y-225960000D03*
D13*
X245396500Y-231040000D03*
D14*
X240316500Y-231040000D03*
D13*
X235236500Y-231040000D03*
D12*
X233231500Y-228500000D03*
D15*
X202375250Y-225960000D03*
X196025250Y-228500000D03*
D12*
X205677250Y-225960000D03*
D13*
X204915250Y-231040000D03*
D14*
X199835250Y-231040000D03*
D13*
X194755250Y-231040000D03*
D12*
X192750250Y-228500000D03*
D15*
X178562750Y-225960000D03*
X172212750Y-228500000D03*
D12*
X181864750Y-225960000D03*
D13*
X181102750Y-231040000D03*
D14*
X176022750Y-231040000D03*
D13*
X170942750Y-231040000D03*
D12*
X168937750Y-228500000D03*
D15*
X154750250Y-225960000D03*
X148400250Y-228500000D03*
D12*
X158052250Y-225960000D03*
D13*
X157290250Y-231040000D03*
D14*
X152210250Y-231040000D03*
D13*
X147130250Y-231040000D03*
D12*
X145125250Y-228500000D03*
D15*
X426912500Y-206910000D03*
X420562500Y-209450000D03*
D12*
X430214500Y-206910000D03*
D13*
X429452500Y-211990000D03*
D14*
X424372500Y-211990000D03*
D13*
X419292500Y-211990000D03*
D12*
X417287500Y-209450000D03*
D15*
X164275250Y-206910000D03*
X157925250Y-209450000D03*
D12*
X167577250Y-206910000D03*
D13*
X166815250Y-211990000D03*
D14*
X161735250Y-211990000D03*
D13*
X156655250Y-211990000D03*
D12*
X154650250Y-209450000D03*
D15*
X431675000Y-187860000D03*
X425325000Y-190400000D03*
D12*
X434977000Y-187860000D03*
D13*
X434215000Y-192940000D03*
D14*
X429135000Y-192940000D03*
D13*
X424055000Y-192940000D03*
D12*
X422050000Y-190400000D03*
D15*
X159512750Y-187860000D03*
X153162750Y-190400000D03*
D12*
X162814750Y-187860000D03*
D13*
X162052750Y-192940000D03*
D14*
X156972750Y-192940000D03*
D13*
X151892750Y-192940000D03*
D12*
X149887750Y-190400000D03*
D15*
X438818750Y-168810000D03*
X432468750Y-171350000D03*
D12*
X442120750Y-168810000D03*
D13*
X441358750Y-173890000D03*
D14*
X436278750Y-173890000D03*
D13*
X431198750Y-173890000D03*
D12*
X429193750Y-171350000D03*
D15*
X157131500Y-168810000D03*
X150781500Y-171350000D03*
D12*
X160433500Y-168810000D03*
D13*
X159671500Y-173890000D03*
D14*
X154591500Y-173890000D03*
D13*
X149511500Y-173890000D03*
D12*
X147506500Y-171350000D03*
D15*
X491206250Y-225960000D03*
X484856250Y-228500000D03*
D12*
X494508250Y-225960000D03*
D13*
X493746250Y-231040000D03*
D14*
X488666250Y-231040000D03*
D13*
X483586250Y-231040000D03*
D12*
X481581250Y-228500000D03*
D15*
X472156250Y-225960000D03*
X465806250Y-228500000D03*
D12*
X475458250Y-225960000D03*
D13*
X474696250Y-231040000D03*
D14*
X469616250Y-231040000D03*
D13*
X464536250Y-231040000D03*
D12*
X462531250Y-228500000D03*
D15*
X123794000Y-225960000D03*
X117444000Y-228500000D03*
D12*
X127096000Y-225960000D03*
D13*
X126334000Y-231040000D03*
D14*
X121254000Y-231040000D03*
D13*
X116174000Y-231040000D03*
D12*
X114169000Y-228500000D03*
D15*
X104744000Y-225960000D03*
X98394000Y-228500000D03*
D12*
X108046000Y-225960000D03*
D13*
X107284000Y-231040000D03*
D14*
X102204000Y-231040000D03*
D13*
X97124000Y-231040000D03*
D12*
X95119000Y-228500000D03*
D15*
X495968750Y-206910000D03*
X489618750Y-209450000D03*
D12*
X499270750Y-206910000D03*
D13*
X498508750Y-211990000D03*
D14*
X493428750Y-211990000D03*
D13*
X488348750Y-211990000D03*
D12*
X486343750Y-209450000D03*
D15*
X476918750Y-206910000D03*
X470568750Y-209450000D03*
D12*
X480220750Y-206910000D03*
D13*
X479458750Y-211990000D03*
D14*
X474378750Y-211990000D03*
D13*
X469298750Y-211990000D03*
D12*
X467293750Y-209450000D03*
D15*
X391193750Y-206910000D03*
X384843750Y-209450000D03*
D12*
X394495750Y-206910000D03*
D13*
X393733750Y-211990000D03*
D14*
X388653750Y-211990000D03*
D13*
X383573750Y-211990000D03*
D12*
X381568750Y-209450000D03*
D15*
X372143750Y-206910000D03*
X365793750Y-209450000D03*
D12*
X375445750Y-206910000D03*
D13*
X374683750Y-211990000D03*
D14*
X369603750Y-211990000D03*
D13*
X364523750Y-211990000D03*
D12*
X362518750Y-209450000D03*
D15*
X353093750Y-206910000D03*
X346743750Y-209450000D03*
D12*
X356395750Y-206910000D03*
D13*
X355633750Y-211990000D03*
D14*
X350553750Y-211990000D03*
D13*
X345473750Y-211990000D03*
D12*
X343468750Y-209450000D03*
D15*
X334043750Y-206910000D03*
X327693750Y-209450000D03*
D12*
X337345750Y-206910000D03*
D13*
X336583750Y-211990000D03*
D14*
X331503750Y-211990000D03*
D13*
X326423750Y-211990000D03*
D12*
X324418750Y-209450000D03*
D15*
X314993750Y-206910000D03*
X308643750Y-209450000D03*
D12*
X318295750Y-206910000D03*
D13*
X317533750Y-211990000D03*
D14*
X312453750Y-211990000D03*
D13*
X307373750Y-211990000D03*
D12*
X305368750Y-209450000D03*
D15*
X271431500Y-206910000D03*
X265081500Y-209450000D03*
D12*
X274733500Y-206910000D03*
D13*
X273971500Y-211990000D03*
D14*
X268891500Y-211990000D03*
D13*
X263811500Y-211990000D03*
D12*
X261806500Y-209450000D03*
D15*
X252381500Y-206910000D03*
X246031500Y-209450000D03*
D12*
X255683500Y-206910000D03*
D13*
X254921500Y-211990000D03*
D14*
X249841500Y-211990000D03*
D13*
X244761500Y-211990000D03*
D12*
X242756500Y-209450000D03*
D15*
X233331500Y-206910000D03*
X226981500Y-209450000D03*
D12*
X236633500Y-206910000D03*
D13*
X235871500Y-211990000D03*
D14*
X230791500Y-211990000D03*
D13*
X225711500Y-211990000D03*
D12*
X223706500Y-209450000D03*
D15*
X214281500Y-206910000D03*
X207931500Y-209450000D03*
D12*
X217583500Y-206910000D03*
D13*
X216821500Y-211990000D03*
D14*
X211741500Y-211990000D03*
D13*
X206661500Y-211990000D03*
D12*
X204656500Y-209450000D03*
D15*
X195231500Y-206910000D03*
X188881500Y-209450000D03*
D12*
X198533500Y-206910000D03*
D13*
X197771500Y-211990000D03*
D14*
X192691500Y-211990000D03*
D13*
X187611500Y-211990000D03*
D12*
X185606500Y-209450000D03*
D15*
X119031500Y-206910000D03*
X112681500Y-209450000D03*
D12*
X122333500Y-206910000D03*
D13*
X121571500Y-211990000D03*
D14*
X116491500Y-211990000D03*
D13*
X111411500Y-211990000D03*
D12*
X109406500Y-209450000D03*
D15*
X99981500Y-206910000D03*
X93631500Y-209450000D03*
D12*
X103283500Y-206910000D03*
D13*
X102521500Y-211990000D03*
D14*
X97441500Y-211990000D03*
D13*
X92361500Y-211990000D03*
D12*
X90356500Y-209450000D03*
D15*
X500731250Y-187860000D03*
X494381250Y-190400000D03*
D12*
X504033250Y-187860000D03*
D13*
X503271250Y-192940000D03*
D14*
X498191250Y-192940000D03*
D13*
X493111250Y-192940000D03*
D12*
X491106250Y-190400000D03*
D15*
X481681250Y-187860000D03*
X475331250Y-190400000D03*
D12*
X484983250Y-187860000D03*
D13*
X484221250Y-192940000D03*
D14*
X479141250Y-192940000D03*
D13*
X474061250Y-192940000D03*
D12*
X472056250Y-190400000D03*
D15*
X400718750Y-187860000D03*
X394368750Y-190400000D03*
D12*
X404020750Y-187860000D03*
D13*
X403258750Y-192940000D03*
D14*
X398178750Y-192940000D03*
D13*
X393098750Y-192940000D03*
D12*
X391093750Y-190400000D03*
D15*
X381668750Y-187860000D03*
X375318750Y-190400000D03*
D12*
X384970750Y-187860000D03*
D13*
X384208750Y-192940000D03*
D14*
X379128750Y-192940000D03*
D13*
X374048750Y-192940000D03*
D12*
X372043750Y-190400000D03*
D15*
X362618750Y-187860000D03*
X356268750Y-190400000D03*
D12*
X365920750Y-187860000D03*
D13*
X365158750Y-192940000D03*
D14*
X360078750Y-192940000D03*
D13*
X354998750Y-192940000D03*
D12*
X352993750Y-190400000D03*
D15*
X343568750Y-187860000D03*
X337218750Y-190400000D03*
D12*
X346870750Y-187860000D03*
D13*
X346108750Y-192940000D03*
D14*
X341028750Y-192940000D03*
D13*
X335948750Y-192940000D03*
D12*
X333943750Y-190400000D03*
D15*
X324518750Y-187860000D03*
X318168750Y-190400000D03*
D12*
X327820750Y-187860000D03*
D13*
X327058750Y-192940000D03*
D14*
X321978750Y-192940000D03*
D13*
X316898750Y-192940000D03*
D12*
X314893750Y-190400000D03*
D15*
X305468750Y-187860000D03*
X299118750Y-190400000D03*
D12*
X308770750Y-187860000D03*
D13*
X308008750Y-192940000D03*
D14*
X302928750Y-192940000D03*
D13*
X297848750Y-192940000D03*
D12*
X295843750Y-190400000D03*
D15*
X261906500Y-187860000D03*
X255556500Y-190400000D03*
D12*
X265208500Y-187860000D03*
D13*
X264446500Y-192940000D03*
D14*
X259366500Y-192940000D03*
D13*
X254286500Y-192940000D03*
D12*
X252281500Y-190400000D03*
D15*
X242856500Y-187860000D03*
X236506500Y-190400000D03*
D12*
X246158500Y-187860000D03*
D13*
X245396500Y-192940000D03*
D14*
X240316500Y-192940000D03*
D13*
X235236500Y-192940000D03*
D12*
X233231500Y-190400000D03*
D15*
X223806500Y-187860000D03*
X217456500Y-190400000D03*
D12*
X227108500Y-187860000D03*
D13*
X226346500Y-192940000D03*
D14*
X221266500Y-192940000D03*
D13*
X216186500Y-192940000D03*
D12*
X214181500Y-190400000D03*
D15*
X204756500Y-187860000D03*
X198406500Y-190400000D03*
D12*
X208058500Y-187860000D03*
D13*
X207296500Y-192940000D03*
D14*
X202216500Y-192940000D03*
D13*
X197136500Y-192940000D03*
D12*
X195131500Y-190400000D03*
D15*
X185706500Y-187860000D03*
X179356500Y-190400000D03*
D12*
X189008500Y-187860000D03*
D13*
X188246500Y-192940000D03*
D14*
X183166500Y-192940000D03*
D13*
X178086500Y-192940000D03*
D12*
X176081500Y-190400000D03*
D15*
X114269000Y-187860000D03*
X107919000Y-190400000D03*
D12*
X117571000Y-187860000D03*
D13*
X116809000Y-192940000D03*
D14*
X111729000Y-192940000D03*
D13*
X106649000Y-192940000D03*
D12*
X104644000Y-190400000D03*
D15*
X95219000Y-187860000D03*
X88869000Y-190400000D03*
D12*
X98521000Y-187860000D03*
D13*
X97759000Y-192940000D03*
D14*
X92679000Y-192940000D03*
D13*
X87599000Y-192940000D03*
D12*
X85594000Y-190400000D03*
D15*
X495968750Y-168810000D03*
X489618750Y-171350000D03*
D12*
X499270750Y-168810000D03*
D13*
X498508750Y-173890000D03*
D14*
X493428750Y-173890000D03*
D13*
X488348750Y-173890000D03*
D12*
X486343750Y-171350000D03*
D15*
X476918750Y-168810000D03*
X470568750Y-171350000D03*
D12*
X480220750Y-168810000D03*
D13*
X479458750Y-173890000D03*
D14*
X474378750Y-173890000D03*
D13*
X469298750Y-173890000D03*
D12*
X467293750Y-171350000D03*
D15*
X415006250Y-168810000D03*
X408656250Y-171350000D03*
D12*
X418308250Y-168810000D03*
D13*
X417546250Y-173890000D03*
D14*
X412466250Y-173890000D03*
D13*
X407386250Y-173890000D03*
D12*
X405381250Y-171350000D03*
D15*
X395956250Y-168810000D03*
X389606250Y-171350000D03*
D12*
X399258250Y-168810000D03*
D13*
X398496250Y-173890000D03*
D14*
X393416250Y-173890000D03*
D13*
X388336250Y-173890000D03*
D12*
X386331250Y-171350000D03*
D15*
X376906250Y-168810000D03*
X370556250Y-171350000D03*
D12*
X380208250Y-168810000D03*
D13*
X379446250Y-173890000D03*
D14*
X374366250Y-173890000D03*
D13*
X369286250Y-173890000D03*
D12*
X367281250Y-171350000D03*
D15*
X357856250Y-168810000D03*
X351506250Y-171350000D03*
D12*
X361158250Y-168810000D03*
D13*
X360396250Y-173890000D03*
D14*
X355316250Y-173890000D03*
D13*
X350236250Y-173890000D03*
D12*
X348231250Y-171350000D03*
D15*
X338806250Y-168810000D03*
X332456250Y-171350000D03*
D12*
X342108250Y-168810000D03*
D13*
X341346250Y-173890000D03*
D14*
X336266250Y-173890000D03*
D13*
X331186250Y-173890000D03*
D12*
X329181250Y-171350000D03*
D15*
X319756250Y-168810000D03*
X313406250Y-171350000D03*
D12*
X323058250Y-168810000D03*
D13*
X322296250Y-173890000D03*
D14*
X317216250Y-173890000D03*
D13*
X312136250Y-173890000D03*
D12*
X310131250Y-171350000D03*
D15*
X276194000Y-168810000D03*
X269844000Y-171350000D03*
D12*
X279496000Y-168810000D03*
D13*
X278734000Y-173890000D03*
D14*
X273654000Y-173890000D03*
D13*
X268574000Y-173890000D03*
D12*
X266569000Y-171350000D03*
D15*
X257144000Y-168810000D03*
X250794000Y-171350000D03*
D12*
X260446000Y-168810000D03*
D13*
X259684000Y-173890000D03*
D14*
X254604000Y-173890000D03*
D13*
X249524000Y-173890000D03*
D12*
X247519000Y-171350000D03*
D15*
X238094000Y-168810000D03*
X231744000Y-171350000D03*
D12*
X241396000Y-168810000D03*
D13*
X240634000Y-173890000D03*
D14*
X235554000Y-173890000D03*
D13*
X230474000Y-173890000D03*
D12*
X228469000Y-171350000D03*
D15*
X219044000Y-168810000D03*
X212694000Y-171350000D03*
D12*
X222346000Y-168810000D03*
D13*
X221584000Y-173890000D03*
D14*
X216504000Y-173890000D03*
D13*
X211424000Y-173890000D03*
D12*
X209419000Y-171350000D03*
D15*
X199994000Y-168810000D03*
X193644000Y-171350000D03*
D12*
X203296000Y-168810000D03*
D13*
X202534000Y-173890000D03*
D14*
X197454000Y-173890000D03*
D13*
X192374000Y-173890000D03*
D12*
X190369000Y-171350000D03*
D15*
X180944000Y-168810000D03*
X174594000Y-171350000D03*
D12*
X184246000Y-168810000D03*
D13*
X183484000Y-173890000D03*
D14*
X178404000Y-173890000D03*
D13*
X173324000Y-173890000D03*
D12*
X171319000Y-171350000D03*
D15*
X119031500Y-168810000D03*
X112681500Y-171350000D03*
D12*
X122333500Y-168810000D03*
D13*
X121571500Y-173890000D03*
D14*
X116491500Y-173890000D03*
D13*
X111411500Y-173890000D03*
D12*
X109406500Y-171350000D03*
D15*
X99981500Y-168810000D03*
X93631500Y-171350000D03*
D12*
X103283500Y-168810000D03*
D13*
X102521500Y-173890000D03*
D14*
X97441500Y-173890000D03*
D13*
X92361500Y-173890000D03*
D12*
X90356500Y-171350000D03*
D15*
X491206250Y-149760000D03*
X484856250Y-152300000D03*
D12*
X494508250Y-149760000D03*
D13*
X493746250Y-154840000D03*
D14*
X488666250Y-154840000D03*
D13*
X483586250Y-154840000D03*
D12*
X481581250Y-152300000D03*
D15*
X472156250Y-149760000D03*
X465806250Y-152300000D03*
D12*
X475458250Y-149760000D03*
D13*
X474696250Y-154840000D03*
D14*
X469616250Y-154840000D03*
D13*
X464536250Y-154840000D03*
D12*
X462531250Y-152300000D03*
D15*
X405481250Y-149760000D03*
X399131250Y-152300000D03*
D12*
X408783250Y-149760000D03*
D13*
X408021250Y-154840000D03*
D14*
X402941250Y-154840000D03*
D13*
X397861250Y-154840000D03*
D12*
X395856250Y-152300000D03*
D15*
X386431250Y-149760000D03*
X380081250Y-152300000D03*
D12*
X389733250Y-149760000D03*
D13*
X388971250Y-154840000D03*
D14*
X383891250Y-154840000D03*
D13*
X378811250Y-154840000D03*
D12*
X376806250Y-152300000D03*
D15*
X367381250Y-149760000D03*
X361031250Y-152300000D03*
D12*
X370683250Y-149760000D03*
D13*
X369921250Y-154840000D03*
D14*
X364841250Y-154840000D03*
D13*
X359761250Y-154840000D03*
D12*
X357756250Y-152300000D03*
D15*
X348331250Y-149760000D03*
X341981250Y-152300000D03*
D12*
X351633250Y-149760000D03*
D13*
X350871250Y-154840000D03*
D14*
X345791250Y-154840000D03*
D13*
X340711250Y-154840000D03*
D12*
X338706250Y-152300000D03*
D15*
X329281250Y-149760000D03*
X322931250Y-152300000D03*
D12*
X332583250Y-149760000D03*
D13*
X331821250Y-154840000D03*
D14*
X326741250Y-154840000D03*
D13*
X321661250Y-154840000D03*
D12*
X319656250Y-152300000D03*
D15*
X310231250Y-149760000D03*
X303881250Y-152300000D03*
D12*
X313533250Y-149760000D03*
D13*
X312771250Y-154840000D03*
D14*
X307691250Y-154840000D03*
D13*
X302611250Y-154840000D03*
D12*
X300606250Y-152300000D03*
D15*
X266669000Y-149760000D03*
X260319000Y-152300000D03*
D12*
X269971000Y-149760000D03*
D13*
X269209000Y-154840000D03*
D14*
X264129000Y-154840000D03*
D13*
X259049000Y-154840000D03*
D12*
X257044000Y-152300000D03*
D15*
X247619000Y-149760000D03*
X241269000Y-152300000D03*
D12*
X250921000Y-149760000D03*
D13*
X250159000Y-154840000D03*
D14*
X245079000Y-154840000D03*
D13*
X239999000Y-154840000D03*
D12*
X237994000Y-152300000D03*
D15*
X228569000Y-149760000D03*
X222219000Y-152300000D03*
D12*
X231871000Y-149760000D03*
D13*
X231109000Y-154840000D03*
D14*
X226029000Y-154840000D03*
D13*
X220949000Y-154840000D03*
D12*
X218944000Y-152300000D03*
D15*
X209519000Y-149760000D03*
X203169000Y-152300000D03*
D12*
X212821000Y-149760000D03*
D13*
X212059000Y-154840000D03*
D14*
X206979000Y-154840000D03*
D13*
X201899000Y-154840000D03*
D12*
X199894000Y-152300000D03*
D15*
X190469000Y-149760000D03*
X184119000Y-152300000D03*
D12*
X193771000Y-149760000D03*
D13*
X193009000Y-154840000D03*
D14*
X187929000Y-154840000D03*
D13*
X182849000Y-154840000D03*
D12*
X180844000Y-152300000D03*
D15*
X171419000Y-149760000D03*
X165069000Y-152300000D03*
D12*
X174721000Y-149760000D03*
D13*
X173959000Y-154840000D03*
D14*
X168879000Y-154840000D03*
D13*
X163799000Y-154840000D03*
D12*
X161794000Y-152300000D03*
D15*
X152369000Y-149760000D03*
X146019000Y-152300000D03*
D12*
X155671000Y-149760000D03*
D13*
X154909000Y-154840000D03*
D14*
X149829000Y-154840000D03*
D13*
X144749000Y-154840000D03*
D12*
X142744000Y-152300000D03*
D15*
X123794000Y-149760000D03*
X117444000Y-152300000D03*
D12*
X127096000Y-149760000D03*
D13*
X126334000Y-154840000D03*
D14*
X121254000Y-154840000D03*
D13*
X116174000Y-154840000D03*
D12*
X114169000Y-152300000D03*
D15*
X104744000Y-149760000D03*
X98394000Y-152300000D03*
D12*
X108046000Y-149760000D03*
D13*
X107284000Y-154840000D03*
D14*
X102204000Y-154840000D03*
D13*
X97124000Y-154840000D03*
D12*
X95119000Y-152300000D03*
D17*
X310976938Y-107652500D03*
X310976938Y-110652500D03*
X310976938Y-114652500D03*
X306376938Y-115752500D03*
D18*
X308676938Y-113052500D03*
X308676938Y-106052500D03*
D17*
X265417446Y-107565000D03*
X265417446Y-110565000D03*
X265417446Y-114565000D03*
X260817446Y-115665000D03*
D18*
X263117446Y-112965000D03*
X263117446Y-105965000D03*
D19*
X432032696Y-104131069D03*
X432032696Y-106671069D03*
X432032696Y-109211069D03*
X432032696Y-111751069D03*
X432032696Y-114291069D03*
X432032696Y-116831069D03*
X432032696Y-119371069D03*
X432032696Y-121911069D03*
X432032696Y-124451069D03*
D20*
X435072696Y-124951069D03*
X437612696Y-124951069D03*
X440152696Y-124951069D03*
X442692696Y-124951069D03*
X445232696Y-124951069D03*
D19*
X448272696Y-124451069D03*
X448272696Y-121911069D03*
X448272696Y-119371069D03*
X448272696Y-116831069D03*
X448272696Y-114291069D03*
X448272696Y-111751069D03*
X448272696Y-109211069D03*
X448272696Y-106671069D03*
X448272696Y-104131069D03*
X158049000Y-104291069D03*
X158049000Y-106831069D03*
X158049000Y-109371069D03*
X158049000Y-111911069D03*
X158049000Y-114451069D03*
X158049000Y-116991069D03*
X158049000Y-119531069D03*
X158049000Y-122071069D03*
X158049000Y-124611069D03*
D20*
X155009000Y-125111069D03*
X152469000Y-125111069D03*
X149929000Y-125111069D03*
X147389000Y-125111069D03*
X144849000Y-125111069D03*
D19*
X141809000Y-124611069D03*
X141809000Y-122071069D03*
X141809000Y-119531069D03*
X141809000Y-116991069D03*
X141809000Y-114451069D03*
X141809000Y-111911069D03*
X141809000Y-109371069D03*
X141809000Y-106831069D03*
X141809000Y-104291069D03*
D21*
X401628750Y-179115000D03*
X401628750Y-182415000D03*
X158041500Y-160065000D03*
X158041500Y-163365000D03*
X344478750Y-179115000D03*
X344478750Y-182415000D03*
X105654000Y-179115000D03*
X105654000Y-182415000D03*
X373053750Y-160065000D03*
X373053750Y-163365000D03*
X124704000Y-217215000D03*
X124704000Y-220515000D03*
X363528750Y-179115000D03*
X363528750Y-182415000D03*
X110416500Y-160065000D03*
X110416500Y-163365000D03*
X449253750Y-217215000D03*
X449253750Y-220515000D03*
X210429000Y-198165000D03*
X210429000Y-201465000D03*
X420678750Y-236265000D03*
X420678750Y-239565000D03*
X248529000Y-198165000D03*
X248529000Y-201465000D03*
X281629000Y-179090000D03*
X281629000Y-182390000D03*
X406391250Y-198165000D03*
X406391250Y-201465000D03*
X110416500Y-236265000D03*
X110416500Y-239565000D03*
X196141500Y-160065000D03*
X196141500Y-163365000D03*
X449253750Y-198165000D03*
X449253750Y-201465000D03*
X349241250Y-236265000D03*
X349241250Y-239565000D03*
X186616500Y-236265000D03*
X186616500Y-239565000D03*
X234241500Y-160065000D03*
X234241500Y-163365000D03*
X243766500Y-179115000D03*
X243766500Y-182415000D03*
X210429000Y-236265000D03*
X210429000Y-239565000D03*
X478279000Y-163565000D03*
X478279000Y-160265000D03*
X167566500Y-179115000D03*
X167566500Y-182415000D03*
X377816250Y-217215000D03*
X377816250Y-220515000D03*
X339716250Y-217215000D03*
X339716250Y-220515000D03*
X124704000Y-179115000D03*
X124704000Y-182415000D03*
X172329000Y-198165000D03*
X172329000Y-201465000D03*
X258054000Y-217215000D03*
X258054000Y-220515000D03*
X396866250Y-217215000D03*
X396866250Y-220515000D03*
X272104000Y-160040000D03*
X272104000Y-163340000D03*
X229479000Y-198165000D03*
X229479000Y-201465000D03*
X497066750Y-163565000D03*
X497066750Y-160265000D03*
X411153750Y-160065000D03*
X411153750Y-163365000D03*
X349241250Y-198165000D03*
X349241250Y-201465000D03*
X191379000Y-198165000D03*
X191379000Y-201465000D03*
X482591250Y-179115000D03*
X482591250Y-182415000D03*
X177091500Y-160065000D03*
X177091500Y-163365000D03*
X119941500Y-198165000D03*
X119941500Y-201465000D03*
X449253750Y-236265000D03*
X449253750Y-239565000D03*
X129466500Y-160065000D03*
X129466500Y-163365000D03*
X354003750Y-160065000D03*
X354003750Y-163365000D03*
X420678750Y-179115000D03*
X420678750Y-182415000D03*
X239004000Y-217215000D03*
X239004000Y-220515000D03*
X262816500Y-179115000D03*
X262816500Y-182415000D03*
X477828750Y-236265000D03*
X477828750Y-239565000D03*
X387341250Y-198165000D03*
X387341250Y-201465000D03*
X215191500Y-160065000D03*
X215191500Y-163365000D03*
X496616500Y-236265000D03*
X496616500Y-239565000D03*
X253291500Y-160065000D03*
X253291500Y-163365000D03*
X320666250Y-217215000D03*
X320666250Y-220515000D03*
X368291250Y-198165000D03*
X368291250Y-201465000D03*
X200904000Y-217215000D03*
X200904000Y-220515000D03*
X334953750Y-160065000D03*
X334953750Y-163365000D03*
X449253750Y-160065000D03*
X449253750Y-163365000D03*
X487353750Y-198165000D03*
X487353750Y-201465000D03*
X482591250Y-217215000D03*
X482591250Y-220515000D03*
X162804000Y-236265000D03*
X162804000Y-239565000D03*
X129466500Y-236265000D03*
X129466500Y-239565000D03*
X501379000Y-217215000D03*
X501379000Y-220515000D03*
X325428750Y-179115000D03*
X325428750Y-182415000D03*
X396866250Y-236265000D03*
X396866250Y-239565000D03*
X224716500Y-179115000D03*
X224716500Y-182415000D03*
X358766250Y-217215000D03*
X358766250Y-220515000D03*
X311141250Y-198165000D03*
X311141250Y-201465000D03*
X449253750Y-179115000D03*
X449253750Y-182415000D03*
X100891500Y-198165000D03*
X100891500Y-201465000D03*
X181854000Y-217215000D03*
X181854000Y-220515000D03*
X382578750Y-179115000D03*
X382578750Y-182415000D03*
X501379000Y-179115000D03*
X501379000Y-182415000D03*
X330191250Y-198165000D03*
X330191250Y-201465000D03*
X105654000Y-217215000D03*
X105654000Y-220515000D03*
X186616500Y-179115000D03*
X186616500Y-182415000D03*
X392103750Y-160065000D03*
X392103750Y-163365000D03*
X267341500Y-198140000D03*
X267341500Y-201440000D03*
X219954000Y-217215000D03*
X219954000Y-220515000D03*
X315903750Y-160065000D03*
X315903750Y-163365000D03*
X205666500Y-179115000D03*
X205666500Y-182415000D03*
X267341500Y-236240000D03*
X267341500Y-239540000D03*
X506141500Y-198165000D03*
X506141500Y-201465000D03*
X276866500Y-217190000D03*
X276866500Y-220490000D03*
X373053750Y-236265000D03*
X373053750Y-239565000D03*
M02*
